<?xml version="1.0" encoding="UTF-8" standalone="no"?>
<!-- Created with Inkscape (http://www.inkscape.org/) -->

<svg
   xmlns:ns0="http://www.iki.fi/pav/software/textext/"
   xmlns:dc="http://purl.org/dc/elements/1.1/"
   xmlns:cc="http://creativecommons.org/ns#"
   xmlns:rdf="http://www.w3.org/1999/02/22-rdf-syntax-ns#"
   xmlns:svg="http://www.w3.org/2000/svg"
   xmlns="http://www.w3.org/2000/svg"
   xmlns:xlink="http://www.w3.org/1999/xlink"
   xmlns:sodipodi="http://sodipodi.sourceforge.net/DTD/sodipodi-0.dtd"
   xmlns:inkscape="http://www.inkscape.org/namespaces/inkscape"
   width="744.09448819"
   height="1052.3622047"
   id="svg2"
   sodipodi:version="0.32"
   inkscape:version="0.92.1 r"
   sodipodi:docname="section4_fig11.svg"
   version="1.1">
  <sodipodi:namedview
     id="base"
     pagecolor="#ffffff"
     bordercolor="#666666"
     borderopacity="1.0"
     gridtolerance="10000"
     guidetolerance="10"
     objecttolerance="10"
     inkscape:pageopacity="0.0"
     inkscape:pageshadow="2"
     inkscape:zoom="2.4018968"
     inkscape:cx="155.3417"
     inkscape:cy="857.45477"
     inkscape:document-units="px"
     inkscape:current-layer="layer1"
     inkscape:window-width="1272"
     inkscape:window-height="965"
     inkscape:window-x="0"
     inkscape:window-y="30"
     showgrid="false"
     inkscape:window-maximized="0" />
  <defs
     id="defs4">
    <marker
       inkscape:stockid="Arrow1Mstart"
       orient="auto"
       refY="0.0"
       refX="0.0"
       id="Arrow1Mstart"
       style="overflow:visible">
      <path
         id="path3814"
         d="M 0.0,0.0 L 5.0,-5.0 L -12.5,0.0 L 5.0,5.0 L 0.0,0.0 z "
         style="fill-rule:evenodd;stroke:#000000;stroke-width:1.0pt;marker-start:none"
         transform="scale(0.4) translate(10,0)" />
    </marker>
    <marker
       inkscape:stockid="Arrow1Mend"
       orient="auto"
       refY="0.0"
       refX="0.0"
       id="Arrow1Mend"
       style="overflow:visible;">
      <path
         id="path3811"
         d="M 0.0,0.0 L 5.0,-5.0 L -12.5,0.0 L 5.0,5.0 L 0.0,0.0 z "
         style="fill-rule:evenodd;stroke:#000000;stroke-width:1.0pt;marker-start:none;"
         transform="scale(0.4) rotate(180) translate(10,0)" />
    </marker>
    <marker
       inkscape:stockid="Arrow1Lend"
       orient="auto"
       refY="0.0"
       refX="0.0"
       id="Arrow1Lend"
       style="overflow:visible;">
      <path
         id="path3817"
         d="M 0.0,0.0 L 5.0,-5.0 L -12.5,0.0 L 5.0,5.0 L 0.0,0.0 z "
         style="fill-rule:evenodd;stroke:#000000;stroke-width:1.0pt;marker-start:none;"
         transform="scale(0.8) rotate(180) translate(12.5,0)" />
    </marker>
  </defs>
  <metadata
     id="metadata7">
    <rdf:RDF>
      <cc:Work
         rdf:about="">
        <dc:format>image/svg+xml</dc:format>
        <dc:type
           rdf:resource="http://purl.org/dc/dcmitype/StillImage" />
      </cc:Work>
    </rdf:RDF>
  </metadata>
  <g
     inkscape:label="Layer 1"
     inkscape:groupmode="layer"
     id="layer1">
    <rect
       style="opacity:1;fill:white;fill-opacity:1;stroke:none;stroke-width:1;stroke-miterlimit:4;stroke-dasharray:none;stroke-dashoffset:0;stroke-opacity:1"
       id="rect17001"
       width="68.005287"
       height="30.911493"
       x="53.138325"
       y="236.44598" />
    <path
       style="fill:none;fill-rule:evenodd;stroke:black;stroke-width:1px;stroke-linecap:butt;stroke-linejoin:miter;marker-start:url(#Arrow1Mstart);marker-mid:none;marker-end:none;stroke-opacity:1"
       d="M 191.87906,95.283489 C 191.87906,259.85039 191.87906,259.85039 191.87906,259.85039"
       id="path1872" />
    <path
       style="fill:none;fill-rule:evenodd;stroke:black;stroke-width:1px;stroke-linecap:butt;stroke-linejoin:miter;stroke-opacity:1;marker-end:url(#Arrow1Mend)"
       d="M 62.411776,251.90172 C 320.59634,251.90172 320.59634,251.90172 320.59634,251.90172"
       id="path1874" />
    <image
       sodipodi:absref="/home/heiner/mirepo/mi2/figures/svg/../png/standards/x_1.png"
       xlink:href="../png/standards/x_1.png"
       width="14.989908"
       height="13.62719"
       id="image18920"
       x="323.32553"
       y="245.60768" />
    <image
       sodipodi:absref="/home/heiner/mirepo/mi2/figures/svg/../png/standards/x_2.png"
       xlink:href="../png/standards/x_2.png"
       width="17.715347"
       height="14.308549"
       id="image19008"
       x="183.91258"
       y="78.423332" />
    <path
       style="fill:none;fill-rule:evenodd;stroke:black;stroke-width:1px;stroke-linecap:butt;stroke-linejoin:miter;stroke-opacity:1"
       d="M 73.009999,96.166675 C 206.07662,444.14177 299.39989,99.993813 299.39989,99.993813"
       id="path19084"
       sodipodi:nodetypes="cc" />
    <path
       sodipodi:type="arc"
       style="opacity:1;fill:black;fill-opacity:1;stroke:black;stroke-width:1;stroke-miterlimit:4;stroke-dasharray:none;stroke-dashoffset:0;stroke-opacity:1"
       id="path4728"
       sodipodi:cx="132.62503"
       sodipodi:cy="120.45428"
       sodipodi:rx="1.9135686"
       sodipodi:ry="1.9135686"
       d="M 134.5386 120.45428 A 1.9135686 1.9135686 0 1 1  130.71146,120.45428 A 1.9135686 1.9135686 0 1 1  134.5386 120.45428 z"
       transform="translate(157.943,-11.6286)" />
    <path
       sodipodi:type="arc"
       style="opacity:1;fill:black;fill-opacity:1;stroke:black;stroke-width:1;stroke-miterlimit:4;stroke-dasharray:none;stroke-dashoffset:0;stroke-opacity:1"
       id="path19398"
       sodipodi:cx="132.62503"
       sodipodi:cy="120.45428"
       sodipodi:rx="1.9135686"
       sodipodi:ry="1.9135686"
       d="M 134.5386 120.45428 A 1.9135686 1.9135686 0 1 1  130.71146,120.45428 A 1.9135686 1.9135686 0 1 1  134.5386 120.45428 z"
       transform="translate(162.0645,11.03982)" />
    <path
       sodipodi:type="arc"
       style="opacity:1;fill:black;fill-opacity:1;stroke:black;stroke-width:1;stroke-miterlimit:4;stroke-dasharray:none;stroke-dashoffset:0;stroke-opacity:1"
       id="path19400"
       sodipodi:cx="132.62503"
       sodipodi:cy="120.45428"
       sodipodi:rx="1.9135686"
       sodipodi:ry="1.9135686"
       d="M 134.5386 120.45428 A 1.9135686 1.9135686 0 1 1  130.71146,120.45428 A 1.9135686 1.9135686 0 1 1  134.5386 120.45428 z"
       transform="translate(145.5784,40.77374)" />
    <path
       sodipodi:type="arc"
       style="opacity:1;fill:black;fill-opacity:1;stroke:black;stroke-width:1;stroke-miterlimit:4;stroke-dasharray:none;stroke-dashoffset:0;stroke-opacity:1"
       id="path19402"
       sodipodi:cx="132.62503"
       sodipodi:cy="120.45428"
       sodipodi:rx="1.9135686"
       sodipodi:ry="1.9135686"
       d="M 134.5386 120.45428 A 1.9135686 1.9135686 0 1 1  130.71146,120.45428 A 1.9135686 1.9135686 0 1 1  134.5386 120.45428 z"
       transform="translate(130.8586,56.67108)" />
    <circle
       r="1.9135686"
       cy="202.2097"
       cx="262.83414"
       style="opacity:1;fill:#000000;fill-opacity:1;stroke:#000000;stroke-width:1;stroke-miterlimit:4;stroke-dasharray:none;stroke-dashoffset:0;stroke-opacity:1"
       id="path19404" />
    <path
       sodipodi:type="arc"
       style="opacity:1;fill:black;fill-opacity:1;stroke:black;stroke-width:1;stroke-miterlimit:4;stroke-dasharray:none;stroke-dashoffset:0;stroke-opacity:1"
       id="path19406"
       sodipodi:cx="132.62503"
       sodipodi:cy="120.45428"
       sodipodi:rx="1.9135686"
       sodipodi:ry="1.9135686"
       d="M 134.5386 120.45428 A 1.9135686 1.9135686 0 1 1  130.71146,120.45428 A 1.9135686 1.9135686 0 1 1  134.5386 120.45428 z"
       transform="translate(117.9053,98.76958)" />
    <path
       sodipodi:type="arc"
       style="opacity:1;fill:black;fill-opacity:1;stroke:black;stroke-width:1;stroke-miterlimit:4;stroke-dasharray:none;stroke-dashoffset:0;stroke-opacity:1"
       id="path19408"
       sodipodi:cx="132.62503"
       sodipodi:cy="120.45428"
       sodipodi:rx="1.9135686"
       sodipodi:ry="1.9135686"
       d="M 134.5386 120.45428 A 1.9135686 1.9135686 0 1 1  130.71146,120.45428 A 1.9135686 1.9135686 0 1 1  134.5386 120.45428 z"
       transform="translate(104.3631,103.7743)" />
    <path
       sodipodi:type="arc"
       style="opacity:1;fill:black;fill-opacity:1;stroke:black;stroke-width:1;stroke-miterlimit:4;stroke-dasharray:none;stroke-dashoffset:0;stroke-opacity:1"
       id="path19410"
       sodipodi:cx="132.62503"
       sodipodi:cy="120.45428"
       sodipodi:rx="1.9135686"
       sodipodi:ry="1.9135686"
       d="M 134.5386 120.45428 A 1.9135686 1.9135686 0 1 1  130.71146,120.45428 A 1.9135686 1.9135686 0 1 1  134.5386 120.45428 z"
       transform="translate(111.4286,84.63862)" />
    <path
       sodipodi:type="arc"
       style="opacity:1;fill:black;fill-opacity:1;stroke:black;stroke-width:1;stroke-miterlimit:4;stroke-dasharray:none;stroke-dashoffset:0;stroke-opacity:1"
       id="path19412"
       sodipodi:cx="132.62503"
       sodipodi:cy="120.45428"
       sodipodi:rx="1.9135686"
       sodipodi:ry="1.9135686"
       d="M 134.5386 120.45428 A 1.9135686 1.9135686 0 1 1  130.71146,120.45428 A 1.9135686 1.9135686 0 1 1  134.5386 120.45428 z"
       transform="translate(84.04981,117.9053)" />
    <path
       sodipodi:type="arc"
       style="opacity:1;fill:black;fill-opacity:1;stroke:black;stroke-width:1;stroke-miterlimit:4;stroke-dasharray:none;stroke-dashoffset:0;stroke-opacity:1"
       id="path19414"
       sodipodi:cx="132.62503"
       sodipodi:cy="120.45428"
       sodipodi:rx="1.9135686"
       sodipodi:ry="1.9135686"
       d="M 134.5386 120.45428 A 1.9135686 1.9135686 0 1 1  130.71146,120.45428 A 1.9135686 1.9135686 0 1 1  134.5386 120.45428 z"
       transform="translate(84.34421,127.9147)" />
    <path
       sodipodi:type="arc"
       style="opacity:1;fill:black;fill-opacity:1;stroke:black;stroke-width:1;stroke-miterlimit:4;stroke-dasharray:none;stroke-dashoffset:0;stroke-opacity:1"
       id="path19416"
       sodipodi:cx="132.62503"
       sodipodi:cy="120.45428"
       sodipodi:rx="1.9135686"
       sodipodi:ry="1.9135686"
       d="M 134.5386 120.45428 A 1.9135686 1.9135686 0 1 1  130.71146,120.45428 A 1.9135686 1.9135686 0 1 1  134.5386 120.45428 z"
       transform="translate(65.50292,136.4522)" />
    <path
       sodipodi:type="arc"
       style="opacity:1;fill:black;fill-opacity:1;stroke:black;stroke-width:1;stroke-miterlimit:4;stroke-dasharray:none;stroke-dashoffset:0;stroke-opacity:1"
       id="path19418"
       sodipodi:cx="132.62503"
       sodipodi:cy="120.45428"
       sodipodi:rx="1.9135686"
       sodipodi:ry="1.9135686"
       d="M 134.5386 120.45428 A 1.9135686 1.9135686 0 1 1  130.71146,120.45428 A 1.9135686 1.9135686 0 1 1  134.5386 120.45428 z"
       transform="translate(51.37195,132.9194)" />
    <path
       sodipodi:type="arc"
       style="opacity:1;fill:black;fill-opacity:1;stroke:black;stroke-width:1;stroke-miterlimit:4;stroke-dasharray:none;stroke-dashoffset:0;stroke-opacity:1"
       id="path19420"
       sodipodi:cx="132.62503"
       sodipodi:cy="120.45428"
       sodipodi:rx="1.9135686"
       sodipodi:ry="1.9135686"
       d="M 134.5386 120.45428 A 1.9135686 1.9135686 0 1 1  130.71146,120.45428 A 1.9135686 1.9135686 0 1 1  134.5386 120.45428 z"
       transform="translate(48.42799,125.5596)" />
    <path
       sodipodi:type="arc"
       style="opacity:1;fill:black;fill-opacity:1;stroke:black;stroke-width:1;stroke-miterlimit:4;stroke-dasharray:none;stroke-dashoffset:0;stroke-opacity:1"
       id="path19422"
       sodipodi:cx="132.62503"
       sodipodi:cy="120.45428"
       sodipodi:rx="1.9135686"
       sodipodi:ry="1.9135686"
       d="M 134.5386 120.45428 A 1.9135686 1.9135686 0 1 1  130.71146,120.45428 A 1.9135686 1.9135686 0 1 1  134.5386 120.45428 z"
       transform="translate(72.8628,126.1483)" />
    <circle
       r="1.9135686"
       cy="232.17725"
       cx="162.35893"
       style="opacity:1;fill:#008000;fill-opacity:1;stroke:#008000;stroke-width:1;stroke-miterlimit:4;stroke-dasharray:none;stroke-dashoffset:0;stroke-opacity:1"
       id="path19424" />
    <circle
       r="1.9135686"
       cy="226.8781"
       cx="151.61351"
       style="opacity:1;fill:#008000;fill-opacity:1;stroke:#008000;stroke-width:1;stroke-miterlimit:4;stroke-dasharray:none;stroke-dashoffset:0;stroke-opacity:1"
       id="path19426" />
    <path
       sodipodi:type="arc"
       style="opacity:1;fill:black;fill-opacity:1;stroke:black;stroke-width:1;stroke-miterlimit:4;stroke-dasharray:none;stroke-dashoffset:0;stroke-opacity:1"
       id="path19428"
       sodipodi:cx="132.62503"
       sodipodi:cy="120.45428"
       sodipodi:rx="1.9135686"
       sodipodi:ry="1.9135686"
       d="M 134.5386 120.45428 A 1.9135686 1.9135686 0 1 1  130.71146,120.45428 A 1.9135686 1.9135686 0 1 1  134.5386 120.45428 z"
       transform="translate(-0.441601,87.58257)" />
    <path
       sodipodi:type="arc"
       style="opacity:1;fill:black;fill-opacity:1;stroke:black;stroke-width:1;stroke-miterlimit:4;stroke-dasharray:none;stroke-dashoffset:0;stroke-opacity:1"
       id="path19430"
       sodipodi:cx="132.62503"
       sodipodi:cy="120.45428"
       sodipodi:rx="1.9135686"
       sodipodi:ry="1.9135686"
       d="M 134.5386 120.45428 A 1.9135686 1.9135686 0 1 1  130.71146,120.45428 A 1.9135686 1.9135686 0 1 1  134.5386 120.45428 z"
       transform="translate(-17.22213,72.86281)" />
    <path
       sodipodi:type="arc"
       style="opacity:1;fill:black;fill-opacity:1;stroke:black;stroke-width:1;stroke-miterlimit:4;stroke-dasharray:none;stroke-dashoffset:0;stroke-opacity:1"
       id="path19432"
       sodipodi:cx="132.62503"
       sodipodi:cy="120.45428"
       sodipodi:rx="1.9135686"
       sodipodi:ry="1.9135686"
       d="M 134.5386 120.45428 A 1.9135686 1.9135686 0 1 1  130.71146,120.45428 A 1.9135686 1.9135686 0 1 1  134.5386 120.45428 z"
       transform="translate(-21.04926,55.78789)" />
    <path
       sodipodi:type="arc"
       style="opacity:1;fill:black;fill-opacity:1;stroke:black;stroke-width:1;stroke-miterlimit:4;stroke-dasharray:none;stroke-dashoffset:0;stroke-opacity:1"
       id="path19434"
       sodipodi:cx="132.62503"
       sodipodi:cy="120.45428"
       sodipodi:rx="1.9135686"
       sodipodi:ry="1.9135686"
       d="M 134.5386 120.45428 A 1.9135686 1.9135686 0 1 1  130.71146,120.45428 A 1.9135686 1.9135686 0 1 1  134.5386 120.45428 z"
       transform="translate(-29.58672,26.93716)" />
    <path
       sodipodi:type="arc"
       style="opacity:1;fill:black;fill-opacity:1;stroke:black;stroke-width:1;stroke-miterlimit:4;stroke-dasharray:none;stroke-dashoffset:0;stroke-opacity:1"
       id="path19436"
       sodipodi:cx="132.62503"
       sodipodi:cy="120.45428"
       sodipodi:rx="1.9135686"
       sodipodi:ry="1.9135686"
       d="M 134.5386 120.45428 A 1.9135686 1.9135686 0 1 1  130.71146,120.45428 A 1.9135686 1.9135686 0 1 1  134.5386 120.45428 z"
       transform="translate(-50.48878,6.918293)" />
    <path
       sodipodi:type="arc"
       style="opacity:1;fill:black;fill-opacity:1;stroke:black;stroke-width:1;stroke-miterlimit:4;stroke-dasharray:none;stroke-dashoffset:0;stroke-opacity:1"
       id="path19438"
       sodipodi:cx="132.62503"
       sodipodi:cy="120.45428"
       sodipodi:rx="1.9135686"
       sodipodi:ry="1.9135686"
       d="M 134.5386 120.45428 A 1.9135686 1.9135686 0 1 1  130.71146,120.45428 A 1.9135686 1.9135686 0 1 1  134.5386 120.45428 z"
       transform="translate(-65.20854,-11.923)" />
    <path
       sodipodi:type="arc"
       style="opacity:1;fill:black;fill-opacity:1;stroke:black;stroke-width:1;stroke-miterlimit:4;stroke-dasharray:none;stroke-dashoffset:0;stroke-opacity:1"
       id="path19440"
       sodipodi:cx="132.62503"
       sodipodi:cy="120.45428"
       sodipodi:rx="1.9135686"
       sodipodi:ry="1.9135686"
       d="M 134.5386 120.45428 A 1.9135686 1.9135686 0 1 1  130.71146,120.45428 A 1.9135686 1.9135686 0 1 1  134.5386 120.45428 z"
       transform="translate(-52.25515,-25.75957)" />
    <path
       sodipodi:type="arc"
       style="opacity:1;fill:black;fill-opacity:1;stroke:black;stroke-width:1;stroke-miterlimit:4;stroke-dasharray:none;stroke-dashoffset:0;stroke-opacity:1"
       id="path19442"
       sodipodi:cx="132.62503"
       sodipodi:cy="120.45428"
       sodipodi:rx="1.9135686"
       sodipodi:ry="1.9135686"
       d="M 134.5386 120.45428 A 1.9135686 1.9135686 0 1 1  130.71146,120.45428 A 1.9135686 1.9135686 0 1 1  134.5386 120.45428 z"
       transform="translate(-46.95604,20.46047)" />
    <path
       sodipodi:type="arc"
       style="opacity:1;fill:black;fill-opacity:1;stroke:black;stroke-width:1;stroke-miterlimit:4;stroke-dasharray:none;stroke-dashoffset:0;stroke-opacity:1"
       id="path19444"
       sodipodi:cx="132.62503"
       sodipodi:cy="120.45428"
       sodipodi:rx="1.9135686"
       sodipodi:ry="1.9135686"
       d="M 134.5386 120.45428 A 1.9135686 1.9135686 0 1 1  130.71146,120.45428 A 1.9135686 1.9135686 0 1 1  134.5386 120.45428 z"
       transform="translate(-28.99793,54.31591)" />
    <path
       sodipodi:type="arc"
       style="opacity:1;fill:black;fill-opacity:1;stroke:black;stroke-width:1;stroke-miterlimit:4;stroke-dasharray:none;stroke-dashoffset:0;stroke-opacity:1"
       id="path19446"
       sodipodi:cx="132.62503"
       sodipodi:cy="120.45428"
       sodipodi:rx="1.9135686"
       sodipodi:ry="1.9135686"
       d="M 134.5386 120.45428 A 1.9135686 1.9135686 0 1 1  130.71146,120.45428 A 1.9135686 1.9135686 0 1 1  134.5386 120.45428 z"
       transform="translate(-10.74543,84.93301)" />
    <path
       sodipodi:type="arc"
       style="opacity:1;fill:black;fill-opacity:1;stroke:black;stroke-width:1;stroke-miterlimit:4;stroke-dasharray:none;stroke-dashoffset:0;stroke-opacity:1"
       id="path19448"
       sodipodi:cx="132.62503"
       sodipodi:cy="120.45428"
       sodipodi:rx="1.9135686"
       sodipodi:ry="1.9135686"
       d="M 134.5386 120.45428 A 1.9135686 1.9135686 0 1 1  130.71146,120.45428 A 1.9135686 1.9135686 0 1 1  134.5386 120.45428 z"
       transform="translate(28.40913,125.2651)" />
    <path
       sodipodi:type="arc"
       style="opacity:1;fill:black;fill-opacity:1;stroke:black;stroke-width:1;stroke-miterlimit:4;stroke-dasharray:none;stroke-dashoffset:0;stroke-opacity:1"
       id="path19450"
       sodipodi:cx="132.62503"
       sodipodi:cy="120.45428"
       sodipodi:rx="1.9135686"
       sodipodi:ry="1.9135686"
       d="M 134.5386 120.45428 A 1.9135686 1.9135686 0 1 1  130.71146,120.45428 A 1.9135686 1.9135686 0 1 1  134.5386 120.45428 z"
       transform="translate(96.7088,112.3118)" />
    <path
       sodipodi:type="arc"
       style="opacity:1;fill:black;fill-opacity:1;stroke:black;stroke-width:1;stroke-miterlimit:4;stroke-dasharray:none;stroke-dashoffset:0;stroke-opacity:1"
       id="path19452"
       sodipodi:cx="132.62503"
       sodipodi:cy="120.45428"
       sodipodi:rx="1.9135686"
       sodipodi:ry="1.9135686"
       d="M 134.5386 120.45428 A 1.9135686 1.9135686 0 1 1  130.71146,120.45428 A 1.9135686 1.9135686 0 1 1  134.5386 120.45428 z"
       transform="translate(146.4616,23.11003)" />
    <path
       sodipodi:type="arc"
       style="opacity:1;fill:black;fill-opacity:1;stroke:black;stroke-width:1;stroke-miterlimit:4;stroke-dasharray:none;stroke-dashoffset:0;stroke-opacity:1"
       id="path19454"
       sodipodi:cx="132.62503"
       sodipodi:cy="120.45428"
       sodipodi:rx="1.9135686"
       sodipodi:ry="1.9135686"
       d="M 134.5386 120.45428 A 1.9135686 1.9135686 0 1 1  130.71146,120.45428 A 1.9135686 1.9135686 0 1 1  134.5386 120.45428 z"
       transform="translate(139.9849,57.25987)" />
    <path
       sodipodi:type="arc"
       style="opacity:1;fill:black;fill-opacity:1;stroke:black;stroke-width:1;stroke-miterlimit:4;stroke-dasharray:none;stroke-dashoffset:0;stroke-opacity:1"
       id="path19456"
       sodipodi:cx="132.62503"
       sodipodi:cy="120.45428"
       sodipodi:rx="1.9135686"
       sodipodi:ry="1.9135686"
       d="M 134.5386 120.45428 A 1.9135686 1.9135686 0 1 1  130.71146,120.45428 A 1.9135686 1.9135686 0 1 1  134.5386 120.45428 z"
       transform="translate(120.2604,77.27874)" />
    <path
       sodipodi:type="arc"
       style="opacity:1;fill:black;fill-opacity:1;stroke:black;stroke-width:1;stroke-miterlimit:4;stroke-dasharray:none;stroke-dashoffset:0;stroke-opacity:1"
       id="path19458"
       sodipodi:cx="132.62503"
       sodipodi:cy="120.45428"
       sodipodi:rx="1.9135686"
       sodipodi:ry="1.9135686"
       d="M 134.5386 120.45428 A 1.9135686 1.9135686 0 1 1  130.71146,120.45428 A 1.9135686 1.9135686 0 1 1  134.5386 120.45428 z"
       transform="translate(-38.12418,40.18495)" />
    <path
       sodipodi:type="arc"
       style="opacity:1;fill:black;fill-opacity:1;stroke:black;stroke-width:1;stroke-miterlimit:4;stroke-dasharray:none;stroke-dashoffset:0;stroke-opacity:1"
       id="path19460"
       sodipodi:cx="132.62503"
       sodipodi:cy="120.45428"
       sodipodi:rx="1.9135686"
       sodipodi:ry="1.9135686"
       d="M 134.5386 120.45428 A 1.9135686 1.9135686 0 1 1  130.71146,120.45428 A 1.9135686 1.9135686 0 1 1  134.5386 120.45428 z"
       transform="translate(-37.82979,13.10059)" />
    <path
       sodipodi:type="arc"
       style="opacity:1;fill:black;fill-opacity:1;stroke:black;stroke-width:1;stroke-miterlimit:4;stroke-dasharray:none;stroke-dashoffset:0;stroke-opacity:1"
       id="path19462"
       sodipodi:cx="132.62503"
       sodipodi:cy="120.45428"
       sodipodi:rx="1.9135686"
       sodipodi:ry="1.9135686"
       d="M 134.5386 120.45428 A 1.9135686 1.9135686 0 1 1  130.71146,120.45428 A 1.9135686 1.9135686 0 1 1  134.5386 120.45428 z"
       transform="translate(-56.96547,-6.035095)" />
    <path
       inkscape:connector-curvature="0"
       style="fill:none;fill-rule:evenodd;stroke:#000000;stroke-width:1.31986034;stroke-linecap:butt;stroke-linejoin:miter;stroke-miterlimit:4;stroke-dasharray:1.31986034, 2.6397207;stroke-dashoffset:0;stroke-opacity:1;marker-end:url(#Arrow1Mend)"
       d="m 287.112,220.41695 c -5.59055,-15.7249 -32.31254,-10.5711 -32.31254,-10.5711"
       id="path19464" />
    <g
       id="content"
       transform="matrix(1.2290729,0,0,-1.2290729,-184.02513,817.44801)"
       xml:space="preserve"
       stroke-miterlimit="10.433"
       font-style="normal"
       font-variant="normal"
       font-weight="normal"
       font-stretch="normal"
       font-size-adjust="none"
       letter-spacing="normal"
       word-spacing="normal"
       ns0:text="\\begin{center}\nsmooth (nonlinear)\\\\\nmanifold, $M=1$\n\\end{center}"
       ns0:preamble="/usr/share/inkscape/extensions/textextLib/basicLatexPackages.tex"
       style="font-style:normal;font-variant:normal;font-weight:normal;font-stretch:normal;letter-spacing:normal;word-spacing:normal;text-anchor:start;fill:none;fill-opacity:1;fill-rule:evenodd;stroke:#000000;stroke-linecap:butt;stroke-linejoin:miter;stroke-miterlimit:10.43299961;stroke-dasharray:none;stroke-dashoffset:0;stroke-opacity:1"><path
         style="fill:#000000;stroke-width:0"
         inkscape:connector-curvature="0"
         d="m 355.67,479.16 h 0.02 l 0.03,-0.01 h 0.03 l 0.03,-0.01 0.03,-0.01 0.04,-0.01 0.04,-0.01 0.04,-0.01 0.04,-0.01 0.04,-0.01 0.04,-0.02 0.05,-0.02 0.04,-0.01 0.04,-0.03 0.05,-0.02 0.04,-0.02 0.05,-0.03 0.04,-0.03 0.04,-0.03 0.04,-0.03 0.04,-0.03 0.03,-0.04 0.04,-0.04 0.03,-0.04 0.03,-0.05 0.01,-0.02 0.01,-0.03 0.01,-0.02 0.01,-0.03 0.01,-0.02 0.01,-0.03 0.01,-0.03 0.01,-0.02 v -0.03 l 0.01,-0.03 v -0.03 l 0.01,-0.04 v -0.03 -0.03 c 0,-0.51 -0.35,-0.91 -1.13,-0.91 -0.84,0 -1.19,0.57 -1.38,1.42 -0.03,0.12 -0.05,0.16 -0.14,0.16 -0.13,0 -0.13,-0.07 -0.13,-0.25 v -1.31 c 0,-0.16 0,-0.23 0.11,-0.23 0.05,0 0.06,0.01 0.25,0.19 0.01,0.02 0.01,0.04 0.19,0.23 0.44,-0.41 0.89,-0.42 1.1,-0.42 1.15,0 1.61,0.66 1.61,1.38 0,0.52 -0.3,0.82 -0.42,0.94 -0.33,0.32 -0.72,0.4 -1.14,0.48 -0.56,0.11 -1.23,0.24 -1.23,0.81 0,0.35 0.26,0.76 1.12,0.76 1.1,0 1.15,-0.9 1.17,-1.2 0.01,-0.1 0.1,-0.1 0.12,-0.1 0.13,0 0.13,0.06 0.13,0.24 v 1.01 c 0,0.17 0,0.23 -0.11,0.23 -0.05,0 -0.07,0 -0.2,-0.11 -0.03,-0.04 -0.13,-0.13 -0.17,-0.16 -0.38,0.27 -0.79,0.27 -0.94,0.27 -1.22,0 -1.59,-0.66 -1.59,-1.22 0,-0.34 0.16,-0.62 0.43,-0.84 0.31,-0.26 0.59,-0.32 1.31,-0.46 z"
         id="path4625" /><path
         style="fill:#000000;stroke-width:0"
         inkscape:connector-curvature="0"
         d="m 358.62,480.65 v -2.66 c 0,-0.45 -0.11,-0.45 -0.77,-0.45 v -0.31 c 0.34,0.01 0.85,0.04 1.12,0.04 0.26,0 0.78,-0.03 1.12,-0.04 v 0.31 c -0.67,0 -0.78,0 -0.78,0.45 v 1.83 c 0,1.03 0.71,1.59 1.35,1.59 0.63,0 0.73,-0.54 0.73,-1.11 v -2.31 c 0,-0.45 -0.1,-0.45 -0.77,-0.45 v -0.31 c 0.35,0.01 0.86,0.04 1.12,0.04 0.26,0 0.78,-0.03 1.12,-0.04 v 0.31 c -0.67,0 -0.78,0 -0.78,0.45 v 1.83 c 0,1.03 0.71,1.59 1.35,1.59 0.63,0 0.74,-0.54 0.74,-1.11 v -2.31 c 0,-0.45 -0.11,-0.45 -0.78,-0.45 v -0.31 c 0.35,0.01 0.86,0.04 1.13,0.04 0.26,0 0.77,-0.03 1.11,-0.04 v 0.31 c -0.52,0 -0.76,0 -0.77,0.3 v 1.9 c 0,0.85 0,1.16 -0.31,1.52 -0.14,0.17 -0.47,0.37 -1.05,0.37 -0.84,0 -1.28,-0.6 -1.45,-0.98 -0.14,0.87 -0.87,0.98 -1.32,0.98 -0.73,0 -1.2,-0.43 -1.48,-1.05 v 1.05 l -1.4,-0.11 v -0.31 c 0.69,0 0.77,-0.07 0.77,-0.56 z"
         id="path4627" /><path
         style="fill:#000000;stroke-width:0"
         inkscape:connector-curvature="0"
         d="m 370.52,479.36 v 0.12 l -0.01,0.12 -0.01,0.11 -0.02,0.12 -0.03,0.11 -0.02,0.11 -0.04,0.11 -0.04,0.1 -0.04,0.1 -0.05,0.1 -0.06,0.1 -0.05,0.09 -0.07,0.1 -0.06,0.08 -0.07,0.09 -0.07,0.08 -0.08,0.08 -0.08,0.07 -0.08,0.07 -0.09,0.06 -0.09,0.07 -0.09,0.05 -0.1,0.05 -0.1,0.05 -0.1,0.04 -0.1,0.04 -0.1,0.03 -0.11,0.03 -0.11,0.02 -0.11,0.01 -0.11,0.01 h -0.11 l -0.01,-0.21 c 0.44,0 0.87,-0.22 1.13,-0.65 0.26,-0.43 0.26,-1 0.26,-1.38 0,-0.36 0,-0.89 -0.22,-1.33 -0.22,-0.45 -0.66,-0.74 -1.16,-0.74 v 0 c -0.43,0 -0.87,0.21 -1.14,0.67 -0.25,0.44 -0.25,1.04 -0.25,1.4 0,0.39 0,0.92 0.24,1.36 0.27,0.46 0.74,0.67 1.14,0.67 l 0.01,0.21 c -1.24,0 -2.21,-1.08 -2.21,-2.32 0,-1.28 1.03,-2.23 2.2,-2.23 1.21,0 2.21,0.97 2.21,2.23 z"
         id="path4629" /><path
         style="fill:#000000;stroke-width:0"
         inkscape:connector-curvature="0"
         d="m 375.79,479.36 -0.01,0.12 -0.01,0.12 -0.01,0.11 -0.02,0.12 -0.03,0.11 -0.02,0.11 -0.04,0.11 -0.04,0.1 -0.04,0.1 -0.05,0.1 -0.06,0.1 -0.05,0.09 -0.07,0.1 -0.06,0.08 -0.07,0.09 -0.07,0.08 -0.08,0.08 -0.08,0.07 -0.08,0.07 -0.09,0.06 -0.09,0.07 -0.09,0.05 -0.1,0.05 -0.1,0.05 -0.1,0.04 -0.1,0.04 -0.1,0.03 -0.11,0.03 -0.11,0.02 -0.11,0.01 -0.11,0.01 h -0.11 l -0.01,-0.21 c 0.44,0 0.87,-0.22 1.13,-0.65 0.26,-0.43 0.26,-1 0.26,-1.38 0,-0.36 0,-0.89 -0.22,-1.33 -0.22,-0.45 -0.66,-0.74 -1.16,-0.74 v 0 c -0.43,0 -0.87,0.21 -1.13,0.67 -0.25,0.44 -0.25,1.04 -0.25,1.4 0,0.39 0,0.92 0.23,1.36 0.27,0.46 0.74,0.67 1.14,0.67 l 0.01,0.21 c -1.25,0 -2.21,-1.08 -2.21,-2.32 0,-1.28 1.03,-2.23 2.2,-2.23 1.21,0 2.22,0.97 2.22,2.23 z"
         id="path4631" /><path
         style="fill:#000000;stroke-width:0"
         inkscape:connector-curvature="0"
         d="m 377.8,481.21 h 1.42 v 0.31 h -1.42 v 1.82 h -0.25 c -0.01,-0.81 -0.31,-1.87 -1.29,-1.91 v -0.22 h 0.85 v -2.74 c 0,-1.23 0.92,-1.34 1.28,-1.34 0.71,0 0.99,0.7 0.99,1.34 v 0.56 h -0.25 v -0.54 c 0,-0.74 -0.3,-1.12 -0.67,-1.12 -0.66,0 -0.66,0.91 -0.66,1.08 z"
         id="path4633" /><path
         style="fill:#000000;stroke-width:0"
         inkscape:connector-curvature="0"
         d="m 381.04,477.99 v -0.02 -0.02 -0.04 -0.03 l -0.01,-0.04 v -0.03 -0.03 l -0.01,-0.02 -0.01,-0.03 -0.01,-0.02 v -0.02 l -0.02,-0.02 -0.01,-0.02 -0.01,-0.01 -0.02,-0.02 -0.02,-0.01 -0.02,-0.01 -0.02,-0.01 -0.02,-0.01 -0.03,-0.01 h -0.03 l -0.03,-0.01 h -0.03 l -0.04,-0.01 h -0.01 -0.02 -0.02 -0.02 -0.03 -0.02 -0.02 l -0.02,-0.01 h -0.03 -0.02 -0.03 -0.02 -0.03 -0.03 -0.03 -0.03 -0.03 -0.03 v -0.31 c 0.35,0.01 0.86,0.04 1.13,0.04 0.26,0 0.78,-0.03 1.12,-0.04 v 0.31 c -0.67,0 -0.78,0 -0.78,0.45 v 1.83 c 0,1.03 0.71,1.59 1.35,1.59 0.62,0 0.73,-0.54 0.73,-1.11 v -2.31 c 0,-0.45 -0.11,-0.45 -0.77,-0.45 v -0.31 c 0.34,0.01 0.85,0.04 1.12,0.04 0.26,0 0.78,-0.03 1.12,-0.04 v 0.31 c -0.52,0 -0.77,0 -0.78,0.3 v 1.9 c 0,0.85 0,1.16 -0.31,1.52 -0.14,0.17 -0.47,0.37 -1.05,0.37 -0.83,0 -1.27,-0.6 -1.44,-0.98 v 3.48 l -1.44,-0.11 v -0.31 c 0.7,0 0.78,-0.07 0.78,-0.55 z"
         id="path4635" /><path
         style="fill:#000000;stroke-width:0"
         inkscape:connector-curvature="0"
         d="m 392.1,474.85 v 0.01 0 0 0.01 0 h -0.01 v 0.01 0 0 0.01 0 l -0.01,0.01 v 0 0.01 h -0.01 v 0.01 l -0.01,0.01 v 0 l -0.01,0.01 v 0 0.01 h -0.01 v 0 l -0.01,0.01 v 0 0.01 h -0.01 v 0.01 h -0.01 v 0.01 H 392 V 475 l -0.01,0.01 h -0.01 v 0.01 l -0.01,0.01 h -0.01 v 0.01 l -0.01,0.01 h -0.01 v 0.01 l -0.01,0.01 c -1.25,1.25 -1.57,3.13 -1.57,4.65 0,1.73 0.38,3.45 1.61,4.7 0.13,0.12 0.13,0.14 0.13,0.17 0,0.07 -0.04,0.09 -0.1,0.09 -0.1,0 -1,-0.67 -1.59,-1.93 -0.51,-1.09 -0.63,-2.2 -0.63,-3.03 0,-0.78 0.11,-1.98 0.66,-3.1 0.6,-1.22 1.46,-1.87 1.56,-1.87 0.06,0 0.1,0.03 0.1,0.1 z"
         id="path4637" /><path
         style="fill:#000000;stroke-width:0"
         inkscape:connector-curvature="0"
         d="m 393.77,480.65 v -2.66 c 0,-0.45 -0.11,-0.45 -0.78,-0.45 v -0.31 c 0.35,0.01 0.86,0.04 1.13,0.04 0.26,0 0.77,-0.03 1.11,-0.04 v 0.31 c -0.66,0 -0.77,0 -0.77,0.45 v 1.83 c 0,1.03 0.7,1.59 1.34,1.59 0.63,0 0.74,-0.54 0.74,-1.11 v -2.31 c 0,-0.45 -0.11,-0.45 -0.78,-0.45 v -0.31 c 0.35,0.01 0.86,0.04 1.13,0.04 0.26,0 0.78,-0.03 1.12,-0.04 v 0.31 c -0.52,0 -0.77,0 -0.78,0.3 v 1.9 c 0,0.85 0,1.16 -0.31,1.52 -0.14,0.17 -0.47,0.37 -1.05,0.37 -0.73,0 -1.19,-0.43 -1.47,-1.05 v 1.05 l -1.41,-0.11 v -0.31 c 0.7,0 0.78,-0.07 0.78,-0.56 z"
         id="path4639" /><path
         style="fill:#000000;stroke-width:0"
         inkscape:connector-curvature="0"
         d="m 402.9,479.36 v 0.12 l -0.01,0.12 -0.01,0.11 -0.02,0.12 -0.03,0.11 -0.03,0.11 -0.03,0.11 -0.04,0.1 -0.05,0.1 -0.05,0.1 -0.05,0.1 -0.06,0.09 -0.06,0.1 -0.06,0.08 -0.07,0.09 -0.08,0.08 -0.07,0.08 -0.08,0.07 -0.09,0.07 -0.08,0.06 -0.09,0.07 -0.09,0.05 -0.1,0.05 -0.1,0.05 -0.1,0.04 -0.1,0.04 -0.1,0.03 -0.11,0.03 -0.11,0.02 -0.11,0.01 -0.11,0.01 h -0.11 l -0.01,-0.21 c 0.44,0 0.87,-0.22 1.13,-0.65 0.26,-0.43 0.26,-1 0.26,-1.38 0,-0.36 0,-0.89 -0.22,-1.33 -0.22,-0.45 -0.66,-0.74 -1.16,-0.74 v 0 c -0.43,0 -0.87,0.21 -1.14,0.67 -0.25,0.44 -0.25,1.04 -0.25,1.4 0,0.39 0,0.92 0.24,1.36 0.27,0.46 0.74,0.67 1.14,0.67 l 0.01,0.21 c -1.25,0 -2.21,-1.08 -2.21,-2.32 0,-1.28 1.03,-2.23 2.2,-2.23 1.21,0 2.21,0.97 2.21,2.23 z"
         id="path4641" /><path
         style="fill:#000000;stroke-width:0"
         inkscape:connector-curvature="0"
         d="m 404.29,480.65 v -2.66 c 0,-0.45 -0.12,-0.45 -0.78,-0.45 v -0.31 c 0.35,0.01 0.85,0.04 1.12,0.04 0.26,0 0.78,-0.03 1.12,-0.04 v 0.31 c -0.67,0 -0.78,0 -0.78,0.45 v 1.83 c 0,1.03 0.71,1.59 1.35,1.59 0.63,0 0.74,-0.54 0.74,-1.11 v -2.31 c 0,-0.45 -0.11,-0.45 -0.78,-0.45 v -0.31 c 0.35,0.01 0.86,0.04 1.13,0.04 0.26,0 0.77,-0.03 1.11,-0.04 v 0.31 c -0.52,0 -0.76,0 -0.78,0.3 v 1.9 c 0,0.85 0,1.16 -0.3,1.52 -0.14,0.17 -0.47,0.37 -1.05,0.37 -0.73,0 -1.2,-0.43 -1.48,-1.05 v 1.05 l -1.4,-0.11 v -0.31 c 0.69,0 0.78,-0.07 0.78,-0.56 z"
         id="path4643" /><path
         style="fill:#000000;stroke-width:0"
         inkscape:connector-curvature="0"
         d="m 410.49,484.13 -1.44,-0.11 v -0.31 c 0.7,0 0.78,-0.07 0.78,-0.55 v -5.17 c 0,-0.45 -0.11,-0.45 -0.78,-0.45 v -0.31 c 0.33,0.01 0.86,0.04 1.11,0.04 0.25,0 0.74,-0.03 1.11,-0.04 v 0.31 c -0.67,0 -0.78,0 -0.78,0.45 z"
         id="path4645" /><path
         style="fill:#000000;stroke-width:0"
         inkscape:connector-curvature="0"
         d="m 413.26,481.63 -1.4,-0.11 v -0.31 c 0.65,0 0.74,-0.06 0.74,-0.55 v -2.67 c 0,-0.45 -0.11,-0.45 -0.78,-0.45 v -0.31 c 0.32,0.01 0.86,0.04 1.1,0.04 0.35,0 0.69,-0.03 1.03,-0.04 v 0.31 c -0.65,0 -0.69,0.05 -0.69,0.44 z"
         id="path4647" /><path
         style="fill:#000000;stroke-width:0"
         inkscape:connector-curvature="0"
         d="m 413.3,483.35 -0.01,0.03 v 0.03 0.03 l -0.01,0.03 v 0.02 l -0.01,0.03 -0.01,0.03 -0.01,0.02 -0.01,0.02 -0.01,0.03 -0.01,0.02 -0.02,0.02 -0.01,0.02 -0.02,0.02 -0.02,0.02 -0.01,0.02 -0.02,0.01 -0.02,0.02 -0.02,0.01 -0.02,0.02 -0.02,0.01 -0.03,0.01 -0.02,0.01 -0.02,0.01 -0.03,0.01 -0.02,0.01 -0.03,0.01 h -0.02 l -0.03,0.01 h -0.02 -0.03 -0.02 c -0.31,0 -0.53,-0.27 -0.53,-0.53 0,-0.26 0.22,-0.52 0.53,-0.52 0.28,0 0.53,0.21 0.53,0.52 z"
         id="path4649" /><path
         style="fill:#000000;stroke-width:0"
         inkscape:connector-curvature="0"
         d="m 415.36,480.65 v -2.66 c 0,-0.45 -0.12,-0.45 -0.78,-0.45 v -0.31 c 0.35,0.01 0.85,0.04 1.12,0.04 0.26,0 0.78,-0.03 1.12,-0.04 v 0.31 c -0.67,0 -0.78,0 -0.78,0.45 v 1.83 c 0,1.03 0.71,1.59 1.35,1.59 0.63,0 0.74,-0.54 0.74,-1.11 v -2.31 c 0,-0.45 -0.11,-0.45 -0.78,-0.45 v -0.31 c 0.35,0.01 0.86,0.04 1.13,0.04 0.26,0 0.77,-0.03 1.11,-0.04 v 0.31 c -0.51,0 -0.76,0 -0.77,0.3 v 1.9 c 0,0.85 0,1.16 -0.31,1.52 -0.14,0.17 -0.47,0.37 -1.05,0.37 -0.73,0 -1.2,-0.43 -1.48,-1.05 v 1.05 l -1.4,-0.11 v -0.31 c 0.69,0 0.78,-0.07 0.78,-0.56 z"
         id="path4651" /><path
         style="fill:#000000;stroke-width:0"
         inkscape:connector-curvature="0"
         d="m 420.9,479.53 0.01,0.21 c 0.06,1.48 0.9,1.73 1.24,1.73 1.02,0 1.12,-1.34 1.12,-1.73 h -2.36 l -0.01,-0.21 h 2.78 c 0.22,0 0.25,0 0.25,0.21 0,0.98 -0.54,1.94 -1.78,1.94 -1.16,0 -2.08,-1.02 -2.08,-2.26 0,-1.33 1.05,-2.29 2.2,-2.29 1.21,0 1.66,1.1 1.66,1.29 0,0.1 -0.08,0.12 -0.13,0.12 -0.09,0 -0.11,-0.06 -0.13,-0.14 -0.35,-1.03 -1.24,-1.03 -1.34,-1.03 -0.5,0 -0.9,0.3 -1.13,0.67 -0.3,0.48 -0.3,1.13 -0.3,1.49 z"
         id="path4653" /><path
         style="fill:#000000;stroke-width:0"
         inkscape:connector-curvature="0"
         d="m 427.54,477.99 0.01,-0.04 v -0.03 l 0.01,-0.04 0.01,-0.04 0.01,-0.04 0.01,-0.03 0.01,-0.04 0.01,-0.03 0.02,-0.04 0.01,-0.03 0.02,-0.04 0.02,-0.03 0.02,-0.03 0.02,-0.04 0.03,-0.03 0.02,-0.03 0.02,-0.02 0.03,-0.03 0.03,-0.03 0.03,-0.02 0.03,-0.02 0.03,-0.03 0.03,-0.02 0.04,-0.01 0.03,-0.02 0.04,-0.01 0.03,-0.02 0.04,-0.01 h 0.04 l 0.04,-0.01 h 0.05 l 0.04,-0.01 c 0.21,0 0.82,0.14 0.82,0.95 v 0.55 h -0.25 v -0.55 c 0,-0.58 -0.25,-0.64 -0.36,-0.64 -0.33,0 -0.37,0.45 -0.37,0.5 v 1.99 c 0,0.41 0,0.8 -0.36,1.17 -0.39,0.39 -0.89,0.54 -1.37,0.54 -0.81,0 -1.5,-0.46 -1.5,-1.12 0,-0.29 0.2,-0.46 0.46,-0.46 0.28,0 0.46,0.2 0.46,0.45 0,0.12 -0.05,0.45 -0.51,0.46 0.27,0.35 0.76,0.46 1.08,0.46 0.48,0 1.05,-0.39 1.05,-1.27 v -0.37 -0.21 -0.99 c 0,-0.95 -0.72,-1.29 -1.17,-1.29 -0.48,0 -0.89,0.35 -0.89,0.85 0,0.54 0.42,1.37 2.06,1.43 v 0 0.21 c -0.51,-0.03 -1.2,-0.06 -1.83,-0.36 -0.75,-0.34 -1,-0.85 -1,-1.29 0,-0.81 0.97,-1.05 1.59,-1.05 0.66,0 1.12,0.39 1.31,0.86 z"
         id="path4655" /><path
         style="fill:#000000;stroke-width:0"
         inkscape:connector-curvature="0"
         d="m 430.87,480.53 v 1.1 l -1.39,-0.11 v -0.31 c 0.7,0 0.78,-0.07 0.78,-0.56 v -2.66 c 0,-0.45 -0.11,-0.45 -0.78,-0.45 v -0.31 c 0.39,0.01 0.86,0.04 1.14,0.04 0.4,0 0.87,0 1.26,-0.04 v 0.31 h -0.21 c -0.73,0 -0.75,0.11 -0.75,0.47 v 1.53 c 0,0.98 0.42,1.87 1.17,1.87 0.07,0 0.09,0 0.11,-0.01 -0.03,-0.01 -0.23,-0.13 -0.23,-0.39 0,-0.28 0.21,-0.43 0.43,-0.43 0.18,0 0.43,0.12 0.43,0.44 0,0.32 -0.31,0.61 -0.74,0.61 -0.72,0 -1.08,-0.67 -1.22,-1.1 z"
         id="path4657" /><path
         style="fill:#000000;stroke-width:0"
         inkscape:connector-curvature="0"
         d="m 435.99,479.72 v 0.07 l -0.01,0.08 v 0.08 0.08 l -0.01,0.17 -0.01,0.17 -0.02,0.18 -0.02,0.19 -0.02,0.2 -0.04,0.2 -0.04,0.2 -0.04,0.21 -0.06,0.21 -0.06,0.21 -0.07,0.21 -0.08,0.21 -0.04,0.11 -0.04,0.11 -0.05,0.1 -0.05,0.11 c -0.6,1.22 -1.46,1.86 -1.56,1.86 -0.06,0 -0.1,-0.03 -0.1,-0.09 0,-0.03 0,-0.05 0.19,-0.23 0.98,-0.99 1.55,-2.56 1.55,-4.64 0,-1.7 -0.37,-3.45 -1.61,-4.7 -0.13,-0.12 -0.13,-0.14 -0.13,-0.17 0,-0.06 0.04,-0.1 0.1,-0.1 0.1,0 1,0.68 1.59,1.94 0.51,1.09 0.63,2.19 0.63,3.03 z"
         id="path4659" /><path
         style="fill:#000000;stroke-width:0"
         inkscape:connector-curvature="0"
         d="m 359.88,468.7 v -2.66 c 0,-0.45 -0.11,-0.45 -0.78,-0.45 v -0.31 c 0.35,0.01 0.86,0.03 1.13,0.03 0.25,0 0.77,-0.02 1.11,-0.03 v 0.31 c -0.67,0 -0.78,0 -0.78,0.45 v 1.82 c 0,1.04 0.71,1.59 1.35,1.59 0.63,0 0.74,-0.53 0.74,-1.1 v -2.31 c 0,-0.45 -0.11,-0.45 -0.78,-0.45 v -0.31 c 0.35,0.01 0.86,0.03 1.13,0.03 0.26,0 0.77,-0.02 1.11,-0.03 v 0.31 c -0.66,0 -0.77,0 -0.77,0.45 v 1.82 c 0,1.04 0.7,1.59 1.34,1.59 0.63,0 0.74,-0.53 0.74,-1.1 v -2.31 c 0,-0.45 -0.11,-0.45 -0.78,-0.45 v -0.31 c 0.35,0.01 0.86,0.03 1.13,0.03 0.26,0 0.78,-0.02 1.12,-0.03 v 0.31 c -0.52,0 -0.77,0 -0.78,0.3 v 1.89 c 0,0.86 0,1.17 -0.31,1.52 -0.14,0.17 -0.47,0.37 -1.05,0.37 -0.83,0 -1.27,-0.59 -1.44,-0.97 -0.14,0.86 -0.88,0.97 -1.33,0.97 -0.73,0 -1.2,-0.43 -1.48,-1.04 v 1.04 l -1.4,-0.11 v -0.31 c 0.7,0 0.78,-0.07 0.78,-0.55 z"
         id="path4661" /><path
         style="fill:#000000;stroke-width:0"
         inkscape:connector-curvature="0"
         d="m 370.4,466.04 0.01,-0.04 v -0.04 l 0.01,-0.04 0.01,-0.03 0.01,-0.04 0.01,-0.04 0.01,-0.03 0.01,-0.04 0.02,-0.04 0.02,-0.03 0.01,-0.03 0.02,-0.04 0.02,-0.03 0.02,-0.03 0.03,-0.03 0.02,-0.03 0.02,-0.03 0.03,-0.03 0.03,-0.02 0.03,-0.03 0.03,-0.02 0.03,-0.02 0.03,-0.02 0.04,-0.02 0.03,-0.01 0.04,-0.02 0.03,-0.01 0.04,-0.01 0.04,-0.01 0.04,-0.01 h 0.05 0.04 c 0.21,0 0.82,0.14 0.82,0.94 v 0.56 h -0.25 v -0.56 c 0,-0.57 -0.25,-0.63 -0.36,-0.63 -0.33,0 -0.37,0.45 -0.37,0.49 v 1.99 c 0,0.42 0,0.81 -0.36,1.17 -0.39,0.39 -0.89,0.55 -1.36,0.55 -0.82,0 -1.51,-0.47 -1.51,-1.12 0,-0.3 0.2,-0.47 0.46,-0.47 0.28,0 0.46,0.2 0.46,0.46 0,0.12 -0.05,0.45 -0.51,0.45 0.27,0.35 0.76,0.46 1.07,0.46 0.49,0 1.06,-0.39 1.06,-1.27 v -0.37 -0.21 -0.99 c 0,-0.94 -0.72,-1.28 -1.16,-1.28 -0.49,0 -0.9,0.35 -0.9,0.84 0,0.55 0.42,1.38 2.06,1.43 v 0 0.21 c -0.51,-0.03 -1.21,-0.06 -1.83,-0.35 -0.75,-0.34 -1,-0.86 -1,-1.3 0,-0.8 0.97,-1.05 1.6,-1.05 0.65,0 1.11,0.4 1.3,0.87 z"
         id="path4663" /><path
         style="fill:#000000;stroke-width:0"
         inkscape:connector-curvature="0"
         d="m 373.16,468.7 v -2.66 c 0,-0.45 -0.11,-0.45 -0.78,-0.45 v -0.31 c 0.35,0.01 0.86,0.03 1.13,0.03 0.26,0 0.78,-0.02 1.11,-0.03 v 0.31 c -0.66,0 -0.77,0 -0.77,0.45 v 1.82 c 0,1.04 0.7,1.59 1.34,1.59 0.63,0 0.74,-0.53 0.74,-1.1 v -2.31 c 0,-0.45 -0.11,-0.45 -0.78,-0.45 v -0.31 c 0.35,0.01 0.86,0.03 1.13,0.03 0.26,0 0.78,-0.02 1.12,-0.03 v 0.31 c -0.52,0 -0.77,0 -0.78,0.3 v 1.89 c 0,0.86 0,1.17 -0.31,1.52 -0.14,0.17 -0.47,0.37 -1.05,0.37 -0.72,0 -1.19,-0.43 -1.47,-1.04 v 1.04 l -1.41,-0.11 v -0.31 c 0.7,0 0.78,-0.07 0.78,-0.55 z"
         id="path4665" /><path
         style="fill:#000000;stroke-width:0"
         inkscape:connector-curvature="0"
         d="m 379.36,469.67 -1.39,-0.11 v -0.31 c 0.64,0 0.73,-0.06 0.73,-0.54 v -2.67 c 0,-0.45 -0.1,-0.45 -0.77,-0.45 v -0.31 c 0.31,0.01 0.85,0.03 1.09,0.03 0.35,0 0.7,-0.02 1.04,-0.03 v 0.31 c -0.66,0 -0.7,0.05 -0.7,0.43 z"
         id="path4667" /><path
         style="fill:#000000;stroke-width:0"
         inkscape:connector-curvature="0"
         d="m 379.4,471.4 v 0.03 0.03 0.03 l -0.01,0.02 -0.01,0.03 v 0.03 l -0.01,0.02 -0.01,0.03 -0.01,0.02 -0.01,0.02 -0.02,0.02 -0.01,0.03 -0.02,0.02 -0.01,0.02 -0.02,0.01 -0.02,0.02 -0.02,0.02 -0.02,0.01 -0.02,0.02 -0.02,0.01 -0.02,0.02 -0.02,0.01 -0.02,0.01 -0.03,0.01 -0.02,0.01 h -0.02 l -0.03,0.01 -0.02,0.01 h -0.03 -0.02 l -0.03,0.01 h -0.03 c -0.3,0 -0.52,-0.27 -0.52,-0.53 0,-0.27 0.22,-0.53 0.52,-0.53 0.28,0 0.53,0.21 0.53,0.53 z"
         id="path4669" /><path
         style="fill:#000000;stroke-width:0"
         inkscape:connector-curvature="0"
         d="m 382.11,469.56 v 1.15 c 0,0.88 0.48,1.36 0.92,1.36 0.03,0 0.18,0 0.33,-0.08 -0.12,-0.03 -0.3,-0.16 -0.3,-0.41 0,-0.23 0.16,-0.43 0.43,-0.43 0.28,0 0.43,0.2 0.43,0.44 0,0.37 -0.36,0.69 -0.89,0.69 -0.7,0 -1.55,-0.52 -1.55,-1.58 v -1.14 h -0.79 v -0.31 h 0.79 v -3.21 c 0,-0.45 -0.11,-0.45 -0.78,-0.45 v -0.31 c 0.39,0.01 0.86,0.03 1.14,0.03 0.4,0 0.87,0 1.27,-0.03 v 0.31 h -0.21 c -0.74,0 -0.76,0.11 -0.76,0.46 v 3.2 h 1.14 v 0.31 z"
         id="path4671" /><path
         style="fill:#000000;stroke-width:0"
         inkscape:connector-curvature="0"
         d="m 388.11,467.41 -0.01,0.11 -0.01,0.12 -0.01,0.12 -0.02,0.11 -0.02,0.11 -0.03,0.11 -0.04,0.11 -0.04,0.11 -0.04,0.1 -0.05,0.1 -0.06,0.1 -0.05,0.09 -0.06,0.09 -0.07,0.09 -0.07,0.08 -0.07,0.08 -0.08,0.08 -0.08,0.08 -0.08,0.06 -0.09,0.07 -0.09,0.06 -0.09,0.06 -0.1,0.05 -0.09,0.05 -0.1,0.04 -0.11,0.03 -0.1,0.04 -0.11,0.02 -0.1,0.02 -0.11,0.02 -0.12,0.01 h -0.11 l -0.01,-0.22 c 0.44,0 0.87,-0.22 1.13,-0.64 0.26,-0.43 0.26,-1.01 0.26,-1.39 0,-0.35 0,-0.89 -0.22,-1.33 -0.22,-0.44 -0.66,-0.73 -1.16,-0.73 v 0 c -0.43,0 -0.86,0.21 -1.13,0.66 -0.25,0.44 -0.25,1.05 -0.25,1.4 0,0.39 0,0.93 0.24,1.37 0.26,0.45 0.73,0.66 1.13,0.66 l 0.01,0.22 c -1.24,0 -2.21,-1.08 -2.21,-2.32 0,-1.29 1.04,-2.24 2.2,-2.24 1.21,0 2.22,0.97 2.22,2.24 z"
         id="path4673" /><path
         style="fill:#000000;stroke-width:0"
         inkscape:connector-curvature="0"
         d="m 390.16,472.17 -1.44,-0.1 v -0.31 c 0.7,0 0.78,-0.07 0.78,-0.56 v -5.16 c 0,-0.45 -0.11,-0.45 -0.78,-0.45 v -0.31 c 0.33,0.01 0.86,0.03 1.11,0.03 0.25,0 0.74,-0.02 1.1,-0.03 v 0.31 c -0.66,0 -0.77,0 -0.77,0.45 z"
         id="path4675" /><path
         style="fill:#000000;stroke-width:0"
         inkscape:connector-curvature="0"
         d="m 394.95,465.83 v -0.66 l 1.46,0.11 v 0.31 c -0.69,0 -0.77,0.07 -0.77,0.55 v 6.03 l -1.44,-0.1 v -0.31 c 0.7,0 0.78,-0.07 0.78,-0.56 v -2.15 c -0.29,0.36 -0.72,0.62 -1.26,0.62 l 0.04,-0.22 c 0.35,0 0.77,-0.15 1.08,-0.59 0.11,-0.17 0.11,-0.19 0.11,-0.37 v 0 -2.04 c 0,-0.18 0,-0.2 -0.11,-0.37 -0.3,-0.47 -0.75,-0.69 -1.18,-0.69 -0.45,0 -0.81,0.26 -1.05,0.63 -0.25,0.41 -0.28,0.98 -0.28,1.39 0,0.36 0.02,0.96 0.3,1.41 0.21,0.3 0.59,0.63 1.13,0.63 l -0.04,0.22 c -1.18,0 -2.22,-0.97 -2.22,-2.25 0,-1.27 0.98,-2.25 2.11,-2.25 0.64,0 1.09,0.34 1.34,0.66 z"
         id="path4677" /><path
         style="fill:#000000;stroke-width:0"
         inkscape:connector-curvature="0"
         d="m 398.72,465.29 v 0.06 0.06 l -0.01,0.05 v 0.06 l -0.01,0.05 -0.01,0.05 -0.01,0.05 -0.01,0.05 -0.01,0.05 -0.01,0.04 -0.01,0.05 -0.02,0.04 -0.02,0.04 -0.01,0.04 -0.02,0.04 -0.02,0.03 -0.02,0.03 -0.02,0.03 -0.03,0.03 -0.02,0.03 -0.03,0.03 -0.03,0.02 -0.02,0.02 -0.03,0.02 -0.03,0.02 -0.03,0.01 -0.03,0.01 -0.04,0.01 -0.03,0.01 -0.04,0.01 h -0.03 -0.04 c -0.35,0 -0.53,-0.26 -0.53,-0.52 0,-0.26 0.17,-0.53 0.53,-0.53 0.16,0 0.28,0.06 0.38,0.14 l 0.02,0.02 c 0.01,0 0.02,-0.01 0.02,-0.15 0,-0.64 -0.28,-1.24 -0.72,-1.71 -0.06,-0.06 -0.07,-0.07 -0.07,-0.11 0,-0.07 0.05,-0.11 0.1,-0.11 0.12,0 0.91,0.79 0.91,1.93 z"
         id="path4679" /><path
         style="fill:#000000;stroke-width:0"
         inkscape:connector-curvature="0"
         d="m 412.02,471.3 v 0.03 l 0.01,0.03 0.01,0.03 0.01,0.03 0.01,0.03 v 0.03 l 0.01,0.02 0.01,0.02 0.01,0.02 0.01,0.02 0.02,0.02 0.01,0.02 0.01,0.02 0.02,0.01 0.02,0.02 0.02,0.01 0.02,0.02 0.02,0.01 0.03,0.01 0.03,0.01 0.03,0.01 h 0.01 0.02 l 0.02,0.01 h 0.02 0.02 l 0.02,0.01 h 0.02 0.02 0.02 l 0.02,0.01 h 0.03 0.02 0.03 0.03 0.02 0.03 l 0.03,0.01 h 0.03 0.03 0.03 0.04 0.03 c 0.23,0 0.32,0 0.32,0.2 0,0.11 -0.1,0.11 -0.27,0.11 h -1.31 c -0.26,0 -0.27,0 -0.39,-0.19 l -3.64,-5.67 -0.78,5.63 c -0.03,0.23 -0.05,0.23 -0.31,0.23 h -1.37 c -0.19,0 -0.29,0 -0.29,-0.19 0,-0.12 0.09,-0.12 0.28,-0.12 0.13,0 0.31,-0.01 0.43,-0.02 0.16,-0.02 0.22,-0.05 0.22,-0.16 0,-0.04 -0.01,-0.07 -0.04,-0.19 l -1.26,-5.06 c -0.1,-0.39 -0.27,-0.71 -1.08,-0.74 -0.05,0 -0.18,-0.01 -0.18,-0.19 0,-0.09 0.06,-0.12 0.14,-0.12 0.32,0 0.67,0.03 1,0.03 0.34,0 0.7,-0.03 1.02,-0.03 0.05,0 0.18,0 0.18,0.2 0,0.11 -0.11,0.11 -0.18,0.11 -0.56,0.01 -0.67,0.21 -0.67,0.43 0,0.08 0.01,0.12 0.04,0.23 l 1.35,5.42 h 0.01 l 0.86,-6.16 c 0.02,-0.12 0.03,-0.23 0.15,-0.23 0.11,0 0.17,0.11 0.22,0.18 l 4.03,6.29 h 0.01 l -1.43,-5.7 c -0.1,-0.38 -0.12,-0.46 -0.91,-0.46 -0.17,0 -0.28,0 -0.28,-0.19 0,-0.12 0.12,-0.12 0.15,-0.12 0.28,0 0.96,0.03 1.24,0.03 0.41,0 0.84,-0.03 1.25,-0.03 0.06,0 0.19,0 0.19,0.2 0,0.11 -0.09,0.11 -0.28,0.11 -0.37,0 -0.65,0 -0.65,0.18 0,0.04 0,0.06 0.05,0.24 z"
         id="path4681" /><path
         style="fill:#000000;stroke-width:0"
         inkscape:connector-curvature="0"
         d="m 423.15,468.53 h 0.03 0.03 0.03 0.01 0.02 0.01 0.01 l 0.02,0.01 h 0.01 0.02 0.01 l 0.01,0.01 h 0.02 l 0.01,0.01 h 0.01 l 0.01,0.01 0.01,0.01 h 0.01 l 0.01,0.01 0.01,0.01 0.01,0.01 v 0.01 0 l 0.01,0.01 v 0 0.01 l 0.01,0.01 v 0 0.01 0.01 0.01 h 0.01 v 0.01 0.01 0.01 0.01 0.01 c 0,0.2 -0.19,0.2 -0.33,0.2 h -5.97 c -0.14,0 -0.33,0 -0.33,-0.2 0,-0.2 0.19,-0.2 0.34,-0.2 z"
         id="path4683" /><path
         style="fill:#000000;stroke-width:0"
         inkscape:connector-curvature="0"
         d="m 423.16,466.6 h 0.01 0.02 0.02 0.03 0.02 0.01 l 0.01,0.01 h 0.02 0.01 0.02 0.01 l 0.01,0.01 h 0.01 l 0.02,0.01 h 0.01 l 0.01,0.01 h 0.01 l 0.01,0.01 0.01,0.01 0.01,0.01 h 0.01 v 0.01 h 0.01 v 0.01 0.01 h 0.01 v 0.01 0 l 0.01,0.01 v 0.01 0 0.01 0.01 l 0.01,0.01 v 0 0.01 0.01 0.01 0.01 c 0,0.2 -0.19,0.2 -0.34,0.2 h -5.95 c -0.15,0 -0.34,0 -0.34,-0.2 0,-0.2 0.19,-0.2 0.33,-0.2 z"
         id="path4685" /><path
         style="fill:#000000;stroke-width:0"
         inkscape:connector-curvature="0"
         d="m 429.75,471.64 v 0.01 0.01 0.01 0.01 0.01 0.01 0.01 0.01 0.01 0 0.01 0.01 0.01 0 0.01 0.01 l -0.01,0.01 v 0 0.01 0.01 0.01 l -0.01,0.01 v 0.01 0.01 l -0.01,0.01 h -0.01 v 0.01 h -0.01 l -0.01,0.01 h -0.01 v 0 h -0.01 v 0.01 h -0.01 v 0 h -0.01 v 0 h -0.01 -0.01 v 0 h -0.01 -0.01 -0.01 v 0 l -0.01,0.01 h -0.01 -0.01 -0.01 -0.01 -0.01 -0.01 -0.01 c -0.62,-0.64 -1.5,-0.64 -1.82,-0.64 v -0.31 c 0.2,0 0.79,0 1.31,0.26 v -5.14 c 0,-0.36 -0.03,-0.48 -0.93,-0.48 h -0.31 v -0.31 c 0.34,0.03 1.21,0.03 1.61,0.03 0.4,0 1.27,0 1.62,-0.03 v 0.31 h -0.32 c -0.9,0 -0.93,0.11 -0.93,0.48 z"
         id="path4687" /></g>    <circle
       style="opacity:1;fill:#008000;fill-opacity:1;stroke:#008000;stroke-width:1;stroke-miterlimit:4;stroke-dasharray:none;stroke-dashoffset:0;stroke-opacity:1"
       id="path19426-6"
       cx="147.99434"
       cy="236.23805"
       r="1.9135686" />
    <g
       id="g5192"
       transform="matrix(1.2290729,0,0,-1.2290729,-176.57471,824.63111)"
       xml:space="preserve"
       stroke-miterlimit="10.433"
       font-style="normal"
       font-variant="normal"
       font-weight="normal"
       font-stretch="normal"
       font-size-adjust="none"
       letter-spacing="normal"
       word-spacing="normal"
       ns0:text="$K=3$"
       ns0:preamble="/usr/share/inkscape/extensions/textextLib/basicLatexPackages.tex"
       style="font-style:normal;font-variant:normal;font-weight:normal;font-stretch:normal;letter-spacing:normal;word-spacing:normal;text-anchor:start;fill:#008000;fill-opacity:1;fill-rule:evenodd;stroke:#000000;stroke-linecap:butt;stroke-linejoin:miter;stroke-miterlimit:10.43299961;stroke-dasharray:none;stroke-dashoffset:0;stroke-opacity:1"><path
         style="fill:#008000;stroke-width:0"
         inkscape:connector-curvature="0"
         d="m 228.51,481.25 v 0 0 l -0.01,0.01 v 0 0.01 0 0 0.01 h -0.01 v 0.01 0 0.01 l -0.01,0.01 v 0.01 0.01 h -0.01 v 0.01 0 0.01 0 l -0.01,0.01 v 0 0.01 0 0 0.01 0 0 0.01 c 0,0.01 0.18,0.15 0.29,0.23 l 1.74,1.34 c 0.94,0.68 1.33,0.72 1.63,0.75 0.08,0.01 0.18,0.02 0.18,0.2 0,0.04 -0.03,0.11 -0.11,0.11 -0.22,0 -0.47,-0.03 -0.71,-0.03 -0.36,0 -0.75,0.03 -1.11,0.03 -0.07,0 -0.19,0 -0.19,-0.2 0,-0.07 0.05,-0.1 0.12,-0.11 0.22,-0.02 0.31,-0.07 0.31,-0.21 0,-0.18 -0.3,-0.4 -0.36,-0.45 l -3.89,-2.98 0.8,3.19 c 0.09,0.35 0.11,0.45 0.84,0.45 0.25,0 0.34,0 0.34,0.2 0,0.09 -0.08,0.11 -0.14,0.11 -0.28,0 -1,-0.03 -1.28,-0.03 -0.29,0 -0.99,0.03 -1.28,0.03 -0.07,0 -0.2,0 -0.2,-0.19 0,-0.12 0.09,-0.12 0.29,-0.12 0.12,0 0.31,-0.01 0.42,-0.02 0.16,-0.02 0.22,-0.05 0.22,-0.16 0,-0.04 -0.01,-0.07 -0.04,-0.19 L 225,478.01 c -0.1,-0.39 -0.12,-0.47 -0.91,-0.47 -0.17,0 -0.28,0 -0.28,-0.19 0,-0.12 0.12,-0.12 0.15,-0.12 0.28,0 0.99,0.04 1.27,0.04 0.21,0 0.43,-0.01 0.64,-0.01 0.22,0 0.43,-0.03 0.64,-0.03 0.07,0 0.2,0 0.2,0.2 0,0.11 -0.09,0.11 -0.28,0.11 -0.36,0 -0.64,0 -0.64,0.18 0,0.07 0.06,0.29 0.09,0.44 0.13,0.51 0.26,1.04 0.39,1.56 l 1.49,1.15 1.16,-2.67 c 0.12,-0.27 0.12,-0.29 0.12,-0.35 0,-0.3 -0.43,-0.31 -0.52,-0.31 -0.11,0 -0.22,0 -0.22,-0.2 0,-0.11 0.12,-0.11 0.14,-0.11 0.4,0 0.82,0.04 1.21,0.04 0.22,0 0.76,-0.04 0.98,-0.04 0.05,0 0.18,0 0.18,0.2 0,0.11 -0.11,0.11 -0.2,0.11 -0.41,0.01 -0.54,0.1 -0.69,0.45 z"
         id="path5184" /><path
         style="fill:#008000;stroke-width:0"
         inkscape:connector-curvature="0"
         d="m 242.22,480.48 h 0.03 0.03 0.03 l 0.02,0.01 h 0.01 0.01 0.02 0.01 0.02 l 0.01,0.01 h 0.01 0.02 l 0.01,0.01 h 0.01 l 0.01,0.01 h 0.01 l 0.02,0.01 0.01,0.01 v 0.01 l 0.01,0.01 0.01,0.01 v 0 l 0.01,0.01 v 0 0.01 l 0.01,0.01 v 0 0.01 0.01 h 0.01 v 0.01 0.01 0.01 0.01 0 0.01 0.01 c 0,0.2 -0.19,0.2 -0.33,0.2 h -5.97 c -0.14,0 -0.33,0 -0.33,-0.2 0,-0.2 0.19,-0.2 0.34,-0.2 z"
         id="path5186" /><path
         style="fill:#008000;stroke-width:0"
         inkscape:connector-curvature="0"
         d="m 242.23,478.56 h 0.02 0.01 0.03 0.03 0.01 0.01 0.02 0.01 0.02 l 0.01,0.01 h 0.01 0.02 l 0.01,0.01 h 0.01 l 0.01,0.01 h 0.01 l 0.02,0.01 h 0.01 l 0.01,0.01 v 0.01 l 0.01,0.01 h 0.01 v 0.01 0.01 h 0.01 v 0.01 0 l 0.01,0.01 v 0.01 0 0.01 l 0.01,0.01 v 0 0.01 0.01 0.01 0.01 0.01 0.01 c 0,0.19 -0.19,0.19 -0.34,0.19 h -5.95 c -0.15,0 -0.34,0 -0.34,-0.19 0,-0.2 0.19,-0.2 0.33,-0.2 z"
         id="path5188" /><path
         style="fill:#008000;stroke-width:0"
         inkscape:connector-curvature="0"
         d="m 248.78,480.73 0.08,0.03 0.07,0.03 0.08,0.03 0.07,0.03 0.07,0.04 0.07,0.04 0.06,0.04 0.07,0.04 0.06,0.04 0.06,0.05 0.06,0.05 0.05,0.05 0.06,0.05 0.05,0.05 0.05,0.06 0.05,0.05 0.04,0.06 0.05,0.06 0.04,0.06 0.03,0.06 0.04,0.07 0.03,0.06 0.03,0.07 0.03,0.06 0.02,0.07 0.02,0.07 0.02,0.07 0.01,0.07 0.02,0.07 v 0.07 l 0.01,0.08 v 0.07 c 0,0.82 -0.88,1.37 -1.83,1.37 -1.01,0 -1.77,-0.59 -1.77,-1.35 0,-0.33 0.22,-0.52 0.51,-0.52 0.31,0 0.51,0.22 0.51,0.51 0,0.5 -0.47,0.5 -0.62,0.5 0.31,0.48 0.97,0.61 1.32,0.61 0.41,0 0.96,-0.22 0.96,-1.11 0,-0.12 -0.02,-0.69 -0.28,-1.13 -0.3,-0.48 -0.63,-0.51 -0.88,-0.52 -0.08,-0.01 -0.32,-0.03 -0.39,-0.03 -0.08,-0.01 -0.15,-0.02 -0.15,-0.12 0,-0.11 0.07,-0.11 0.24,-0.11 h 0.44 c 0.81,0 1.18,-0.67 1.18,-1.65 0,-1.35 -0.69,-1.63 -1.13,-1.63 -0.42,0 -1.17,0.16 -1.52,0.75 0.35,-0.05 0.66,0.17 0.66,0.55 0,0.35 -0.27,0.55 -0.56,0.55 -0.24,0 -0.56,-0.14 -0.56,-0.57 0,-0.91 0.93,-1.56 2.01,-1.56 1.22,0 2.13,0.9 2.13,1.91 0,0.82 -0.63,1.59 -1.67,1.8 z"
         id="path5190" /></g>    <path
       sodipodi:nodetypes="cc"
       inkscape:connector-curvature="0"
       id="path4588"
       d="M 185.17456,259.55602 73.598789,175.35901"
       style="fill:#ff0000;stroke:#ff0000;stroke-width:1px;stroke-linecap:butt;stroke-linejoin:miter;stroke-opacity:1" />
    <circle
       r="2.7304955"
       style="opacity:1;fill:#000000;fill-opacity:1;stroke:#000000;stroke-width:1.42691267;stroke-miterlimit:4;stroke-dasharray:none;stroke-dashoffset:0;stroke-opacity:1"
       id="path19426-3"
       cx="155.61349"
       cy="232.93892" />
    <g
       ns0:preamble="/usr/share/inkscape/extensions/textextLib/basicLatexPackages.tex"
       ns0:text="$\\underline{\\mathbf{x}}^{(\\alpha)}$"
       word-spacing="normal"
       letter-spacing="normal"
       font-size-adjust="none"
       font-stretch="normal"
       font-weight="normal"
       font-variant="normal"
       font-style="normal"
       stroke-miterlimit="10.433"
       xml:space="preserve"
       transform="matrix(1.4746797,0,0,-1.4746797,-165.27182,920.69391)"
       id="g4690"
       style="font-style:normal;font-variant:normal;font-weight:normal;font-stretch:normal;letter-spacing:normal;word-spacing:normal;text-anchor:start;fill:none;fill-opacity:1;fill-rule:evenodd;stroke:#000000;stroke-linecap:butt;stroke-linejoin:miter;stroke-miterlimit:10.43299961;stroke-dasharray:none;stroke-dashoffset:0;stroke-opacity:1"><path
         id="path4680"
         d="m 226.88,479.68 1.17,1.29 c 0.13,0.14 0.19,0.21 1.02,0.21 v 0.47 c -0.35,-0.02 -0.87,-0.03 -0.92,-0.03 -0.25,0 -0.75,0.02 -1.03,0.03 v -0.47 c 0.14,0 0.26,-0.02 0.38,-0.09 -0.04,-0.06 -0.04,-0.08 -0.08,-0.12 l -0.84,-0.93 -0.97,1.14 h 0.4 v 0.47 c -0.26,-0.01 -0.89,-0.03 -1.21,-0.03 -0.32,0 -0.77,0.02 -1.1,0.03 v -0.47 h 0.71 l 1.55,-1.83 -1.3,-1.46 c -0.17,-0.19 -0.53,-0.19 -1.01,-0.19 v -0.47 c 0.35,0.03 0.87,0.04 0.92,0.04 0.25,0 0.83,-0.03 1.03,-0.04 v 0.47 c -0.18,0 -0.37,0.05 -0.37,0.11 0,0.01 0,0.02 0.07,0.1 l 0.96,1.08 1.1,-1.29 h -0.39 v -0.47 c 0.26,0.01 0.87,0.04 1.2,0.04 0.32,0 0.77,-0.03 1.1,-0.04 v 0.47 h -0.71 z"
         inkscape:connector-curvature="0"
         style="fill:#000000;stroke-width:0" /><line
         id="line4682"
         y2="475.84"
         x2="229.48"
         y1="475.84"
         x1="223.42999"
         style="stroke-width:0.398" /><path
         id="path4684"
         d="m 231.96,486.07 -0.12,-0.09 -0.12,-0.09 -0.11,-0.1 -0.1,-0.1 -0.1,-0.1 -0.1,-0.1 -0.09,-0.1 -0.08,-0.11 -0.08,-0.11 -0.08,-0.11 -0.07,-0.11 -0.06,-0.11 -0.07,-0.11 -0.05,-0.12 -0.06,-0.11 -0.05,-0.12 -0.04,-0.12 -0.04,-0.11 -0.04,-0.12 -0.04,-0.11 -0.03,-0.12 -0.03,-0.12 -0.02,-0.11 -0.02,-0.11 -0.02,-0.12 -0.02,-0.11 -0.01,-0.11 -0.01,-0.11 -0.01,-0.1 v -0.11 l -0.01,-0.1 v -0.1 c 0,-0.98 0.3,-2.51 1.68,-3.48 0.06,0 0.14,0 0.14,0.08 0,0.04 -0.02,0.06 -0.07,0.11 -0.93,0.83 -1.27,2.01 -1.27,3.28 0,1.88 0.72,2.8 1.29,3.31 0.03,0.03 0.05,0.05 0.05,0.08 0,0.09 -0.08,0.09 -0.14,0.09 z"
         inkscape:connector-curvature="0"
         style="fill:#000000;stroke-width:0" /><path
         id="path4686"
         d="m 236.42,481.83 0.06,0.06 0.05,0.07 0.06,0.06 0.05,0.07 0.05,0.07 0.05,0.06 0.05,0.07 0.04,0.07 0.04,0.07 0.04,0.06 0.04,0.07 0.03,0.07 0.04,0.06 0.03,0.07 0.03,0.06 0.03,0.06 0.03,0.06 0.02,0.06 0.02,0.05 0.02,0.06 0.02,0.05 0.02,0.05 0.01,0.04 0.02,0.04 0.01,0.04 0.01,0.04 0.01,0.03 0.01,0.03 v 0.02 l 0.01,0.02 v 0.01 0.01 c 0,0.09 -0.08,0.09 -0.12,0.09 -0.1,0 -0.1,-0.02 -0.15,-0.17 -0.12,-0.46 -0.35,-0.88 -0.65,-1.26 0,0.11 -0.02,0.57 -0.03,0.63 -0.11,0.69 -0.63,1.14 -1.33,1.14 l -0.01,-0.2 c 0.56,0 0.72,-0.53 0.78,-0.96 0.04,-0.3 0.03,-0.8 0.06,-1.16 v 0 c -0.68,-0.56 -1.28,-0.62 -1.54,-0.62 -0.46,0 -0.72,0.3 -0.72,0.77 0,0.2 0.09,0.96 0.46,1.44 0.32,0.42 0.72,0.53 0.96,0.53 l 0.01,0.2 c -1.03,0 -2.01,-0.96 -2.01,-1.93 0,-0.64 0.46,-1.21 1.27,-1.21 0.65,0 1.23,0.29 1.62,0.59 0.16,-0.51 0.52,-0.59 0.73,-0.59 0.4,0 0.65,0.34 0.65,0.49 0,0.08 -0.08,0.08 -0.11,0.08 -0.09,0 -0.11,-0.03 -0.12,-0.07 -0.1,-0.26 -0.32,-0.3 -0.4,-0.3 -0.1,0 -0.22,0 -0.25,0.85 z"
         inkscape:connector-curvature="0"
         style="fill:#000000;stroke-width:0" /><path
         id="path4688"
         d="m 238.4,486.07 v 0 h -0.01 v 0 h -0.01 v 0 h -0.01 v 0 l -0.01,-0.01 h -0.01 v 0 h -0.01 v 0 h -0.01 v 0 h -0.01 v 0 l -0.01,-0.01 v 0 h -0.01 v 0 l -0.01,-0.01 v 0 0 l -0.01,-0.01 v 0 0 0 -0.01 0 h -0.01 v 0 -0.01 0 0 -0.01 0 0 -0.01 0 0 -0.01 c 0,-0.03 0.02,-0.05 0.06,-0.1 0.6,-0.55 1.27,-1.49 1.27,-3.28 0,-1.46 -0.45,-2.56 -1.21,-3.24 -0.12,-0.12 -0.12,-0.12 -0.12,-0.16 0,-0.03 0.02,-0.08 0.09,-0.08 0.08,0 0.75,0.46 1.21,1.33 0.31,0.57 0.51,1.33 0.51,2.14 0,0.98 -0.29,2.5 -1.68,3.48 z"
         inkscape:connector-curvature="0"
         style="fill:#000000;stroke-width:0" /></g>    <path
       style="fill:none;stroke:#000000;stroke-width:1;stroke-linecap:butt;stroke-linejoin:miter;stroke-miterlimit:4;stroke-dasharray:1, 2;stroke-dashoffset:0;stroke-opacity:1;marker-start:url(#Arrow1Mstart)"
       d="m 155.05438,227.25678 c -1.34377,-7.97479 -3.60492,-15.2129 9.14967,-13.56589"
       id="path4791"
       inkscape:connector-curvature="0"
       sodipodi:nodetypes="cc" />
  </g>
</svg>
