<?xml version="1.0" encoding="utf-8"?>
<!-- Generator: Adobe Illustrator 21.1.0, SVG Export Plug-In . SVG Version: 6.00 Build 0)  -->
<svg version="1.1" id="Ebene_1" xmlns="http://www.w3.org/2000/svg" xmlns:xlink="http://www.w3.org/1999/xlink" x="0px" y="0px"
	 viewBox="0 0 176.6 81.3" style="enable-background:new 0 0 176.6 81.3;" xml:space="preserve">
<style type="text/css">
	.st0{fill:none;stroke:#000000;stroke-width:0.75;stroke-linecap:square;stroke-miterlimit:10;}
	.st1{clip-path:url(#SVGID_2_);}
	.st2{clip-path:url(#SVGID_4_);}
	.st3{clip-path:url(#SVGID_6_);}
	.st4{fill:none;stroke:#000000;stroke-width:0.75;stroke-miterlimit:10;stroke-dasharray:1,1;}
	.st5{clip-path:url(#SVGID_8_);}
</style>
<title>Gaussian distribution</title>
<g>
	<g>
		<line class="st0" x1="2.9" y1="75.6" x2="166.5" y2="75.6"/>
		<g>
			<polygon points="165.4,77 166,75.6 165.4,74.2 168.7,75.6 			"/>
		</g>
	</g>
</g>
<g>
	<g>
		<line class="st0" x1="85.8" y1="9.8" x2="85.8" y2="78.1"/>
		<g>
			<polygon points="84.4,10.8 85.8,10.2 87.2,10.8 85.8,7.5 			"/>
		</g>
	</g>
</g>
<path class="st0" d="M7.1,75.6c3.6,0,7.1,0,10.7-0.1c3.4-0.1,6.8-0.2,10.2-0.7c3.6-0.5,7.1-1.2,10.4-2.6c3.4-1.4,6.3-3.4,9-5.8
	c2.7-2.3,5-5.2,7-8.1c2.1-3,4.1-6.1,5.9-9.3c1.9-3.3,3.7-6.7,5.4-10c1.7-3.3,3.5-6.6,5.3-9.8c1.8-3.2,3.7-6.3,5.9-9.2
	c1.2-1.5,2.4-2.8,3.9-4c1.4-1.2,3.1-1.8,4.8-1.9c1.8-0.1,3.5,0.8,4.9,1.8c1.5,1,2.7,2.4,3.8,3.8c2.3,2.8,4.2,6.1,6.1,9.3
	c1.8,3.1,3.4,6.3,5.1,9.5c1.8,3.3,3.5,6.7,5.4,10c1.8,3.2,3.7,6.3,5.8,9.3c2.2,3.1,4.5,6,7.2,8.5c2.7,2.5,5.7,4.5,9,5.9
	c3.2,1.4,6.6,2.2,10.1,2.6c3.5,0.4,7,0.6,10.5,0.7c3.5,0.1,7,0.1,10.5,0.1c0.2,0,0.4,0,0.5,0"/>
<path class="st0" d="M85.6,14"/>
<rect x="43.3" y="50" class="st0" width="85.1" height="25.6"/>
<g>
	<defs>
		<rect id="SVGID_1_" x="83" y="2.7" width="5.6" height="4.6"/>
	</defs>
	<clipPath id="SVGID_2_">
		<use xlink:href="#SVGID_1_"  style="overflow:visible;"/>
	</clipPath>
	<path class="st1" d="M87.7,3.4c0.1-0.2,0.1-0.3,0.5-0.3c0.2,0,0.2,0,0.2-0.1c0-0.1-0.1-0.1-0.1-0.1c-0.2,0-0.6,0-0.8,0
		c-0.2,0-0.6,0-0.8,0c0,0-0.1,0-0.1,0.1c0,0.1,0.1,0.1,0.2,0.1c0,0,0.1,0,0.2,0c0.1,0,0.2,0,0.2,0.1c0,0,0,0,0,0.1l-0.4,1.5h-1.9
		l0.4-1.4c0.1-0.2,0.1-0.3,0.5-0.3c0.2,0,0.2,0,0.2-0.1c0-0.1-0.1-0.1-0.1-0.1c-0.2,0-0.6,0-0.8,0c-0.2,0-0.6,0-0.8,0
		c-0.1,0-0.1,0-0.1,0.1c0,0.1,0.1,0.1,0.2,0.1c0,0,0.1,0,0.2,0c0.1,0,0.2,0,0.2,0.1c0,0,0,0,0,0.1l-0.8,3.3
		c-0.1,0.2-0.1,0.3-0.5,0.3c-0.1,0-0.2,0-0.2,0.1c0,0.1,0.1,0.1,0.1,0.1c0.2,0,0.6,0,0.8,0c0.1,0,0.3,0,0.4,0c0.1,0,0.3,0,0.4,0
		c0.1,0,0.1,0,0.1-0.1c0-0.1-0.1-0.1-0.2-0.1c-0.2,0-0.4,0-0.4-0.1c0,0,0-0.1,0-0.1L84.9,5h1.9c-0.3,1-0.4,1.6-0.4,1.7
		c-0.1,0.2-0.2,0.2-0.6,0.2c-0.1,0-0.1,0-0.1,0.1c0,0.1,0.1,0.1,0.1,0.1c0.2,0,0.6,0,0.8,0c0.1,0,0.3,0,0.4,0c0.1,0,0.3,0,0.4,0
		c0.1,0,0.1,0,0.1-0.1c0-0.1-0.1-0.1-0.2-0.1c-0.2,0-0.4,0-0.4-0.1c0,0,0-0.1,0-0.1L87.7,3.4"/>
</g>
<g>
	<defs>
		<rect id="SVGID_3_" x="105" y="12.6" width="42.1" height="4.5"/>
	</defs>
	<clipPath id="SVGID_4_">
		<use xlink:href="#SVGID_3_"  style="overflow:visible;"/>
	</clipPath>
	<path class="st2" d="M108.5,16.6c0.1,0.1,0.3,0.4,0.4,0.4c0.1,0,0.1-0.1,0.1-0.2v-1.1c0-0.2,0-0.3,0.4-0.3v-0.2c-0.2,0-0.6,0-0.8,0
		c-0.2,0-0.8,0-1,0v0.2h0.2c0.5,0,0.6,0.1,0.6,0.3v0.4c0,0.7-0.8,0.7-0.9,0.7c-0.4,0-1.6-0.2-1.6-2c0-1.8,1.2-2,1.6-2
		c0.7,0,1.2,0.6,1.3,1.5c0,0.1,0,0.1,0.1,0.1c0.1,0,0.1,0,0.1-0.2v-1.4c0-0.1,0-0.1-0.1-0.1c0,0,0,0-0.1,0.1l-0.3,0.5
		c-0.2-0.2-0.5-0.5-1.1-0.5c-1.1,0-2.1,1-2.1,2.2s1,2.2,2.1,2.2C107.8,17.1,108.2,17,108.5,16.6"/>
	<path class="st2" d="M111.7,15.5v0.6c0,0.6-0.4,0.8-0.7,0.8c-0.3,0-0.6-0.2-0.6-0.5C110.4,16.1,110.6,15.6,111.7,15.5 M111.7,16.5
		c0,0.2,0.2,0.5,0.5,0.5c0.1,0,0.5-0.1,0.5-0.6v-0.3h-0.2v0.3c0,0.4-0.2,0.4-0.2,0.4c-0.2,0-0.2-0.3-0.2-0.3v-1.2
		c0-0.3,0-0.5-0.2-0.7c-0.2-0.2-0.5-0.3-0.8-0.3c-0.5,0-0.9,0.3-0.9,0.7c0,0.2,0.1,0.3,0.3,0.3c0.2,0,0.3-0.1,0.3-0.3
		c0-0.1,0-0.3-0.3-0.3c0.2-0.2,0.5-0.3,0.7-0.3c0.3,0,0.7,0.2,0.7,0.8v0.2c-0.3,0-0.7,0-1.1,0.2c-0.5,0.2-0.6,0.5-0.6,0.8
		c0,0.5,0.6,0.6,1,0.6C111.3,17.1,111.6,16.8,111.7,16.5z"/>
	<path class="st2" d="M115.1,16.5v0.5L116,17v-0.2c-0.4,0-0.5,0-0.5-0.3v-2.2l-0.9,0.1v0.2c0.4,0,0.5,0,0.5,0.3V16
		c0,0.5-0.3,0.9-0.7,0.9c-0.5,0-0.5-0.3-0.5-0.6v-2l-0.9,0.1v0.2c0.5,0,0.5,0,0.5,0.6V16c0,0.5,0,1,0.9,1
		C114.7,17.1,114.9,16.9,115.1,16.5"/>
	<path class="st2" d="M117.4,15.8c0.1,0,0.6,0.1,0.6,0.6c0,0.3-0.2,0.5-0.7,0.5c-0.5,0-0.7-0.3-0.8-0.9c0-0.1,0-0.1-0.1-0.1
		c-0.1,0-0.1,0-0.1,0.2v0.8c0,0.1,0,0.2,0.1,0.2c0,0,0,0,0.2-0.1c0,0,0,0,0.1-0.1c0.3,0.3,0.5,0.3,0.7,0.3c0.7,0,1-0.4,1-0.8
		c0-0.3-0.2-0.5-0.2-0.6c-0.2-0.2-0.5-0.2-0.7-0.3c-0.4-0.1-0.8-0.2-0.8-0.5c0-0.2,0.2-0.5,0.7-0.5c0.7,0,0.7,0.5,0.7,0.7
		c0,0.1,0.1,0.1,0.1,0.1c0.1,0,0.1,0,0.1-0.1v-0.6c0-0.1,0-0.1-0.1-0.1c0,0,0,0-0.1,0.1c0,0-0.1,0.1-0.1,0.1
		c-0.2-0.2-0.5-0.2-0.6-0.2c-0.8,0-1,0.4-1,0.8c0,0.2,0.1,0.4,0.3,0.5C116.8,15.7,117,15.7,117.4,15.8"/>
	<path class="st2" d="M119.8,15.8c0.1,0,0.6,0.1,0.6,0.6c0,0.3-0.2,0.5-0.7,0.5c-0.5,0-0.7-0.3-0.8-0.9c0-0.1,0-0.1-0.1-0.1
		c-0.1,0-0.1,0-0.1,0.2v0.8c0,0.1,0,0.2,0.1,0.2c0,0,0,0,0.2-0.1c0,0,0,0,0.1-0.1c0.3,0.3,0.5,0.3,0.7,0.3c0.7,0,1-0.4,1-0.8
		c0-0.3-0.2-0.5-0.3-0.6c-0.2-0.2-0.4-0.2-0.7-0.3c-0.3-0.1-0.8-0.2-0.8-0.5c0-0.2,0.2-0.5,0.7-0.5c0.7,0,0.7,0.5,0.7,0.7
		c0,0.1,0.1,0.1,0.1,0.1c0.1,0,0.1,0,0.1-0.1v-0.6c0-0.1,0-0.1-0.1-0.1c0,0,0,0-0.1,0.1c0,0-0.1,0.1-0.1,0.1
		c-0.2-0.2-0.5-0.2-0.6-0.2c-0.7,0-1,0.4-1,0.8c0,0.2,0.1,0.4,0.3,0.5C119.2,15.7,119.4,15.7,119.8,15.8"/>
	<path class="st2" d="M122.1,13.2c0-0.2-0.2-0.3-0.3-0.3c-0.2,0-0.3,0.2-0.3,0.3c0,0.2,0.1,0.3,0.3,0.3
		C121.9,13.6,122.1,13.4,122.1,13.2 M122,14.3l-0.8,0.1v0.2c0.4,0,0.5,0,0.5,0.3v1.6c0,0.3-0.1,0.3-0.5,0.3V17c0.2,0,0.5,0,0.7,0
		c0.2,0,0.4,0,0.6,0v-0.2c-0.4,0-0.4,0-0.4-0.3V14.3z"/>
	<path class="st2" d="M124.6,15.5v0.6c0,0.6-0.4,0.8-0.7,0.8c-0.3,0-0.6-0.2-0.6-0.5C123.4,16.1,123.6,15.6,124.6,15.5 M124.7,16.5
		c0,0.2,0.2,0.5,0.5,0.5c0.1,0,0.5-0.1,0.5-0.6v-0.3h-0.2v0.3c0,0.4-0.2,0.4-0.2,0.4c-0.2,0-0.2-0.3-0.2-0.3v-1.2
		c0-0.3,0-0.5-0.2-0.7c-0.2-0.2-0.5-0.3-0.8-0.3c-0.5,0-0.9,0.3-0.9,0.7c0,0.2,0.1,0.3,0.3,0.3c0.2,0,0.3-0.1,0.3-0.3
		c0-0.1,0-0.3-0.3-0.3c0.2-0.2,0.5-0.3,0.7-0.3c0.3,0,0.6,0.2,0.6,0.8v0.2c-0.3,0-0.7,0-1.1,0.2c-0.5,0.2-0.6,0.5-0.6,0.8
		c0,0.5,0.6,0.6,1,0.6S124.6,16.8,124.7,16.5z"/>
	<path class="st2" d="M126.4,14.9v1.6c0,0.3-0.1,0.3-0.5,0.3V17c0.2,0,0.5,0,0.7,0c0.2,0,0.5,0,0.7,0v-0.2c-0.4,0-0.5,0-0.5-0.3
		v-1.1c0-0.6,0.4-1,0.8-1c0.4,0,0.5,0.3,0.5,0.7v1.4c0,0.3-0.1,0.3-0.5,0.3V17c0.2,0,0.5,0,0.7,0c0.2,0,0.5,0,0.7,0v-0.2
		c-0.3,0-0.5,0-0.5-0.2v-1.2c0-0.5,0-0.7-0.2-0.9c-0.1-0.1-0.3-0.2-0.6-0.2c-0.5,0-0.7,0.3-0.9,0.6v-0.6l-0.9,0.1v0.2
		C126.3,14.6,126.4,14.6,126.4,14.9"/>
	<path class="st2" d="M131.9,16.5c0,0.3-0.1,0.3-0.5,0.3V17c0.2,0,0.5,0,0.7,0c0.2,0,0.4,0,0.7,0v-0.2c-0.4,0-0.5,0-0.5-0.3v-0.6
		l0.4-0.3c0.5,0.7,0.7,1,0.7,1.1c0,0.1-0.1,0.1-0.2,0.1V17c0.2,0,0.5,0,0.7,0c0.2,0,0.4,0,0.5,0v-0.2c-0.2,0-0.4,0-0.6-0.3l-0.8-1.1
		c0,0,0-0.1,0-0.1c0,0,0.4-0.4,0.5-0.5c0.4-0.3,0.6-0.3,0.8-0.3v-0.2c-0.2,0-0.3,0-0.4,0c-0.2,0-0.6,0-0.7,0v0.2
		c0.1,0,0.2,0.1,0.2,0.2c0,0.1-0.1,0.2-0.1,0.2l-0.9,0.7v-2.9l-0.9,0.1V13c0.4,0,0.5,0,0.5,0.3V16.5"/>
	<path class="st2" d="M134.9,15.6h1.7c0.1,0,0.2,0,0.2-0.1c0-0.6-0.3-1.2-1.1-1.2c-0.7,0-1.3,0.6-1.3,1.4c0,0.8,0.6,1.4,1.4,1.4
		c0.8,0,1-0.7,1-0.8c0-0.1-0.1-0.1-0.1-0.1c-0.1,0-0.1,0-0.1,0.1c-0.2,0.6-0.8,0.6-0.8,0.6c-0.3,0-0.6-0.2-0.7-0.4
		C134.9,16.2,134.9,15.8,134.9,15.6 M134.9,15.5c0-0.9,0.5-1.1,0.8-1.1c0.6,0,0.7,0.8,0.7,1.1H134.9z"/>
	<path class="st2" d="M138,15v-0.7l-0.9,0.1v0.2c0.4,0,0.5,0,0.5,0.3v1.6c0,0.3-0.1,0.3-0.5,0.3V17c0.2,0,0.5,0,0.7,0
		c0.2,0,0.5,0,0.8,0v-0.2h-0.1c-0.5,0-0.5-0.1-0.5-0.3v-0.9c0-0.6,0.3-1.1,0.7-1.1c0,0,0.1,0,0.1,0c0,0-0.2,0.1-0.2,0.2
		c0,0.2,0.1,0.3,0.3,0.3c0.1,0,0.3-0.1,0.3-0.3c0-0.2-0.2-0.4-0.5-0.4C138.3,14.3,138.1,14.7,138,15"/>
	<path class="st2" d="M140.1,14.9v1.6c0,0.3-0.1,0.3-0.5,0.3V17c0.2,0,0.5,0,0.7,0s0.5,0,0.7,0v-0.2c-0.4,0-0.5,0-0.5-0.3v-1.1
		c0-0.6,0.4-1,0.8-1c0.4,0,0.5,0.3,0.5,0.7v1.4c0,0.3-0.1,0.3-0.5,0.3V17c0.2,0,0.5,0,0.7,0c0.2,0,0.5,0,0.7,0v-0.2
		c-0.3,0-0.5,0-0.5-0.2v-1.2c0-0.5,0-0.7-0.2-0.9c-0.1-0.1-0.3-0.2-0.6-0.2c-0.5,0-0.7,0.3-0.9,0.6v-0.6l-0.9,0.1v0.2
		C140,14.6,140.1,14.6,140.1,14.9"/>
	<path class="st2" d="M143.5,15.6h1.7c0.1,0,0.2,0,0.2-0.1c0-0.6-0.3-1.2-1.1-1.2c-0.7,0-1.3,0.6-1.3,1.4c0,0.8,0.6,1.4,1.3,1.4
		c0.8,0,1-0.7,1-0.8c0-0.1-0.1-0.1-0.1-0.1c-0.1,0-0.1,0-0.1,0.1c-0.2,0.6-0.8,0.6-0.8,0.6c-0.3,0-0.6-0.2-0.7-0.4
		C143.5,16.2,143.5,15.8,143.5,15.6 M143.5,15.5c0-0.9,0.5-1.1,0.8-1.1c0.6,0,0.7,0.8,0.7,1.1H143.5z"/>
	<path class="st2" d="M146.6,12.8l-0.9,0.1V13c0.4,0,0.5,0,0.5,0.3v3.2c0,0.3-0.1,0.3-0.5,0.3V17c0.2,0,0.5,0,0.7,0
		c0.2,0,0.5,0,0.7,0v-0.2c-0.4,0-0.5,0-0.5-0.3V12.8"/>
</g>
<g>
	<defs>
		<rect id="SVGID_5_" x="129.8" y="35.4" width="44.7" height="5.6"/>
	</defs>
	<clipPath id="SVGID_6_">
		<use xlink:href="#SVGID_5_"  style="overflow:visible;"/>
	</clipPath>
	<path class="st3" d="M130.3,39.2c0,0.3-0.1,0.3-0.5,0.3v0.2c0.2,0,0.5,0,0.7,0c0.2,0,0.5,0,0.7,0v-0.2c-0.4,0-0.5,0-0.5-0.3v-1.1
		c0-0.6,0.4-1,0.8-1c0.4,0,0.5,0.3,0.5,0.7v1.4c0,0.3-0.1,0.3-0.5,0.3v0.2c0.2,0,0.5,0,0.7,0s0.5,0,0.7,0v-0.2c-0.3,0-0.5,0-0.5-0.2
		v-1.2c0-0.5,0-0.7-0.2-0.9c-0.1-0.1-0.3-0.2-0.6-0.2c-0.5,0-0.8,0.4-0.9,0.6v-2.1l-0.9,0.1v0.2c0.4,0,0.5,0,0.5,0.3V39.2"/>
	<path class="st3" d="M134.1,35.9c0-0.2-0.2-0.3-0.3-0.3c-0.2,0-0.3,0.2-0.3,0.3c0,0.2,0.1,0.3,0.3,0.3
		C134,36.2,134.1,36.1,134.1,35.9 M134.1,37l-0.9,0.1v0.2c0.4,0,0.5,0,0.5,0.3v1.7c0,0.3-0.1,0.3-0.5,0.3v0.2c0.2,0,0.5,0,0.7,0
		c0.2,0,0.4,0,0.6,0v-0.2c-0.4,0-0.4,0-0.4-0.3V37z"/>
	<path class="st3" d="M136.1,38.5c0.1,0,0.6,0.1,0.6,0.6c0,0.3-0.2,0.6-0.7,0.6c-0.5,0-0.7-0.4-0.8-0.9c0-0.1,0-0.1-0.1-0.1
		c-0.1,0-0.1,0.1-0.1,0.2v0.8c0,0.1,0,0.2,0.1,0.2c0,0,0,0,0.2-0.1c0,0,0,0,0.1-0.2c0.3,0.3,0.5,0.3,0.7,0.3c0.7,0,1-0.4,1-0.9
		c0-0.3-0.2-0.5-0.3-0.6c-0.2-0.2-0.4-0.2-0.7-0.3c-0.3-0.1-0.8-0.1-0.8-0.5c0-0.2,0.2-0.5,0.7-0.5c0.7,0,0.7,0.5,0.7,0.7
		c0,0.1,0.1,0.1,0.1,0.1c0.1,0,0.1,0,0.1-0.2v-0.6c0-0.1,0-0.2-0.1-0.2c0,0,0,0-0.1,0.1c0,0-0.1,0.1-0.1,0.1
		c-0.2-0.2-0.5-0.2-0.6-0.2c-0.7,0-1,0.4-1,0.8c0,0.2,0.1,0.4,0.3,0.5C135.4,38.4,135.6,38.4,136.1,38.5"/>
	<path class="st3" d="M138.3,37.2h0.9v-0.2h-0.9v-1.1h-0.2c0,0.5-0.2,1.2-0.8,1.2v0.1h0.5v1.7c0,0.8,0.6,0.8,0.8,0.8
		c0.4,0,0.6-0.4,0.6-0.8v-0.3h-0.2v0.3c0,0.5-0.2,0.7-0.4,0.7c-0.4,0-0.4-0.5-0.4-0.7V37.2"/>
	<path class="st3" d="M141.1,39.6c-0.3,0-0.5-0.1-0.7-0.4c-0.2-0.3-0.2-0.6-0.2-0.9c0-0.2,0-0.6,0.2-0.8c0.2-0.3,0.5-0.4,0.7-0.4
		c0.3,0,0.5,0.1,0.7,0.4c0.2,0.3,0.2,0.6,0.2,0.8c0,0.2,0,0.6-0.1,0.8C141.7,39.4,141.4,39.6,141.1,39.6 M142.4,38.4
		c0-0.8-0.6-1.4-1.4-1.4c-0.8,0-1.4,0.7-1.4,1.4c0,0.8,0.6,1.4,1.4,1.4C141.8,39.8,142.4,39.2,142.4,38.4z"/>
	<path class="st3" d="M144.2,40.8c-0.6,0-1.1-0.3-1.1-0.6c0-0.3,0.2-0.5,0.5-0.5h0.4c0.5,0,1.2,0,1.2,0.5
		C145.2,40.5,144.8,40.8,144.2,40.8 M143.3,38.9c0,0,0-0.2,0.1-0.3c0.2,0.2,0.5,0.2,0.6,0.2c0.6,0,1-0.4,1-0.9
		c0-0.2-0.1-0.5-0.3-0.6c0.2-0.2,0.4-0.2,0.5-0.2c0,0,0.1,0,0.1,0c-0.1,0-0.1,0.1-0.1,0.2c0,0.1,0.1,0.2,0.2,0.2
		c0.1,0,0.2,0,0.2-0.2c0-0.1-0.1-0.3-0.3-0.3c-0.1,0-0.4,0-0.7,0.3c-0.2-0.2-0.5-0.2-0.6-0.2c-0.6,0-1,0.4-1,0.9
		c0,0.3,0.1,0.5,0.3,0.6c-0.1,0.1-0.2,0.3-0.2,0.5c0,0.2,0.1,0.4,0.3,0.5c-0.4,0.1-0.6,0.4-0.6,0.6c0,0.4,0.6,0.8,1.4,0.8
		c0.7,0,1.4-0.3,1.4-0.8c0-0.2-0.1-0.5-0.4-0.7c-0.3-0.2-0.7-0.2-1.1-0.2c-0.2,0-0.4,0-0.5,0C143.4,39.3,143.3,39.1,143.3,38.9z
		 M144,38.6c-0.5,0-0.5-0.6-0.5-0.8c0-0.2,0-0.4,0.1-0.5c0.1-0.1,0.2-0.2,0.4-0.2c0.5,0,0.5,0.6,0.5,0.8c0,0.2,0,0.4-0.1,0.5
		C144.4,38.5,144.2,38.6,144,38.6z"/>
	<path class="st3" d="M146.7,37.7V37l-0.8,0.1v0.2c0.4,0,0.5,0,0.5,0.3v1.6c0,0.3-0.1,0.3-0.5,0.3v0.2c0.2,0,0.5,0,0.7,0
		c0.2,0,0.5,0,0.8,0v-0.2h-0.1c-0.5,0-0.5-0.1-0.5-0.3v-0.9c0-0.6,0.3-1.1,0.7-1.1c0,0,0.1,0,0.1,0c0,0-0.2,0.1-0.2,0.2
		c0,0.2,0.1,0.3,0.3,0.3c0.1,0,0.3-0.1,0.3-0.3s-0.2-0.4-0.5-0.4C147,37,146.8,37.4,146.7,37.7"/>
	<path class="st3" d="M150.1,38.2v0.6c0,0.6-0.4,0.8-0.7,0.8c-0.3,0-0.5-0.2-0.5-0.5C148.9,38.8,149.1,38.3,150.1,38.2 M150.2,39.2
		c0,0.2,0.2,0.5,0.5,0.5c0.1,0,0.5-0.1,0.5-0.6v-0.3H151v0.3c0,0.4-0.2,0.4-0.2,0.4c-0.2,0-0.2-0.3-0.2-0.3V38c0-0.2,0-0.5-0.2-0.7
		c-0.2-0.2-0.5-0.3-0.8-0.3c-0.5,0-0.9,0.3-0.9,0.7c0,0.2,0.1,0.3,0.3,0.3c0.2,0,0.3-0.1,0.3-0.3c0-0.1,0-0.3-0.3-0.3
		c0.2-0.2,0.5-0.3,0.7-0.3c0.3,0,0.6,0.2,0.6,0.8v0.2c-0.3,0-0.7,0-1.1,0.2c-0.5,0.2-0.6,0.5-0.6,0.8c0,0.5,0.6,0.7,1,0.7
		C149.8,39.8,150.1,39.5,150.2,39.2z"/>
	<path class="st3" d="M151.8,37.6v1.6c0,0.3-0.1,0.3-0.5,0.3v0.2c0.2,0,0.5,0,0.7,0c0.2,0,0.5,0,0.7,0v-0.2c-0.4,0-0.5,0-0.5-0.3
		v-1.1c0-0.6,0.4-1,0.8-1c0.4,0,0.5,0.3,0.5,0.7v1.4c0,0.3-0.1,0.3-0.5,0.3v0.2c0.2,0,0.5,0,0.7,0c0.2,0,0.5,0,0.7,0v-0.2
		c-0.4,0-0.5,0-0.5-0.3v-1.1c0-0.6,0.4-1,0.8-1c0.4,0,0.5,0.3,0.5,0.7v1.4c0,0.3-0.1,0.3-0.5,0.3v0.2c0.2,0,0.5,0,0.7,0
		c0.2,0,0.5,0,0.7,0v-0.2c-0.3,0-0.5,0-0.5-0.2v-1.2c0-0.5,0-0.7-0.2-0.9c-0.1-0.1-0.3-0.2-0.6-0.2c-0.5,0-0.8,0.4-0.9,0.6
		c-0.1-0.5-0.5-0.6-0.8-0.6c-0.5,0-0.7,0.3-0.9,0.6V37l-0.9,0.1v0.2C151.8,37.2,151.8,37.3,151.8,37.6"/>
	<path class="st3" d="M159,39.2c0,0.3-0.1,0.3-0.5,0.3v0.2c0.2,0,0.5,0,0.7,0c0.2,0,0.4,0,0.7,0v-0.2c-0.4,0-0.5,0-0.5-0.3v-0.6
		l0.4-0.3c0.5,0.6,0.7,1,0.7,1.1c0,0.1-0.1,0.2-0.2,0.2v0.2c0.2,0,0.5,0,0.7,0c0.2,0,0.4,0,0.5,0v-0.2c-0.2,0-0.4,0-0.6-0.3
		l-0.8-1.1c0,0,0-0.1,0-0.1c0,0,0.4-0.4,0.5-0.4c0.4-0.3,0.6-0.3,0.8-0.3v-0.2c-0.2,0-0.2,0-0.4,0c-0.2,0-0.6,0-0.7,0v0.2
		c0.1,0,0.2,0.1,0.2,0.2c0,0.1-0.1,0.2-0.1,0.2l-0.9,0.8v-2.9l-0.9,0.1v0.2c0.4,0,0.5,0,0.5,0.3V39.2"/>
	<path class="st3" d="M162.1,38.3h1.7c0.1,0,0.2,0,0.2-0.1c0-0.6-0.3-1.2-1.1-1.2c-0.7,0-1.3,0.6-1.3,1.4c0,0.8,0.6,1.4,1.3,1.4
		c0.8,0,1-0.7,1-0.8c0-0.1-0.1-0.1-0.1-0.1c-0.1,0-0.1,0-0.1,0.1c-0.2,0.6-0.8,0.6-0.8,0.6c-0.3,0-0.5-0.2-0.7-0.4
		C162.1,38.9,162.1,38.5,162.1,38.3 M162.1,38.1c0-0.9,0.6-1.1,0.8-1.1c0.6,0,0.7,0.8,0.7,1.1H162.1z"/>
	<path class="st3" d="M165.2,37.7V37l-0.8,0.1v0.2c0.4,0,0.5,0,0.5,0.3v1.6c0,0.3-0.1,0.3-0.5,0.3v0.2c0.2,0,0.5,0,0.7,0
		c0.2,0,0.5,0,0.8,0v-0.2h-0.1c-0.5,0-0.5-0.1-0.5-0.3v-0.9c0-0.6,0.3-1.1,0.7-1.1c0,0,0.1,0,0.1,0c0,0-0.1,0.1-0.1,0.2
		c0,0.2,0.1,0.3,0.3,0.3c0.1,0,0.3-0.1,0.3-0.3s-0.2-0.4-0.5-0.4C165.5,37,165.3,37.4,165.2,37.7"/>
	<path class="st3" d="M167.2,37.6v1.6c0,0.3-0.1,0.3-0.5,0.3v0.2c0.2,0,0.5,0,0.7,0c0.2,0,0.5,0,0.7,0v-0.2c-0.4,0-0.5,0-0.5-0.3
		v-1.1c0-0.6,0.4-1,0.8-1c0.4,0,0.5,0.3,0.5,0.7v1.4c0,0.3-0.1,0.3-0.5,0.3v0.2c0.2,0,0.5,0,0.7,0s0.5,0,0.7,0v-0.2
		c-0.3,0-0.5,0-0.5-0.2v-1.2c0-0.5,0-0.7-0.2-0.9c-0.1-0.1-0.3-0.2-0.6-0.2c-0.4,0-0.7,0.3-0.9,0.6V37l-0.9,0.1v0.2
		C167.2,37.2,167.2,37.3,167.2,37.6"/>
	<path class="st3" d="M170.6,38.3h1.7c0.1,0,0.2,0,0.2-0.1c0-0.6-0.3-1.2-1.1-1.2c-0.7,0-1.3,0.6-1.3,1.4c0,0.8,0.6,1.4,1.4,1.4
		c0.7,0,1-0.7,1-0.8c0-0.1,0-0.1-0.1-0.1c-0.1,0-0.1,0-0.1,0.1c-0.2,0.6-0.8,0.6-0.8,0.6c-0.3,0-0.5-0.2-0.7-0.4
		C170.6,38.9,170.6,38.5,170.6,38.3 M170.6,38.1c0-0.9,0.5-1.1,0.8-1.1c0.6,0,0.7,0.8,0.7,1.1H170.6z"/>
	<path class="st3" d="M173.8,35.4l-0.9,0.1v0.2c0.4,0,0.5,0,0.5,0.3v3.2c0,0.3-0.1,0.3-0.5,0.3v0.2c0.2,0,0.5,0,0.7,0
		c0.2,0,0.5,0,0.7,0v-0.2c-0.4,0-0.5,0-0.5-0.3V35.4"/>
</g>
<g>
	<g>
		<path class="st4" d="M105.2,33.4c5.8-0.7,21.2-3.5,21.6-14.3"/>
		<g>
			<polygon points="106.4,34.6 105.7,33.3 106.1,31.8 103,33.6 			"/>
		</g>
	</g>
</g>
<g>
	<g>
		<path class="st4" d="M130.7,55.7c5.8-0.7,21.2-3.5,21.6-14.3"/>
		<g>
			<polygon points="131.9,56.9 131.1,55.6 131.6,54.1 128.4,55.9 			"/>
		</g>
	</g>
</g>
<g>
	<defs>
		<rect id="SVGID_7_" x="169.7" y="73.7" width="4.3" height="3.7"/>
	</defs>
	<clipPath id="SVGID_8_">
		<use xlink:href="#SVGID_7_"  style="overflow:visible;"/>
	</clipPath>
	<path class="st5" d="M172.1,76.7c0.1,0.3,0.3,0.5,0.7,0.5c0.2,0,0.4-0.2,0.5-0.4c0.1-0.3,0.2-0.7,0.2-0.7c0-0.1-0.1-0.1-0.1-0.1
		c-0.1,0-0.1,0-0.1,0.1c-0.1,0.4-0.2,0.9-0.6,0.9c-0.1,0-0.2-0.1-0.2-0.3c0-0.1,0.1-0.5,0.1-0.8l0.2-0.8c0-0.1,0.1-0.4,0.1-0.5
		c0-0.2,0.1-0.4,0.1-0.5c0-0.1-0.1-0.2-0.2-0.2c0,0-0.2,0-0.3,0.3c-0.1,0.5-0.5,1.8-0.6,2.2c0,0-0.3,0.6-0.8,0.6
		c-0.4,0-0.5-0.3-0.5-0.6c0-0.4,0.2-1,0.4-1.5c0.1-0.2,0.1-0.3,0.1-0.5c0-0.3-0.2-0.6-0.6-0.6c-0.7,0-1,1.1-1,1.1
		c0,0.1,0.1,0.1,0.1,0.1c0.1,0,0.1,0,0.1-0.1c0.2-0.6,0.5-0.9,0.7-0.9c0.1,0,0.2,0,0.2,0.2c0,0.2-0.1,0.4-0.1,0.5
		c-0.3,0.7-0.4,1.2-0.4,1.5c0,0.7,0.5,0.9,0.9,0.9C171.7,77.2,172,76.9,172.1,76.7"/>
</g>
</svg>
