<?xml version="1.0" encoding="utf-8"?>
<!-- Generator: Adobe Illustrator 21.1.0, SVG Export Plug-In . SVG Version: 6.00 Build 0)  -->
<svg version="1.1" id="Ebene_1" xmlns="http://www.w3.org/2000/svg" xmlns:xlink="http://www.w3.org/1999/xlink" x="0px" y="0px"
	 viewBox="0 0 384.4 143.3" style="enable-background:new 0 0 384.4 143.3;" xml:space="preserve">
<style type="text/css">
	.st0{fill:#FFFFFF;}
	.st1{clip-path:url(#SVGID_2_);}
	.st2{clip-path:url(#SVGID_4_);}
	.st3{clip-path:url(#SVGID_6_);}
	.st4{clip-path:url(#SVGID_8_);fill:none;stroke:#000000;stroke-width:0.339;stroke-miterlimit:10;}
	.st5{clip-path:url(#SVGID_10_);}
	.st6{clip-path:url(#SVGID_12_);}
	.st7{clip-path:url(#SVGID_14_);}
	.st8{clip-path:url(#SVGID_16_);}
	.st9{clip-path:url(#SVGID_18_);}
	.st10{clip-path:url(#SVGID_20_);fill:none;stroke:#000000;stroke-width:0.398;stroke-miterlimit:10;}
	.st11{clip-path:url(#SVGID_22_);}
	.st12{clip-path:url(#SVGID_24_);}
	.st13{clip-path:url(#SVGID_26_);}
	.st14{clip-path:url(#SVGID_28_);}
	.st15{clip-path:url(#SVGID_30_);fill:none;stroke:#000000;stroke-width:0.398;stroke-miterlimit:10;}
	.st16{clip-path:url(#SVGID_32_);}
	.st17{clip-path:url(#SVGID_34_);}
	.st18{clip-path:url(#SVGID_36_);}
	.st19{clip-path:url(#SVGID_38_);fill:none;stroke:#000000;stroke-width:0.339;stroke-miterlimit:10;}
	.st20{clip-path:url(#SVGID_40_);}
	.st21{clip-path:url(#SVGID_42_);}
	.st22{clip-path:url(#SVGID_44_);}
	.st23{clip-path:url(#SVGID_46_);}
	.st24{clip-path:url(#SVGID_48_);}
	.st25{clip-path:url(#SVGID_50_);fill:none;stroke:#000000;stroke-width:0.398;stroke-miterlimit:10;}
	.st26{clip-path:url(#SVGID_52_);}
	.st27{clip-path:url(#SVGID_54_);}
	.st28{clip-path:url(#SVGID_56_);fill:none;stroke:#000000;stroke-width:0.398;stroke-miterlimit:10;}
	.st29{clip-path:url(#SVGID_58_);}
	.st30{clip-path:url(#SVGID_60_);}
	.st31{clip-path:url(#SVGID_62_);}
	.st32{clip-path:url(#SVGID_64_);}
	.st33{clip-path:url(#SVGID_66_);}
	.st34{clip-path:url(#SVGID_68_);}
	.st35{clip-path:url(#SVGID_70_);}
	.st36{clip-path:url(#SVGID_72_);fill:none;stroke:#000000;stroke-width:0.339;stroke-miterlimit:10;}
	.st37{clip-path:url(#SVGID_74_);}
	.st38{clip-path:url(#SVGID_76_);}
	.st39{clip-path:url(#SVGID_78_);}
	.st40{clip-path:url(#SVGID_80_);}
	.st41{clip-path:url(#SVGID_82_);}
	.st42{clip-path:url(#SVGID_84_);fill:none;stroke:#000000;stroke-width:0.398;stroke-miterlimit:10;}
	.st43{clip-path:url(#SVGID_86_);}
	.st44{clip-path:url(#SVGID_88_);}
	.st45{clip-path:url(#SVGID_90_);}
	.st46{clip-path:url(#SVGID_92_);}
	.st47{clip-path:url(#SVGID_94_);fill:none;stroke:#000000;stroke-width:0.398;stroke-miterlimit:10;}
	.st48{clip-path:url(#SVGID_96_);}
	.st49{clip-path:url(#SVGID_98_);}
	.st50{clip-path:url(#SVGID_100_);}
	.st51{clip-path:url(#SVGID_102_);fill:none;stroke:#000000;stroke-width:0.339;stroke-miterlimit:10;}
	.st52{clip-path:url(#SVGID_104_);}
	.st53{clip-path:url(#SVGID_106_);}
	.st54{clip-path:url(#SVGID_108_);}
	.st55{clip-path:url(#SVGID_110_);}
	.st56{clip-path:url(#SVGID_112_);}
	.st57{clip-path:url(#SVGID_114_);fill:none;stroke:#000000;stroke-width:0.398;stroke-miterlimit:10;}
	.st58{clip-path:url(#SVGID_116_);}
	.st59{clip-path:url(#SVGID_118_);}
	.st60{clip-path:url(#SVGID_120_);fill:none;stroke:#000000;stroke-width:0.398;stroke-miterlimit:10;}
	.st61{clip-path:url(#SVGID_122_);}
	.st62{clip-path:url(#SVGID_124_);}
	.st63{clip-path:url(#SVGID_126_);}
	.st64{clip-path:url(#SVGID_128_);}
	.st65{clip-path:url(#SVGID_130_);}
	.st66{clip-path:url(#SVGID_132_);fill:none;stroke:#000000;stroke-width:0.398;stroke-miterlimit:10;}
	.st67{clip-path:url(#SVGID_134_);}
	.st68{clip-path:url(#SVGID_136_);}
	.st69{clip-path:url(#SVGID_138_);}
	.st70{clip-path:url(#SVGID_140_);}
	.st71{clip-path:url(#SVGID_142_);}
	.st72{clip-path:url(#SVGID_144_);}
	.st73{clip-path:url(#SVGID_146_);fill:none;stroke:#000000;stroke-width:0.339;stroke-miterlimit:10;}
	.st74{clip-path:url(#SVGID_148_);}
	.st75{clip-path:url(#SVGID_150_);}
	.st76{clip-path:url(#SVGID_152_);}
	.st77{clip-path:url(#SVGID_154_);}
	.st78{clip-path:url(#SVGID_156_);}
	.st79{clip-path:url(#SVGID_158_);fill:none;stroke:#000000;stroke-width:0.398;stroke-miterlimit:10;}
</style>
<image style="overflow:visible;enable-background:new    ;" width="1713" height="1137" xlink:href="2.png"  transform="matrix(0.12 0 0 0.12 -22.1097 4.7592)">
</image>
<rect x="-26.6" y="24.2" class="st0" width="28.7" height="25.6"/>
<rect x="90.1" y="60.3" class="st0" width="62.2" height="12.6"/>
<rect x="80.8" y="127.8" class="st0" width="12.9" height="6.9"/>
<rect x="162.4" y="127.4" class="st0" width="5.9" height="7.7"/>
<g>
	<g>
		<defs>
			<rect id="SVGID_1_" x="37.8" y="56.6" width="28" height="12"/>
		</defs>
		<clipPath id="SVGID_2_">
			<use xlink:href="#SVGID_1_"  style="overflow:visible;"/>
		</clipPath>
		<path class="st1" d="M41.9,58.2c0.1-0.3,0.1-0.4,0.5-0.4h1c0.8,0,1.4,0.3,1.4,1c0,0.4-0.2,1.3-0.6,1.6c-0.5,0.5-1.1,0.5-1.5,0.5
			h-1.4L41.9,58.2 M41.2,61.1h1.7c1.4,0,2.8-1,2.8-2.2c0-0.8-0.6-1.5-1.9-1.5h-3.2c-0.2,0-0.3,0-0.3,0.2c0,0.1,0.1,0.1,0.3,0.1
			c0.1,0,0.3,0,0.4,0c0.2,0,0.2,0.1,0.2,0.2c0,0,0,0.1-0.1,0.2l-1.3,5.4c-0.1,0.4-0.1,0.5-0.9,0.5c-0.2,0-0.3,0-0.3,0.2
			c0,0.1,0.1,0.1,0.2,0.1c0.3,0,1-0.1,1.3-0.1c0.2,0,0.4,0,0.6,0s0.4,0,0.6,0c0.1,0,0.2,0,0.2-0.2c0-0.1-0.1-0.1-0.3-0.1
			c-0.4,0-0.6,0-0.6-0.2c0-0.1,0-0.1,0-0.2L41.2,61.1z"/>
	</g>
	<g>
		<defs>
			<rect id="SVGID_3_" x="37.8" y="56.6" width="28" height="12"/>
		</defs>
		<clipPath id="SVGID_4_">
			<use xlink:href="#SVGID_3_"  style="overflow:visible;"/>
		</clipPath>
		<path class="st2" d="M47.1,61.3c-1.3,0.9-1.7,2.4-1.7,3.5c0,1,0.3,2.5,1.7,3.5c0.1,0,0.1,0,0.1-0.1c0,0,0-0.1-0.1-0.1
			c-0.9-0.9-1.3-2.1-1.3-3.3C45.8,62.9,46.5,62,47.1,61.3L47.1,61.3C47.2,61.3,47.1,61.3,47.1,61.3"/>
	</g>
	<g>
		<defs>
			<rect id="SVGID_5_" x="37.8" y="56.6" width="28" height="12"/>
		</defs>
		<clipPath id="SVGID_6_">
			<use xlink:href="#SVGID_5_"  style="overflow:visible;"/>
		</clipPath>
		<path class="st3" d="M50.5,64.9l1-1c0.2-0.1,0.3-0.1,0.6-0.1v-0.3c-0.2,0-0.5,0-0.7,0s-0.7,0-0.8,0v0.4c0.1,0,0.1,0,0.2,0.1
			l-0.7,0.7L49.4,64h0.2v-0.5c-0.1,0-0.6,0-0.9,0c-0.3,0-0.5,0-0.8,0v0.4h0.5l1.2,1.2l-1,1c-0.1,0.1-0.1,0.1-0.3,0.1
			c-0.1,0-0.4,0-0.4,0v0.4c0.2,0,0.5,0,0.7,0s0.7,0,0.8,0v-0.4c-0.1,0-0.1,0-0.2-0.1l0.7-0.7l0.8,0.8h-0.1v0.4c0,0,0.6,0,0.9,0
			c0.3,0,0.5,0,0.8,0v-0.4h-0.5L50.5,64.9"/>
	</g>
	<g>
		<defs>
			<rect id="SVGID_7_" x="37.8" y="56.6" width="28" height="12"/>
		</defs>
		<clipPath id="SVGID_8_">
			<use xlink:href="#SVGID_7_"  style="overflow:visible;"/>
		</clipPath>
		<line class="st4" x1="47.7" y1="67.8" x2="52.5" y2="67.8"/>
	</g>
	<g>
		<defs>
			<rect id="SVGID_9_" x="37.8" y="56.6" width="28" height="12"/>
		</defs>
		<clipPath id="SVGID_10_">
			<use xlink:href="#SVGID_9_"  style="overflow:visible;"/>
		</clipPath>
		<path class="st5" d="M54.7,60.9L54.7,60.9C54.7,60.8,54.7,60.8,54.7,60.9c-0.2-0.1-1.5,0.7-1.5,2.4c0,1.7,1.3,2.5,1.4,2.5
			c0.1,0,0.1-0.1,0.1-0.1s0,0,0-0.1c-0.9-0.7-1.1-1.7-1.1-2.4C53.6,62.1,54.2,61.3,54.7,60.9"/>
	</g>
	<g>
		<defs>
			<rect id="SVGID_11_" x="37.8" y="56.6" width="28" height="12"/>
		</defs>
		<clipPath id="SVGID_12_">
			<use xlink:href="#SVGID_11_"  style="overflow:visible;"/>
		</clipPath>
		<path class="st6" d="M58,64c-0.2,0.2-0.7,0.5-1.3,0.5c-0.3,0-0.6-0.1-0.6-0.6c0-0.2,0.1-0.6,0.3-1c0.2-0.2,0.5-0.4,0.8-0.4
			c0.5,0,0.6,0.5,0.7,0.8C58,63.4,58,63.7,58,64 M58.5,63.9c0.5-0.4,0.7-1.1,0.7-1.2s-0.1-0.1-0.1-0.1c-0.1,0-0.1,0-0.1,0.1
			c-0.1,0.4-0.3,0.7-0.5,0.9c0-0.1,0-0.1,0-0.3c-0.1-0.7-0.7-1-1.1-1c-0.8,0-1.6,0.7-1.6,1.4c0,0.5,0.4,0.9,1,0.9
			c0.3,0,0.8-0.1,1.3-0.5c0.1,0.2,0.3,0.5,0.6,0.5s0.5-0.2,0.5-0.4c0-0.1-0.1-0.1-0.1-0.1c-0.1,0-0.1,0-0.1,0.1
			c-0.1,0.2-0.2,0.2-0.3,0.2C58.6,64.4,58.5,64.4,58.5,63.9z"/>
	</g>
	<g>
		<defs>
			<rect id="SVGID_13_" x="37.8" y="56.6" width="28" height="12"/>
		</defs>
		<clipPath id="SVGID_14_">
			<use xlink:href="#SVGID_13_"  style="overflow:visible;"/>
		</clipPath>
		<path class="st7" d="M61.7,63.3c0-1.7-1.3-2.5-1.4-2.5s-0.1,0.1-0.1,0.1V61c0.8,0.6,1.1,1.5,1.1,2.4c0,0.5-0.1,0.9-0.3,1.4
			c-0.2,0.6-0.6,0.9-0.8,1v0.1c0,0,0,0.1,0.1,0.1C60.4,65.8,61.7,65,61.7,63.3"/>
	</g>
	<g>
		<defs>
			<rect id="SVGID_15_" x="37.8" y="56.6" width="28" height="12"/>
		</defs>
		<clipPath id="SVGID_16_">
			<use xlink:href="#SVGID_15_"  style="overflow:visible;"/>
		</clipPath>
		<path class="st8" d="M63.5,61.3C63.5,61.3,63.4,61.3,63.5,61.3c-0.1,0.1-0.1,0.2,0,0.2c0.6,0.6,1.3,1.5,1.3,3.3
			c0,1.5-0.5,2.6-1.2,3.2c-0.1,0.1-0.1,0.1-0.1,0.2s0,0.1,0.1,0.1s0.7-0.5,1.2-1.4c0.3-0.6,0.5-1.3,0.5-2.2
			C65.2,63.8,64.9,62.3,63.5,61.3"/>
	</g>
</g>
<g>
	<g>
		<defs>
			<rect id="SVGID_17_" x="60.1" y="129.9" width="18" height="12"/>
		</defs>
		<clipPath id="SVGID_18_">
			<use xlink:href="#SVGID_17_"  style="overflow:visible;"/>
		</clipPath>
		<path class="st9" d="M64.2,137.1l1.1-1.3c0.1-0.1,0.2-0.2,1-0.2v-0.5c-0.3,0-0.9,0-0.9,0c-0.2,0-0.7,0-1,0v0.5
			c0.1,0,0.2,0,0.4,0.1c-0.1,0.1-0.1,0.1-0.1,0.1l-0.9,0.9l-1-1.1h0.4v-0.5c-0.3,0-0.9,0-1.2,0s-0.8,0-1.1,0v0.5h0.7l1.5,1.8
			l-1.3,1.5c-0.2,0.2-0.5,0.2-1,0.2v0.5c0.3,0,0.9,0,0.9,0c0.2,0,0.8,0,1,0v-0.5c-0.2,0-0.4-0.1-0.4-0.1s0,0,0.1-0.1l1-1.1l1.1,1.3
			h-0.4v0.5c0.3,0,0.9,0,1.2,0c0.3,0,0.7,0,1.1,0v-0.5h-0.7L64.2,137.1"/>
	</g>
	<g>
		<defs>
			<rect id="SVGID_19_" x="60.1" y="129.9" width="18" height="12"/>
		</defs>
		<clipPath id="SVGID_20_">
			<use xlink:href="#SVGID_19_"  style="overflow:visible;"/>
		</clipPath>
		<line class="st10" x1="60.7" y1="140.9" x2="66.8" y2="140.9"/>
	</g>
	<g>
		<defs>
			<rect id="SVGID_21_" x="60.1" y="129.9" width="18" height="12"/>
		</defs>
		<clipPath id="SVGID_22_">
			<use xlink:href="#SVGID_21_"  style="overflow:visible;"/>
		</clipPath>
		<path class="st11" d="M69.2,130.2c-1.4,0.9-1.7,2.4-1.7,3.5c0,1,0.3,2.5,1.7,3.5c0.1,0,0.1,0,0.1-0.1c0,0,0-0.1-0.1-0.1
			c-0.9-0.8-1.3-2-1.3-3.3C67.9,131.8,68.6,130.9,69.2,130.2L69.2,130.2C69.4,130.2,69.3,130.2,69.2,130.2"/>
	</g>
	<g>
		<defs>
			<rect id="SVGID_23_" x="60.1" y="129.9" width="18" height="12"/>
		</defs>
		<clipPath id="SVGID_24_">
			<use xlink:href="#SVGID_23_"  style="overflow:visible;"/>
		</clipPath>
		<path class="st12" d="M73.2,134.7c-0.7,0.6-1.3,0.6-1.5,0.6c-0.5,0-0.7-0.3-0.7-0.8c0-0.2,0.1-1,0.5-1.5c0.3-0.4,0.7-0.5,1-0.5
			c0.6,0,0.7,0.5,0.8,1C73.2,133.8,73.2,134.3,73.2,134.7 M73.8,134.5c0.7-0.7,0.9-1.6,0.9-1.7s-0.1-0.1-0.1-0.1
			c-0.1,0-0.1,0-0.2,0.2c-0.1,0.5-0.3,0.9-0.6,1.3c0-0.1,0-0.6,0-0.6c-0.1-0.7-0.6-1.1-1.4-1.1c-1,0-2,1-2,1.9
			c0,0.7,0.5,1.2,1.3,1.2c0.6,0,1.2-0.3,1.6-0.6c0.2,0.5,0.5,0.6,0.7,0.6c0.4,0,0.7-0.3,0.7-0.5c0-0.1-0.1-0.1-0.1-0.1
			c-0.1,0-0.1,0-0.1,0.1c-0.1,0.3-0.3,0.3-0.4,0.3C73.9,135.3,73.8,135.3,73.8,134.5z"/>
	</g>
	<g>
		<defs>
			<rect id="SVGID_25_" x="60.1" y="129.9" width="18" height="12"/>
		</defs>
		<clipPath id="SVGID_26_">
			<use xlink:href="#SVGID_25_"  style="overflow:visible;"/>
		</clipPath>
		<path class="st13" d="M75.7,130.2c-0.1,0-0.1,0-0.1,0.1c0,0,0,0.1,0.1,0.1c0.6,0.6,1.3,1.5,1.3,3.3c0,1.5-0.5,2.6-1.2,3.3
			c-0.1,0.1-0.1,0.1-0.1,0.2c0,0.1,0,0.1,0.1,0.1s0.7-0.5,1.2-1.3c0.3-0.6,0.5-1.3,0.5-2.2C77.4,132.7,77.1,131.2,75.7,130.2"/>
	</g>
</g>
<g>
	<g>
		<defs>
			<rect id="SVGID_27_" x="175.7" y="121.7" width="7" height="7"/>
		</defs>
		<clipPath id="SVGID_28_">
			<use xlink:href="#SVGID_27_"  style="overflow:visible;"/>
		</clipPath>
		<path class="st14" d="M179.6,123.8l1.2-1.3c0.1-0.2,0.2-0.2,1-0.2v-0.5c-0.3,0-0.9,0-0.9,0c-0.2,0-0.7,0-1,0v0.5
			c0.1,0,0.3,0,0.4,0.1c-0.1,0.1-0.1,0.1-0.1,0.1l-0.8,0.9l-1-1.1h0.4v-0.5c-0.3,0-0.9,0-1.2,0s-0.8,0-1.1,0v0.5h0.7l1.6,1.8
			l-1.3,1.5c-0.2,0.2-0.5,0.2-1,0.2v0.5c0.3,0,0.9,0,0.9,0c0.3,0,0.8,0,1,0v-0.5c-0.2,0-0.4-0.1-0.4-0.1s0,0,0.1-0.1l1-1.1l1.1,1.3
			h-0.4v0.5c0.3,0,0.9,0,1.2,0s0.8,0,1.1,0v-0.5h-0.7L179.6,123.8"/>
	</g>
	<g>
		<defs>
			<rect id="SVGID_29_" x="175.7" y="121.7" width="7" height="7"/>
		</defs>
		<clipPath id="SVGID_30_">
			<use xlink:href="#SVGID_29_"  style="overflow:visible;"/>
		</clipPath>
		<line class="st15" x1="176.3" y1="127.7" x2="182.3" y2="127.7"/>
	</g>
</g>
<g>
	<g>
		<defs>
			<rect id="SVGID_31_" x="7" y="16.3" width="82" height="14"/>
		</defs>
		<clipPath id="SVGID_32_">
			<use xlink:href="#SVGID_31_"  style="overflow:visible;"/>
		</clipPath>
		<path class="st16" d="M11.1,19.9c0.1-0.4,0.1-0.4,0.5-0.4h1c0.8,0,1.4,0.3,1.4,1c0,0.4-0.2,1.3-0.6,1.6c-0.5,0.5-1.1,0.5-1.5,0.5
			h-1.4L11.1,19.9 M10.4,22.9h1.7c1.4,0,2.8-1,2.8-2.2c0-0.8-0.6-1.5-1.9-1.5H9.8c-0.2,0-0.3,0-0.3,0.2c0,0.1,0.1,0.1,0.3,0.1
			c0.1,0,0.3,0,0.4,0c0.2,0,0.2,0.1,0.2,0.2c0,0,0,0.1-0.1,0.2L9,25.2c-0.1,0.4-0.1,0.5-0.9,0.5c-0.2,0-0.3,0-0.3,0.2
			C7.8,26,7.9,26,8,26c0.3,0,1-0.1,1.3-0.1c0.2,0,0.4,0,0.6,0c0.2,0,0.4,0,0.6,0c0.1,0,0.2,0,0.2-0.2c0-0.1-0.1-0.1-0.3-0.1
			c-0.4,0-0.6,0-0.6-0.2c0-0.1,0-0.1,0-0.2L10.4,22.9z"/>
	</g>
	<g>
		<defs>
			<rect id="SVGID_33_" x="7" y="16.3" width="82" height="14"/>
		</defs>
		<clipPath id="SVGID_34_">
			<use xlink:href="#SVGID_33_"  style="overflow:visible;"/>
		</clipPath>
		<path class="st17" d="M16.3,22.5c-1.4,1-1.7,2.4-1.7,3.5c0,1,0.3,2.5,1.7,3.5c0.1,0,0.1,0,0.1-0.1s0-0.1-0.1-0.1
			C15.4,28.4,15,27.2,15,26c0-1.9,0.7-2.8,1.3-3.4C16.3,22.6,16.3,22.6,16.3,22.5C16.4,22.5,16.3,22.5,16.3,22.5"/>
	</g>
	<g>
		<defs>
			<rect id="SVGID_35_" x="7" y="16.3" width="82" height="14"/>
		</defs>
		<clipPath id="SVGID_36_">
			<use xlink:href="#SVGID_35_"  style="overflow:visible;"/>
		</clipPath>
		<path class="st18" d="M19.6,26.1l1-1c0.2-0.1,0.3-0.1,0.6-0.1v-0.4c-0.2,0-0.5,0-0.7,0s-0.7,0-0.8,0V25c0.1,0,0.1,0,0.2,0
			l-0.7,0.7L18.5,25h0.2v-0.4c-0.1,0-0.6,0-0.9,0s-0.5,0-0.8,0V25h0.5l1.2,1.2l-1,1c-0.1,0.1-0.1,0.1-0.3,0.1c-0.1,0-0.4,0-0.4,0
			v0.4c0.2,0,0.5,0,0.7,0s0.7,0,0.8,0v-0.4c-0.1,0-0.1,0-0.2,0l0.7-0.8l0.8,0.8h-0.2v0.4c0,0,0.6,0,0.9,0s0.5,0,0.8,0v-0.4h-0.5
			L19.6,26.1"/>
	</g>
	<g>
		<defs>
			<rect id="SVGID_37_" x="7" y="16.3" width="82" height="14"/>
		</defs>
		<clipPath id="SVGID_38_">
			<use xlink:href="#SVGID_37_"  style="overflow:visible;"/>
		</clipPath>
		<line class="st19" x1="16.9" y1="29" x2="21.6" y2="29"/>
	</g>
	<g>
		<defs>
			<rect id="SVGID_39_" x="7" y="16.3" width="82" height="14"/>
		</defs>
		<clipPath id="SVGID_40_">
			<use xlink:href="#SVGID_39_"  style="overflow:visible;"/>
		</clipPath>
		<path class="st20" d="M22.2,22.5c-0.1,0-0.1,0-0.1,0.1s0,0.1,0.1,0.1c0.6,0.6,1.3,1.5,1.3,3.3c0,1.5-0.5,2.6-1.2,3.3
			c-0.1,0.1-0.1,0.1-0.1,0.2c0,0,0,0.1,0.1,0.1s0.8-0.5,1.2-1.4c0.3-0.6,0.5-1.3,0.5-2.2C23.9,25,23.6,23.5,22.2,22.5"/>
	</g>
	<g>
		<defs>
			<rect id="SVGID_41_" x="7" y="16.3" width="82" height="14"/>
		</defs>
		<clipPath id="SVGID_42_">
			<use xlink:href="#SVGID_41_"  style="overflow:visible;"/>
		</clipPath>
		<path class="st21" d="M34.8,24.7c0.2,0,0.3,0,0.3-0.2s-0.2-0.2-0.3-0.2h-5.9c-0.1,0-0.3,0-0.3,0.2s0.2,0.2,0.3,0.2H34.8
			 M34.8,22.8c0.2,0,0.3,0,0.3-0.2s-0.2-0.2-0.3-0.2h-5.9c-0.1,0-0.3,0-0.3,0.2s0.2,0.2,0.3,0.2H34.8z"/>
	</g>
	<g>
		<defs>
			<rect id="SVGID_43_" x="7" y="16.3" width="82" height="14"/>
		</defs>
		<clipPath id="SVGID_44_">
			<use xlink:href="#SVGID_43_"  style="overflow:visible;"/>
		</clipPath>
		<path class="st22" d="M41.5,20.3c0.2,0.5,0.4,1.3,0.9,2.5c0.6,1.7,0.9,2.3,1.5,3.2c0.1,0.2,0.1,0.2,0.2,0.2c0.1,0,0.3-0.1,0.5-0.2
			c0.1-0.1,0.1-0.1,0.2-0.6c0.6-2.6,1.4-5.3,1.6-5.8c0,0,0.2-0.4,1.4-0.4c0.2,0,0.4-0.5,0.4-0.8c0-0.2-0.1-0.2-0.2-0.2
			c-1,0-1.4,0.4-1.5,0.6c-0.3,0.3-0.5,1.1-1,2.7c-0.3,1.3-0.7,2.6-1,3.8c-0.6-0.8-0.9-1.6-1.3-2.9C42.7,21,42.3,20,42.1,19
			c-0.1-0.2-0.1-0.2-0.2-0.2c0,0-0.2,0-0.5,0.2c-0.1,0.1-0.1,0.2-0.1,0.3c-0.3,2.7-1.2,5.3-1.5,5.8c-0.1,0.1-0.2,0.3-0.4,0.3
			c-0.1,0-0.5-0.1-0.7-0.3c-0.1,0-0.1,0-0.1,0c-0.2,0-0.4,0.5-0.4,0.7c0,0.3,0.6,0.5,0.9,0.5c0.6,0,1.1-1.4,1.3-1.9
			C41,22.8,41.3,21.3,41.5,20.3"/>
	</g>
	<g>
		<defs>
			<rect id="SVGID_45_" x="7" y="16.3" width="82" height="14"/>
		</defs>
		<clipPath id="SVGID_46_">
			<use xlink:href="#SVGID_45_"  style="overflow:visible;"/>
		</clipPath>
		<path class="st23" d="M51.5,28.4c0,0,0-0.1-0.2-0.2c-1.2-1.3-1.5-3.1-1.5-4.7c0-1.7,0.4-3.5,1.6-4.7c0.1-0.1,0.1-0.1,0.1-0.2
			s-0.1-0.1-0.1-0.1c-0.1,0-1,0.7-1.6,1.9c-0.5,1.1-0.6,2.2-0.6,3s0.1,2,0.7,3.1C50.5,27.7,51.3,28.4,51.5,28.4
			C51.4,28.5,51.5,28.5,51.5,28.4"/>
	</g>
	<g>
		<defs>
			<rect id="SVGID_47_" x="7" y="16.3" width="82" height="14"/>
		</defs>
		<clipPath id="SVGID_48_">
			<use xlink:href="#SVGID_47_"  style="overflow:visible;"/>
		</clipPath>
		<path class="st24" d="M55.4,23.6l1.2-1.3c0.1-0.1,0.2-0.2,1-0.2v-0.5c-0.3,0-0.9,0-0.9,0c-0.2,0-0.7,0-1,0v0.5
			c0.1,0,0.3,0,0.4,0.1c0,0.1,0,0.1-0.1,0.1l-0.8,0.9l-1-1.1h0.4v-0.5c-0.2,0-0.9,0-1.2,0s-0.8,0-1.1,0v0.5H53l1.5,1.8l-1.3,1.5
			c-0.2,0.2-0.5,0.2-1,0.2v0.5c0.3,0,0.9-0.1,0.9-0.1c0.2,0,0.8,0,1,0.1v-0.6c-0.2,0-0.4-0.1-0.4-0.1s0,0,0.1-0.1l1-1.1l1.1,1.3
			h-0.4V26c0.3,0,0.9-0.1,1.2-0.1s0.8,0,1.1,0.1v-0.5h-0.7L55.4,23.6"/>
	</g>
	<g>
		<defs>
			<rect id="SVGID_49_" x="7" y="16.3" width="82" height="14"/>
		</defs>
		<clipPath id="SVGID_50_">
			<use xlink:href="#SVGID_49_"  style="overflow:visible;"/>
		</clipPath>
		<line class="st25" x1="52" y1="27.4" x2="58.1" y2="27.4"/>
	</g>
	<g>
		<defs>
			<rect id="SVGID_51_" x="7" y="16.3" width="82" height="14"/>
		</defs>
		<clipPath id="SVGID_52_">
			<use xlink:href="#SVGID_51_"  style="overflow:visible;"/>
		</clipPath>
		<path class="st26" d="M59.8,25.9c0,0.3,0,1.1-0.6,1.8c-0.1,0.1-0.1,0.1-0.1,0.1c0,0.1,0.1,0.1,0.1,0.1c0.1,0,0.8-0.8,0.8-2
			c0-0.3,0-1-0.6-1c-0.3,0-0.5,0.3-0.5,0.5s0.2,0.5,0.5,0.5c0.1,0,0.1,0,0.1,0C59.6,26,59.7,26,59.8,25.9 M60,22.3
			c0-0.3-0.2-0.5-0.5-0.5c-0.3,0-0.5,0.2-0.5,0.5s0.2,0.5,0.5,0.5C59.8,22.8,60,22.5,60,22.3z"/>
	</g>
	<g>
		<defs>
			<rect id="SVGID_53_" x="7" y="16.3" width="82" height="14"/>
		</defs>
		<clipPath id="SVGID_54_">
			<use xlink:href="#SVGID_53_"  style="overflow:visible;"/>
		</clipPath>
		<path class="st27" d="M69.8,22.3c0.1-0.1,0.1-0.2,0.7-0.2v-0.5c-0.2,0-0.5,0-0.8,0s-0.7,0-1,0v0.5c0.1,0,0.6,0,0.6,0.1
			c0,0,0,0.1-0.1,0.1l-1,2.6l-1.1-2.8h0.5v-0.5c-0.3,0-0.8,0-1.1,0c-0.4,0-0.8,0-1,0v0.5h0.6c0.2,0.5,0.2,0.5,0.2,0.5
			c0,0.1,0,0.1,0,0.1l-0.8,1.9l-1-2.6h0.6v-0.5c-0.4,0-0.8,0-1.2,0c-0.3,0-0.7,0-1.1,0V22h0.6l1.5,3.7C65,25.9,65,26,65.2,26
			c0.3,0,0.3-0.1,0.4-0.3l1-2.6l1.1,2.6c0.1,0.2,0.1,0.3,0.3,0.3c0.2,0,0.3-0.1,0.4-0.3L69.8,22.3"/>
	</g>
	<g>
		<defs>
			<rect id="SVGID_55_" x="7" y="16.3" width="82" height="14"/>
		</defs>
		<clipPath id="SVGID_56_">
			<use xlink:href="#SVGID_55_"  style="overflow:visible;"/>
		</clipPath>
		<line class="st28" x1="62.5" y1="27.4" x2="70.9" y2="27.4"/>
	</g>
	<g>
		<defs>
			<rect id="SVGID_57_" x="7" y="16.3" width="82" height="14"/>
		</defs>
		<clipPath id="SVGID_58_">
			<use xlink:href="#SVGID_57_"  style="overflow:visible;"/>
		</clipPath>
		<path class="st29" d="M73,26c0-0.6-0.2-1-0.6-1c-0.3,0-0.5,0.2-0.5,0.5s0.2,0.5,0.5,0.5c0.1,0,0.3-0.1,0.3-0.1c0.1,0,0.1,0,0.1,0
			s0,0,0,0.1c0,0.7-0.3,1.3-0.7,1.7C72,27.8,72,27.8,72,27.9c0,0.1,0,0.1,0.1,0.1C72.2,27.9,73,27.2,73,26"/>
	</g>
	<g>
		<defs>
			<rect id="SVGID_59_" x="7" y="16.3" width="82" height="14"/>
		</defs>
		<clipPath id="SVGID_60_">
			<use xlink:href="#SVGID_59_"  style="overflow:visible;"/>
		</clipPath>
		<path class="st30" d="M77.2,25.9c-0.5,0-0.9-0.3-0.9-1.1c0-0.3,0.1-1.1,0.5-1.7c0.4-0.7,1-0.8,1.3-0.8c0.9,0,0.9,0.7,0.9,1
			c0,0.5-0.2,1.3-0.5,1.8C78.2,25.6,77.6,25.9,77.2,25.9 M80.5,22.3c0.1,0,0.5,0,0.5-0.3c0-0.2-0.2-0.2-0.4-0.2h-2.3
			c-1.5,0-2.6,1.6-2.6,2.8c0,0.9,0.6,1.6,1.5,1.6c1.2,0,2.5-1.2,2.5-2.7c0-0.2,0-0.6-0.3-1.1L80.5,22.3L80.5,22.3z"/>
	</g>
	<g>
		<defs>
			<rect id="SVGID_61_" x="7" y="16.3" width="82" height="14"/>
		</defs>
		<clipPath id="SVGID_62_">
			<use xlink:href="#SVGID_61_"  style="overflow:visible;"/>
		</clipPath>
		<path class="st31" d="M84.9,20.6h-0.2c0,0.2-0.1,0.6-0.2,0.7c-0.1,0-0.6,0-0.7,0h-1.3c0.7-0.6,1-0.9,1.4-1.2c0.5-0.4,1-0.9,1-1.5
			c0-0.9-0.7-1.4-1.6-1.4s-1.5,0.6-1.5,1.3c0,0.4,0.3,0.4,0.4,0.4c0.2,0,0.4-0.1,0.4-0.4c0-0.1-0.1-0.4-0.4-0.4
			c0.2-0.5,0.7-0.6,1-0.6c0.7,0,1.1,0.5,1.1,1.1s-0.5,1.1-0.7,1.3l-1.7,1.7c-0.1,0.1-0.1,0.1-0.1,0.3h2.9L84.9,20.6"/>
	</g>
	<g>
		<defs>
			<rect id="SVGID_63_" x="7" y="16.3" width="82" height="14"/>
		</defs>
		<clipPath id="SVGID_64_">
			<use xlink:href="#SVGID_63_"  style="overflow:visible;"/>
		</clipPath>
		<path class="st32" d="M88.7,23.5c0-0.8-0.1-2-0.7-3.1c-0.6-1.2-1.4-1.9-1.5-1.9s-0.1,0-0.1,0.1s0,0.1,0.2,0.2c1,1,1.5,2.6,1.5,4.6
			c0,1.7-0.4,3.5-1.6,4.7c-0.1,0.1-0.1,0.1-0.1,0.2c0,0.1,0.1,0.1,0.1,0.1c0.1,0,1-0.7,1.6-1.9C88.6,25.4,88.7,24.4,88.7,23.5"/>
	</g>
</g>
<image style="overflow:visible;enable-background:new    ;" width="1701" height="1137" xlink:href="1.png"  transform="matrix(0.12 0 0 0.12 174.8903 4.7592)">
</image>
<g>
	<g>
		<defs>
			<rect id="SVGID_65_" x="233.8" y="56.6" width="28" height="12"/>
		</defs>
		<clipPath id="SVGID_66_">
			<use xlink:href="#SVGID_65_"  style="overflow:visible;"/>
		</clipPath>
		<path class="st33" d="M237.9,58.2c0.1-0.3,0.1-0.4,0.5-0.4h1c0.8,0,1.4,0.3,1.4,1c0,0.4-0.2,1.3-0.6,1.6c-0.5,0.5-1.1,0.5-1.5,0.5
			h-1.4L237.9,58.2 M237.2,61.1h1.7c1.4,0,2.8-1,2.8-2.2c0-0.8-0.6-1.5-1.9-1.5h-3.2c-0.2,0-0.3,0-0.3,0.2c0,0.1,0.1,0.1,0.3,0.1
			c0.1,0,0.3,0,0.4,0c0.2,0,0.2,0.1,0.2,0.2c0,0,0,0.1-0.1,0.2l-1.3,5.3c-0.1,0.4-0.1,0.5-0.9,0.5c-0.2,0-0.3,0-0.3,0.2
			c0,0.1,0.1,0.1,0.2,0.1c0.3,0,1-0.1,1.3-0.1c0.2,0,0.4,0,0.6,0c0.2,0,0.4,0,0.6,0c0.1,0,0.2,0,0.2-0.2c0-0.1-0.1-0.1-0.3-0.1
			c-0.4,0-0.6,0-0.6-0.2c0-0.1,0-0.1,0-0.2L237.2,61.1z"/>
	</g>
	<g>
		<defs>
			<rect id="SVGID_67_" x="233.8" y="56.6" width="28" height="12"/>
		</defs>
		<clipPath id="SVGID_68_">
			<use xlink:href="#SVGID_67_"  style="overflow:visible;"/>
		</clipPath>
		<path class="st34" d="M243.1,61.3c-1.3,0.9-1.7,2.4-1.7,3.5c0,1,0.3,2.5,1.7,3.5c0.1,0,0.1,0,0.1-0.1c0,0,0-0.1-0.1-0.1
			c-0.9-0.9-1.3-2.1-1.3-3.3C241.8,62.9,242.5,62,243.1,61.3L243.1,61.3C243.2,61.3,243.1,61.3,243.1,61.3"/>
	</g>
	<g>
		<defs>
			<rect id="SVGID_69_" x="233.8" y="56.6" width="28" height="12"/>
		</defs>
		<clipPath id="SVGID_70_">
			<use xlink:href="#SVGID_69_"  style="overflow:visible;"/>
		</clipPath>
		<path class="st35" d="M246.5,64.9l1-1c0.2-0.1,0.3-0.1,0.6-0.1v-0.3c-0.2,0-0.5,0-0.7,0s-0.7,0-0.8,0v0.4c0.1,0,0.1,0,0.2,0.1
			l-0.7,0.7l-0.7-0.7h0.2v-0.5c-0.1,0-0.6,0-0.9,0c-0.3,0-0.5,0-0.8,0v0.4h0.5l1.2,1.2l-1,1c-0.1,0.1-0.1,0.1-0.3,0.1
			c-0.1,0-0.4,0-0.4,0v0.4c0.2,0,0.5,0,0.7,0s0.7,0,0.8,0v-0.4c-0.1,0-0.1,0-0.2-0.1l0.7-0.7l0.8,0.8h-0.1v0.4c0,0,0.6,0,0.9,0
			c0.3,0,0.5,0,0.8,0v-0.4h-0.5L246.5,64.9"/>
	</g>
	<g>
		<defs>
			<rect id="SVGID_71_" x="233.8" y="56.6" width="28" height="12"/>
		</defs>
		<clipPath id="SVGID_72_">
			<use xlink:href="#SVGID_71_"  style="overflow:visible;"/>
		</clipPath>
		<line class="st36" x1="243.7" y1="67.8" x2="248.5" y2="67.8"/>
	</g>
	<g>
		<defs>
			<rect id="SVGID_73_" x="233.8" y="56.6" width="28" height="12"/>
		</defs>
		<clipPath id="SVGID_74_">
			<use xlink:href="#SVGID_73_"  style="overflow:visible;"/>
		</clipPath>
		<path class="st37" d="M250.7,60.9L250.7,60.9c0-0.1,0-0.1-0.1-0.1s-1.4,0.8-1.4,2.5c0,1.7,1.3,2.5,1.4,2.5c0.1,0,0.1-0.1,0.1-0.1
			s0,0,0-0.1c-0.9-0.7-1.1-1.7-1.1-2.4C249.6,62.1,250.2,61.3,250.7,60.9"/>
	</g>
	<g>
		<defs>
			<rect id="SVGID_75_" x="233.8" y="56.6" width="28" height="12"/>
		</defs>
		<clipPath id="SVGID_76_">
			<use xlink:href="#SVGID_75_"  style="overflow:visible;"/>
		</clipPath>
		<path class="st38" d="M254,64c-0.2,0.2-0.7,0.5-1.3,0.5c-0.3,0-0.6-0.1-0.6-0.6c0-0.2,0.1-0.6,0.3-1c0.2-0.2,0.5-0.4,0.8-0.4
			c0.5,0,0.6,0.5,0.7,0.8C254,63.4,254,63.7,254,64 M254.5,63.9c0.5-0.4,0.7-1.1,0.7-1.2s-0.1-0.1-0.1-0.1c-0.1,0-0.1,0-0.1,0.1
			c-0.1,0.4-0.3,0.7-0.5,0.9c0-0.1,0-0.1,0-0.3c-0.1-0.7-0.7-1-1.1-1c-0.8,0-1.6,0.7-1.6,1.4c0,0.5,0.4,0.9,1,0.9
			c0.3,0,0.8-0.1,1.3-0.5c0.1,0.2,0.3,0.5,0.6,0.5c0.3,0,0.5-0.2,0.5-0.4c0-0.1-0.1-0.1-0.1-0.1c-0.1,0-0.1,0-0.1,0.1
			c-0.1,0.2-0.2,0.2-0.3,0.2S254.5,64.4,254.5,63.9z"/>
	</g>
	<g>
		<defs>
			<rect id="SVGID_77_" x="233.8" y="56.6" width="28" height="12"/>
		</defs>
		<clipPath id="SVGID_78_">
			<use xlink:href="#SVGID_77_"  style="overflow:visible;"/>
		</clipPath>
		<path class="st39" d="M257.7,63.3c0-1.7-1.3-2.5-1.4-2.5s-0.1,0.1-0.1,0.1V61c0.8,0.6,1.1,1.5,1.1,2.4c0,0.5-0.1,0.9-0.3,1.4
			c-0.2,0.6-0.6,0.9-0.8,1v0.1c0,0,0,0.1,0.1,0.1C256.4,65.8,257.7,65,257.7,63.3"/>
	</g>
	<g>
		<defs>
			<rect id="SVGID_79_" x="233.8" y="56.6" width="28" height="12"/>
		</defs>
		<clipPath id="SVGID_80_">
			<use xlink:href="#SVGID_79_"  style="overflow:visible;"/>
		</clipPath>
		<path class="st40" d="M259.5,61.3c0,0-0.1,0-0.1,0.1c0,0,0,0.1,0.1,0.1c0.6,0.6,1.3,1.5,1.3,3.3c0,1.5-0.5,2.6-1.2,3.2
			c-0.1,0.1-0.1,0.1-0.1,0.2s0,0.1,0.1,0.1s0.7-0.5,1.2-1.4c0.3-0.6,0.5-1.3,0.5-2.2C261.2,63.8,260.9,62.3,259.5,61.3"/>
	</g>
</g>
<g>
	<g>
		<defs>
			<rect id="SVGID_81_" x="256.1" y="129.9" width="18" height="12"/>
		</defs>
		<clipPath id="SVGID_82_">
			<use xlink:href="#SVGID_81_"  style="overflow:visible;"/>
		</clipPath>
		<path class="st41" d="M260.2,137.1l1.1-1.3c0.1-0.1,0.2-0.2,1-0.2v-0.5c-0.3,0-0.9,0-0.9,0c-0.2,0-0.7,0-1,0v0.5
			c0.1,0,0.2,0,0.4,0.1c-0.1,0.1-0.1,0.1-0.1,0.1l-0.9,0.9l-1-1.1h0.4v-0.5c-0.3,0-0.9,0-1.2,0s-0.8,0-1.1,0v0.5h0.7l1.5,1.8
			l-1.3,1.5c-0.2,0.2-0.5,0.2-1,0.2v0.5c0.3,0,0.9,0,0.9,0c0.2,0,0.8,0,1,0v-0.5c-0.2,0-0.4-0.1-0.4-0.1s0,0,0.1-0.1l1-1.1l1.1,1.3
			h-0.4v0.5c0.3,0,0.9,0,1.2,0c0.3,0,0.7,0,1.1,0v-0.5h-0.7L260.2,137.1"/>
	</g>
	<g>
		<defs>
			<rect id="SVGID_83_" x="256.1" y="129.9" width="18" height="12"/>
		</defs>
		<clipPath id="SVGID_84_">
			<use xlink:href="#SVGID_83_"  style="overflow:visible;"/>
		</clipPath>
		<line class="st42" x1="256.7" y1="140.9" x2="262.8" y2="140.9"/>
	</g>
	<g>
		<defs>
			<rect id="SVGID_85_" x="256.1" y="129.9" width="18" height="12"/>
		</defs>
		<clipPath id="SVGID_86_">
			<use xlink:href="#SVGID_85_"  style="overflow:visible;"/>
		</clipPath>
		<path class="st43" d="M265.2,130.2c-1.4,0.9-1.7,2.4-1.7,3.5c0,1,0.3,2.5,1.7,3.5c0.1,0,0.1,0,0.1-0.1c0,0,0-0.1-0.1-0.1
			c-0.9-0.8-1.3-2-1.3-3.3C263.9,131.8,264.6,130.9,265.2,130.2l0.1,0C265.4,130.2,265.3,130.2,265.2,130.2"/>
	</g>
	<g>
		<defs>
			<rect id="SVGID_87_" x="256.1" y="129.9" width="18" height="12"/>
		</defs>
		<clipPath id="SVGID_88_">
			<use xlink:href="#SVGID_87_"  style="overflow:visible;"/>
		</clipPath>
		<path class="st44" d="M269.2,134.7c-0.7,0.6-1.3,0.6-1.5,0.6c-0.5,0-0.7-0.3-0.7-0.8c0-0.2,0.1-1,0.5-1.5c0.3-0.4,0.7-0.5,1-0.5
			c0.6,0,0.7,0.5,0.8,1C269.2,133.8,269.2,134.3,269.2,134.7 M269.8,134.5c0.7-0.7,0.9-1.6,0.9-1.7s-0.1-0.1-0.1-0.1
			c-0.1,0-0.1,0-0.2,0.2c-0.1,0.5-0.3,0.9-0.6,1.3c0-0.1,0-0.6,0-0.6c-0.1-0.7-0.6-1.1-1.4-1.1c-1,0-2,1-2,1.9
			c0,0.7,0.5,1.2,1.3,1.2c0.6,0,1.2-0.3,1.6-0.6c0.2,0.5,0.5,0.6,0.7,0.6c0.4,0,0.7-0.3,0.7-0.5c0-0.1-0.1-0.1-0.1-0.1
			c-0.1,0-0.1,0-0.1,0.1c-0.1,0.3-0.3,0.3-0.4,0.3C269.9,135.3,269.8,135.3,269.8,134.5z"/>
	</g>
	<g>
		<defs>
			<rect id="SVGID_89_" x="256.1" y="129.9" width="18" height="12"/>
		</defs>
		<clipPath id="SVGID_90_">
			<use xlink:href="#SVGID_89_"  style="overflow:visible;"/>
		</clipPath>
		<path class="st45" d="M271.7,130.2c-0.1,0-0.1,0-0.1,0.1c0,0,0,0.1,0.1,0.1c0.6,0.6,1.3,1.5,1.3,3.3c0,1.5-0.5,2.6-1.2,3.3
			c-0.1,0.1-0.1,0.1-0.1,0.2c0,0.1,0,0.1,0.1,0.1s0.7-0.5,1.2-1.3c0.3-0.6,0.5-1.3,0.5-2.2C273.4,132.7,273.1,131.2,271.7,130.2"/>
	</g>
</g>
<g>
	<g>
		<defs>
			<rect id="SVGID_91_" x="373.7" y="121.7" width="7" height="7"/>
		</defs>
		<clipPath id="SVGID_92_">
			<use xlink:href="#SVGID_91_"  style="overflow:visible;"/>
		</clipPath>
		<path class="st46" d="M377.6,123.8l1.2-1.3c0.1-0.2,0.2-0.2,1-0.2v-0.5c-0.3,0-0.9,0-0.9,0c-0.2,0-0.7,0-1,0v0.5
			c0.1,0,0.3,0,0.4,0.1c-0.1,0.1-0.1,0.1-0.1,0.1l-0.8,0.9l-1-1.1h0.4v-0.5c-0.3,0-0.9,0-1.2,0c-0.3,0-0.8,0-1.1,0v0.5h0.7l1.6,1.8
			l-1.3,1.5c-0.2,0.2-0.5,0.2-1,0.2v0.5c0.3,0,0.9,0,0.9,0c0.3,0,0.8,0,1,0v-0.5c-0.2,0-0.4-0.1-0.4-0.1s0,0,0.1-0.1l1-1.1l1.1,1.3
			h-0.4v0.5c0.3,0,0.9,0,1.2,0s0.8,0,1.1,0v-0.5h-0.7L377.6,123.8"/>
	</g>
	<g>
		<defs>
			<rect id="SVGID_93_" x="373.7" y="121.7" width="7" height="7"/>
		</defs>
		<clipPath id="SVGID_94_">
			<use xlink:href="#SVGID_93_"  style="overflow:visible;"/>
		</clipPath>
		<line class="st47" x1="374.3" y1="127.7" x2="380.3" y2="127.7"/>
	</g>
</g>
<rect x="356.8" y="127.2" class="st0" width="8.7" height="6.6"/>
<rect x="175.9" y="25.8" class="st0" width="22.2" height="17.7"/>
<g>
	<g>
		<defs>
			<rect id="SVGID_95_" x="203" y="16.3" width="82" height="14"/>
		</defs>
		<clipPath id="SVGID_96_">
			<use xlink:href="#SVGID_95_"  style="overflow:visible;"/>
		</clipPath>
		<path class="st48" d="M207.1,19.9c0.1-0.3,0.1-0.4,0.5-0.4h1c0.8,0,1.4,0.3,1.4,1c0,0.4-0.2,1.3-0.6,1.6c-0.5,0.5-1.1,0.5-1.5,0.5
			h-1.4L207.1,19.9 M206.4,22.9h1.7c1.4,0,2.8-1,2.8-2.2c0-0.8-0.6-1.5-1.9-1.5h-3.2c-0.2,0-0.3,0-0.3,0.2c0,0.1,0.1,0.1,0.3,0.1
			c0.1,0,0.3,0,0.4,0c0.2,0,0.2,0.1,0.2,0.2c0,0,0,0.1-0.1,0.2l-1.3,5.3c-0.1,0.4-0.1,0.5-0.9,0.5c-0.2,0-0.3,0-0.3,0.2
			c0,0.1,0.1,0.1,0.2,0.1c0.3,0,1-0.1,1.3-0.1c0.2,0,0.4,0,0.6,0c0.2,0,0.4,0,0.6,0c0.1,0,0.2,0,0.2-0.2c0-0.1-0.1-0.1-0.3-0.1
			c-0.4,0-0.6,0-0.6-0.2c0-0.1,0-0.1,0-0.2L206.4,22.9z"/>
	</g>
	<g>
		<defs>
			<rect id="SVGID_97_" x="203" y="16.3" width="82" height="14"/>
		</defs>
		<clipPath id="SVGID_98_">
			<use xlink:href="#SVGID_97_"  style="overflow:visible;"/>
		</clipPath>
		<path class="st49" d="M212.3,22.5c-1.3,0.9-1.7,2.4-1.7,3.5c0,1,0.3,2.5,1.7,3.5c0.1,0,0.1,0,0.1-0.1s0-0.1-0.1-0.1
			c-0.9-0.9-1.3-2.1-1.3-3.3c0-1.9,0.7-2.8,1.3-3.4C212.3,22.6,212.3,22.6,212.3,22.5C212.4,22.5,212.3,22.5,212.3,22.5"/>
	</g>
	<g>
		<defs>
			<rect id="SVGID_99_" x="203" y="16.3" width="82" height="14"/>
		</defs>
		<clipPath id="SVGID_100_">
			<use xlink:href="#SVGID_99_"  style="overflow:visible;"/>
		</clipPath>
		<path class="st50" d="M215.6,26.1l1-1c0.2-0.1,0.3-0.1,0.6-0.1v-0.4c-0.2,0-0.5,0-0.7,0s-0.7,0-0.8,0V25c0.1,0,0.1,0,0.2,0
			l-0.7,0.7l-0.7-0.7h0.2v-0.4c-0.1,0-0.6,0-0.9,0c-0.3,0-0.5,0-0.8,0V25h0.5l1.2,1.2l-1,1c-0.1,0.1-0.1,0.1-0.3,0.1
			c-0.1,0-0.4,0-0.4,0v0.4c0.2,0,0.5,0,0.7,0s0.7,0,0.8,0v-0.4c-0.1,0-0.1,0-0.2,0l0.7-0.8l0.8,0.8h-0.2v0.4c0,0,0.6,0,0.9,0
			c0.3,0,0.5,0,0.8,0v-0.4h-0.5L215.6,26.1"/>
	</g>
	<g>
		<defs>
			<rect id="SVGID_101_" x="203" y="16.3" width="82" height="14"/>
		</defs>
		<clipPath id="SVGID_102_">
			<use xlink:href="#SVGID_101_"  style="overflow:visible;"/>
		</clipPath>
		<line class="st51" x1="212.9" y1="29" x2="217.6" y2="29"/>
	</g>
	<g>
		<defs>
			<rect id="SVGID_103_" x="203" y="16.3" width="82" height="14"/>
		</defs>
		<clipPath id="SVGID_104_">
			<use xlink:href="#SVGID_103_"  style="overflow:visible;"/>
		</clipPath>
		<path class="st52" d="M218.2,22.5c-0.1,0-0.1,0-0.1,0.1s0,0.1,0.1,0.1c0.6,0.6,1.3,1.5,1.3,3.3c0,1.5-0.5,2.6-1.2,3.3
			c-0.1,0.1-0.1,0.1-0.1,0.2c0,0,0,0.1,0.1,0.1s0.8-0.5,1.2-1.4c0.3-0.6,0.5-1.3,0.5-2.2C219.9,25,219.6,23.5,218.2,22.5"/>
	</g>
	<g>
		<defs>
			<rect id="SVGID_105_" x="203" y="16.3" width="82" height="14"/>
		</defs>
		<clipPath id="SVGID_106_">
			<use xlink:href="#SVGID_105_"  style="overflow:visible;"/>
		</clipPath>
		<path class="st53" d="M230.8,24.7c0.2,0,0.3,0,0.3-0.2s-0.2-0.2-0.3-0.2h-5.9c-0.1,0-0.3,0-0.3,0.2s0.2,0.2,0.3,0.2H230.8
			 M230.8,22.8c0.2,0,0.3,0,0.3-0.2s-0.2-0.2-0.3-0.2h-5.9c-0.1,0-0.3,0-0.3,0.2s0.2,0.2,0.3,0.2H230.8z"/>
	</g>
	<g>
		<defs>
			<rect id="SVGID_107_" x="203" y="16.3" width="82" height="14"/>
		</defs>
		<clipPath id="SVGID_108_">
			<use xlink:href="#SVGID_107_"  style="overflow:visible;"/>
		</clipPath>
		<path class="st54" d="M237.5,20.3c0.2,0.5,0.4,1.3,0.9,2.5c0.6,1.7,0.9,2.3,1.5,3.2c0.1,0.2,0.1,0.2,0.2,0.2
			c0.1,0,0.3-0.1,0.5-0.2c0.1-0.1,0.1-0.1,0.2-0.6c0.6-2.6,1.4-5.3,1.6-5.8c0,0,0.2-0.4,1.4-0.4c0.2,0,0.4-0.5,0.4-0.8
			c0-0.2-0.1-0.2-0.2-0.2c-1,0-1.4,0.4-1.5,0.6c-0.3,0.3-0.5,1.1-1,2.7c-0.3,1.3-0.7,2.6-1,3.8c-0.6-0.8-0.9-1.6-1.3-2.9
			c-0.5-1.4-0.9-2.4-1.1-3.4c-0.1-0.2-0.1-0.2-0.2-0.2c0,0-0.2,0-0.5,0.2c-0.1,0.1-0.1,0.2-0.1,0.3c-0.3,2.7-1.2,5.3-1.5,5.8
			c-0.1,0.1-0.2,0.3-0.4,0.3c-0.1,0-0.5-0.1-0.7-0.3c-0.1,0-0.1,0-0.1,0c-0.2,0-0.4,0.5-0.4,0.7c0,0.3,0.6,0.5,0.9,0.5
			c0.6,0,1.1-1.4,1.3-1.9C237,22.8,237.3,21.3,237.5,20.3"/>
	</g>
	<g>
		<defs>
			<rect id="SVGID_109_" x="203" y="16.3" width="82" height="14"/>
		</defs>
		<clipPath id="SVGID_110_">
			<use xlink:href="#SVGID_109_"  style="overflow:visible;"/>
		</clipPath>
		<path class="st55" d="M247.5,28.4c0,0,0-0.1-0.2-0.2c-1.2-1.3-1.5-3.1-1.5-4.7c0-1.7,0.4-3.5,1.6-4.7c0.1-0.1,0.1-0.1,0.1-0.2
			s-0.1-0.1-0.1-0.1c-0.1,0-1,0.7-1.6,1.9c-0.5,1.1-0.6,2.2-0.6,3s0.1,2,0.7,3.1c0.6,1.2,1.4,1.9,1.5,1.9
			C247.4,28.5,247.5,28.5,247.5,28.4"/>
	</g>
	<g>
		<defs>
			<rect id="SVGID_111_" x="203" y="16.3" width="82" height="14"/>
		</defs>
		<clipPath id="SVGID_112_">
			<use xlink:href="#SVGID_111_"  style="overflow:visible;"/>
		</clipPath>
		<path class="st56" d="M251.4,23.6l1.2-1.3c0.1-0.1,0.2-0.2,1-0.2v-0.5c-0.3,0-0.9,0-0.9,0c-0.2,0-0.7,0-1,0v0.5
			c0.1,0,0.3,0,0.4,0.1c0,0.1,0,0.1-0.1,0.1l-0.8,0.9l-1-1.1h0.4v-0.5c-0.2,0-0.9,0-1.2,0s-0.8,0-1.1,0v0.5h0.7l1.5,1.8l-1.3,1.5
			c-0.2,0.2-0.5,0.2-1,0.2v0.5c0.3,0,0.9-0.1,0.9-0.1c0.2,0,0.8,0,1,0.1v-0.6c-0.2,0-0.4-0.1-0.4-0.1s0,0,0.1-0.1l1-1.1l1.1,1.3
			h-0.4V26c0.3,0,0.9-0.1,1.2-0.1c0.3,0,0.8,0,1.1,0.1v-0.5h-0.7L251.4,23.6"/>
	</g>
	<g>
		<defs>
			<rect id="SVGID_113_" x="203" y="16.3" width="82" height="14"/>
		</defs>
		<clipPath id="SVGID_114_">
			<use xlink:href="#SVGID_113_"  style="overflow:visible;"/>
		</clipPath>
		<line class="st57" x1="248" y1="27.4" x2="254.1" y2="27.4"/>
	</g>
	<g>
		<defs>
			<rect id="SVGID_115_" x="203" y="16.3" width="82" height="14"/>
		</defs>
		<clipPath id="SVGID_116_">
			<use xlink:href="#SVGID_115_"  style="overflow:visible;"/>
		</clipPath>
		<path class="st58" d="M255.8,25.9c0,0.3,0,1.1-0.6,1.8c-0.1,0.1-0.1,0.1-0.1,0.1c0,0.1,0.1,0.1,0.1,0.1c0.1,0,0.8-0.8,0.8-2
			c0-0.3,0-1-0.6-1c-0.3,0-0.5,0.3-0.5,0.5s0.2,0.5,0.5,0.5c0.1,0,0.1,0,0.1,0C255.6,26,255.7,26,255.8,25.9 M256,22.3
			c0-0.3-0.2-0.5-0.5-0.5S255,22,255,22.3s0.2,0.5,0.5,0.5S256,22.5,256,22.3z"/>
	</g>
	<g>
		<defs>
			<rect id="SVGID_117_" x="203" y="16.3" width="82" height="14"/>
		</defs>
		<clipPath id="SVGID_118_">
			<use xlink:href="#SVGID_117_"  style="overflow:visible;"/>
		</clipPath>
		<path class="st59" d="M265.8,22.3c0.1-0.1,0.1-0.2,0.7-0.2v-0.5c-0.2,0-0.5,0-0.8,0s-0.7,0-1,0v0.5c0.1,0,0.6,0,0.6,0.1
			c0,0,0,0.1-0.1,0.1l-1,2.6l-1.1-2.8h0.5v-0.5c-0.3,0-0.8,0-1.1,0c-0.4,0-0.8,0-1,0v0.5h0.6c0.2,0.5,0.2,0.5,0.2,0.5
			c0,0.1,0,0.1,0,0.1l-0.8,1.9l-1-2.6h0.6v-0.5c-0.4,0-0.8,0-1.2,0c-0.3,0-0.7,0-1.1,0V22h0.6l1.5,3.7c0.1,0.2,0.1,0.3,0.3,0.3
			c0.3,0,0.3-0.1,0.4-0.3l1-2.6l1.1,2.6c0.1,0.2,0.1,0.3,0.3,0.3c0.2,0,0.3-0.1,0.4-0.3L265.8,22.3"/>
	</g>
	<g>
		<defs>
			<rect id="SVGID_119_" x="203" y="16.3" width="82" height="14"/>
		</defs>
		<clipPath id="SVGID_120_">
			<use xlink:href="#SVGID_119_"  style="overflow:visible;"/>
		</clipPath>
		<line class="st60" x1="258.5" y1="27.4" x2="266.9" y2="27.4"/>
	</g>
	<g>
		<defs>
			<rect id="SVGID_121_" x="203" y="16.3" width="82" height="14"/>
		</defs>
		<clipPath id="SVGID_122_">
			<use xlink:href="#SVGID_121_"  style="overflow:visible;"/>
		</clipPath>
		<path class="st61" d="M269,26c0-0.6-0.2-1-0.6-1c-0.3,0-0.5,0.2-0.5,0.5s0.2,0.5,0.5,0.5c0.1,0,0.3-0.1,0.3-0.1c0.1,0,0.1,0,0.1,0
			s0,0,0,0.1c0,0.7-0.3,1.3-0.7,1.7c-0.1,0.1-0.1,0.1-0.1,0.2c0,0.1,0,0.1,0.1,0.1C268.2,27.9,269,27.2,269,26"/>
	</g>
	<g>
		<defs>
			<rect id="SVGID_123_" x="203" y="16.3" width="82" height="14"/>
		</defs>
		<clipPath id="SVGID_124_">
			<use xlink:href="#SVGID_123_"  style="overflow:visible;"/>
		</clipPath>
		<path class="st62" d="M273.2,25.9c-0.5,0-0.9-0.3-0.9-1.1c0-0.3,0.1-1.1,0.5-1.7c0.4-0.7,1-0.8,1.3-0.8c0.9,0,0.9,0.7,0.9,1
			c0,0.5-0.2,1.3-0.5,1.8C274.2,25.6,273.6,25.9,273.2,25.9 M276.5,22.3c0.1,0,0.5,0,0.5-0.3c0-0.2-0.2-0.2-0.4-0.2h-2.3
			c-1.5,0-2.6,1.6-2.6,2.8c0,0.9,0.6,1.6,1.5,1.6c1.2,0,2.5-1.2,2.5-2.7c0-0.2,0-0.6-0.3-1.1L276.5,22.3L276.5,22.3z"/>
	</g>
	<g>
		<defs>
			<rect id="SVGID_125_" x="203" y="16.3" width="82" height="14"/>
		</defs>
		<clipPath id="SVGID_126_">
			<use xlink:href="#SVGID_125_"  style="overflow:visible;"/>
		</clipPath>
		<path class="st63" d="M280.9,20.6h-0.2c0,0.2-0.1,0.6-0.2,0.7c-0.1,0-0.6,0-0.7,0h-1.3c0.7-0.6,1-0.9,1.4-1.2c0.5-0.4,1-0.9,1-1.5
			c0-0.9-0.7-1.4-1.6-1.4s-1.5,0.6-1.5,1.3c0,0.4,0.3,0.4,0.4,0.4c0.2,0,0.4-0.1,0.4-0.4c0-0.1-0.1-0.4-0.4-0.4
			c0.2-0.5,0.7-0.6,1-0.6c0.7,0,1.1,0.5,1.1,1.1s-0.5,1.1-0.7,1.3l-1.7,1.7c-0.1,0.1-0.1,0.1-0.1,0.3h2.9L280.9,20.6"/>
	</g>
	<g>
		<defs>
			<rect id="SVGID_127_" x="203" y="16.3" width="82" height="14"/>
		</defs>
		<clipPath id="SVGID_128_">
			<use xlink:href="#SVGID_127_"  style="overflow:visible;"/>
		</clipPath>
		<path class="st64" d="M284.7,23.5c0-0.8-0.1-2-0.7-3.1c-0.6-1.2-1.4-1.9-1.5-1.9s-0.1,0-0.1,0.1s0,0.1,0.2,0.2
			c1,1,1.5,2.6,1.5,4.6c0,1.7-0.4,3.5-1.6,4.7c-0.1,0.1-0.1,0.1-0.1,0.2c0,0.1,0.1,0.1,0.1,0.1c0.1,0,1-0.7,1.6-1.9
			C284.6,25.4,284.7,24.4,284.7,23.5"/>
	</g>
</g>
<g>
	<g>
		<defs>
			<rect id="SVGID_129_" x="326.7" y="129.9" width="18" height="12"/>
		</defs>
		<clipPath id="SVGID_130_">
			<use xlink:href="#SVGID_129_"  style="overflow:visible;"/>
		</clipPath>
		<path class="st65" d="M330.9,137.1l1.2-1.3c0.1-0.1,0.2-0.2,1-0.2v-0.5c-0.3,0-0.9,0-0.9,0c-0.3,0-0.7,0-1,0v0.5
			c0.2,0,0.3,0,0.4,0.1c-0.1,0.1-0.1,0.1-0.1,0.1l-0.9,0.9l-1-1.1h0.4v-0.5c-0.3,0-0.9,0-1.2,0c-0.3,0-0.7,0-1.1,0v0.5h0.7l1.5,1.8
			l-1.3,1.5c-0.2,0.2-0.5,0.2-1,0.2v0.5c0.3,0,0.9,0,0.9,0c0.2,0,0.8,0,1,0v-0.5c-0.2,0-0.4-0.1-0.4-0.1s0,0,0.1-0.1l1-1.1l1.1,1.3
			h-0.4v0.5c0.2,0,0.9,0,1.2,0c0.3,0,0.7,0,1.1,0v-0.5h-0.7L330.9,137.1"/>
	</g>
	<g>
		<defs>
			<rect id="SVGID_131_" x="326.7" y="129.9" width="18" height="12"/>
		</defs>
		<clipPath id="SVGID_132_">
			<use xlink:href="#SVGID_131_"  style="overflow:visible;"/>
		</clipPath>
		<line class="st66" x1="327.5" y1="140.9" x2="333.5" y2="140.9"/>
	</g>
	<g>
		<defs>
			<rect id="SVGID_133_" x="326.7" y="129.9" width="18" height="12"/>
		</defs>
		<clipPath id="SVGID_134_">
			<use xlink:href="#SVGID_133_"  style="overflow:visible;"/>
		</clipPath>
		<path class="st67" d="M336,130.2c-1.3,0.9-1.7,2.4-1.7,3.5c0,1,0.3,2.5,1.7,3.5c0.1,0,0.1,0,0.1-0.1c0,0,0-0.1-0.1-0.1
			c-0.9-0.8-1.3-2-1.3-3.3C334.7,131.8,335.4,130.9,336,130.2L336,130.2C336.2,130.2,336.1,130.2,336,130.2"/>
	</g>
	<g>
		<defs>
			<rect id="SVGID_135_" x="326.7" y="129.9" width="18" height="12"/>
		</defs>
		<clipPath id="SVGID_136_">
			<use xlink:href="#SVGID_135_"  style="overflow:visible;"/>
		</clipPath>
		<path class="st68" d="M340.6,131.3c0,0.4-0.2,0.9-0.6,1.2c-0.1,0-0.3-0.1-0.7-0.1c-0.2,0-0.6,0-0.6,0.3c0,0.2,0.2,0.2,0.6,0.2
			c0.2,0,0.5-0.1,0.7-0.1c0.2,0.1,0.3,0.4,0.3,0.7c0,1-0.7,1.8-1.5,1.8c-0.6,0-0.9-0.3-0.9-0.9c0-0.1,0-0.1,0-0.2l0.5-1.9
			c0.2-0.7,0.8-1.7,1.6-1.7C340.3,130.7,340.6,130.9,340.6,131.3 M339.7,132.7c-0.1,0-0.2,0-0.4,0c-0.1,0-0.3,0-0.3,0
			c0.1-0.1,0.3-0.1,0.3-0.1C339.4,132.6,339.6,132.6,339.7,132.7z M341.1,131.5c0-0.6-0.5-1-1.1-1c-1,0-1.7,1.1-1.9,1.8l-1.1,4.4
			c0,0.1,0.1,0.1,0.1,0.1c0.1,0,0.1,0,0.1-0.1l0.5-1.9c0.2,0.3,0.5,0.6,1.1,0.6c1,0,2.1-0.7,2.1-1.8c0-0.4-0.2-0.8-0.5-1.1
			C340.6,132.5,341.1,132.1,341.1,131.5z"/>
	</g>
	<g>
		<defs>
			<rect id="SVGID_137_" x="326.7" y="129.9" width="18" height="12"/>
		</defs>
		<clipPath id="SVGID_138_">
			<use xlink:href="#SVGID_137_"  style="overflow:visible;"/>
		</clipPath>
		<path class="st69" d="M342.2,130.2c-0.1,0-0.1,0-0.1,0.1c0,0,0,0.1,0.1,0.1c0.6,0.6,1.3,1.5,1.3,3.3c0,1.5-0.5,2.6-1.2,3.3
			c-0.1,0.1-0.1,0.1-0.1,0.2c0,0.1,0,0.1,0.1,0.1s0.7-0.5,1.2-1.3c0.3-0.6,0.5-1.3,0.5-2.2C343.9,132.7,343.6,131.2,342.2,130.2"/>
	</g>
</g>
<g>
	<g>
		<defs>
			<rect id="SVGID_139_" x="335.9" y="2.2" width="27.1" height="12"/>
		</defs>
		<clipPath id="SVGID_140_">
			<use xlink:href="#SVGID_139_"  style="overflow:visible;"/>
		</clipPath>
		<path class="st70" d="M339.3,3.8c0.1-0.3,0.1-0.4,0.6-0.4h0.9c0.8,0,1.4,0.3,1.4,1c0,0.4-0.2,1.3-0.6,1.6
			c-0.5,0.5-1.1,0.5-1.5,0.5h-1.5L339.3,3.8 M338.6,6.8h1.7c1.4,0,2.8-1,2.8-2.2c0-0.8-0.7-1.5-2-1.5h-3.2c-0.2,0-0.3,0-0.3,0.2
			c0,0.1,0.1,0.1,0.3,0.1c0.1,0,0.3,0,0.4,0c0.2,0,0.2,0.1,0.2,0.2c0,0,0,0.1,0,0.2l-1.3,5.3c-0.1,0.4-0.1,0.5-0.9,0.5
			c-0.2,0-0.3,0-0.3,0.2c0,0.1,0.1,0.1,0.2,0.1c0.3,0,1-0.1,1.3-0.1c0.2,0,0.4,0,0.6,0s0.5,0,0.7,0c0.1,0,0.2,0,0.2-0.2
			c0-0.1-0.1-0.1-0.3-0.1c-0.4,0-0.7,0-0.7-0.2c0-0.1,0-0.1,0-0.2L338.6,6.8z"/>
	</g>
	<g>
		<defs>
			<rect id="SVGID_141_" x="335.9" y="2.2" width="27.1" height="12"/>
		</defs>
		<clipPath id="SVGID_142_">
			<use xlink:href="#SVGID_141_"  style="overflow:visible;"/>
		</clipPath>
		<path class="st71" d="M344.4,7c-1.4,0.9-1.7,2.4-1.7,3.5c0,1,0.3,2.5,1.7,3.5c0.1,0,0.1,0,0.1-0.1c0,0,0-0.1-0.1-0.1
			c-0.9-0.9-1.3-2.1-1.3-3.3C343.1,8.6,343.8,7.7,344.4,7l0.1,0C344.6,7,344.5,7,344.4,7"/>
	</g>
	<g>
		<defs>
			<rect id="SVGID_143_" x="335.9" y="2.2" width="27.1" height="12"/>
		</defs>
		<clipPath id="SVGID_144_">
			<use xlink:href="#SVGID_143_"  style="overflow:visible;"/>
		</clipPath>
		<path class="st72" d="M347.8,10.5l1-1c0.2-0.1,0.3-0.1,0.7-0.1V9c-0.2,0-0.5,0-0.7,0s-0.7,0-0.8,0v0.5c0.1,0,0.1,0,0.2,0.1
			l-0.7,0.7l-0.7-0.7h0.2V9.2c0,0-0.6,0-0.9,0s-0.5,0-0.8,0v0.3h0.5l1.1,1.2l-1,1c-0.1,0.1-0.1,0.1-0.3,0.1c-0.1,0-0.3,0-0.4,0v0.4
			c0.2,0,0.5,0,0.7,0s0.7,0,0.8,0v-0.4c-0.1,0-0.1,0-0.2-0.1l0.8-0.7l0.8,0.8h-0.2v0.4c0,0,0.6,0,0.9,0s0.5,0,0.8,0v-0.4h-0.5
			L347.8,10.5"/>
	</g>
	<g>
		<defs>
			<rect id="SVGID_145_" x="335.9" y="2.2" width="27.1" height="12"/>
		</defs>
		<clipPath id="SVGID_146_">
			<use xlink:href="#SVGID_145_"  style="overflow:visible;"/>
		</clipPath>
		<line class="st73" x1="345" y1="13.4" x2="349.8" y2="13.4"/>
	</g>
	<g>
		<defs>
			<rect id="SVGID_147_" x="335.9" y="2.2" width="27.1" height="12"/>
		</defs>
		<clipPath id="SVGID_148_">
			<use xlink:href="#SVGID_147_"  style="overflow:visible;"/>
		</clipPath>
		<path class="st74" d="M352.1,6.6C352.1,6.6,352.1,6.5,352.1,6.6c0-0.1,0-0.1-0.1-0.1s-1.4,0.8-1.4,2.5s1.3,2.5,1.4,2.5
			s0.1-0.1,0.1-0.1s0,0-0.1-0.1c-0.9-0.7-1-1.7-1-2.4C351,7.7,351.6,6.9,352.1,6.6"/>
	</g>
	<g>
		<defs>
			<rect id="SVGID_149_" x="335.9" y="2.2" width="27.1" height="12"/>
		</defs>
		<clipPath id="SVGID_150_">
			<use xlink:href="#SVGID_149_"  style="overflow:visible;"/>
		</clipPath>
		<path class="st75" d="M355.8,7.3c0,0.3-0.2,0.6-0.5,0.8C355.2,8,354.9,8,354.8,8s-0.5,0-0.5,0.2c0,0.1,0.2,0.2,0.5,0.2
			s0.4-0.1,0.6-0.1c0.2,0.1,0.3,0.3,0.3,0.6c0,0.7-0.5,1.2-1.2,1.2c-0.4,0-0.8-0.2-0.8-0.6c0-0.1,0-0.1,0-0.2L354,8
			c0.1-0.6,0.7-1.2,1.2-1.2C355.5,6.9,355.8,6.9,355.8,7.3 M355.1,8.2c-0.1,0-0.2,0-0.3,0s-0.2,0-0.2,0c0.1,0,0.2-0.1,0.3-0.1
			C354.9,8.2,355,8.2,355.1,8.2z M356.2,7.4c0-0.5-0.5-0.7-1-0.7c-0.6,0-1.3,0.7-1.4,1.3l-0.8,3.2c0,0.1,0,0.1,0.1,0.1
			s0.1,0,0.1-0.1l0.3-1.3c0.2,0.3,0.5,0.4,0.8,0.4c0.9,0,1.7-0.6,1.7-1.3c0-0.4-0.2-0.6-0.4-0.8C355.9,8.1,356.2,7.8,356.2,7.4z"/>
	</g>
	<g>
		<defs>
			<rect id="SVGID_151_" x="335.9" y="2.2" width="27.1" height="12"/>
		</defs>
		<clipPath id="SVGID_152_">
			<use xlink:href="#SVGID_151_"  style="overflow:visible;"/>
		</clipPath>
		<path class="st76" d="M358.6,9c0-1.7-1.3-2.5-1.4-2.5s-0.1,0.1-0.1,0.1s0,0.1,0.1,0.1c0.7,0.6,1,1.5,1,2.4c0,0.5-0.1,0.9-0.2,1.4
			c-0.2,0.6-0.6,0.9-0.8,1v0.1c0,0,0,0.1,0.1,0.1C357.3,11.5,358.6,10.7,358.6,9"/>
	</g>
	<g>
		<defs>
			<rect id="SVGID_153_" x="335.9" y="2.2" width="27.1" height="12"/>
		</defs>
		<clipPath id="SVGID_154_">
			<use xlink:href="#SVGID_153_"  style="overflow:visible;"/>
		</clipPath>
		<path class="st77" d="M360.5,7c-0.1,0-0.1,0-0.1,0.1c0,0,0,0.1,0.1,0.1c0.6,0.6,1.3,1.5,1.3,3.3c0,1.5-0.5,2.6-1.2,3.2
			c-0.1,0.1-0.1,0.1-0.1,0.2s0,0.1,0.1,0.1s0.8-0.5,1.2-1.4c0.3-0.6,0.5-1.3,0.5-2.2C362.1,9.5,361.9,7.9,360.5,7"/>
	</g>
</g>
<g>
	<g>
		<defs>
			<rect id="SVGID_155_" x="176.7" y="121.7" width="7" height="7"/>
		</defs>
		<clipPath id="SVGID_156_">
			<use xlink:href="#SVGID_155_"  style="overflow:visible;"/>
		</clipPath>
		<path class="st78" d="M180.6,123.8l1.2-1.3c0.1-0.2,0.2-0.2,1-0.2v-0.5c-0.3,0-0.9,0-0.9,0c-0.2,0-0.7,0-1,0v0.5
			c0.1,0,0.3,0,0.4,0.1c-0.1,0.1-0.1,0.1-0.1,0.1l-0.8,0.9l-1-1.1h0.4v-0.5c-0.3,0-0.9,0-1.2,0s-0.8,0-1.1,0v0.5h0.7l1.6,1.8
			l-1.3,1.5c-0.2,0.2-0.5,0.2-1,0.2v0.5c0.3,0,0.9,0,0.9,0c0.3,0,0.8,0,1,0v-0.5c-0.2,0-0.4-0.1-0.4-0.1s0,0,0.1-0.1l1-1.1l1.1,1.3
			h-0.4v0.5c0.3,0,0.9,0,1.2,0s0.8,0,1.1,0v-0.5h-0.7L180.6,123.8"/>
	</g>
	<g>
		<defs>
			<rect id="SVGID_157_" x="176.7" y="121.7" width="7" height="7"/>
		</defs>
		<clipPath id="SVGID_158_">
			<use xlink:href="#SVGID_157_"  style="overflow:visible;"/>
		</clipPath>
		<line class="st79" x1="177.3" y1="127.7" x2="183.3" y2="127.7"/>
	</g>
</g>
</svg>
