<?xml version="1.0" encoding="UTF-8" standalone="no"?>
<!-- Created with Inkscape (http://www.inkscape.org/) -->

<svg
   xmlns:ns0="http://www.iki.fi/pav/software/textext/"
   xmlns:dc="http://purl.org/dc/elements/1.1/"
   xmlns:cc="http://creativecommons.org/ns#"
   xmlns:rdf="http://www.w3.org/1999/02/22-rdf-syntax-ns#"
   xmlns:svg="http://www.w3.org/2000/svg"
   xmlns="http://www.w3.org/2000/svg"
   xmlns:sodipodi="http://sodipodi.sourceforge.net/DTD/sodipodi-0.dtd"
   xmlns:inkscape="http://www.inkscape.org/namespaces/inkscape"
   width="210mm"
   height="297mm"
   viewBox="0 0 210 297"
   version="1.1"
   id="svg7435"
   inkscape:version="0.92.1 r"
   sodipodi:docname="fig3_2.svg">
  <sodipodi:namedview
     id="base"
     pagecolor="#ffffff"
     bordercolor="#666666"
     borderopacity="1.0"
     inkscape:pageopacity="0.0"
     inkscape:pageshadow="2"
     inkscape:zoom="0.7"
     inkscape:cx="394.46476"
     inkscape:cy="693.83663"
     inkscape:document-units="mm"
     inkscape:current-layer="layer1"
     showgrid="false"
     inkscape:window-width="1280"
     inkscape:window-height="969"
     inkscape:window-x="0"
     inkscape:window-y="30"
     inkscape:window-maximized="1" />
  <defs
     id="defs7429">
    <marker
       inkscape:stockid="DotL"
       orient="auto"
       refY="0.0"
       refX="0.0"
       id="marker4855"
       style="overflow:visible"
       inkscape:isstock="true">
      <path
         id="path4853"
         d="M -2.5,-1.0 C -2.5,1.7600000 -4.7400000,4.0 -7.5,4.0 C -10.260000,4.0 -12.5,1.7600000 -12.5,-1.0 C -12.5,-3.7600000 -10.260000,-6.0 -7.5,-6.0 C -4.7400000,-6.0 -2.5,-3.7600000 -2.5,-1.0 z "
         style="fill-rule:evenodd;stroke:#000000;stroke-width:1pt;stroke-opacity:1;fill:#000000;fill-opacity:1"
         transform="scale(0.8) translate(7.4, 1)" />
    </marker>
    <marker
       inkscape:isstock="true"
       style="overflow:visible"
       id="marker4761"
       refX="0.0"
       refY="0.0"
       orient="auto"
       inkscape:stockid="DotL"
       inkscape:collect="always">
      <path
         transform="scale(0.8) translate(7.4, 1)"
         style="fill-rule:evenodd;stroke:#000000;stroke-width:1pt;stroke-opacity:1;fill:#000000;fill-opacity:1"
         d="M -2.5,-1.0 C -2.5,1.7600000 -4.7400000,4.0 -7.5,4.0 C -10.260000,4.0 -12.5,1.7600000 -12.5,-1.0 C -12.5,-3.7600000 -10.260000,-6.0 -7.5,-6.0 C -4.7400000,-6.0 -2.5,-3.7600000 -2.5,-1.0 z "
         id="path4759" />
    </marker>
    <marker
       inkscape:stockid="Arrow1Lstart"
       orient="auto"
       refY="0.0"
       refX="0.0"
       id="marker10590"
       style="overflow:visible"
       inkscape:isstock="true">
      <path
         id="path10588"
         d="M 0.0,0.0 L 5.0,-5.0 L -12.5,0.0 L 5.0,5.0 L 0.0,0.0 z "
         style="fill-rule:evenodd;stroke:#000000;stroke-width:1pt;stroke-opacity:1;fill:#000000;fill-opacity:1"
         transform="scale(0.8) translate(12.5,0)" />
    </marker>
    <marker
       inkscape:stockid="DotL"
       orient="auto"
       refY="0.0"
       refX="0.0"
       id="marker8122"
       style="overflow:visible"
       inkscape:isstock="true"
       inkscape:collect="always">
      <path
         id="path8120"
         d="M -2.5,-1.0 C -2.5,1.7600000 -4.7400000,4.0 -7.5,4.0 C -10.260000,4.0 -12.5,1.7600000 -12.5,-1.0 C -12.5,-3.7600000 -10.260000,-6.0 -7.5,-6.0 C -4.7400000,-6.0 -2.5,-3.7600000 -2.5,-1.0 z "
         style="fill-rule:evenodd;stroke:#000000;stroke-width:1pt;stroke-opacity:1;fill:#000000;fill-opacity:1"
         transform="scale(0.8) translate(7.4, 1)" />
    </marker>
    <marker
       inkscape:isstock="true"
       style="overflow:visible"
       id="marker8086"
       refX="0.0"
       refY="0.0"
       orient="auto"
       inkscape:stockid="DotL">
      <path
         transform="scale(0.8) translate(7.4, 1)"
         style="fill-rule:evenodd;stroke:#000000;stroke-width:1pt;stroke-opacity:1;fill:#000000;fill-opacity:1"
         d="M -2.5,-1.0 C -2.5,1.7600000 -4.7400000,4.0 -7.5,4.0 C -10.260000,4.0 -12.5,1.7600000 -12.5,-1.0 C -12.5,-3.7600000 -10.260000,-6.0 -7.5,-6.0 C -4.7400000,-6.0 -2.5,-3.7600000 -2.5,-1.0 z "
         id="path8084" />
    </marker>
    <marker
       inkscape:collect="always"
       inkscape:isstock="true"
       style="overflow:visible"
       id="marker8058"
       refX="0.0"
       refY="0.0"
       orient="auto"
       inkscape:stockid="DotL">
      <path
         transform="scale(0.8) translate(7.4, 1)"
         style="fill-rule:evenodd;stroke:#000000;stroke-width:1pt;stroke-opacity:1;fill:#000000;fill-opacity:1"
         d="M -2.5,-1.0 C -2.5,1.7600000 -4.7400000,4.0 -7.5,4.0 C -10.260000,4.0 -12.5,1.7600000 -12.5,-1.0 C -12.5,-3.7600000 -10.260000,-6.0 -7.5,-6.0 C -4.7400000,-6.0 -2.5,-3.7600000 -2.5,-1.0 z "
         id="path8056" />
    </marker>
    <marker
       inkscape:isstock="true"
       style="overflow:visible"
       id="DotL"
       refX="0.0"
       refY="0.0"
       orient="auto"
       inkscape:stockid="DotL">
      <path
         transform="scale(0.8) translate(7.4, 1)"
         style="fill-rule:evenodd;stroke:#000000;stroke-width:1pt;stroke-opacity:1;fill:#000000;fill-opacity:1"
         d="M -2.5,-1.0 C -2.5,1.7600000 -4.7400000,4.0 -7.5,4.0 C -10.260000,4.0 -12.5,1.7600000 -12.5,-1.0 C -12.5,-3.7600000 -10.260000,-6.0 -7.5,-6.0 C -4.7400000,-6.0 -2.5,-3.7600000 -2.5,-1.0 z "
         id="path4678" />
    </marker>
    <marker
       inkscape:isstock="true"
       style="overflow:visible"
       id="DotM"
       refX="0.0"
       refY="0.0"
       orient="auto"
       inkscape:stockid="DotM">
      <path
         transform="scale(0.4) translate(7.4, 1)"
         style="fill-rule:evenodd;stroke:#000000;stroke-width:1pt;stroke-opacity:1;fill:#000000;fill-opacity:1"
         d="M -2.5,-1.0 C -2.5,1.7600000 -4.7400000,4.0 -7.5,4.0 C -10.260000,4.0 -12.5,1.7600000 -12.5,-1.0 C -12.5,-3.7600000 -10.260000,-6.0 -7.5,-6.0 C -4.7400000,-6.0 -2.5,-3.7600000 -2.5,-1.0 z "
         id="path4681" />
    </marker>
    <marker
       inkscape:isstock="true"
       style="overflow:visible"
       id="Arrow1Lstart-9"
       refX="0"
       refY="0"
       orient="auto"
       inkscape:stockid="Arrow1Lstart">
      <path
         inkscape:connector-curvature="0"
         transform="matrix(0.8,0,0,0.8,10,0)"
         style="fill:#000000;fill-opacity:1;fill-rule:evenodd;stroke:#000000;stroke-width:1.00000003pt;stroke-opacity:1"
         d="M 0,0 5,-5 -12.5,0 5,5 Z"
         id="path4617-4" />
    </marker>
    <marker
       inkscape:stockid="Arrow1Lstart"
       orient="auto"
       refY="0"
       refX="0"
       id="marker10590-0"
       style="overflow:visible"
       inkscape:isstock="true">
      <path
         inkscape:connector-curvature="0"
         id="path10588-9"
         d="M 0,0 5,-5 -12.5,0 5,5 Z"
         style="fill:#000000;fill-opacity:1;fill-rule:evenodd;stroke:#000000;stroke-width:1.00000003pt;stroke-opacity:1"
         transform="matrix(0.8,0,0,0.8,10,0)" />
    </marker>
  </defs>
  <metadata
     id="metadata7432">
    <rdf:RDF>
      <cc:Work
         rdf:about="">
        <dc:format>image/svg+xml</dc:format>
        <dc:type
           rdf:resource="http://purl.org/dc/dcmitype/StillImage" />
        <dc:title />
      </cc:Work>
    </rdf:RDF>
  </metadata>
  <g
     inkscape:label="Layer 1"
     inkscape:groupmode="layer"
     id="layer1">
    <path
       style="fill:none;stroke:#000000;stroke-width:0.265;stroke-linecap:butt;stroke-linejoin:miter;stroke-opacity:1;stroke-miterlimit:4;stroke-dasharray:none;marker-start:url(#DotL);marker-end:url(#marker8058)"
       d="M 20.312484,87.460689 99.958802,31.868628 62.541069,87.46069"
       id="path8001"
       inkscape:connector-curvature="0" />
    <path
       style="fill:none;stroke:#000000;stroke-width:0.28303519px;stroke-linecap:butt;stroke-linejoin:miter;stroke-opacity:1;marker-start:url(#marker8086);marker-end:url(#marker8122)"
       d="M 99.964286,31.875858 173.71971,86.918919"
       id="path8003"
       inkscape:connector-curvature="0" />
    <g
       style="font-style:normal;font-variant:normal;font-weight:normal;font-stretch:normal;letter-spacing:normal;word-spacing:normal;text-anchor:start;fill:none;fill-opacity:1;fill-rule:evenodd;stroke:#000000;stroke-linecap:butt;stroke-linejoin:miter;stroke-miterlimit:10.43299961;stroke-dasharray:none;stroke-dashoffset:0;stroke-opacity:1"
       id="content"
       transform="matrix(1.927396,0,0,-1.927396,-341.48234,986.16311)"
       xml:space="preserve"
       stroke-miterlimit="10.433"
       font-style="normal"
       font-variant="normal"
       font-weight="normal"
       font-stretch="normal"
       font-size-adjust="none"
       letter-spacing="normal"
       word-spacing="normal"
       ns0:text="$\\hdots$"
       ns0:preamble="/usr/share/inkscape/extensions/textextLib/basicLatexPackages.tex"><path
         style="fill:#000000;stroke-width:0"
         inkscape:connector-curvature="0"
         d="m 225.35,477.76 v 0.03 l -0.01,0.03 v 0.02 0.03 l -0.01,0.02 -0.01,0.03 -0.01,0.02 -0.01,0.03 -0.01,0.02 -0.01,0.02 -0.01,0.02 -0.01,0.02 -0.02,0.03 -0.01,0.02 -0.02,0.01 -0.02,0.02 -0.02,0.02 -0.02,0.02 -0.02,0.01 -0.02,0.02 -0.02,0.01 -0.02,0.01 -0.02,0.02 -0.03,0.01 -0.02,0.01 h -0.03 l -0.02,0.01 -0.03,0.01 h -0.02 l -0.03,0.01 h -0.03 -0.02 c -0.29,0 -0.53,-0.24 -0.53,-0.53 0,-0.29 0.24,-0.53 0.53,-0.53 0.29,0 0.53,0.24 0.53,0.53 z"
         id="path8010" /><path
         style="fill:#000000;stroke-width:0"
         inkscape:connector-curvature="0"
         d="m 229.78,477.76 v 0.03 0.03 l -0.01,0.02 v 0.03 l -0.01,0.02 -0.01,0.03 v 0.02 l -0.01,0.03 -0.01,0.02 -0.02,0.02 -0.01,0.02 -0.01,0.02 -0.02,0.03 -0.01,0.02 -0.02,0.01 -0.02,0.02 -0.02,0.02 -0.02,0.02 -0.02,0.01 -0.02,0.02 -0.02,0.01 -0.02,0.01 -0.02,0.02 -0.03,0.01 -0.02,0.01 h -0.02 l -0.03,0.01 -0.03,0.01 h -0.02 l -0.03,0.01 h -0.02 -0.03 c -0.29,0 -0.53,-0.24 -0.53,-0.53 0,-0.29 0.24,-0.53 0.53,-0.53 0.29,0 0.53,0.24 0.53,0.53 z"
         id="path8012" /><path
         style="fill:#000000;stroke-width:0"
         inkscape:connector-curvature="0"
         d="m 234.2,477.76 v 0.03 0.03 l -0.01,0.02 v 0.03 l -0.01,0.02 v 0.03 l -0.01,0.02 -0.01,0.03 -0.01,0.02 -0.02,0.02 -0.01,0.02 -0.01,0.02 -0.02,0.03 -0.01,0.02 -0.02,0.01 -0.02,0.02 -0.02,0.02 -0.01,0.02 -0.02,0.01 -0.02,0.02 -0.03,0.01 -0.02,0.01 -0.02,0.02 -0.02,0.01 -0.03,0.01 h -0.02 l -0.03,0.01 -0.02,0.01 h -0.03 l -0.03,0.01 h -0.02 -0.03 c -0.29,0 -0.53,-0.24 -0.53,-0.53 0,-0.29 0.24,-0.53 0.53,-0.53 0.29,0 0.53,0.24 0.53,0.53 z"
         id="path8014" /></g>    <g
       id="g10542"
       transform="matrix(1,0,0,-1,-181.14685,523.12973)"
       xml:space="preserve"
       stroke-miterlimit="10.433"
       font-style="normal"
       font-variant="normal"
       font-weight="normal"
       font-stretch="normal"
       font-size-adjust="none"
       letter-spacing="normal"
       word-spacing="normal"
       ns0:text="$P_{(q)}$"
       ns0:preamble="/usr/share/inkscape/extensions/textextLib/basicLatexPackages.tex"
       style="font-style:normal;font-variant:normal;font-weight:normal;font-stretch:normal;letter-spacing:normal;word-spacing:normal;text-anchor:start;fill:none;fill-opacity:1;fill-rule:evenodd;stroke:#000000;stroke-linecap:butt;stroke-linejoin:miter;stroke-miterlimit:10.43299961;stroke-dasharray:none;stroke-dashoffset:0;stroke-opacity:1"><path
         style="fill:#000000;stroke-width:0"
         inkscape:connector-curvature="0"
         d="m 226.45,480.37 0.04,0.26 0.68,2.7 c 0.09,0.35 0.11,0.38 0.54,0.38 h 0.96 c 0.82,0 1.35,-0.27 1.35,-0.95 0,-0.39 -0.2,-1.24 -0.59,-1.6 -0.49,-0.45 -1.09,-0.53 -1.53,-0.53 h -1.41 l -0.04,-0.26 h 1.7 c 1.42,0 2.8,1.04 2.8,2.15 0,0.77 -0.66,1.5 -1.96,1.5 h -3.23 c -0.19,0 -0.3,0 -0.3,-0.19 0,-0.12 0.09,-0.12 0.29,-0.12 0.13,0 0.3,-0.01 0.42,-0.02 0.16,-0.02 0.22,-0.05 0.22,-0.16 0,-0.04 -0.01,-0.07 -0.04,-0.19 l -1.33,-5.33 c -0.1,-0.39 -0.12,-0.47 -0.91,-0.47 -0.17,0 -0.28,0 -0.28,-0.19 0,-0.12 0.12,-0.12 0.15,-0.12 0.28,0 0.99,0.04 1.27,0.04 0.21,0 0.43,-0.01 0.63,-0.01 0.22,0 0.44,-0.03 0.65,-0.03 0.07,0 0.2,0 0.2,0.2 0,0.11 -0.09,0.11 -0.28,0.11 -0.36,0 -0.65,0 -0.65,0.18 0,0.06 0.02,0.11 0.04,0.17 z"
         id="path10534" /><path
         style="fill:#000000;stroke-width:0"
         inkscape:connector-curvature="0"
         d="m 232.31,480.65 -0.12,-0.09 -0.12,-0.09 -0.11,-0.09 -0.1,-0.1 -0.1,-0.1 -0.1,-0.1 -0.09,-0.11 -0.08,-0.1 -0.08,-0.11 -0.08,-0.11 -0.07,-0.11 -0.06,-0.11 -0.07,-0.12 -0.05,-0.11 -0.06,-0.12 -0.05,-0.11 -0.04,-0.12 -0.04,-0.12 -0.04,-0.11 -0.04,-0.12 -0.03,-0.11 -0.03,-0.12 -0.02,-0.11 -0.02,-0.12 -0.02,-0.11 -0.02,-0.11 -0.01,-0.11 -0.01,-0.11 -0.01,-0.11 v -0.1 l -0.01,-0.11 v -0.1 c 0,-0.98 0.3,-2.5 1.68,-3.47 0.06,0 0.14,0 0.14,0.08 0,0.04 -0.02,0.06 -0.07,0.1 -0.93,0.84 -1.27,2.02 -1.27,3.28 0,1.88 0.72,2.8 1.29,3.31 0.03,0.03 0.05,0.05 0.05,0.09 0,0.08 -0.08,0.08 -0.14,0.08 z"
         id="path10536" /><path
         style="fill:#000000;stroke-width:0"
         inkscape:connector-curvature="0"
         d="m 236.5,478.3 v 0.01 0 0.01 l 0.01,0.01 v 0 0.01 0 0.01 0.01 0.01 0 0.01 0.01 0 0.01 0.01 c 0,0.04 -0.02,0.09 -0.09,0.09 -0.07,0 -0.36,-0.23 -0.5,-0.45 -0.07,0.13 -0.3,0.45 -0.75,0.45 v -0.19 c 0.49,0 0.62,-0.54 0.62,-0.61 0,-0.03 -0.01,-0.07 -0.02,-0.1 l -0.32,-1.29 c -0.04,-0.11 -0.04,-0.13 -0.13,-0.24 -0.27,-0.32 -0.6,-0.51 -0.87,-0.51 -0.26,0 -0.52,0.18 -0.52,0.68 0,0.37 0.21,1.13 0.37,1.41 0.32,0.55 0.68,0.66 0.87,0.66 v 0.19 c -0.89,0 -1.8,-0.98 -1.8,-1.98 0,-0.67 0.45,-1.15 1.05,-1.15 0.4,0 0.73,0.25 0.88,0.38 0,-0.02 -0.22,-0.9 -0.25,-1.02 -0.09,-0.38 -0.1,-0.38 -0.54,-0.39 -0.08,0 -0.18,0 -0.18,-0.16 0,-0.04 0.04,-0.09 0.11,-0.09 0.23,0 0.49,0.03 0.72,0.03 0.24,0 0.54,-0.03 0.75,-0.03 0.07,0 0.14,0.02 0.14,0.15 0,0.1 -0.09,0.1 -0.18,0.1 -0.15,0 -0.34,0 -0.34,0.08 0,0.02 0,0.04 0.03,0.16 z"
         id="path10538" /><path
         style="fill:#000000;stroke-width:0"
         inkscape:connector-curvature="0"
         d="m 237.47,480.65 v 0 h -0.01 v 0 h -0.01 v 0 h -0.01 v 0 h -0.01 v 0 h -0.01 -0.01 v 0 h -0.01 v 0 l -0.01,-0.01 v 0 h -0.01 v 0 l -0.01,-0.01 v 0 h -0.01 v 0 -0.01 h -0.01 v 0 -0.01 0 0 0 -0.01 h -0.01 v 0 0 -0.01 0 0 -0.01 0 0 -0.01 0 c 0,-0.04 0.02,-0.06 0.06,-0.11 0.6,-0.54 1.28,-1.48 1.28,-3.28 0,-1.45 -0.46,-2.55 -1.22,-3.23 -0.11,-0.12 -0.12,-0.13 -0.12,-0.16 0,-0.04 0.02,-0.08 0.09,-0.08 0.08,0 0.75,0.45 1.21,1.32 0.31,0.58 0.51,1.33 0.51,2.14 0,0.99 -0.29,2.51 -1.68,3.48 z"
         id="path10540" /></g>    <path
       sodipodi:nodetypes="cc"
       inkscape:connector-curvature="0"
       id="path10580"
       d="M 81.517206,58.862843 C 76.997662,51.948319 73.339456,44.304971 59.868373,44.964826"
       style="fill:none;stroke:#000000;stroke-width:0.26458332px;stroke-linecap:butt;stroke-linejoin:miter;stroke-opacity:1;marker-start:url(#marker10590)" />
    <g
       style="font-style:normal;font-variant:normal;font-weight:normal;font-stretch:normal;letter-spacing:normal;word-spacing:normal;text-anchor:start;fill:none;fill-opacity:1;fill-rule:evenodd;stroke:#000000;stroke-linecap:butt;stroke-linejoin:miter;stroke-miterlimit:10.43299961;stroke-dasharray:none;stroke-dashoffset:0;stroke-opacity:1"
       id="content-3"
       transform="matrix(0,-1.927396,-1.927396,0,940.93471,546.72941)"
       xml:space="preserve"
       stroke-miterlimit="10.433"
       font-style="normal"
       font-variant="normal"
       font-weight="normal"
       font-stretch="normal"
       font-size-adjust="none"
       letter-spacing="normal"
       word-spacing="normal"
       ns0:text="$\\hdots$"
       ns0:preamble="/usr/share/inkscape/extensions/textextLib/basicLatexPackages.tex"><path
         style="fill:#000000;stroke-width:0"
         inkscape:connector-curvature="0"
         d="m 225.35,477.76 v 0.03 l -0.01,0.03 v 0.02 0.03 l -0.01,0.02 -0.01,0.03 -0.01,0.02 -0.01,0.03 -0.01,0.02 -0.01,0.02 -0.01,0.02 -0.01,0.02 -0.02,0.03 -0.01,0.02 -0.02,0.01 -0.02,0.02 -0.02,0.02 -0.02,0.02 -0.02,0.01 -0.02,0.02 -0.02,0.01 -0.02,0.01 -0.02,0.02 -0.03,0.01 -0.02,0.01 h -0.03 l -0.02,0.01 -0.03,0.01 h -0.02 l -0.03,0.01 h -0.03 -0.02 c -0.29,0 -0.53,-0.24 -0.53,-0.53 0,-0.29 0.24,-0.53 0.53,-0.53 0.29,0 0.53,0.24 0.53,0.53 z"
         id="path8010-6" /><path
         style="fill:#000000;stroke-width:0"
         inkscape:connector-curvature="0"
         d="m 229.78,477.76 v 0.03 0.03 l -0.01,0.02 v 0.03 l -0.01,0.02 -0.01,0.03 v 0.02 l -0.01,0.03 -0.01,0.02 -0.02,0.02 -0.01,0.02 -0.01,0.02 -0.02,0.03 -0.01,0.02 -0.02,0.01 -0.02,0.02 -0.02,0.02 -0.02,0.02 -0.02,0.01 -0.02,0.02 -0.02,0.01 -0.02,0.01 -0.02,0.02 -0.03,0.01 -0.02,0.01 h -0.02 l -0.03,0.01 -0.03,0.01 h -0.02 l -0.03,0.01 h -0.02 -0.03 c -0.29,0 -0.53,-0.24 -0.53,-0.53 0,-0.29 0.24,-0.53 0.53,-0.53 0.29,0 0.53,0.24 0.53,0.53 z"
         id="path8012-7" /><path
         style="fill:#000000;stroke-width:0"
         inkscape:connector-curvature="0"
         d="m 234.2,477.76 v 0.03 0.03 l -0.01,0.02 v 0.03 l -0.01,0.02 v 0.03 l -0.01,0.02 -0.01,0.03 -0.01,0.02 -0.02,0.02 -0.01,0.02 -0.01,0.02 -0.02,0.03 -0.01,0.02 -0.02,0.01 -0.02,0.02 -0.02,0.02 -0.01,0.02 -0.02,0.01 -0.02,0.02 -0.03,0.01 -0.02,0.01 -0.02,0.02 -0.02,0.01 -0.03,0.01 h -0.02 l -0.03,0.01 -0.02,0.01 h -0.03 l -0.03,0.01 h -0.02 -0.03 c -0.29,0 -0.53,-0.24 -0.53,-0.53 0,-0.29 0.24,-0.53 0.53,-0.53 0.29,0 0.53,0.24 0.53,0.53 z"
         id="path8014-5" /></g>    <g
       style="font-style:normal;font-variant:normal;font-weight:normal;font-stretch:normal;letter-spacing:normal;word-spacing:normal;text-anchor:start;fill:none;fill-opacity:1;fill-rule:evenodd;stroke:#000000;stroke-linecap:butt;stroke-linejoin:miter;stroke-miterlimit:10.43299961;stroke-dasharray:none;stroke-dashoffset:0;stroke-opacity:1"
       id="content-3-3"
       transform="matrix(0,-1.927396,-1.927396,0,1094.7348,546.72941)"
       xml:space="preserve"
       stroke-miterlimit="10.433"
       font-style="normal"
       font-variant="normal"
       font-weight="normal"
       font-stretch="normal"
       font-size-adjust="none"
       letter-spacing="normal"
       word-spacing="normal"
       ns0:text="$\\hdots$"
       ns0:preamble="/usr/share/inkscape/extensions/textextLib/basicLatexPackages.tex"><path
         style="fill:#000000;stroke-width:0"
         inkscape:connector-curvature="0"
         d="m 225.35,477.76 v 0.03 l -0.01,0.03 v 0.02 0.03 l -0.01,0.02 -0.01,0.03 -0.01,0.02 -0.01,0.03 -0.01,0.02 -0.01,0.02 -0.01,0.02 -0.01,0.02 -0.02,0.03 -0.01,0.02 -0.02,0.01 -0.02,0.02 -0.02,0.02 -0.02,0.02 -0.02,0.01 -0.02,0.02 -0.02,0.01 -0.02,0.01 -0.02,0.02 -0.03,0.01 -0.02,0.01 h -0.03 l -0.02,0.01 -0.03,0.01 h -0.02 l -0.03,0.01 h -0.03 -0.02 c -0.29,0 -0.53,-0.24 -0.53,-0.53 0,-0.29 0.24,-0.53 0.53,-0.53 0.29,0 0.53,0.24 0.53,0.53 z"
         id="path8010-6-5" /><path
         style="fill:#000000;stroke-width:0"
         inkscape:connector-curvature="0"
         d="m 229.78,477.76 v 0.03 0.03 l -0.01,0.02 v 0.03 l -0.01,0.02 -0.01,0.03 v 0.02 l -0.01,0.03 -0.01,0.02 -0.02,0.02 -0.01,0.02 -0.01,0.02 -0.02,0.03 -0.01,0.02 -0.02,0.01 -0.02,0.02 -0.02,0.02 -0.02,0.02 -0.02,0.01 -0.02,0.02 -0.02,0.01 -0.02,0.01 -0.02,0.02 -0.03,0.01 -0.02,0.01 h -0.02 l -0.03,0.01 -0.03,0.01 h -0.02 l -0.03,0.01 h -0.02 -0.03 c -0.29,0 -0.53,-0.24 -0.53,-0.53 0,-0.29 0.24,-0.53 0.53,-0.53 0.29,0 0.53,0.24 0.53,0.53 z"
         id="path8012-7-6" /><path
         style="fill:#000000;stroke-width:0"
         inkscape:connector-curvature="0"
         d="m 234.2,477.76 v 0.03 0.03 l -0.01,0.02 v 0.03 l -0.01,0.02 v 0.03 l -0.01,0.02 -0.01,0.03 -0.01,0.02 -0.02,0.02 -0.01,0.02 -0.01,0.02 -0.02,0.03 -0.01,0.02 -0.02,0.01 -0.02,0.02 -0.02,0.02 -0.01,0.02 -0.02,0.01 -0.02,0.02 -0.03,0.01 -0.02,0.01 -0.02,0.02 -0.02,0.01 -0.03,0.01 h -0.02 l -0.03,0.01 -0.02,0.01 h -0.03 l -0.03,0.01 h -0.02 -0.03 c -0.29,0 -0.53,-0.24 -0.53,-0.53 0,-0.29 0.24,-0.53 0.53,-0.53 0.29,0 0.53,0.24 0.53,0.53 z"
         id="path8014-5-2" /></g>    <path
       style="fill:none;stroke:#000000;stroke-width:0.26458332px;stroke-linecap:butt;stroke-linejoin:miter;stroke-opacity:1;marker-start:url(#marker4761);marker-end:url(#marker4761)"
       d="M 22.300595,130.3125 62.541067,87.460689 52.160714,130.3125"
       id="path4749"
       inkscape:connector-curvature="0" />
    <path
       style="fill:none;stroke:#000000;stroke-width:0.2722356px;stroke-linecap:butt;stroke-linejoin:miter;stroke-opacity:1;marker-end:url(#marker4855)"
       d="M 62.54388,87.463187 99.404924,129.55404"
       id="path4751"
       inkscape:connector-curvature="0" />
    <g
       style="font-style:normal;font-variant:normal;font-weight:normal;font-stretch:normal;letter-spacing:normal;word-spacing:normal;text-anchor:start;fill:none;fill-opacity:1;fill-rule:evenodd;stroke:#000000;stroke-linecap:butt;stroke-linejoin:miter;stroke-miterlimit:10.43299961;stroke-dasharray:none;stroke-dashoffset:0;stroke-opacity:1"
       id="content-9"
       transform="matrix(1.927396,0,0,-1.927396,-324.40561,986.16311)"
       xml:space="preserve"
       stroke-miterlimit="10.433"
       font-style="normal"
       font-variant="normal"
       font-weight="normal"
       font-stretch="normal"
       font-size-adjust="none"
       letter-spacing="normal"
       word-spacing="normal"
       ns0:text="$\\hdots$"
       ns0:preamble="/usr/share/inkscape/extensions/textextLib/basicLatexPackages.tex"><path
         style="fill:#000000;stroke-width:0"
         inkscape:connector-curvature="0"
         d="m 225.35,477.76 v 0.03 l -0.01,0.03 v 0.02 0.03 l -0.01,0.02 -0.01,0.03 -0.01,0.02 -0.01,0.03 -0.01,0.02 -0.01,0.02 -0.01,0.02 -0.01,0.02 -0.02,0.03 -0.01,0.02 -0.02,0.01 -0.02,0.02 -0.02,0.02 -0.02,0.02 -0.02,0.01 -0.02,0.02 -0.02,0.01 -0.02,0.01 -0.02,0.02 -0.03,0.01 -0.02,0.01 h -0.03 l -0.02,0.01 -0.03,0.01 h -0.02 l -0.03,0.01 h -0.03 -0.02 c -0.29,0 -0.53,-0.24 -0.53,-0.53 0,-0.29 0.24,-0.53 0.53,-0.53 0.29,0 0.53,0.24 0.53,0.53 z"
         id="path8010-1" /><path
         style="fill:#000000;stroke-width:0"
         inkscape:connector-curvature="0"
         d="m 229.78,477.76 v 0.03 0.03 l -0.01,0.02 v 0.03 l -0.01,0.02 -0.01,0.03 v 0.02 l -0.01,0.03 -0.01,0.02 -0.02,0.02 -0.01,0.02 -0.01,0.02 -0.02,0.03 -0.01,0.02 -0.02,0.01 -0.02,0.02 -0.02,0.02 -0.02,0.02 -0.02,0.01 -0.02,0.02 -0.02,0.01 -0.02,0.01 -0.02,0.02 -0.03,0.01 -0.02,0.01 h -0.02 l -0.03,0.01 -0.03,0.01 h -0.02 l -0.03,0.01 h -0.02 -0.03 c -0.29,0 -0.53,-0.24 -0.53,-0.53 0,-0.29 0.24,-0.53 0.53,-0.53 0.29,0 0.53,0.24 0.53,0.53 z"
         id="path8012-2" /><path
         style="fill:#000000;stroke-width:0"
         inkscape:connector-curvature="0"
         d="m 234.2,477.76 v 0.03 0.03 l -0.01,0.02 v 0.03 l -0.01,0.02 v 0.03 l -0.01,0.02 -0.01,0.03 -0.01,0.02 -0.02,0.02 -0.01,0.02 -0.01,0.02 -0.02,0.03 -0.01,0.02 -0.02,0.01 -0.02,0.02 -0.02,0.02 -0.01,0.02 -0.02,0.01 -0.02,0.02 -0.03,0.01 -0.02,0.01 -0.02,0.02 -0.02,0.01 -0.03,0.01 h -0.02 l -0.03,0.01 -0.02,0.01 h -0.03 l -0.03,0.01 h -0.02 -0.03 c -0.29,0 -0.53,-0.24 -0.53,-0.53 0,-0.29 0.24,-0.53 0.53,-0.53 0.29,0 0.53,0.24 0.53,0.53 z"
         id="path8014-7" /></g>    <path
       sodipodi:nodetypes="cc"
       inkscape:connector-curvature="0"
       id="path10580-6"
       d="m 57.99407,108.60206 c 5.388705,-6.91453 9.750436,-14.557878 25.81218,-13.898023"
       style="fill:none;stroke:#000000;stroke-width:0.28890666px;stroke-linecap:butt;stroke-linejoin:miter;stroke-opacity:1;marker-start:url(#marker10590-0)" />
    <g
       id="g5843"
       transform="matrix(1,0,0,-1,-137.27122,574.18155)"
       xml:space="preserve"
       stroke="black"
       stroke-linecap="butt"
       stroke-linejoin="miter"
       stroke-miterlimit="10.433"
       stroke-dasharray="none"
       stroke-dashoffset="0"
       stroke-opacity="1"
       fill="none"
       fill-rule="evenodd"
       fill-opacity="1"
       font-style="normal"
       font-variant="normal"
       font-weight="normal"
       font-stretch="normal"
       font-size-adjust="none"
       letter-spacing="normal"
       word-spacing="normal"
       text-anchor="start"
       ns0:text="$P_{(q\' | q)}$"
       ns0:preamble="/usr/share/inkscape/extensions/textextLib/basicLatexPackages.tex"
       style="font-style:normal;font-variant:normal;font-weight:normal;font-stretch:normal;letter-spacing:normal;word-spacing:normal;text-anchor:start;fill:none;fill-opacity:1;fill-rule:evenodd;stroke:#000000;stroke-linecap:butt;stroke-linejoin:miter;stroke-miterlimit:10.43299961;stroke-dasharray:none;stroke-dashoffset:0;stroke-opacity:1"><path
         d="M226.45,480.37 L226.49,480.63 L227.17,483.33 C227.26,483.68,227.28,483.71,227.71,483.71 H228.67 C229.49,483.71,230.02,483.44,230.02,482.76 C230.02,482.37,229.82,481.52,229.43,481.16 C228.94,480.71,228.34,480.63,227.9,480.63 H226.49 L226.45,480.37 H228.15 C229.57,480.37,230.95,481.41,230.95,482.52 C230.95,483.29,230.29,484.02,228.99,484.02 H225.76 C225.57,484.02,225.46,484.02,225.46,483.83 C225.46,483.71,225.55,483.71,225.75,483.71 C225.88,483.71,226.05,483.7,226.17,483.69 C226.33,483.67,226.39,483.64,226.39,483.53 C226.39,483.49,226.38,483.46,226.35,483.34 L225.02,478.01 C224.92,477.62,224.9,477.54,224.11,477.54 C223.94,477.54,223.83,477.54,223.83,477.35 C223.83,477.23,223.95,477.23,223.98,477.23 C224.26,477.23,224.97,477.27,225.25,477.27 C225.46,477.27,225.68,477.26,225.88,477.26 C226.1,477.26,226.32,477.23,226.53,477.23 C226.6,477.23,226.73,477.23,226.73,477.43 C226.73,477.54,226.64,477.54,226.45,477.54 C226.09,477.54,225.8,477.54,225.8,477.72 C225.8,477.78,225.82,477.83,225.84,477.89 Z "
         stroke-width="0"
         fill="black"
         id="path5829" /><path
         d="M232.31,480.65 L232.19,480.56 L232.07,480.47 L231.96,480.38 L231.86,480.28 L231.76,480.18 L231.66,480.08 L231.57,479.97 L231.49,479.87 L231.41,479.76 L231.33,479.65 L231.26,479.54 L231.2,479.43 L231.13,479.31 L231.08,479.2 L231.02,479.08 L230.97,478.97 L230.93,478.85 L230.89,478.73 L230.85,478.62 L230.81,478.5 L230.78,478.39 L230.75,478.27 L230.73,478.16 L230.71,478.04 L230.69,477.93 L230.67,477.82 L230.66,477.71 L230.65,477.6 L230.64,477.49 L230.64,477.39 L230.63,477.28 L230.63,477.18 C230.63,476.2,230.93,474.68,232.31,473.71 C232.37,473.71,232.45,473.71,232.45,473.79 C232.45,473.83,232.43,473.85,232.38,473.89 C231.45,474.73,231.11,475.91,231.11,477.17 C231.11,479.05,231.83,479.97,232.4,480.48 C232.43,480.51,232.45,480.53,232.45,480.57 C232.45,480.65,232.37,480.65,232.31,480.65 Z "
         stroke-width="0"
         fill="black"
         id="path5831" /><path
         d="M236.5,478.3 L236.5,478.31 L236.5,478.31 L236.5,478.32 L236.51,478.33 L236.51,478.33 L236.51,478.34 L236.51,478.34 L236.51,478.35 L236.51,478.36 L236.51,478.37 L236.51,478.37 L236.51,478.38 L236.51,478.39 L236.51,478.39 L236.51,478.4 L236.51,478.41 C236.51,478.45,236.49,478.5,236.42,478.5 C236.35,478.5,236.06,478.27,235.92,478.05 C235.85,478.18,235.62,478.5,235.17,478.5 V478.31 C235.66,478.31,235.79,477.77,235.79,477.7 C235.79,477.67,235.78,477.63,235.77,477.6 L235.45,476.31 C235.41,476.2,235.41,476.18,235.32,476.07 C235.05,475.75,234.72,475.56,234.45,475.56 C234.19,475.56,233.93,475.74,233.93,476.24 C233.93,476.61,234.14,477.37,234.3,477.65 C234.62,478.2,234.98,478.31,235.17,478.31 V478.5 C234.28,478.5,233.37,477.52,233.37,476.52 C233.37,475.85,233.82,475.37,234.42,475.37 C234.82,475.37,235.15,475.62,235.3,475.75 C235.3,475.73,235.08,474.85,235.05,474.73 C234.96,474.35,234.95,474.35,234.51,474.34 C234.43,474.34,234.33,474.34,234.33,474.18 C234.33,474.14,234.37,474.09,234.44,474.09 C234.67,474.09,234.93,474.12,235.16,474.12 C235.4,474.12,235.7,474.09,235.91,474.09 C235.98,474.09,236.05,474.11,236.05,474.24 C236.05,474.34,235.96,474.34,235.87,474.34 C235.72,474.34,235.53,474.34,235.53,474.42 C235.53,474.44,235.53,474.46,235.56,474.58 Z "
         stroke-width="0"
         fill="black"
         id="path5833" /><path
         d="M238.63,479.74 L238.63,479.74 L238.63,479.74 L238.63,479.74 L238.63,479.74 L238.63,479.74 L238.63,479.74 L238.64,479.75 L238.64,479.75 L238.64,479.75 L238.64,479.76 L238.64,479.76 L238.64,479.77 L238.65,479.77 L238.65,479.78 L238.65,479.78 L238.65,479.79 L238.66,479.79 L238.66,479.8 L238.66,479.81 L238.66,479.81 L238.66,479.82 L238.67,479.83 L238.67,479.83 L238.67,479.84 L238.67,479.85 L238.67,479.85 L238.68,479.86 L238.68,479.87 L238.68,479.88 L238.68,479.88 L238.68,479.89 L238.68,479.9 L238.68,479.9 L238.68,479.91 C238.68,480.09,238.52,480.21,238.37,480.21 C238.17,480.21,238.11,480.05,238.09,479.98 L237.32,477.83 C237.3,477.77,237.3,477.75,237.3,477.75 C237.3,477.67,237.51,477.62,237.52,477.62 C237.56,477.62,237.57,477.64,237.6,477.7 Z "
         stroke-width="0"
         fill="black"
         id="path5835" /><path
         d="M240.89,480.38 L240.89,480.39 L240.89,480.4 L240.89,480.41 L240.89,480.42 L240.89,480.44 L240.89,480.46 L240.89,480.47 L240.89,480.48 L240.89,480.49 L240.89,480.5 L240.89,480.51 L240.88,480.52 L240.88,480.53 L240.88,480.55 L240.87,480.56 L240.87,480.57 L240.86,480.58 L240.86,480.58 L240.85,480.59 L240.85,480.6 L240.84,480.61 L240.83,480.62 L240.83,480.62 L240.82,480.62 L240.82,480.63 L240.81,480.63 L240.81,480.63 L240.8,480.64 L240.8,480.64 L240.79,480.64 L240.79,480.64 L240.78,480.64 L240.78,480.65 L240.77,480.65 L240.76,480.65 L240.76,480.65 L240.75,480.65 L240.74,480.65 L240.73,480.65 L240.73,480.65 C240.55,480.65,240.55,480.49,240.55,480.38 V473.97 C240.55,473.86,240.55,473.7,240.72,473.7 C240.89,473.7,240.89,473.86,240.89,473.97 Z "
         stroke-width="0"
         fill="black"
         id="path5837" /><path
         d="M245.46,478.3 L245.46,478.31 L245.47,478.31 L245.47,478.32 L245.47,478.33 L245.47,478.33 L245.47,478.34 L245.47,478.34 L245.47,478.35 L245.47,478.36 L245.47,478.37 L245.48,478.37 L245.48,478.38 L245.48,478.39 L245.48,478.39 L245.48,478.4 L245.48,478.41 C245.48,478.45,245.45,478.5,245.39,478.5 C245.32,478.5,245.02,478.27,244.88,478.05 C244.81,478.18,244.58,478.5,244.13,478.5 V478.31 C244.62,478.31,244.76,477.77,244.76,477.7 C244.76,477.67,244.74,477.63,244.74,477.6 L244.41,476.31 C244.37,476.2,244.37,476.18,244.28,476.07 C244.01,475.75,243.68,475.56,243.41,475.56 C243.15,475.56,242.9,475.74,242.9,476.24 C242.9,476.61,243.1,477.37,243.26,477.65 C243.58,478.2,243.94,478.31,244.13,478.31 V478.5 C243.24,478.5,242.33,477.52,242.33,476.52 C242.33,475.85,242.79,475.37,243.39,475.37 C243.79,475.37,244.11,475.62,244.27,475.75 C244.26,475.73,244.04,474.85,244.02,474.73 C243.92,474.35,243.91,474.35,243.48,474.34 C243.39,474.34,243.29,474.34,243.29,474.18 C243.29,474.14,243.33,474.09,243.4,474.09 C243.63,474.09,243.89,474.12,244.13,474.12 C244.37,474.12,244.66,474.09,244.88,474.09 C244.94,474.09,245.01,474.11,245.01,474.24 C245.01,474.34,244.92,474.34,244.83,474.34 C244.68,474.34,244.49,474.34,244.49,474.42 C244.49,474.44,244.49,474.46,244.53,474.58 Z "
         stroke-width="0"
         fill="black"
         id="path5839" /><path
         d="M246.43,480.65 L246.43,480.65 L246.43,480.65 L246.42,480.65 L246.42,480.65 L246.41,480.65 L246.4,480.65 L246.4,480.65 L246.39,480.65 L246.39,480.65 L246.38,480.65 L246.38,480.65 L246.37,480.65 L246.37,480.65 L246.36,480.65 L246.36,480.64 L246.35,480.64 L246.35,480.64 L246.34,480.64 L246.34,480.63 L246.33,480.63 L246.33,480.63 L246.32,480.63 L246.32,480.62 L246.32,480.62 L246.32,480.62 L246.31,480.61 L246.31,480.61 L246.31,480.61 L246.31,480.61 L246.31,480.6 L246.31,480.6 L246.31,480.6 L246.31,480.6 L246.3,480.59 L246.3,480.59 L246.3,480.59 L246.3,480.58 L246.3,480.58 L246.3,480.58 L246.3,480.57 L246.3,480.57 C246.3,480.53,246.32,480.51,246.37,480.46 C246.97,479.92,247.64,478.98,247.64,477.18 C247.64,475.73,247.18,474.63,246.43,473.95 C246.31,473.83,246.3,473.82,246.3,473.79 C246.3,473.75,246.32,473.71,246.39,473.71 C246.48,473.71,247.14,474.16,247.6,475.03 C247.91,475.61,248.11,476.36,248.11,477.17 C248.11,478.16,247.82,479.68,246.43,480.65 Z "
         stroke-width="0"
         fill="black"
         id="path5841" /></g>    <g
       style="font-style:normal;font-variant:normal;font-weight:normal;font-stretch:normal;letter-spacing:normal;word-spacing:normal;text-anchor:start;fill:none;fill-opacity:1;fill-rule:evenodd;stroke:#000000;stroke-linecap:butt;stroke-linejoin:miter;stroke-miterlimit:10.43299961;stroke-dasharray:none;stroke-dashoffset:0;stroke-opacity:1"
       ns0:preamble="/usr/share/inkscape/extensions/textextLib/basicLatexPackages.tex"
       ns0:text="$P_{(\\underline{\\mathbf{x}} | q\', q)}$"
       word-spacing="normal"
       letter-spacing="normal"
       font-size-adjust="none"
       font-stretch="normal"
       font-weight="normal"
       font-variant="normal"
       font-style="normal"
       stroke-miterlimit="10.433"
       xml:space="preserve"
       transform="matrix(1,0,0,-1,-178.95174,616.66337)"
       id="g6007"><path
         id="path5987"
         d="m 226.45,480.37 0.04,0.26 0.68,2.7 c 0.09,0.35 0.11,0.38 0.54,0.38 h 0.96 c 0.82,0 1.35,-0.27 1.35,-0.95 0,-0.39 -0.2,-1.24 -0.59,-1.6 -0.49,-0.45 -1.09,-0.53 -1.53,-0.53 h -1.41 l -0.04,-0.26 h 1.7 c 1.42,0 2.8,1.04 2.8,2.15 0,0.77 -0.66,1.5 -1.96,1.5 h -3.23 c -0.19,0 -0.3,0 -0.3,-0.19 0,-0.12 0.09,-0.12 0.29,-0.12 0.13,0 0.3,-0.01 0.42,-0.02 0.16,-0.02 0.22,-0.05 0.22,-0.16 0,-0.04 -0.01,-0.07 -0.04,-0.19 l -1.33,-5.33 c -0.1,-0.39 -0.12,-0.47 -0.91,-0.47 -0.17,0 -0.28,0 -0.28,-0.19 0,-0.12 0.12,-0.12 0.15,-0.12 0.28,0 0.99,0.04 1.27,0.04 0.21,0 0.43,-0.01 0.63,-0.01 0.22,0 0.44,-0.03 0.65,-0.03 0.07,0 0.2,0 0.2,0.2 0,0.11 -0.09,0.11 -0.28,0.11 -0.36,0 -0.65,0 -0.65,0.18 0,0.06 0.02,0.11 0.04,0.17 z"
         inkscape:connector-curvature="0"
         style="fill:#000000;stroke-width:0" /><path
         id="path5989"
         d="m 232.31,480.65 -0.12,-0.09 -0.12,-0.09 -0.11,-0.09 -0.1,-0.1 -0.1,-0.1 -0.1,-0.1 -0.09,-0.11 -0.08,-0.1 -0.08,-0.11 -0.08,-0.11 -0.07,-0.11 -0.06,-0.11 -0.07,-0.12 -0.05,-0.11 -0.06,-0.12 -0.05,-0.11 -0.04,-0.12 -0.04,-0.12 -0.04,-0.11 -0.04,-0.12 -0.03,-0.11 -0.03,-0.12 -0.02,-0.11 -0.02,-0.12 -0.02,-0.11 -0.02,-0.11 -0.01,-0.11 -0.01,-0.11 -0.01,-0.11 v -0.1 l -0.01,-0.11 v -0.1 c 0,-0.98 0.3,-2.5 1.68,-3.47 0.06,0 0.14,0 0.14,0.08 0,0.04 -0.02,0.06 -0.07,0.1 -0.93,0.84 -1.27,2.02 -1.27,3.28 0,1.88 0.72,2.8 1.29,3.31 0.03,0.03 0.05,0.05 0.05,0.09 0,0.08 -0.08,0.08 -0.14,0.08 z"
         inkscape:connector-curvature="0"
         style="fill:#000000;stroke-width:0" /><path
         id="path5991"
         d="m 235.7,477.12 0.97,0.97 c 0.17,0.05 0.35,0.05 0.65,0.05 v 0.38 c -0.22,-0.02 -0.45,-0.02 -0.68,-0.02 -0.24,0 -0.72,0.02 -0.77,0.02 v -0.38 c 0.09,0 0.13,-0.02 0.18,-0.05 l -0.65,-0.66 -0.68,0.71 h 0.19 v 0.38 c -0.04,0 -0.6,-0.02 -0.89,-0.02 -0.27,0 -0.53,0 -0.79,0.02 v -0.38 h 0.52 l 1.15,-1.19 -1.01,-1.01 c -0.09,-0.09 -0.1,-0.09 -0.31,-0.11 -0.11,0 -0.36,0 -0.39,0 v -0.39 c 0.22,0.02 0.45,0.02 0.68,0.02 0.18,0 0.68,-0.02 0.77,-0.02 v 0.39 c -0.11,0 -0.14,0.01 -0.19,0.05 l 0.76,0.75 0.77,-0.8 h -0.18 v -0.39 c 0.01,0 0.57,0.02 0.89,0.02 0.26,0 0.52,0 0.78,-0.02 v 0.39 h -0.51 z"
         inkscape:connector-curvature="0"
         style="fill:#000000;stroke-width:0" /><line
         id="line5993"
         y2="474.25"
         x2="237.7"
         y1="474.25"
         x1="232.94"
         style="stroke-width:0.33899999" /><path
         id="path5995"
         d="m 239.06,480.38 v 0.01 0.01 0.01 0.01 0.02 0.02 0.01 0.01 l -0.01,0.01 v 0.01 0.01 0.01 0.01 l -0.01,0.02 v 0.01 l -0.01,0.01 v 0.01 h -0.01 v 0.01 l -0.01,0.01 -0.01,0.01 v 0.01 h -0.01 v 0 l -0.01,0.01 v 0 h -0.01 v 0.01 h -0.01 v 0 h -0.01 v 0 l -0.01,0.01 h -0.01 v 0 h -0.01 -0.01 v 0 h -0.01 -0.01 c -0.17,0 -0.17,-0.16 -0.17,-0.27 v -6.41 c 0,-0.1 0,-0.27 0.16,-0.27 0.18,0 0.18,0.16 0.18,0.27 z"
         inkscape:connector-curvature="0"
         style="fill:#000000;stroke-width:0" /><path
         id="path5997"
         d="m 243.63,478.3 v 0.01 0 0.01 0.01 0 l 0.01,0.01 v 0 0.01 0.01 0.01 0 0.01 0.01 0 0.01 0.01 c 0,0.04 -0.03,0.09 -0.09,0.09 -0.07,0 -0.36,-0.23 -0.5,-0.45 -0.07,0.13 -0.3,0.45 -0.75,0.45 v -0.19 c 0.49,0 0.62,-0.54 0.62,-0.61 0,-0.03 -0.01,-0.07 -0.02,-0.1 l -0.33,-1.29 c -0.03,-0.11 -0.03,-0.13 -0.12,-0.24 -0.28,-0.32 -0.6,-0.51 -0.88,-0.51 -0.26,0 -0.51,0.18 -0.51,0.68 0,0.37 0.2,1.13 0.37,1.41 0.32,0.55 0.67,0.66 0.87,0.66 v 0.19 c -0.9,0 -1.8,-0.98 -1.8,-1.98 0,-0.67 0.45,-1.15 1.05,-1.15 0.4,0 0.73,0.25 0.88,0.38 0,-0.02 -0.22,-0.9 -0.25,-1.02 -0.1,-0.38 -0.1,-0.38 -0.54,-0.39 -0.08,0 -0.18,0 -0.18,-0.16 0,-0.04 0.03,-0.09 0.11,-0.09 0.23,0 0.48,0.03 0.72,0.03 0.24,0 0.53,-0.03 0.75,-0.03 0.06,0 0.14,0.02 0.14,0.15 0,0.1 -0.1,0.1 -0.18,0.1 -0.15,0 -0.34,0 -0.34,0.08 0,0.02 0,0.04 0.03,0.16 z"
         inkscape:connector-curvature="0"
         style="fill:#000000;stroke-width:0" /><path
         id="path5999"
         d="m 245.76,479.74 v 0 0 0 0 0 0 0.01 h 0.01 v 0 0.01 0 0.01 0 l 0.01,0.01 v 0 0.01 0 l 0.01,0.01 v 0.01 0 0.01 0.01 h 0.01 v 0.01 0.01 0 0.01 0.01 l 0.01,0.01 v 0 0.01 0.01 0 0.01 c 0,0.18 -0.16,0.3 -0.31,0.3 -0.2,0 -0.26,-0.16 -0.28,-0.23 l -0.77,-2.15 c -0.02,-0.06 -0.02,-0.08 -0.02,-0.08 0,-0.08 0.21,-0.13 0.22,-0.13 0.04,0 0.05,0.02 0.08,0.08 z"
         inkscape:connector-curvature="0"
         style="fill:#000000;stroke-width:0" /><path
         id="path6001"
         d="m 248.14,475.55 v -0.07 -0.08 l -0.01,-0.07 -0.01,-0.08 v -0.04 l -0.01,-0.04 -0.01,-0.04 -0.01,-0.04 -0.01,-0.03 -0.01,-0.04 -0.01,-0.04 -0.01,-0.04 -0.02,-0.04 -0.02,-0.05 -0.01,-0.04 -0.02,-0.04 -0.02,-0.04 -0.03,-0.04 -0.02,-0.04 -0.03,-0.04 -0.03,-0.04 -0.03,-0.04 -0.03,-0.05 -0.03,-0.04 -0.04,-0.04 -0.04,-0.04 -0.04,-0.04 -0.04,-0.04 c -0.03,-0.03 -0.05,-0.05 -0.05,-0.09 0,-0.05 0.05,-0.09 0.1,-0.09 0.09,0 0.69,0.55 0.69,1.38 0,0.43 -0.17,0.76 -0.49,0.76 -0.23,0 -0.4,-0.18 -0.4,-0.4 0,-0.22 0.16,-0.4 0.4,-0.4 0.17,0 0.28,0.11 0.29,0.11 z"
         inkscape:connector-curvature="0"
         style="fill:#000000;stroke-width:0" /><path
         id="path6003"
         d="m 252.59,478.3 v 0.01 0 0.01 l 0.01,0.01 v 0 0.01 0 0.01 0.01 0.01 0 0.01 0.01 0 0.01 0.01 c 0,0.04 -0.02,0.09 -0.09,0.09 -0.07,0 -0.36,-0.23 -0.5,-0.45 -0.07,0.13 -0.3,0.45 -0.75,0.45 v -0.19 c 0.49,0 0.62,-0.54 0.62,-0.61 0,-0.03 -0.01,-0.07 -0.02,-0.1 l -0.32,-1.29 c -0.04,-0.11 -0.04,-0.13 -0.13,-0.24 -0.27,-0.32 -0.6,-0.51 -0.87,-0.51 -0.26,0 -0.52,0.18 -0.52,0.68 0,0.37 0.21,1.13 0.37,1.41 0.32,0.55 0.68,0.66 0.87,0.66 v 0.19 c -0.89,0 -1.8,-0.98 -1.8,-1.98 0,-0.67 0.45,-1.15 1.05,-1.15 0.4,0 0.73,0.25 0.89,0.38 -0.01,-0.02 -0.23,-0.9 -0.26,-1.02 -0.09,-0.38 -0.1,-0.38 -0.54,-0.39 -0.08,0 -0.18,0 -0.18,-0.16 0,-0.04 0.04,-0.09 0.11,-0.09 0.23,0 0.49,0.03 0.73,0.03 0.23,0 0.53,-0.03 0.74,-0.03 0.07,0 0.14,0.02 0.14,0.15 0,0.1 -0.09,0.1 -0.18,0.1 -0.15,0 -0.34,0 -0.34,0.08 0,0.02 0,0.04 0.03,0.16 z"
         inkscape:connector-curvature="0"
         style="fill:#000000;stroke-width:0" /><path
         id="path6005"
         d="m 253.56,480.65 v 0 h -0.01 v 0 h -0.01 v 0 h -0.01 v 0 h -0.01 -0.01 v 0 h -0.01 v 0 h -0.01 v 0 l -0.01,-0.01 v 0 h -0.01 v 0 l -0.01,-0.01 v 0 h -0.01 v 0 -0.01 h -0.01 v 0 -0.01 0 0 0 -0.01 h -0.01 v 0 0 -0.01 0 0 -0.01 0 0 -0.01 0 c 0,-0.04 0.02,-0.06 0.06,-0.11 0.6,-0.54 1.27,-1.48 1.27,-3.28 0,-1.45 -0.45,-2.55 -1.21,-3.23 -0.11,-0.12 -0.12,-0.13 -0.12,-0.16 0,-0.04 0.02,-0.08 0.09,-0.08 0.08,0 0.75,0.45 1.21,1.32 0.31,0.58 0.51,1.33 0.51,2.14 0,0.99 -0.29,2.51 -1.68,3.48 z"
         inkscape:connector-curvature="0"
         style="fill:#000000;stroke-width:0" /></g>  </g>
</svg>
