<?xml version="1.0" encoding="UTF-8" standalone="no"?>
<!-- Created with Inkscape (http://www.inkscape.org/) -->
<svg
   xmlns:dc="http://purl.org/dc/elements/1.1/"
   xmlns:cc="http://web.resource.org/cc/"
   xmlns:rdf="http://www.w3.org/1999/02/22-rdf-syntax-ns#"
   xmlns:svg="http://www.w3.org/2000/svg"
   xmlns="http://www.w3.org/2000/svg"
   xmlns:xlink="http://www.w3.org/1999/xlink"
   xmlns:sodipodi="http://sodipodi.sourceforge.net/DTD/sodipodi-0.dtd"
   xmlns:inkscape="http://www.inkscape.org/namespaces/inkscape"
   width="744.09448819"
   height="1052.3622047"
   id="svg2"
   sodipodi:version="0.32"
   inkscape:version="0.44"
   sodipodi:docbase="/home/schmu20mol/TU-Berlin/job/script/MI2/figures/svg"
   sodipodi:docname="section2_fig8.svg">
  <defs
     id="defs4">
    <marker
       inkscape:stockid="Arrow1Mstart"
       orient="auto"
       refY="0.0"
       refX="0.0"
       id="Arrow1Mstart"
       style="overflow:visible">
      <path
         id="path3814"
         d="M 0.0,0.0 L 5.0,-5.0 L -12.5,0.0 L 5.0,5.0 L 0.0,0.0 z "
         style="fill-rule:evenodd;stroke:#000000;stroke-width:1.0pt;marker-start:none"
         transform="scale(0.4) translate(10,0)" />
    </marker>
    <marker
       inkscape:stockid="Arrow1Mend"
       orient="auto"
       refY="0.0"
       refX="0.0"
       id="Arrow1Mend"
       style="overflow:visible;">
      <path
         id="path3811"
         d="M 0.0,0.0 L 5.0,-5.0 L -12.5,0.0 L 5.0,5.0 L 0.0,0.0 z "
         style="fill-rule:evenodd;stroke:#000000;stroke-width:1.0pt;marker-start:none;"
         transform="scale(0.4) rotate(180) translate(10,0)" />
    </marker>
    <marker
       inkscape:stockid="Arrow1Lend"
       orient="auto"
       refY="0.0"
       refX="0.0"
       id="Arrow1Lend"
       style="overflow:visible;">
      <path
         id="path3817"
         d="M 0.0,0.0 L 5.0,-5.0 L -12.5,0.0 L 5.0,5.0 L 0.0,0.0 z "
         style="fill-rule:evenodd;stroke:#000000;stroke-width:1.0pt;marker-start:none;"
         transform="scale(0.8) rotate(180) translate(12.5,0)" />
    </marker>
  </defs>
  <sodipodi:namedview
     id="base"
     pagecolor="#ffffff"
     bordercolor="#666666"
     borderopacity="1.0"
     gridtolerance="10000"
     guidetolerance="10"
     objecttolerance="10"
     inkscape:pageopacity="0.0"
     inkscape:pageshadow="2"
     inkscape:zoom="3.3967949"
     inkscape:cx="201.9184"
     inkscape:cy="886.32051"
     inkscape:document-units="px"
     inkscape:current-layer="layer1"
     inkscape:window-width="1398"
     inkscape:window-height="975"
     inkscape:window-x="0"
     inkscape:window-y="25" />
  <metadata
     id="metadata7">
    <rdf:RDF>
      <cc:Work
         rdf:about="">
        <dc:format>image/svg+xml</dc:format>
        <dc:type
           rdf:resource="http://purl.org/dc/dcmitype/StillImage" />
      </cc:Work>
    </rdf:RDF>
  </metadata>
  <g
     inkscape:label="Layer 1"
     inkscape:groupmode="layer"
     id="layer1">
    <rect
       style="opacity:1;fill:white;fill-opacity:1;stroke:none;stroke-width:1;stroke-miterlimit:4;stroke-dasharray:none;stroke-dashoffset:0;stroke-opacity:1"
       id="rect17001"
       width="68.005287"
       height="30.911493"
       x="53.138325"
       y="236.44598" />
    <path
       style="fill:none;fill-rule:evenodd;stroke:black;stroke-width:1px;stroke-linecap:butt;stroke-linejoin:miter;marker-start:url(#Arrow1Mstart);marker-mid:none;marker-end:none;stroke-opacity:1"
       d="M 191.87906,95.283489 C 191.87906,259.85039 191.87906,259.85039 191.87906,259.85039"
       id="path1872" />
    <path
       style="fill:none;fill-rule:evenodd;stroke:black;stroke-width:1px;stroke-linecap:butt;stroke-linejoin:miter;stroke-opacity:1;marker-end:url(#Arrow1Mend)"
       d="M 62.411776,251.90172 C 320.59634,251.90172 320.59634,251.90172 320.59634,251.90172"
       id="path1874" />
    <image
       y="78.423332"
       x="183.91258"
       id="image19008"
       height="14.308549"
       width="17.715347"
       sodipodi:absref="/home/schmu20mol/TU-Berlin/job/script/MI2/figures/png/standards/x_2.png"
       xlink:href="/home/schmu20mol/TU-Berlin/job/script/MI2/figures/png/standards/x_2.png" />
    <path
       sodipodi:type="arc"
       style="opacity:1;fill:black;fill-opacity:1;stroke:black;stroke-width:1;stroke-miterlimit:4;stroke-dasharray:none;stroke-dashoffset:0;stroke-opacity:1"
       id="path19416"
       sodipodi:cx="132.62503"
       sodipodi:cy="120.45428"
       sodipodi:rx="1.9135686"
       sodipodi:ry="1.9135686"
       d="M 134.5386 120.45428 A 1.9135686 1.9135686 0 1 1  130.71146,120.45428 A 1.9135686 1.9135686 0 1 1  134.5386 120.45428 z"
       transform="translate(65.50292,136.4522)" />
    <path
       sodipodi:type="arc"
       style="opacity:1;fill:black;fill-opacity:1;stroke:black;stroke-width:1;stroke-miterlimit:4;stroke-dasharray:none;stroke-dashoffset:0;stroke-opacity:1"
       id="path19418"
       sodipodi:cx="132.62503"
       sodipodi:cy="120.45428"
       sodipodi:rx="1.9135686"
       sodipodi:ry="1.9135686"
       d="M 134.5386 120.45428 A 1.9135686 1.9135686 0 1 1  130.71146,120.45428 A 1.9135686 1.9135686 0 1 1  134.5386 120.45428 z"
       transform="translate(71.68521,126.1483)" />
    <image
       y="187.75952"
       x="284.5748"
       id="image20462"
       height="23.160225"
       width="58.073402"
       sodipodi:absref="/home/schmu20mol/TU-Berlin/job/script/MI2/figures/png/section2_fig8_00.png"
       xlink:href="/home/schmu20mol/TU-Berlin/job/script/MI2/figures/png/section2_fig8_00.png" />
    <image
       y="241.85983"
       x="322.41431"
       id="image20505"
       height="19.3578"
       width="16.246725"
       sodipodi:absref="/home/schmu20mol/TU-Berlin/job/script/MI2/figures/png/section2_fig8_01.png"
       xlink:href="/home/schmu20mol/TU-Berlin/job/script/MI2/figures/png/section2_fig8_01.png" />
    <path
       sodipodi:type="arc"
       style="opacity:1;fill:black;fill-opacity:1;stroke:black;stroke-width:1;stroke-miterlimit:4;stroke-dasharray:none;stroke-dashoffset:0;stroke-opacity:1"
       id="path20510"
       sodipodi:cx="132.62503"
       sodipodi:cy="120.45428"
       sodipodi:rx="1.9135686"
       sodipodi:ry="1.9135686"
       d="M 134.5386 120.45428 A 1.9135686 1.9135686 0 1 1  130.71146,120.45428 A 1.9135686 1.9135686 0 1 1  134.5386 120.45428 z"
       transform="translate(69.33005,108.779)" />
    <path
       sodipodi:type="arc"
       style="opacity:1;fill:black;fill-opacity:1;stroke:black;stroke-width:1;stroke-miterlimit:4;stroke-dasharray:none;stroke-dashoffset:0;stroke-opacity:1"
       id="path20512"
       sodipodi:cx="132.62503"
       sodipodi:cy="120.45428"
       sodipodi:rx="1.9135686"
       sodipodi:ry="1.9135686"
       d="M 134.5386 120.45428 A 1.9135686 1.9135686 0 1 1  130.71146,120.45428 A 1.9135686 1.9135686 0 1 1  134.5386 120.45428 z"
       transform="translate(89.34892,91.40971)" />
    <path
       sodipodi:type="arc"
       style="opacity:1;fill:black;fill-opacity:1;stroke:black;stroke-width:1;stroke-miterlimit:4;stroke-dasharray:none;stroke-dashoffset:0;stroke-opacity:1"
       id="path20514"
       sodipodi:cx="132.62503"
       sodipodi:cy="120.45428"
       sodipodi:rx="1.9135686"
       sodipodi:ry="1.9135686"
       d="M 134.5386 120.45428 A 1.9135686 1.9135686 0 1 1  130.71146,120.45428 A 1.9135686 1.9135686 0 1 1  134.5386 120.45428 z"
       transform="translate(98.18078,102.0079)" />
    <path
       sodipodi:type="arc"
       style="opacity:1;fill:black;fill-opacity:1;stroke:black;stroke-width:1;stroke-miterlimit:4;stroke-dasharray:none;stroke-dashoffset:0;stroke-opacity:1"
       id="path20516"
       sodipodi:cx="132.62503"
       sodipodi:cy="120.45428"
       sodipodi:rx="1.9135686"
       sodipodi:ry="1.9135686"
       d="M 134.5386 120.45428 A 1.9135686 1.9135686 0 1 1  130.71146,120.45428 A 1.9135686 1.9135686 0 1 1  134.5386 120.45428 z"
       transform="translate(77.86751,111.4286)" />
    <path
       sodipodi:type="arc"
       style="opacity:1;fill:black;fill-opacity:1;stroke:black;stroke-width:1;stroke-miterlimit:4;stroke-dasharray:none;stroke-dashoffset:0;stroke-opacity:1"
       id="path20518"
       sodipodi:cx="132.62503"
       sodipodi:cy="120.45428"
       sodipodi:rx="1.9135686"
       sodipodi:ry="1.9135686"
       d="M 134.5386 120.45428 A 1.9135686 1.9135686 0 1 1  130.71146,120.45428 A 1.9135686 1.9135686 0 1 1  134.5386 120.45428 z"
       transform="translate(101.4191,77.27874)" />
    <path
       sodipodi:type="arc"
       style="opacity:1;fill:black;fill-opacity:1;stroke:black;stroke-width:1;stroke-miterlimit:4;stroke-dasharray:none;stroke-dashoffset:0;stroke-opacity:1"
       id="path20520"
       sodipodi:cx="132.62503"
       sodipodi:cy="120.45428"
       sodipodi:rx="1.9135686"
       sodipodi:ry="1.9135686"
       d="M 134.5386 120.45428 A 1.9135686 1.9135686 0 1 1  130.71146,120.45428 A 1.9135686 1.9135686 0 1 1  134.5386 120.45428 z"
       transform="translate(113.7837,81.40027)" />
    <path
       sodipodi:type="arc"
       style="opacity:1;fill:black;fill-opacity:1;stroke:black;stroke-width:1;stroke-miterlimit:4;stroke-dasharray:none;stroke-dashoffset:0;stroke-opacity:1"
       id="path20522"
       sodipodi:cx="132.62503"
       sodipodi:cy="120.45428"
       sodipodi:rx="1.9135686"
       sodipodi:ry="1.9135686"
       d="M 134.5386 120.45428 A 1.9135686 1.9135686 0 1 1  130.71146,120.45428 A 1.9135686 1.9135686 0 1 1  134.5386 120.45428 z"
       transform="translate(124.6763,54.61031)" />
    <path
       sodipodi:type="arc"
       style="opacity:1;fill:black;fill-opacity:1;stroke:black;stroke-width:1;stroke-miterlimit:4;stroke-dasharray:none;stroke-dashoffset:0;stroke-opacity:1"
       id="path20524"
       sodipodi:cx="132.62503"
       sodipodi:cy="120.45428"
       sodipodi:rx="1.9135686"
       sodipodi:ry="1.9135686"
       d="M 134.5386 120.45428 A 1.9135686 1.9135686 0 1 1  130.71146,120.45428 A 1.9135686 1.9135686 0 1 1  134.5386 120.45428 z"
       transform="translate(144.1064,36.6522)" />
    <path
       sodipodi:type="arc"
       style="opacity:1;fill:black;fill-opacity:1;stroke:black;stroke-width:1;stroke-miterlimit:4;stroke-dasharray:none;stroke-dashoffset:0;stroke-opacity:1"
       id="path20526"
       sodipodi:cx="132.62503"
       sodipodi:cy="120.45428"
       sodipodi:rx="1.9135686"
       sodipodi:ry="1.9135686"
       d="M 134.5386 120.45428 A 1.9135686 1.9135686 0 1 1  130.71146,120.45428 A 1.9135686 1.9135686 0 1 1  134.5386 120.45428 z"
       transform="translate(158.5318,34.29704)" />
    <path
       sodipodi:type="arc"
       style="opacity:1;fill:black;fill-opacity:1;stroke:black;stroke-width:1;stroke-miterlimit:4;stroke-dasharray:none;stroke-dashoffset:0;stroke-opacity:1"
       id="path20528"
       sodipodi:cx="132.62503"
       sodipodi:cy="120.45428"
       sodipodi:rx="1.9135686"
       sodipodi:ry="1.9135686"
       d="M 134.5386 120.45428 A 1.9135686 1.9135686 0 1 1  130.71146,120.45428 A 1.9135686 1.9135686 0 1 1  134.5386 120.45428 z"
       transform="translate(136.4522,65.79733)" />
    <path
       sodipodi:type="arc"
       style="opacity:1;fill:black;fill-opacity:1;stroke:black;stroke-width:1;stroke-miterlimit:4;stroke-dasharray:none;stroke-dashoffset:0;stroke-opacity:1"
       id="path20530"
       sodipodi:cx="132.62503"
       sodipodi:cy="120.45428"
       sodipodi:rx="1.9135686"
       sodipodi:ry="1.9135686"
       d="M 134.5386 120.45428 A 1.9135686 1.9135686 0 1 1  130.71146,120.45428 A 1.9135686 1.9135686 0 1 1  134.5386 120.45428 z"
       transform="translate(135.569,50.19438)" />
    <path
       sodipodi:type="arc"
       style="opacity:1;fill:black;fill-opacity:1;stroke:black;stroke-width:1;stroke-miterlimit:4;stroke-dasharray:none;stroke-dashoffset:0;stroke-opacity:1"
       id="path20532"
       sodipodi:cx="132.62503"
       sodipodi:cy="120.45428"
       sodipodi:rx="1.9135686"
       sodipodi:ry="1.9135686"
       d="M 134.5386 120.45428 A 1.9135686 1.9135686 0 1 1  130.71146,120.45428 A 1.9135686 1.9135686 0 1 1  134.5386 120.45428 z"
       transform="translate(121.1436,71.97962)" />
    <path
       sodipodi:type="arc"
       style="opacity:1;fill:black;fill-opacity:1;stroke:black;stroke-width:1;stroke-miterlimit:4;stroke-dasharray:none;stroke-dashoffset:0;stroke-opacity:1"
       id="path20534"
       sodipodi:cx="132.62503"
       sodipodi:cy="120.45428"
       sodipodi:rx="1.9135686"
       sodipodi:ry="1.9135686"
       d="M 134.5386 120.45428 A 1.9135686 1.9135686 0 1 1  130.71146,120.45428 A 1.9135686 1.9135686 0 1 1  134.5386 120.45428 z"
       transform="translate(115.2557,58.14305)" />
    <path
       sodipodi:type="arc"
       style="opacity:1;fill:black;fill-opacity:1;stroke:black;stroke-width:1;stroke-miterlimit:4;stroke-dasharray:none;stroke-dashoffset:0;stroke-opacity:1"
       id="path20536"
       sodipodi:cx="132.62503"
       sodipodi:cy="120.45428"
       sodipodi:rx="1.9135686"
       sodipodi:ry="1.9135686"
       d="M 134.5386 120.45428 A 1.9135686 1.9135686 0 1 1  130.71146,120.45428 A 1.9135686 1.9135686 0 1 1  134.5386 120.45428 z"
       transform="translate(166.4805,-0.441587)" />
    <path
       sodipodi:type="arc"
       style="opacity:1;fill:black;fill-opacity:1;stroke:black;stroke-width:1;stroke-miterlimit:4;stroke-dasharray:none;stroke-dashoffset:0;stroke-opacity:1"
       id="path20538"
       sodipodi:cx="132.62503"
       sodipodi:cy="120.45428"
       sodipodi:rx="1.9135686"
       sodipodi:ry="1.9135686"
       d="M 134.5386 120.45428 A 1.9135686 1.9135686 0 1 1  130.71146,120.45428 A 1.9135686 1.9135686 0 1 1  134.5386 120.45428 z"
       transform="translate(160.5926,16.92773)" />
    <path
       sodipodi:type="arc"
       style="opacity:1;fill:black;fill-opacity:1;stroke:black;stroke-width:1;stroke-miterlimit:4;stroke-dasharray:none;stroke-dashoffset:0;stroke-opacity:1"
       id="path20540"
       sodipodi:cx="132.62503"
       sodipodi:cy="120.45428"
       sodipodi:rx="1.9135686"
       sodipodi:ry="1.9135686"
       d="M 134.5386 120.45428 A 1.9135686 1.9135686 0 1 1  130.71146,120.45428 A 1.9135686 1.9135686 0 1 1  134.5386 120.45428 z"
       transform="translate(170.8964,21.63805)" />
    <path
       sodipodi:type="arc"
       style="opacity:1;fill:black;fill-opacity:1;stroke:black;stroke-width:1;stroke-miterlimit:4;stroke-dasharray:none;stroke-dashoffset:0;stroke-opacity:1"
       id="path20542"
       sodipodi:cx="132.62503"
       sodipodi:cy="120.45428"
       sodipodi:rx="1.9135686"
       sodipodi:ry="1.9135686"
       d="M 134.5386 120.45428 A 1.9135686 1.9135686 0 1 1  130.71146,120.45428 A 1.9135686 1.9135686 0 1 1  134.5386 120.45428 z"
       transform="translate(179.7282,7.801478)" />
    <path
       sodipodi:type="arc"
       style="opacity:1;fill:black;fill-opacity:1;stroke:black;stroke-width:1;stroke-miterlimit:4;stroke-dasharray:none;stroke-dashoffset:0;stroke-opacity:1"
       id="path20544"
       sodipodi:cx="132.62503"
       sodipodi:cy="120.45428"
       sodipodi:rx="1.9135686"
       sodipodi:ry="1.9135686"
       d="M 134.5386 120.45428 A 1.9135686 1.9135686 0 1 1  130.71146,120.45428 A 1.9135686 1.9135686 0 1 1  134.5386 120.45428 z"
       transform="translate(187.3825,-3.974329)" />
    <path
       sodipodi:type="arc"
       style="opacity:1;fill:black;fill-opacity:1;stroke:black;stroke-width:1;stroke-miterlimit:4;stroke-dasharray:none;stroke-dashoffset:0;stroke-opacity:1"
       id="path20546"
       sodipodi:cx="132.62503"
       sodipodi:cy="120.45428"
       sodipodi:rx="1.9135686"
       sodipodi:ry="1.9135686"
       d="M 134.5386 120.45428 A 1.9135686 1.9135686 0 1 1  130.71146,120.45428 A 1.9135686 1.9135686 0 1 1  134.5386 120.45428 z"
       transform="translate(179.1395,-10.45102)" />
    <path
       sodipodi:type="arc"
       style="opacity:1;fill:black;fill-opacity:1;stroke:black;stroke-width:1;stroke-miterlimit:4;stroke-dasharray:none;stroke-dashoffset:0;stroke-opacity:1"
       id="path20548"
       sodipodi:cx="132.62503"
       sodipodi:cy="120.45428"
       sodipodi:rx="1.9135686"
       sodipodi:ry="1.9135686"
       d="M 134.5386 120.45428 A 1.9135686 1.9135686 0 1 1  130.71146,120.45428 A 1.9135686 1.9135686 0 1 1  134.5386 120.45428 z"
       transform="translate(150.2887,23.69882)" />
    <path
       sodipodi:type="arc"
       style="opacity:1;fill:black;fill-opacity:1;stroke:black;stroke-width:1;stroke-miterlimit:4;stroke-dasharray:none;stroke-dashoffset:0;stroke-opacity:1"
       id="path20550"
       sodipodi:cx="132.62503"
       sodipodi:cy="120.45428"
       sodipodi:rx="1.9135686"
       sodipodi:ry="1.9135686"
       d="M 134.5386 120.45428 A 1.9135686 1.9135686 0 1 1  130.71146,120.45428 A 1.9135686 1.9135686 0 1 1  134.5386 120.45428 z"
       transform="translate(149.9943,45.77845)" />
    <path
       sodipodi:type="arc"
       style="opacity:1;fill:black;fill-opacity:1;stroke:black;stroke-width:1;stroke-miterlimit:4;stroke-dasharray:none;stroke-dashoffset:0;stroke-opacity:1"
       id="path20552"
       sodipodi:cx="132.62503"
       sodipodi:cy="120.45428"
       sodipodi:rx="1.9135686"
       sodipodi:ry="1.9135686"
       d="M 134.5386 120.45428 A 1.9135686 1.9135686 0 1 1  130.71146,120.45428 A 1.9135686 1.9135686 0 1 1  134.5386 120.45428 z"
       transform="translate(84.6386,107.0126)" />
    <path
       style="fill:none;fill-rule:evenodd;stroke:black;stroke-width:1px;stroke-linecap:butt;stroke-linejoin:miter;stroke-opacity:1;marker-end:url(#Arrow1Mend)"
       d="M 236.69371,206.56487 C 277.02585,163.87757 277.02585,163.87757 277.02585,163.87757"
       id="path20554" />
    <path
       style="fill:none;fill-rule:evenodd;stroke:black;stroke-width:1;stroke-linecap:butt;stroke-linejoin:miter;stroke-opacity:1;stroke-miterlimit:4;stroke-dasharray:1,2;stroke-dashoffset:0;marker-end:url(#Arrow1Mend)"
       d="M 288.50726,201.85455 C 273.7875,204.7985 257.59577,185.95721 257.59577,185.95721"
       id="path21441" />
  </g>
</svg>
