<?xml version="1.0" encoding="UTF-8" standalone="no"?>
<!-- Created with Inkscape (http://www.inkscape.org/) -->

<svg
   xmlns:dc="http://purl.org/dc/elements/1.1/"
   xmlns:cc="http://creativecommons.org/ns#"
   xmlns:rdf="http://www.w3.org/1999/02/22-rdf-syntax-ns#"
   xmlns:svg="http://www.w3.org/2000/svg"
   xmlns="http://www.w3.org/2000/svg"
   xmlns:sodipodi="http://sodipodi.sourceforge.net/DTD/sodipodi-0.dtd"
   xmlns:inkscape="http://www.inkscape.org/namespaces/inkscape"
   width="744.09448819"
   height="1052.3622047"
   id="svg3047"
   version="1.1"
   inkscape:version="0.48.4 r9939"
   sodipodi:docname="section4_fig10.svg">
  <defs
     id="defs3049">
    <marker
       inkscape:stockid="Arrow1Mstart"
       orient="auto"
       refY="0"
       refX="0"
       id="Arrow1Mstart"
       style="overflow:visible">
      <path
         inkscape:connector-curvature="0"
         id="path3814"
         d="M 0,0 5,-5 -12.5,0 5,5 0,0 z"
         style="fill-rule:evenodd;stroke:#000000;stroke-width:1pt;marker-start:none"
         transform="matrix(0.4,0,0,0.4,4,0)" />
    </marker>
    <marker
       inkscape:stockid="Arrow1Mend"
       orient="auto"
       refY="0"
       refX="0"
       id="Arrow1Mend"
       style="overflow:visible">
      <path
         inkscape:connector-curvature="0"
         id="path3811"
         d="M 0,0 5,-5 -12.5,0 5,5 0,0 z"
         style="fill-rule:evenodd;stroke:#000000;stroke-width:1pt;marker-start:none"
         transform="matrix(-0.4,0,0,-0.4,-4,0)" />
    </marker>
    <marker
       inkscape:stockid="Arrow1Mstart"
       orient="auto"
       refY="0"
       refX="0"
       id="marker3166"
       style="overflow:visible">
      <path
         inkscape:connector-curvature="0"
         id="path3168"
         d="M 0,0 5,-5 -12.5,0 5,5 0,0 z"
         style="fill-rule:evenodd;stroke:#000000;stroke-width:1pt;marker-start:none"
         transform="matrix(0.4,0,0,0.4,4,0)" />
    </marker>
    <marker
       inkscape:stockid="Arrow1Mend"
       orient="auto"
       refY="0"
       refX="0"
       id="marker3170"
       style="overflow:visible">
      <path
         inkscape:connector-curvature="0"
         id="path3172"
         d="M 0,0 5,-5 -12.5,0 5,5 0,0 z"
         style="fill-rule:evenodd;stroke:#000000;stroke-width:1pt;marker-start:none"
         transform="matrix(-0.4,0,0,-0.4,-4,0)" />
    </marker>
    <marker
       inkscape:stockid="Arrow1Mstart"
       orient="auto"
       refY="0"
       refX="0"
       id="marker3174"
       style="overflow:visible">
      <path
         inkscape:connector-curvature="0"
         id="path3176"
         d="M 0,0 5,-5 -12.5,0 5,5 0,0 z"
         style="fill-rule:evenodd;stroke:#000000;stroke-width:1pt;marker-start:none"
         transform="matrix(0.4,0,0,0.4,4,0)" />
    </marker>
    <marker
       inkscape:stockid="Arrow1Mend"
       orient="auto"
       refY="0"
       refX="0"
       id="marker3178"
       style="overflow:visible">
      <path
         inkscape:connector-curvature="0"
         id="path3180"
         d="M 0,0 5,-5 -12.5,0 5,5 0,0 z"
         style="fill-rule:evenodd;stroke:#000000;stroke-width:1pt;marker-start:none"
         transform="matrix(-0.4,0,0,-0.4,-4,0)" />
    </marker>
    <marker
       inkscape:stockid="Arrow1Mend"
       orient="auto"
       refY="0"
       refX="0"
       id="marker3182"
       style="overflow:visible">
      <path
         inkscape:connector-curvature="0"
         id="path3184"
         d="M 0,0 5,-5 -12.5,0 5,5 0,0 z"
         style="fill-rule:evenodd;stroke:#000000;stroke-width:1pt;marker-start:none"
         transform="matrix(-0.4,0,0,-0.4,-4,0)" />
    </marker>
    <marker
       inkscape:stockid="Arrow1Mend"
       orient="auto"
       refY="0"
       refX="0"
       id="marker3186"
       style="overflow:visible">
      <path
         inkscape:connector-curvature="0"
         id="path3188"
         d="M 0,0 5,-5 -12.5,0 5,5 0,0 z"
         style="fill-rule:evenodd;stroke:#000000;stroke-width:1pt;marker-start:none"
         transform="matrix(-0.4,0,0,-0.4,-4,0)" />
    </marker>
  </defs>
  <sodipodi:namedview
     id="base"
     pagecolor="#ffffff"
     bordercolor="#ffffff"
     borderopacity="0.0"
     inkscape:pageopacity="0.0"
     inkscape:pageshadow="0"
     inkscape:zoom="1.4"
     inkscape:cx="272.65487"
     inkscape:cy="609.01121"
     inkscape:document-units="px"
     inkscape:current-layer="layer1"
     showgrid="false"
     inkscape:window-width="1231"
     inkscape:window-height="1000"
     inkscape:window-x="1415"
     inkscape:window-y="24"
     inkscape:window-maximized="1" />
  <metadata
     id="metadata3052">
    <rdf:RDF>
      <cc:Work
         rdf:about="">
        <dc:format>image/svg+xml</dc:format>
        <dc:type
           rdf:resource="http://purl.org/dc/dcmitype/StillImage" />
        <dc:title></dc:title>
      </cc:Work>
    </rdf:RDF>
  </metadata>
  <g
     inkscape:label="Layer 1"
     inkscape:groupmode="layer"
     id="layer1">
    <path
       inkscape:connector-curvature="0"
       style="fill:none;stroke:#000000;stroke-width:1.09843743px;stroke-linecap:butt;stroke-linejoin:miter;stroke-opacity:1"
       d="m 470.48253,432.68553 c 3.88321,-53.76463 38.27744,-64.99022 49.37234,-64.39941 11.09492,0.59083 26.62778,9.45314 34.94897,23.63282 8.32118,14.17968 23.83947,42.53905 34.39422,42.53905 32.17524,1e-5 31.62049,-59.08202 31.62049,-59.08202"
       id="path8883"
       sodipodi:nodetypes="csssc" />
    <path
       inkscape:connector-curvature="0"
       style="fill:none;stroke:#000000;stroke-width:1.09843743;stroke-linecap:butt;stroke-linejoin:miter;stroke-miterlimit:4;stroke-opacity:1;stroke-dasharray:none;marker-start:url(#Arrow1Mstart);marker-mid:none;marker-end:none"
       d="m -33.936778,309.36188 c 0,144.41023 0,144.41023 0,144.41023"
       id="path1872" />
    <path
       inkscape:connector-curvature="0"
       style="fill:none;stroke:#000000;stroke-width:1.09843743;stroke-linecap:butt;stroke-linejoin:miter;stroke-miterlimit:4;stroke-opacity:1;stroke-dasharray:none;marker-end:url(#Arrow1Mend)"
       d="m -42.911607,446.79702 c 212.727737,0 212.727737,0 212.727737,0"
       id="path1874" />
    <path
       inkscape:connector-curvature="0"
       style="fill:none;stroke:#000000;stroke-width:1.09843743;stroke-linecap:butt;stroke-linejoin:miter;stroke-miterlimit:4;stroke-opacity:1;stroke-dasharray:none;marker-start:url(#Arrow1Mstart);marker-mid:none;marker-end:none"
       d="m 211.43887,309.36188 c 0,144.41023 0,144.41023 0,144.41023"
       id="path6298" />
    <path
       inkscape:connector-curvature="0"
       style="fill:none;stroke:#000000;stroke-width:1.09843743;stroke-linecap:butt;stroke-linejoin:miter;stroke-miterlimit:4;stroke-opacity:1;stroke-dasharray:none;marker-end:url(#Arrow1Mend)"
       d="m 202.46405,446.79702 c 212.72772,0 212.72772,0 212.72772,0"
       id="path6300" />
    <path
       inkscape:connector-curvature="0"
       style="fill:none;stroke:#000000;stroke-width:1.09843743;stroke-linecap:butt;stroke-linejoin:miter;stroke-miterlimit:4;stroke-opacity:1;stroke-dasharray:none;marker-start:url(#Arrow1Mstart);marker-mid:none;marker-end:none"
       d="m 452.55698,309.30752 c 0,144.41023 0,144.41023 0,144.41023"
       id="path6304" />
    <path
       inkscape:connector-curvature="0"
       style="fill:none;stroke:#000000;stroke-width:1.09843743;stroke-linecap:butt;stroke-linejoin:miter;stroke-miterlimit:4;stroke-opacity:1;stroke-dasharray:none;marker-end:url(#Arrow1Mend)"
       d="m 443.58215,446.74266 c 212.72774,0 212.72774,0 212.72774,0"
       id="path6306" />
    <path
       inkscape:connector-curvature="0"
       style="fill:none;stroke:#000000;stroke-width:0.88788247px;stroke-linecap:butt;stroke-linejoin:miter;stroke-opacity:1"
       d="m 148.60145,447.05198 c 0,8.48878 0,8.48878 0,8.48878"
       id="path7926" />
    <path
       inkscape:connector-curvature="0"
       style="fill:none;stroke:#000000;stroke-width:0.88788247px;stroke-linecap:butt;stroke-linejoin:miter;stroke-opacity:1"
       d="m 393.82445,447.05198 c 0,8.48878 0,8.48878 0,8.48878"
       id="path7928" />
    <path
       inkscape:connector-curvature="0"
       style="fill:none;stroke:#000000;stroke-width:0.88788247px;stroke-linecap:butt;stroke-linejoin:miter;stroke-opacity:1"
       d="m 633.12496,447.05198 c 0,8.48878 0,8.48878 0,8.48878"
       id="path7930" />
    <g
       transform="matrix(1.0643747,0,0,1.1335904,-89.282346,238.22413)"
       id="g8839">
      <path
         inkscape:connector-curvature="0"
         id="path7940"
         d="m 66.191611,170.50228 c 137.595159,0 137.595159,0 137.595159,0"
         style="fill:none;stroke:#000000;stroke-width:1px;stroke-linecap:butt;stroke-linejoin:miter;stroke-opacity:1" />
      <path
         transform="translate(-31.79282,129.256)"
         d="m 104.23875,41.246235 c 0,3.166321 -2.56681,5.733132 -5.733127,5.733132 -3.166321,0 -5.733132,-2.566811 -5.733132,-5.733132 0,-3.166321 2.566811,-5.733132 5.733132,-5.733132 3.166317,0 5.733127,2.566811 5.733127,5.733132 z"
         sodipodi:ry="5.7331319"
         sodipodi:rx="5.7331319"
         sodipodi:cy="41.246235"
         sodipodi:cx="98.505623"
         id="path7942"
         style="fill:#ffffff;fill-opacity:1;stroke:#000000;stroke-width:1;stroke-miterlimit:4;stroke-opacity:1;stroke-dasharray:none;stroke-dashoffset:0"
         sodipodi:type="arc" />
      <path
         transform="translate(105.2811,129.256)"
         d="m 104.23875,41.246235 c 0,3.166321 -2.56681,5.733132 -5.733127,5.733132 -3.166321,0 -5.733132,-2.566811 -5.733132,-5.733132 0,-3.166321 2.566811,-5.733132 5.733132,-5.733132 3.166317,0 5.733127,2.566811 5.733127,5.733132 z"
         sodipodi:ry="5.7331319"
         sodipodi:rx="5.7331319"
         sodipodi:cy="41.246235"
         sodipodi:cx="98.505623"
         id="path8829"
         style="fill:#ffffff;fill-opacity:1;stroke:#000000;stroke-width:1;stroke-miterlimit:4;stroke-opacity:1;stroke-dasharray:none;stroke-dashoffset:0"
         sodipodi:type="arc" />
      <path
         transform="translate(-4.378041,129.256)"
         d="m 104.23875,41.246235 c 0,3.166321 -2.56681,5.733132 -5.733127,5.733132 -3.166321,0 -5.733132,-2.566811 -5.733132,-5.733132 0,-3.166321 2.566811,-5.733132 5.733132,-5.733132 3.166317,0 5.733127,2.566811 5.733127,5.733132 z"
         sodipodi:ry="5.7331319"
         sodipodi:rx="5.7331319"
         sodipodi:cy="41.246235"
         sodipodi:cx="98.505623"
         id="path8831"
         style="fill:#ffffff;fill-opacity:1;stroke:#000000;stroke-width:1;stroke-miterlimit:4;stroke-opacity:1;stroke-dasharray:none;stroke-dashoffset:0"
         sodipodi:type="arc" />
      <path
         transform="translate(23.03675,129.256)"
         d="m 104.23875,41.246235 c 0,3.166321 -2.56681,5.733132 -5.733127,5.733132 -3.166321,0 -5.733132,-2.566811 -5.733132,-5.733132 0,-3.166321 2.566811,-5.733132 5.733132,-5.733132 3.166317,0 5.733127,2.566811 5.733127,5.733132 z"
         sodipodi:ry="5.7331319"
         sodipodi:rx="5.7331319"
         sodipodi:cy="41.246235"
         sodipodi:cx="98.505623"
         id="path8833"
         style="fill:#ffffff;fill-opacity:1;stroke:#000000;stroke-width:1;stroke-miterlimit:4;stroke-opacity:1;stroke-dasharray:none;stroke-dashoffset:0"
         sodipodi:type="arc" />
      <path
         transform="translate(50.45153,129.256)"
         d="m 104.23875,41.246235 c 0,3.166321 -2.56681,5.733132 -5.733127,5.733132 -3.166321,0 -5.733132,-2.566811 -5.733132,-5.733132 0,-3.166321 2.566811,-5.733132 5.733132,-5.733132 3.166317,0 5.733127,2.566811 5.733127,5.733132 z"
         sodipodi:ry="5.7331319"
         sodipodi:rx="5.7331319"
         sodipodi:cy="41.246235"
         sodipodi:cx="98.505623"
         id="path8835"
         style="fill:#ffffff;fill-opacity:1;stroke:#000000;stroke-width:1;stroke-miterlimit:4;stroke-opacity:1;stroke-dasharray:none;stroke-dashoffset:0"
         sodipodi:type="arc" />
      <path
         transform="translate(77.86632,129.256)"
         d="m 104.23875,41.246235 c 0,3.166321 -2.56681,5.733132 -5.733127,5.733132 -3.166321,0 -5.733132,-2.566811 -5.733132,-5.733132 0,-3.166321 2.566811,-5.733132 5.733132,-5.733132 3.166317,0 5.733127,2.566811 5.733127,5.733132 z"
         sodipodi:ry="5.7331319"
         sodipodi:rx="5.7331319"
         sodipodi:cy="41.246235"
         sodipodi:cx="98.505623"
         id="path8837"
         style="fill:#ffffff;fill-opacity:1;stroke:#000000;stroke-width:1;stroke-miterlimit:4;stroke-opacity:1;stroke-dasharray:none;stroke-dashoffset:0"
         sodipodi:type="arc" />
    </g>
    <path
       style="fill:none;stroke:#000000;stroke-width:1.09843743px;stroke-linecap:butt;stroke-linejoin:miter;stroke-opacity:1"
       d="m 228.78732,419.09671 c 146.45279,0 146.45279,0 146.45279,0"
       id="path8850"
       inkscape:connector-curvature="0" />
    <path
       sodipodi:type="arc"
       style="fill:#ffffff;fill-opacity:1;stroke:#000000;stroke-width:1;stroke-miterlimit:4;stroke-opacity:1;stroke-dasharray:none;stroke-dashoffset:0"
       id="path8852"
       sodipodi:cx="98.505623"
       sodipodi:cy="41.246235"
       sodipodi:rx="5.7331319"
       sodipodi:ry="5.7331319"
       d="m 104.23875,41.246235 a 5.7331319,5.7331319 0 1 1 -11.466259,0 5.7331319,5.7331319 0 1 1 11.466259,0 z"
       transform="matrix(1.0643747,0,0,1.1335904,126.71417,371.74955)" />
    <path
       sodipodi:type="arc"
       style="fill:#ffffff;fill-opacity:1;stroke:#000000;stroke-width:1;stroke-miterlimit:4;stroke-opacity:1;stroke-dasharray:none;stroke-dashoffset:0"
       id="path8854"
       sodipodi:cx="98.505623"
       sodipodi:cy="41.246235"
       sodipodi:rx="5.7331319"
       sodipodi:ry="5.7331319"
       d="m 104.23875,41.246235 a 5.7331319,5.7331319 0 1 1 -11.466259,0 5.7331319,5.7331319 0 1 1 11.466259,0 z"
       transform="matrix(1.0643747,0,0,1.1335904,270.39318,372.34036)" />
    <path
       sodipodi:type="arc"
       style="fill:#ffffff;fill-opacity:1;stroke:#000000;stroke-width:1;stroke-miterlimit:4;stroke-opacity:1;stroke-dasharray:none;stroke-dashoffset:0"
       id="path8856"
       sodipodi:cx="98.505623"
       sodipodi:cy="41.246235"
       sodipodi:rx="5.7331319"
       sodipodi:ry="5.7331319"
       d="m 104.23875,41.246235 a 5.7331319,5.7331319 0 1 1 -11.466259,0 5.7331319,5.7331319 0 1 1 11.466259,0 z"
       transform="matrix(1.0643747,0,0,1.1335904,153.67481,372.34036)" />
    <path
       sodipodi:type="arc"
       style="fill:#ffffff;fill-opacity:1;stroke:#000000;stroke-width:1;stroke-miterlimit:4;stroke-opacity:1;stroke-dasharray:none;stroke-dashoffset:0"
       id="path8858"
       sodipodi:cx="98.505623"
       sodipodi:cy="41.246235"
       sodipodi:rx="5.7331319"
       sodipodi:ry="5.7331319"
       d="m 104.23875,41.246235 a 5.7331319,5.7331319 0 1 1 -11.466259,0 5.7331319,5.7331319 0 1 1 11.466259,0 z"
       transform="matrix(1.0643747,0,0,1.1335904,182.85443,372.34036)" />
    <path
       sodipodi:type="arc"
       style="fill:#ffffff;fill-opacity:1;stroke:#000000;stroke-width:1;stroke-miterlimit:4;stroke-opacity:1;stroke-dasharray:none;stroke-dashoffset:0"
       id="path8860"
       sodipodi:cx="98.505623"
       sodipodi:cy="41.246235"
       sodipodi:rx="5.7331319"
       sodipodi:ry="5.7331319"
       d="m 104.23875,41.246235 a 5.7331319,5.7331319 0 1 1 -11.466259,0 5.7331319,5.7331319 0 1 1 11.466259,0 z"
       transform="matrix(1.0643747,0,0,1.1335904,212.03395,372.34036)" />
    <path
       sodipodi:type="arc"
       style="fill:#ffffff;fill-opacity:1;stroke:#000000;stroke-width:1;stroke-miterlimit:4;stroke-opacity:1;stroke-dasharray:none;stroke-dashoffset:0"
       id="path8862"
       sodipodi:cx="98.505623"
       sodipodi:cy="41.246235"
       sodipodi:rx="5.7331319"
       sodipodi:ry="5.7331319"
       d="m 104.23875,41.246235 a 5.7331319,5.7331319 0 1 1 -11.466259,0 5.7331319,5.7331319 0 1 1 11.466259,0 z"
       transform="matrix(1.0643747,0,0,1.1335904,241.21356,372.34036)" />
    <path
       sodipodi:type="arc"
       style="fill:#ffffff;fill-opacity:1;stroke:#000000;stroke-width:1;stroke-miterlimit:4;stroke-opacity:1;stroke-dasharray:none;stroke-dashoffset:0"
       id="path8871"
       sodipodi:cx="98.505623"
       sodipodi:cy="41.246235"
       sodipodi:rx="5.7331319"
       sodipodi:ry="5.7331319"
       d="m 104.23875,41.246235 a 5.7331319,5.7331319 0 1 1 -11.466259,0 5.7331319,5.7331319 0 1 1 11.466259,0 z"
       transform="matrix(1.0643747,0,0,1.1335904,366.74505,383.56584)" />
    <path
       sodipodi:type="arc"
       style="fill:#ffffff;fill-opacity:1;stroke:#000000;stroke-width:1;stroke-miterlimit:4;stroke-opacity:1;stroke-dasharray:none;stroke-dashoffset:0"
       id="path8873"
       sodipodi:cx="98.505623"
       sodipodi:cy="41.246235"
       sodipodi:rx="5.7331319"
       sodipodi:ry="5.7331319"
       d="m 104.23875,41.246235 a 5.7331319,5.7331319 0 1 1 -11.466259,0 5.7331319,5.7331319 0 1 1 11.466259,0 z"
       transform="matrix(1.0643747,0,0,1.1335904,386.16126,334.52786)" />
    <path
       sodipodi:type="arc"
       style="fill:#ffffff;fill-opacity:1;stroke:#000000;stroke-width:1;stroke-miterlimit:4;stroke-opacity:1;stroke-dasharray:none;stroke-dashoffset:0"
       id="path8875"
       sodipodi:cx="98.505623"
       sodipodi:cy="41.246235"
       sodipodi:rx="5.7331319"
       sodipodi:ry="5.7331319"
       d="m 104.23875,41.246235 a 5.7331319,5.7331319 0 1 1 -11.466259,0 5.7331319,5.7331319 0 1 1 11.466259,0 z"
       transform="matrix(1.0643747,0,0,1.1335904,412.23418,322.1206)" />
    <path
       sodipodi:type="arc"
       style="fill:#ffffff;fill-opacity:1;stroke:#000000;stroke-width:1;stroke-miterlimit:4;stroke-opacity:1;stroke-dasharray:none;stroke-dashoffset:0"
       id="path8877"
       sodipodi:cx="98.505623"
       sodipodi:cy="41.246235"
       sodipodi:rx="5.7331319"
       sodipodi:ry="5.7331319"
       d="m 104.23875,41.246235 a 5.7331319,5.7331319 0 1 1 -11.466259,0 5.7331319,5.7331319 0 1 1 11.466259,0 z"
       transform="matrix(1.0643747,0,0,1.1335904,459.94233,362.8871)" />
    <path
       sodipodi:type="arc"
       style="fill:#ffffff;fill-opacity:1;stroke:#000000;stroke-width:1;stroke-miterlimit:4;stroke-opacity:1;stroke-dasharray:none;stroke-dashoffset:0"
       id="path8879"
       sodipodi:cx="98.505623"
       sodipodi:cy="41.246235"
       sodipodi:rx="5.7331319"
       sodipodi:ry="5.7331319"
       d="m 104.23875,41.246235 a 5.7331319,5.7331319 0 1 1 -11.466259,0 5.7331319,5.7331319 0 1 1 11.466259,0 z"
       transform="matrix(1.0643747,0,0,1.1335904,484.90596,385.33832)" />
    <path
       sodipodi:type="arc"
       style="fill:#ffffff;fill-opacity:1;stroke:#000000;stroke-width:1;stroke-miterlimit:4;stroke-opacity:1;stroke-dasharray:none;stroke-dashoffset:0"
       id="path8881"
       sodipodi:cx="98.505623"
       sodipodi:cy="41.246235"
       sodipodi:rx="5.7331319"
       sodipodi:ry="5.7331319"
       d="m 104.23875,41.246235 a 5.7331319,5.7331319 0 1 1 -11.466259,0 5.7331319,5.7331319 0 1 1 11.466259,0 z"
       transform="matrix(1.0643747,0,0,1.1335904,514.86225,329.80128)" />
    <path
       sodipodi:type="arc"
       style="fill:#ffffff;fill-opacity:1;stroke:#000000;stroke-width:1;stroke-miterlimit:4;stroke-opacity:1;stroke-dasharray:none;stroke-dashoffset:0"
       id="path8885"
       sodipodi:cx="98.505623"
       sodipodi:cy="41.246235"
       sodipodi:rx="5.7331319"
       sodipodi:ry="5.7331319"
       d="m 104.23875,41.246235 a 5.7331319,5.7331319 0 1 1 -11.466259,0 5.7331319,5.7331319 0 1 1 11.466259,0 z"
       transform="matrix(1.0643747,0,0,1.1335904,510.42424,361.70556)" />
    <path
       sodipodi:type="arc"
       style="fill:#ffffff;fill-opacity:1;stroke:#000000;stroke-width:1;stroke-miterlimit:4;stroke-opacity:1;stroke-dasharray:none;stroke-dashoffset:0"
       id="path8887"
       sodipodi:cx="98.505623"
       sodipodi:cy="41.246235"
       sodipodi:rx="5.7331319"
       sodipodi:ry="5.7331319"
       d="m 104.23875,41.246235 a 5.7331319,5.7331319 0 1 1 -11.466259,0 5.7331319,5.7331319 0 1 1 11.466259,0 z"
       transform="matrix(1.0643747,0,0,1.1335904,371.18307,357.56977)" />
    <path
       sodipodi:type="arc"
       style="fill:#ffffff;fill-opacity:1;stroke:#000000;stroke-width:1;stroke-miterlimit:4;stroke-opacity:1;stroke-dasharray:none;stroke-dashoffset:0"
       id="path8889"
       sodipodi:cx="98.505623"
       sodipodi:cy="41.246235"
       sodipodi:rx="5.7331319"
       sodipodi:ry="5.7331319"
       d="m 104.23875,41.246235 a 5.7331319,5.7331319 0 1 1 -11.466259,0 5.7331319,5.7331319 0 1 1 11.466259,0 z"
       transform="matrix(1.0643747,0,0,1.1335904,441.63572,336.30028)" />
    <path
       inkscape:connector-curvature="0"
       style="fill:none;stroke:#000000;stroke-width:1.09843743;stroke-linecap:butt;stroke-linejoin:miter;stroke-miterlimit:4;stroke-opacity:1;stroke-dasharray:3.29531244, 3.29531244;stroke-dashoffset:0"
       d="m 148.14872,444.50194 0,-26.58691 0,0 0,0 -178.628047,0 -3.32847,0"
       id="path8891" />
    <path
       inkscape:connector-curvature="0"
       style="fill:none;stroke:#000000;stroke-width:1.09843743;stroke-linecap:butt;stroke-linejoin:miter;stroke-miterlimit:4;stroke-opacity:1;stroke-dasharray:3.29531244, 3.29531244;stroke-dashoffset:0"
       d="m 394.12637,446.30094 0,-57.95347 0,0 0,0 -178.13238,0 -3.31923,0"
       id="path8893" />
    <path
       inkscape:connector-curvature="0"
       style="fill:none;stroke:#000000;stroke-width:1.09843743;stroke-linecap:butt;stroke-linejoin:miter;stroke-miterlimit:4;stroke-opacity:1;stroke-dasharray:3.29531244, 3.29531244;stroke-dashoffset:0"
       d="m 632.6415,446.16355 0,-89.58298 0,0 0,0 -177.8791,0 -3.31452,0"
       id="path9780" />
    <path
       inkscape:connector-curvature="0"
       style="fill:none;stroke:#000000;stroke-width:1.09843743;stroke-linecap:butt;stroke-linejoin:miter;stroke-miterlimit:4;stroke-opacity:1;stroke-dasharray:1.09843748, 2.19687496;stroke-dashoffset:0;marker-end:url(#Arrow1Mend)"
       d="M 29.433185,350.56152 C 7.2433679,370.05859 -0.5230655,415.55174 -0.5230655,415.55174"
       id="path10671" />
    <path
       inkscape:connector-curvature="0"
       style="fill:none;stroke:#000000;stroke-width:1.09843743;stroke-linecap:butt;stroke-linejoin:miter;stroke-miterlimit:4;stroke-opacity:1;stroke-dasharray:1.09843748, 2.19687496;stroke-dashoffset:0;marker-end:url(#Arrow1Mend)"
       d="M 95.447892,375.37597 C 77.141297,386.01074 69.929605,426.18651 69.929605,426.18651"
       id="path10673" />
    <flowRoot
       transform="matrix(1.0643747,0,0,1.1335904,-29.574175,-234.10518)"
       xml:space="preserve"
       id="flowRoot3404"
       style="font-size:12px;font-style:normal;font-weight:normal;line-height:125%;letter-spacing:0px;word-spacing:0px;fill:#000000;fill-opacity:1;stroke:none;font-family:Sans"><flowRegion
         id="flowRegion3406"><rect
           id="rect3408"
           width="109.99999"
           height="17.857138"
           x="10"
           y="499.50504" /></flowRegion><flowPara
         id="flowPara3410"
         style="font-size:14px">support of pdf</flowPara></flowRoot>    <flowRoot
       transform="matrix(1.0643747,0,0,1.1335904,46.452586,-209.00424)"
       xml:space="preserve"
       id="flowRoot3404-3"
       style="font-size:12px;font-style:normal;font-weight:normal;line-height:125%;letter-spacing:0px;word-spacing:0px;fill:#000000;fill-opacity:1;stroke:none;font-family:Sans"><flowRegion
         id="flowRegion3406-6"><rect
           id="rect3408-7"
           width="79.999992"
           height="20.714264"
           x="10"
           y="499.50504" /></flowRegion><flowPara
         id="flowPara3410-5"
         style="font-size:14px">prototype</flowPara></flowRoot>    <flowRoot
       transform="matrix(1.0643747,0,0,1.1335904,26.685629,-116.69761)"
       xml:space="preserve"
       id="flowRoot3404-35"
       style="font-size:12px;font-style:normal;font-weight:normal;line-height:125%;letter-spacing:0px;word-spacing:0px;fill:#000000;fill-opacity:1;stroke:none;font-family:Sans"><flowRegion
         id="flowRegion3406-62"><rect
           id="rect3408-9"
           width="86.428566"
           height="17.142843"
           x="10"
           y="499.50504" /></flowRegion><flowPara
         id="flowPara3410-1"
         style="font-size:14px;font-style:italic;-inkscape-font-specification:Sans Italic">d&lt;d<flowSpan
   style="font-size:65.00091553%;baseline-shift:sub"
   id="flowSpan3886">0</flowSpan></flowPara></flowRoot>    <flowRoot
       xml:space="preserve"
       id="flowRoot3467"
       style="font-size:12px;font-style:normal;font-weight:normal;line-height:125%;letter-spacing:0px;word-spacing:0px;fill:#000000;fill-opacity:1;stroke:none;font-family:Sans"
       transform="matrix(1.0643747,0,0,1.1335904,22.537865,-68.84101)"><flowRegion
         id="flowRegion3469"><rect
           id="rect3471"
           width="687.14288"
           height="195.71428"
           x="-58.57143"
           y="306.64789" /></flowRegion><flowPara
         id="flowPara3473"></flowPara></flowRoot>    <flowRoot
       transform="matrix(1.0643747,0,0,1.1335904,-58.818751,-158.46217)"
       xml:space="preserve"
       id="flowRoot3404-35-1"
       style="font-size:14px;font-style:normal;font-weight:normal;line-height:125%;letter-spacing:0px;word-spacing:0px;fill:#000000;fill-opacity:1;stroke:none;font-family:Sans"><flowRegion
         id="flowRegion3406-62-8"><rect
           id="rect3408-9-7"
           width="13.192507"
           height="17.647928"
           x="10"
           y="499.50504"
           style="font-size:14px" /></flowRegion><flowPara
         id="flowPara3410-1-92"
         style="font-size:14px;font-style:italic;-inkscape-font-specification:Sans Italic">d</flowPara></flowRoot>    <flowRoot
       transform="matrix(1.0643747,0,0,1.1335904,184.5404,-186.90814)"
       xml:space="preserve"
       id="flowRoot3404-35-1-2"
       style="font-size:14px;font-style:normal;font-weight:normal;line-height:125%;letter-spacing:0px;word-spacing:0px;fill:#000000;fill-opacity:1;stroke:none;font-family:Sans"><flowRegion
         id="flowRegion3406-62-8-3"><rect
           id="rect3408-9-7-7"
           width="13.192507"
           height="17.647928"
           x="10"
           y="499.50504"
           style="font-size:14px" /></flowRegion><flowPara
         id="flowPara3410-1-92-5"
         style="font-size:14px;font-style:italic;-inkscape-font-specification:Sans Italic">d</flowPara></flowRoot>    <flowRoot
       transform="matrix(1.0643747,0,0,1.1335904,427.1083,-216.8772)"
       xml:space="preserve"
       id="flowRoot3404-35-1-9"
       style="font-size:14px;font-style:normal;font-weight:normal;line-height:125%;letter-spacing:0px;word-spacing:0px;fill:#000000;fill-opacity:1;stroke:none;font-family:Sans"><flowRegion
         id="flowRegion3406-62-8-2"><rect
           id="rect3408-9-7-2"
           width="13.192507"
           height="17.647928"
           x="10"
           y="499.50504"
           style="font-size:14px" /></flowRegion><flowPara
         id="flowPara3410-1-92-8"
         style="font-size:14px;font-style:italic;-inkscape-font-specification:Sans Italic">d</flowPara></flowRoot>    <flowRoot
       transform="matrix(1.0643747,0,0,1.1335904,-49.160132,-114.19435)"
       xml:space="preserve"
       id="flowRoot3404-35-1-97"
       style="font-size:14px;font-style:normal;font-weight:normal;line-height:125%;letter-spacing:0px;word-spacing:0px;fill:#000000;fill-opacity:1;stroke:none;font-family:Sans"><flowRegion
         id="flowRegion3406-62-8-36"><rect
           id="rect3408-9-7-1"
           width="13.192507"
           height="17.647928"
           x="10"
           y="499.50504"
           style="font-size:14px" /></flowRegion><flowPara
         id="flowPara3410-1-92-2"
         style="font-size:14px;font-style:normal;-inkscape-font-specification:Sans">0</flowPara></flowRoot>    <flowRoot
       transform="matrix(1.0643747,0,0,1.1335904,133.6206,-111.90415)"
       xml:space="preserve"
       id="flowRoot3404-35-1-93"
       style="font-size:12px;font-style:normal;font-weight:normal;line-height:125%;letter-spacing:0px;word-spacing:0px;fill:#000000;fill-opacity:1;stroke:none;font-family:Sans"><flowRegion
         id="flowRegion3406-62-8-1"><rect
           id="rect3408-9-7-9"
           width="13.192507"
           height="17.647928"
           x="10"
           y="499.50504" /></flowRegion><flowPara
         id="flowPara3410-1-92-4"
         style="font-style:normal;-inkscape-font-specification:Sans">1</flowPara></flowRoot>    <flowRoot
       transform="matrix(1.0643747,0,0,1.1335904,197.21993,-113.1688)"
       xml:space="preserve"
       id="flowRoot3404-35-1-97-7"
       style="font-size:14px;font-style:normal;font-weight:normal;line-height:125%;letter-spacing:0px;word-spacing:0px;fill:#000000;fill-opacity:1;stroke:none;font-family:Sans"><flowRegion
         id="flowRegion3406-62-8-36-8"><rect
           id="rect3408-9-7-1-4"
           width="13.192507"
           height="17.647928"
           x="10"
           y="499.50504"
           style="font-size:14px" /></flowRegion><flowPara
         id="flowPara3410-1-92-2-5"
         style="font-size:14px;font-style:normal;-inkscape-font-specification:Sans">0</flowPara></flowRoot>    <flowRoot
       transform="matrix(1.0643747,0,0,1.1335904,439.02755,-112.59626)"
       xml:space="preserve"
       id="flowRoot3404-35-1-97-0"
       style="font-size:14px;font-style:normal;font-weight:normal;line-height:125%;letter-spacing:0px;word-spacing:0px;fill:#000000;fill-opacity:1;stroke:none;font-family:Sans"><flowRegion
         id="flowRegion3406-62-8-36-3"><rect
           id="rect3408-9-7-1-6"
           width="13.192507"
           height="17.647928"
           x="10"
           y="499.50504"
           style="font-size:14px" /></flowRegion><flowPara
         id="flowPara3410-1-92-2-1"
         style="font-size:14px;font-style:normal;-inkscape-font-specification:Sans">0</flowPara></flowRoot>    <flowRoot
       transform="matrix(1.0643747,0,0,1.1335904,379.88529,-110.87196)"
       xml:space="preserve"
       id="flowRoot3404-35-1-93-0"
       style="font-size:12px;font-style:normal;font-weight:normal;line-height:125%;letter-spacing:0px;word-spacing:0px;fill:#000000;fill-opacity:1;stroke:none;font-family:Sans"><flowRegion
         id="flowRegion3406-62-8-1-6"><rect
           id="rect3408-9-7-9-3"
           width="13.192507"
           height="17.647928"
           x="10"
           y="499.50504" /></flowRegion><flowPara
         id="flowPara3410-1-92-4-2"
         style="font-style:normal;-inkscape-font-specification:Sans">1</flowPara></flowRoot>    <flowRoot
       transform="matrix(1.0643747,0,0,1.1335904,618.51774,-109.0144)"
       xml:space="preserve"
       id="flowRoot3404-35-1-93-06"
       style="font-size:14px;font-style:normal;font-weight:normal;line-height:125%;letter-spacing:0px;word-spacing:0px;fill:#000000;fill-opacity:1;stroke:none;font-family:Sans"><flowRegion
         id="flowRegion3406-62-8-1-1"><rect
           id="rect3408-9-7-9-5"
           width="13.192507"
           height="17.647928"
           x="10"
           y="499.50504"
           style="font-size:14px" /></flowRegion><flowPara
         id="flowPara3410-1-92-4-5"
         style="font-size:14px;font-style:normal;-inkscape-font-specification:Sans">1</flowPara></flowRoot>    <flowRoot
       transform="matrix(1.0643747,0,0,1.1335904,149.99331,-117.80827)"
       xml:space="preserve"
       id="flowRoot3404-35-1-4"
       style="font-size:12px;font-style:normal;font-weight:normal;line-height:125%;letter-spacing:0px;word-spacing:0px;fill:#000000;fill-opacity:1;stroke:none;font-family:Sans"><flowRegion
         id="flowRegion3406-62-8-7"><rect
           id="rect3408-9-7-6"
           width="21.04965"
           height="18.362204"
           x="10"
           y="499.50504" /></flowRegion><flowPara
         id="flowPara3410-1-92-56"
         style="font-size:14px;font-style:italic;-inkscape-font-specification:Sans Italic">x<flowSpan
   style="font-size:65.00091553%;baseline-shift:sub"
   id="flowSpan3735">1</flowSpan></flowPara></flowRoot>    <flowRoot
       transform="matrix(1.0643747,0,0,1.1335904,395.58317,-117.28142)"
       xml:space="preserve"
       id="flowRoot3404-35-1-4-9"
       style="font-size:14px;font-style:normal;font-weight:normal;line-height:125%;letter-spacing:0px;word-spacing:0px;fill:#000000;fill-opacity:1;stroke:none;font-family:Sans;-inkscape-font-specification:Sans"><flowRegion
         id="flowRegion3406-62-8-7-3"><rect
           id="rect3408-9-7-6-7"
           width="21.04965"
           height="18.362204"
           x="10"
           y="499.50504"
           style="font-size:14px;font-style:normal;-inkscape-font-specification:Sans" /></flowRegion><flowPara
         id="flowPara3410-1-92-56-4"
         style="font-style:normal;baseline-shift:baseline;-inkscape-font-specification:Sans">x<flowSpan
   style="font-size:65.00091553%;baseline-shift:sub"
   id="flowSpan3950">1</flowSpan></flowPara></flowRoot>    <flowRoot
       transform="matrix(1.0643747,0,0,1.1335904,635.82774,-120.52025)"
       xml:space="preserve"
       id="flowRoot3404-35-1-4-2"
       style="font-size:14px;font-style:normal;font-weight:normal;line-height:125%;letter-spacing:0px;word-spacing:0px;fill:#000000;fill-opacity:1;stroke:none;font-family:Sans;-inkscape-font-specification:Sans"><flowRegion
         id="flowRegion3406-62-8-7-5"><rect
           id="rect3408-9-7-6-4"
           width="21.04965"
           height="18.362204"
           x="10"
           y="499.50504"
           style="font-size:14px;font-style:normal;-inkscape-font-specification:Sans" /></flowRegion><flowPara
         id="flowPara3410-1-92-56-7"
         style="font-size:14px;font-style:normal;-inkscape-font-specification:Sans">x<flowSpan
   style="font-size:65.00091553%;baseline-shift:sub"
   id="flowSpan3952">1</flowSpan></flowPara></flowRoot>    <flowRoot
       transform="matrix(1.0643747,0,0,1.1335904,-49.933655,-282.46173)"
       xml:space="preserve"
       id="flowRoot3404-35-1-4-4"
       style="font-size:12px;font-style:normal;font-weight:normal;line-height:125%;letter-spacing:0px;word-spacing:0px;fill:#000000;fill-opacity:1;stroke:none;font-family:Sans;-inkscape-font-specification:Sans"><flowRegion
         id="flowRegion3406-62-8-7-30"><rect
           id="rect3408-9-7-6-78"
           width="21.04965"
           height="18.362204"
           x="10"
           y="499.50504"
           style="font-style:normal;-inkscape-font-specification:Sans" /></flowRegion><flowPara
         id="flowPara3410-1-92-56-6"
         style="font-size:14px;font-style:normal;-inkscape-font-specification:Sans">x<flowSpan
   style="font-size:65.00091553%;font-style:normal;baseline-shift:sub;-inkscape-font-specification:Sans"
   id="flowSpan3797">2</flowSpan></flowPara></flowRoot>    <flowRoot
       transform="matrix(1.0643747,0,0,1.1335904,193.38442,-277.60349)"
       xml:space="preserve"
       id="flowRoot3404-35-1-4-4-8"
       style="font-size:14px;font-style:normal;font-weight:normal;line-height:125%;letter-spacing:0px;word-spacing:0px;fill:#000000;fill-opacity:1;stroke:none;font-family:Sans;-inkscape-font-specification:Sans"><flowRegion
         id="flowRegion3406-62-8-7-30-4"><rect
           id="rect3408-9-7-6-78-3"
           width="21.04965"
           height="18.362204"
           x="10"
           y="499.50504"
           style="font-size:14px;font-style:normal;-inkscape-font-specification:Sans" /></flowRegion><flowPara
         id="flowPara3410-1-92-56-6-1"
         style="font-style:normal;baseline-shift:baseline;-inkscape-font-specification:Sans">x<flowSpan
   style="font-size:65.00091553%;font-style:normal;baseline-shift:sub;-inkscape-font-specification:Sans"
   id="flowSpan3884">2</flowSpan></flowPara></flowRoot>    <flowRoot
       transform="matrix(1.0643747,0,0,1.1335904,435.14952,-279.22289)"
       xml:space="preserve"
       id="flowRoot3404-35-1-4-4-9"
       style="font-size:12px;font-style:normal;font-weight:normal;line-height:125%;letter-spacing:0px;word-spacing:0px;fill:#000000;fill-opacity:1;stroke:none;font-family:Sans;-inkscape-font-specification:Sans"><flowRegion
         id="flowRegion3406-62-8-7-30-2"><rect
           id="rect3408-9-7-6-78-0"
           width="21.04965"
           height="18.362204"
           x="10"
           y="499.50504"
           style="font-style:normal;-inkscape-font-specification:Sans" /></flowRegion><flowPara
         id="flowPara3410-1-92-56-6-6"
         style="font-size:14px;font-style:normal;-inkscape-font-specification:Sans">x<flowSpan
   style="font-size:65.00091553%;baseline-shift:sub"
   id="flowSpan3992">2</flowSpan></flowPara></flowRoot>    <flowRoot
       transform="matrix(1.0643747,0,0,1.1335904,277.65706,-118.34144)"
       xml:space="preserve"
       id="flowRoot3404-35-9"
       style="font-size:12px;font-style:normal;font-weight:normal;line-height:125%;letter-spacing:0px;word-spacing:0px;fill:#000000;fill-opacity:1;stroke:none;font-family:Sans"><flowRegion
         id="flowRegion3406-62-2"><rect
           id="rect3408-9-66"
           width="86.428566"
           height="17.142843"
           x="10"
           y="499.50504" /></flowRegion><flowPara
         id="flowPara3410-1-4"
         style="font-size:14px;font-style:italic;-inkscape-font-specification:Sans Italic">d&lt;d<flowSpan
   style="font-size:65.00091553%;baseline-shift:sub"
   id="flowSpan3886-9">0</flowSpan></flowPara></flowRoot>    <flowRoot
       transform="matrix(1.0643747,0,0,1.1335904,521.70297,-117.53173)"
       xml:space="preserve"
       id="flowRoot3404-35-7"
       style="font-size:12px;font-style:normal;font-weight:normal;line-height:125%;letter-spacing:0px;word-spacing:0px;fill:#000000;fill-opacity:1;stroke:none;font-family:Sans"><flowRegion
         id="flowRegion3406-62-27"><rect
           id="rect3408-9-2"
           width="86.428566"
           height="17.142843"
           x="10"
           y="499.50504" /></flowRegion><flowPara
         id="flowPara3410-1-2"
         style="font-size:14px;font-style:italic;-inkscape-font-specification:Sans Italic">d&gt;d<flowSpan
   style="font-size:65.00091553%;baseline-shift:sub"
   id="flowSpan3886-6">0</flowSpan></flowPara></flowRoot>  </g>
</svg>
