<?xml version="1.0" encoding="UTF-8" standalone="no"?>
<!-- Created with Inkscape (http://www.inkscape.org/) -->

<svg
   xmlns:ns0="http://www.iki.fi/pav/software/textext/"
   xmlns:dc="http://purl.org/dc/elements/1.1/"
   xmlns:cc="http://creativecommons.org/ns#"
   xmlns:rdf="http://www.w3.org/1999/02/22-rdf-syntax-ns#"
   xmlns:svg="http://www.w3.org/2000/svg"
   xmlns="http://www.w3.org/2000/svg"
   xmlns:xlink="http://www.w3.org/1999/xlink"
   xmlns:sodipodi="http://sodipodi.sourceforge.net/DTD/sodipodi-0.dtd"
   xmlns:inkscape="http://www.inkscape.org/namespaces/inkscape"
   width="744.09448819"
   height="1052.3622047"
   id="svg2"
   sodipodi:version="0.32"
   inkscape:version="0.91 r13725"
   sodipodi:docname="section2_fig2b.svg"
   version="1.1"
   inkscape:export-filename="/home/augustin/Teaching/Machine_Intelligence/mirepo.git/mi2/script/figures/svg/section2_fig2b.svg.png"
   inkscape:export-xdpi="300"
   inkscape:export-ydpi="300">
  <sodipodi:namedview
     id="base"
     pagecolor="#ffffff"
     bordercolor="#666666"
     borderopacity="1.0"
     gridtolerance="10000"
     guidetolerance="10"
     objecttolerance="10"
     inkscape:pageopacity="0.0"
     inkscape:pageshadow="2"
     inkscape:zoom="1.6983974"
     inkscape:cx="278.92357"
     inkscape:cy="764.53547"
     inkscape:document-units="px"
     inkscape:current-layer="layer1"
     inkscape:window-width="1920"
     inkscape:window-height="987"
     inkscape:window-x="1920"
     inkscape:window-y="64"
     showgrid="false"
     inkscape:window-maximized="1" />
  <defs
     id="defs4">
    <marker
       style="overflow:visible;"
       id="Arrow2Mend"
       refX="0.0"
       refY="0.0"
       orient="auto"
       inkscape:stockid="Arrow2Mend">
      <path
         transform="scale(0.6) rotate(180) translate(0,0)"
         d="M 8.7185878,4.0337352 L -2.2072895,0.016013256 L 8.7185884,-4.0017078 C 6.9730900,-1.6296469 6.9831476,1.6157441 8.7185878,4.0337352 z "
         style="font-size:12.0;fill-rule:evenodd;stroke-width:0.62500000;stroke-linejoin:round;"
         id="path3496" />
    </marker>
    <marker
       style="overflow:visible"
       id="Arrow1Mstart"
       refX="0.0"
       refY="0.0"
       orient="auto"
       inkscape:stockid="Arrow1Mstart">
      <path
         transform="scale(0.4) translate(10,0)"
         style="fill-rule:evenodd;stroke:#000000;stroke-width:1.0pt;marker-start:none"
         d="M 0.0,0.0 L 5.0,-5.0 L -12.5,0.0 L 5.0,5.0 L 0.0,0.0 z "
         id="path3814" />
    </marker>
    <marker
       style="overflow:visible;"
       id="Arrow1Mend"
       refX="0.0"
       refY="0.0"
       orient="auto"
       inkscape:stockid="Arrow1Mend">
      <path
         transform="scale(0.4) rotate(180) translate(10,0)"
         style="fill-rule:evenodd;stroke:#000000;stroke-width:1.0pt;marker-start:none;"
         d="M 0.0,0.0 L 5.0,-5.0 L -12.5,0.0 L 5.0,5.0 L 0.0,0.0 z "
         id="path3811" />
    </marker>
    <marker
       style="overflow:visible;"
       id="Arrow1Lend"
       refX="0.0"
       refY="0.0"
       orient="auto"
       inkscape:stockid="Arrow1Lend">
      <path
         transform="scale(0.8) rotate(180) translate(12.5,0)"
         style="fill-rule:evenodd;stroke:#000000;stroke-width:1.0pt;marker-start:none;"
         d="M 0.0,0.0 L 5.0,-5.0 L -12.5,0.0 L 5.0,5.0 L 0.0,0.0 z "
         id="path3817" />
    </marker>
  </defs>
  <metadata
     id="metadata7">
    <rdf:RDF>
      <cc:Work
         rdf:about="">
        <dc:format>image/svg+xml</dc:format>
        <dc:type
           rdf:resource="http://purl.org/dc/dcmitype/StillImage" />
        <dc:title />
      </cc:Work>
    </rdf:RDF>
  </metadata>
  <g
     id="layer1"
     inkscape:groupmode="layer"
     inkscape:label="Layer 1">
    <circle
       r="1.9135686"
       cy="126.73244"
       cx="255.18932"
       style="opacity:1;fill:#808080;fill-opacity:1;stroke:#800000;stroke-width:1;stroke-miterlimit:4;stroke-dasharray:none;stroke-dashoffset:0;stroke-opacity:1"
       id="path4212" />
    <circle
       r="1.9135686"
       cy="124.24632"
       cx="257.70795"
       style="opacity:1;fill:#808080;fill-opacity:1;stroke:#800000;stroke-width:1;stroke-miterlimit:4;stroke-dasharray:none;stroke-dashoffset:0;stroke-opacity:1"
       id="path4214" />
    <path
       id="path1872"
       d="M 193.3044,95.283489 C 193.3044,259.85039 193.3044,259.85039 193.3044,259.85039"
       style="fill:none;fill-rule:evenodd;stroke:black;stroke-width:1px;stroke-linecap:butt;stroke-linejoin:miter;marker-start:url(#Arrow1Mstart);marker-mid:none;marker-end:none;stroke-opacity:1" />
    <path
       id="path1874"
       d="M 62.411776,181.90172 C 320.59634,181.90172 320.59634,181.90172 320.59634,181.90172"
       style="fill:none;fill-rule:evenodd;stroke:black;stroke-width:1px;stroke-linecap:butt;stroke-linejoin:miter;marker-end:url(#Arrow1Mend);stroke-opacity:1" />
    <image
       sodipodi:absref="/home/augustin/Teaching/Machine_Intelligence/mirepo.git/mi2/script/figures/svg/../png/standards/x_1.png"
       xlink:href="../png/standards/x_1.png"
       y="175.56758"
       x="323.50537"
       id="image5777"
       height="13.826825"
       width="15.209507" />
    <image
       sodipodi:absref="/home/augustin/Teaching/Machine_Intelligence/mirepo.git/mi2/script/figures/svg/../png/standards/x_2.png"
       xlink:href="../png/standards/x_2.png"
       y="78.21283"
       x="184.6899"
       id="image5850"
       height="14.518166"
       width="17.974871" />
    <path
       transform="translate(5.151906,37.82978)"
       d="M 134.5386 120.45428 A 1.9135686 1.9135686 0 1 1  130.71146,120.45428 A 1.9135686 1.9135686 0 1 1  134.5386 120.45428 z"
       sodipodi:ry="1.9135686"
       sodipodi:rx="1.9135686"
       sodipodi:cy="120.45428"
       sodipodi:cx="132.62503"
       id="path1922"
       style="opacity:1;fill:black;fill-opacity:1;stroke:black;stroke-width:1;stroke-miterlimit:4;stroke-dasharray:none;stroke-dashoffset:0;stroke-opacity:1"
       sodipodi:type="arc" />
    <path
       transform="translate(28.70352,50.78317)"
       d="M 134.5386 120.45428 A 1.9135686 1.9135686 0 1 1  130.71146,120.45428 A 1.9135686 1.9135686 0 1 1  134.5386 120.45428 z"
       sodipodi:ry="1.9135686"
       sodipodi:rx="1.9135686"
       sodipodi:cy="120.45428"
       sodipodi:cx="132.62503"
       id="path2399"
       style="opacity:1;fill:black;fill-opacity:1;stroke:black;stroke-width:1;stroke-miterlimit:4;stroke-dasharray:none;stroke-dashoffset:0;stroke-opacity:1"
       sodipodi:type="arc" />
    <path
       transform="translate(-22.52124,46.07285)"
       d="M 134.5386 120.45428 A 1.9135686 1.9135686 0 1 1  130.71146,120.45428 A 1.9135686 1.9135686 0 1 1  134.5386 120.45428 z"
       sodipodi:ry="1.9135686"
       sodipodi:rx="1.9135686"
       sodipodi:cy="120.45428"
       sodipodi:cx="132.62503"
       id="path2401"
       style="opacity:1;fill:black;fill-opacity:1;stroke:black;stroke-width:1;stroke-miterlimit:4;stroke-dasharray:none;stroke-dashoffset:0;stroke-opacity:1"
       sodipodi:type="arc" />
    <path
       transform="translate(-44.60088,71.97962)"
       d="M 134.5386 120.45428 A 1.9135686 1.9135686 0 1 1  130.71146,120.45428 A 1.9135686 1.9135686 0 1 1  134.5386 120.45428 z"
       sodipodi:ry="1.9135686"
       sodipodi:rx="1.9135686"
       sodipodi:cy="120.45428"
       sodipodi:cx="132.62503"
       id="path2403"
       style="opacity:1;fill:black;fill-opacity:1;stroke:black;stroke-width:1;stroke-miterlimit:4;stroke-dasharray:none;stroke-dashoffset:0;stroke-opacity:1"
       sodipodi:type="arc" />
    <path
       transform="translate(-32.23628,78.16192)"
       d="M 134.5386 120.45428 A 1.9135686 1.9135686 0 1 1  130.71146,120.45428 A 1.9135686 1.9135686 0 1 1  134.5386 120.45428 z"
       sodipodi:ry="1.9135686"
       sodipodi:rx="1.9135686"
       sodipodi:cy="120.45428"
       sodipodi:cx="132.62503"
       id="path2405"
       style="opacity:1;fill:black;fill-opacity:1;stroke:black;stroke-width:1;stroke-miterlimit:4;stroke-dasharray:none;stroke-dashoffset:0;stroke-opacity:1"
       sodipodi:type="arc" />
    <path
       transform="translate(-54.02152,85.5218)"
       d="M 134.5386 120.45428 A 1.9135686 1.9135686 0 1 1  130.71146,120.45428 A 1.9135686 1.9135686 0 1 1  134.5386 120.45428 z"
       sodipodi:ry="1.9135686"
       sodipodi:rx="1.9135686"
       sodipodi:cy="120.45428"
       sodipodi:cx="132.62503"
       id="path2407"
       style="opacity:1;fill:black;fill-opacity:1;stroke:black;stroke-width:1;stroke-miterlimit:4;stroke-dasharray:none;stroke-dashoffset:0;stroke-opacity:1"
       sodipodi:type="arc" />
    <path
       transform="translate(38.71296,69.91886)"
       d="M 134.5386 120.45428 A 1.9135686 1.9135686 0 1 1  130.71146,120.45428 A 1.9135686 1.9135686 0 1 1  134.5386 120.45428 z"
       sodipodi:ry="1.9135686"
       sodipodi:rx="1.9135686"
       sodipodi:cy="120.45428"
       sodipodi:cx="132.62503"
       id="path2409"
       style="opacity:1;fill:black;fill-opacity:1;stroke:black;stroke-width:1;stroke-miterlimit:4;stroke-dasharray:none;stroke-dashoffset:0;stroke-opacity:1"
       sodipodi:type="arc" />
    <path
       transform="translate(54.3159,79.04511)"
       d="M 134.5386 120.45428 A 1.9135686 1.9135686 0 1 1  130.71146,120.45428 A 1.9135686 1.9135686 0 1 1  134.5386 120.45428 z"
       sodipodi:ry="1.9135686"
       sodipodi:rx="1.9135686"
       sodipodi:cy="120.45428"
       sodipodi:cx="132.62503"
       id="path2411"
       style="opacity:1;fill:black;fill-opacity:1;stroke:black;stroke-width:1;stroke-miterlimit:4;stroke-dasharray:none;stroke-dashoffset:0;stroke-opacity:1"
       sodipodi:type="arc" />
    <path
       transform="translate(47.54481,97.592)"
       d="M 134.5386 120.45428 A 1.9135686 1.9135686 0 1 1  130.71146,120.45428 A 1.9135686 1.9135686 0 1 1  134.5386 120.45428 z"
       sodipodi:ry="1.9135686"
       sodipodi:rx="1.9135686"
       sodipodi:cy="120.45428"
       sodipodi:cx="132.62503"
       id="path2413"
       style="opacity:1;fill:black;fill-opacity:1;stroke:black;stroke-width:1;stroke-miterlimit:4;stroke-dasharray:none;stroke-dashoffset:0;stroke-opacity:1"
       sodipodi:type="arc" />
    <path
       transform="translate(39.30175,115.8445)"
       d="M 134.5386 120.45428 A 1.9135686 1.9135686 0 1 1  130.71146,120.45428 A 1.9135686 1.9135686 0 1 1  134.5386 120.45428 z"
       sodipodi:ry="1.9135686"
       sodipodi:rx="1.9135686"
       sodipodi:cy="120.45428"
       sodipodi:cx="132.62503"
       id="path2415"
       style="opacity:1;fill:black;fill-opacity:1;stroke:black;stroke-width:1;stroke-miterlimit:4;stroke-dasharray:none;stroke-dashoffset:0;stroke-opacity:1"
       sodipodi:type="arc" />
    <path
       transform="translate(16.04453,133.5082)"
       d="M 134.5386 120.45428 A 1.9135686 1.9135686 0 1 1  130.71146,120.45428 A 1.9135686 1.9135686 0 1 1  134.5386 120.45428 z"
       sodipodi:ry="1.9135686"
       sodipodi:rx="1.9135686"
       sodipodi:cy="120.45428"
       sodipodi:cx="132.62503"
       id="path2417"
       style="opacity:1;fill:black;fill-opacity:1;stroke:black;stroke-width:1;stroke-miterlimit:4;stroke-dasharray:none;stroke-dashoffset:0;stroke-opacity:1"
       sodipodi:type="arc" />
    <path
       transform="translate(72.98433,33.53539)"
       d="M 134.5386 120.45428 A 1.9135686 1.9135686 0 1 1  130.71146,120.45428 A 1.9135686 1.9135686 0 1 1  134.5386 120.45428 z"
       sodipodi:ry="1.9135686"
       sodipodi:rx="1.9135686"
       sodipodi:cy="120.45428"
       sodipodi:cx="132.62503"
       id="path2419"
       style="opacity:1;fill:black;fill-opacity:1;stroke:black;stroke-width:1;stroke-miterlimit:4;stroke-dasharray:none;stroke-dashoffset:0;stroke-opacity:1"
       sodipodi:type="arc" />
    <path
       transform="translate(77.27872,47.83922)"
       d="M 134.5386 120.45428 A 1.9135686 1.9135686 0 1 1  130.71146,120.45428 A 1.9135686 1.9135686 0 1 1  134.5386 120.45428 z"
       sodipodi:ry="1.9135686"
       sodipodi:rx="1.9135686"
       sodipodi:cy="120.45428"
       sodipodi:cx="132.62503"
       id="path2421"
       style="opacity:1;fill:black;fill-opacity:1;stroke:black;stroke-width:1;stroke-miterlimit:4;stroke-dasharray:none;stroke-dashoffset:0;stroke-opacity:1"
       sodipodi:type="arc" />
    <path
       transform="translate(97.88638,19.87168)"
       d="M 134.5386 120.45428 A 1.9135686 1.9135686 0 1 1  130.71146,120.45428 A 1.9135686 1.9135686 0 1 1  134.5386 120.45428 z"
       sodipodi:ry="1.9135686"
       sodipodi:rx="1.9135686"
       sodipodi:cy="120.45428"
       sodipodi:cx="132.62503"
       id="path2425"
       style="opacity:1;fill:black;fill-opacity:1;stroke:black;stroke-width:1;stroke-miterlimit:4;stroke-dasharray:none;stroke-dashoffset:0;stroke-opacity:1"
       sodipodi:type="arc" />
    <circle
       sodipodi:cx="132.62503"
       sodipodi:cy="120.45428"
       sodipodi:rx="1.9135686"
       sodipodi:ry="1.9135686"
       sodipodi:type="arc"
       d="M 134.5386 120.45428 A 1.9135686 1.9135686 0 1 1  130.71146,120.45428 A 1.9135686 1.9135686 0 1 1  134.5386 120.45428 z"
       transform="translate(109.0734,32.82507)"
       id="path2427"
       style="opacity:1;fill:black;fill-opacity:1;stroke:black;stroke-width:1;stroke-miterlimit:4;stroke-dasharray:none;stroke-dashoffset:0;stroke-opacity:1" />
    <path
       transform="translate(130.2699,13.98378)"
       d="M 134.5386 120.45428 A 1.9135686 1.9135686 0 1 1  130.71146,120.45428 A 1.9135686 1.9135686 0 1 1  134.5386 120.45428 z"
       sodipodi:ry="1.9135686"
       sodipodi:rx="1.9135686"
       sodipodi:cy="120.45428"
       sodipodi:cx="132.62503"
       id="path2429"
       style="opacity:1;fill:black;fill-opacity:1;stroke:black;stroke-width:1;stroke-miterlimit:4;stroke-dasharray:none;stroke-dashoffset:0;stroke-opacity:1"
       sodipodi:type="arc" />
    <path
       transform="translate(117.9053,-3.385538)"
       d="M 134.5386 120.45428 A 1.9135686 1.9135686 0 1 1  130.71146,120.45428 A 1.9135686 1.9135686 0 1 1  134.5386 120.45428 z"
       sodipodi:ry="1.9135686"
       sodipodi:rx="1.9135686"
       sodipodi:cy="120.45428"
       sodipodi:cx="132.62503"
       id="path2431"
       style="opacity:1;fill:black;fill-opacity:1;stroke:black;stroke-width:1;stroke-miterlimit:4;stroke-dasharray:none;stroke-dashoffset:0;stroke-opacity:1"
       sodipodi:type="arc" />
    <path
       transform="translate(154.4103,7.801478)"
       d="M 134.5386 120.45428 A 1.9135686 1.9135686 0 1 1  130.71146,120.45428 A 1.9135686 1.9135686 0 1 1  134.5386 120.45428 z"
       sodipodi:ry="1.9135686"
       sodipodi:rx="1.9135686"
       sodipodi:cy="120.45428"
       sodipodi:cx="132.62503"
       id="path2433"
       style="opacity:1;fill:black;fill-opacity:1;stroke:black;stroke-width:1;stroke-miterlimit:4;stroke-dasharray:none;stroke-dashoffset:0;stroke-opacity:1"
       sodipodi:type="arc" />
    <path
       transform="translate(157.6486,-26.93715)"
       d="M 134.5386 120.45428 A 1.9135686 1.9135686 0 1 1  130.71146,120.45428 A 1.9135686 1.9135686 0 1 1  134.5386 120.45428 z"
       sodipodi:ry="1.9135686"
       sodipodi:rx="1.9135686"
       sodipodi:cy="120.45428"
       sodipodi:cx="132.62503"
       id="path2435"
       style="opacity:1;fill:black;fill-opacity:1;stroke:black;stroke-width:1;stroke-miterlimit:4;stroke-dasharray:none;stroke-dashoffset:0;stroke-opacity:1"
       sodipodi:type="arc" />
    <path
       transform="translate(179.7282,-4.268724)"
       d="M 134.5386 120.45428 A 1.9135686 1.9135686 0 1 1  130.71146,120.45428 A 1.9135686 1.9135686 0 1 1  134.5386 120.45428 z"
       sodipodi:ry="1.9135686"
       sodipodi:rx="1.9135686"
       sodipodi:cy="120.45428"
       sodipodi:cx="132.62503"
       id="path2437"
       style="opacity:1;fill:black;fill-opacity:1;stroke:black;stroke-width:1;stroke-miterlimit:4;stroke-dasharray:none;stroke-dashoffset:0;stroke-opacity:1"
       sodipodi:type="arc" />
    <path
       inkscape:connector-curvature="0"
       id="path2439"
       d="M 193.21792,181.33872 C 260.142,122.27194 260.142,122.27194 260.142,122.27194"
       style="fill:none;fill-rule:evenodd;stroke:#000000;stroke-width:1px;stroke-linecap:butt;stroke-linejoin:miter;stroke-opacity:1;marker-end:url(#Arrow1Mend)" />
    <path
       id="path3326"
       d="M 214.61408,162.40559 C 205.48783,153.27934 205.48783,153.27934 205.48783,153.27934"
       style="fill:none;fill-rule:evenodd;stroke:black;stroke-width:1px;stroke-linecap:butt;stroke-linejoin:miter;stroke-opacity:1" />
    <path
       id="path4673"
       d="M 295.57275,195.08346 C 265.25004,187.72358 244.34799,139.14838 244.34799,139.14838"
       style="fill:none;fill-rule:evenodd;stroke:black;stroke-width:1px;stroke-linecap:butt;stroke-linejoin:miter;stroke-opacity:1;marker-end:url(#Arrow1Mend)" />
    <circle
       r="1.9135686"
       cy="162.28406"
       cx="213.90375"
       style="opacity:1;fill:#808080;fill-opacity:1;stroke:#800000;stroke-width:1;stroke-miterlimit:4;stroke-dasharray:none;stroke-dashoffset:0;stroke-opacity:1"
       id="path4204" />
    <circle
       r="1.9135686"
       cy="177.19893"
       cx="197.90712"
       id="path2423"
       style="opacity:1;fill:#808080;fill-opacity:1;stroke:#800000;stroke-width:1;stroke-miterlimit:4;stroke-dasharray:none;stroke-dashoffset:0;stroke-opacity:1" />
    <circle
       r="1.9135686"
       cy="167.39746"
       cx="209.00771"
       style="opacity:1;fill:#808080;fill-opacity:1;stroke:#800000;stroke-width:1;stroke-miterlimit:4;stroke-dasharray:none;stroke-dashoffset:0;stroke-opacity:1"
       id="path4206" />
    <circle
       r="1.9135686"
       cy="145.57373"
       cx="233.99281"
       style="opacity:1;fill:#808080;fill-opacity:1;stroke:#800000;stroke-width:1;stroke-miterlimit:4;stroke-dasharray:none;stroke-dashoffset:0;stroke-opacity:1"
       id="path4208" />
    <circle
       r="1.9135686"
       cy="144.53412"
       cx="234.71957"
       style="opacity:1;fill:#808080;fill-opacity:1;stroke:#800000;stroke-width:1;stroke-miterlimit:4;stroke-dasharray:none;stroke-dashoffset:0;stroke-opacity:1"
       id="path4210" />
    <circle
       r="1.9135686"
       cy="112.55015"
       cx="271.32974"
       style="opacity:1;fill:#808080;fill-opacity:1;stroke:#800000;stroke-width:1;stroke-miterlimit:4;stroke-dasharray:none;stroke-dashoffset:0;stroke-opacity:1"
       id="path4216" />
    <circle
       r="1.9135686"
       cy="94.339546"
       cx="291.09601"
       style="opacity:1;fill:#808080;fill-opacity:1;stroke:#800000;stroke-width:1;stroke-miterlimit:4;stroke-dasharray:none;stroke-dashoffset:0;stroke-opacity:1"
       id="path4218" />
    <circle
       r="1.9135686"
       cy="192.85857"
       cx="180.30011"
       style="opacity:1;fill:#808080;fill-opacity:1;stroke:#800000;stroke-width:1;stroke-miterlimit:4;stroke-dasharray:none;stroke-dashoffset:0;stroke-opacity:1"
       id="path4220" />
    <circle
       r="1.9135686"
       cy="195.83641"
       cx="176.80127"
       style="opacity:1;fill:#808080;fill-opacity:1;stroke:#800000;stroke-width:1;stroke-miterlimit:4;stroke-dasharray:none;stroke-dashoffset:0;stroke-opacity:1"
       id="path4222" />
    <circle
       r="1.9135686"
       cy="204.63506"
       cx="166.75862"
       style="opacity:1;fill:#808080;fill-opacity:1;stroke:#800000;stroke-width:1;stroke-miterlimit:4;stroke-dasharray:none;stroke-dashoffset:0;stroke-opacity:1"
       id="path4224" />
    <circle
       r="1.9135686"
       cy="191.53183"
       cx="181.32855"
       style="opacity:1;fill:#808080;fill-opacity:1;stroke:#800000;stroke-width:1;stroke-miterlimit:4;stroke-dasharray:none;stroke-dashoffset:0;stroke-opacity:1"
       id="path4226" />
    <circle
       r="1.9135686"
       cy="196.57845"
       cx="176.07132"
       style="opacity:1;fill:#808080;fill-opacity:1;stroke:#800000;stroke-width:1;stroke-miterlimit:4;stroke-dasharray:none;stroke-dashoffset:0;stroke-opacity:1"
       id="path4228" />
    <circle
       r="1.9135686"
       cy="213.11591"
       cx="156.69257"
       style="opacity:1;fill:#808080;fill-opacity:1;stroke:#800000;stroke-width:1;stroke-miterlimit:4;stroke-dasharray:none;stroke-dashoffset:0;stroke-opacity:1"
       id="path4232" />
    <circle
       r="1.9135686"
       cy="217.12123"
       cx="152.74922"
       style="opacity:1;fill:#808080;fill-opacity:1;stroke:#800000;stroke-width:1;stroke-miterlimit:4;stroke-dasharray:none;stroke-dashoffset:0;stroke-opacity:1"
       id="path4234" />
    <circle
       r="1.9135686"
       cy="232.6162"
       cx="134.38875"
       style="opacity:1;fill:#808080;fill-opacity:1;stroke:#800000;stroke-width:1;stroke-miterlimit:4;stroke-dasharray:none;stroke-dashoffset:0;stroke-opacity:1"
       id="path4236" />
    <circle
       r="1.9135686"
       cy="235.77151"
       cx="131.36176"
       style="opacity:1;fill:#808080;fill-opacity:1;stroke:#800000;stroke-width:1;stroke-miterlimit:4;stroke-dasharray:none;stroke-dashoffset:0;stroke-opacity:1"
       id="path4240" />
    <circle
       r="1.9135686"
       cy="236.1833"
       cx="130.89038"
       style="opacity:1;fill:#808080;fill-opacity:1;stroke:#800000;stroke-width:1;stroke-miterlimit:4;stroke-dasharray:none;stroke-dashoffset:0;stroke-opacity:1"
       id="path4242" />
    <circle
       r="1.9135686"
       cy="246.56485"
       cx="119.1923"
       style="opacity:1;fill:#808080;fill-opacity:1;stroke:#800000;stroke-width:1;stroke-miterlimit:4;stroke-dasharray:none;stroke-dashoffset:0;stroke-opacity:1"
       id="path4244" />
    <g
       transform="translate(-30,0)"
       id="g4248">
      <image
         sodipodi:absref="/home/augustin/Teaching/Machine_Intelligence/mirepo.git/mi2/script/figures/svg/../png/section2_fig2_01.png"
         xlink:href="../png/section2_fig2_01.png"
         width="97.392769"
         height="13.362597"
         id="image3734"
         x="235.65106"
         y="192.34067" />
      <rect
         style="opacity:1;fill:#ffffff;fill-opacity:1;stroke:#ffffff;stroke-width:5;stroke-linecap:square;stroke-linejoin:round;stroke-miterlimit:6.57319975;stroke-dasharray:none;stroke-dashoffset:0;stroke-opacity:0.99215686"
         id="rect4246"
         width="90.084923"
         height="9.7359619"
         x="226.85674"
         y="195.60493" />
    </g>
    <g
       id="g4297"
       ns0:preamble="/usr/local/share/textextpreamble.ini"
       ns0:text="$u_a$"
       transform="matrix(1.2006564,-1.3526899,1.3526899,1.2006564,-184.18344,272.21388)">
      <defs
         id="defs4299">
        <g
           id="g4301">
          <symbol
             id="textext-0f7e76ca-0"
             overflow="visible"
             style="overflow:visible">
            <path
               id="path4304"
               d=""
               style="stroke:none"
               inkscape:connector-curvature="0" />
          </symbol>
          <symbol
             id="textext-0f7e76ca-1"
             overflow="visible"
             style="overflow:visible">
            <path
               id="path4307"
               d="M 3.484375,-0.5625 C 3.59375,-0.15625 3.953125,0.109375 4.375,0.109375 4.71875,0.109375 4.953125,-0.125 5.109375,-0.4375 5.28125,-0.796875 5.40625,-1.40625 5.40625,-1.421875 c 0,-0.109375 -0.078125,-0.109375 -0.109375,-0.109375 -0.109375,0 -0.109375,0.046875 -0.140625,0.1875 -0.140625,0.5625 -0.328125,1.234375 -0.75,1.234375 -0.203125,0 -0.3125,-0.125 -0.3125,-0.453125 0,-0.21875 0.125,-0.6875 0.203125,-1.046875 L 4.578125,-2.6875 C 4.609375,-2.828125 4.703125,-3.203125 4.75,-3.359375 4.796875,-3.59375 4.890625,-3.96875 4.890625,-4.03125 c 0,-0.171875 -0.140625,-0.265625 -0.28125,-0.265625 -0.046875,0 -0.3125,0.015625 -0.390625,0.34375 -0.1875,0.734375 -0.625,2.484375 -0.75,3 -0.015625,0.046875 -0.40625,0.84375 -1.140625,0.84375 -0.515625,0 -0.609375,-0.453125 -0.609375,-0.8125 0,-0.5625 0.28125,-1.34375 0.53125,-2.03125 0.125,-0.3125 0.171875,-0.453125 0.171875,-0.640625 0,-0.4375 -0.3125,-0.8125 -0.8125,-0.8125 -0.953125,0 -1.3125,1.453125 -1.3125,1.53125 0,0.109375 0.09375,0.109375 0.109375,0.109375 0.109375,0 0.109375,-0.03125 0.15625,-0.1875 0.25,-0.859375 0.640625,-1.234375 1.015625,-1.234375 0.09375,0 0.25,0.015625 0.25,0.328125 0,0.234375 -0.109375,0.53125 -0.171875,0.671875 -0.375,1 -0.578125,1.609375 -0.578125,2.09375 0,0.953125 0.6875,1.203125 1.21875,1.203125 0.65625,0 1.015625,-0.453125 1.1875,-0.671875 z m 0,0"
               style="stroke:none"
               inkscape:connector-curvature="0" />
          </symbol>
          <symbol
             id="textext-0f7e76ca-2"
             overflow="visible"
             style="overflow:visible">
            <path
               id="path4310"
               d=""
               style="stroke:none"
               inkscape:connector-curvature="0" />
          </symbol>
          <symbol
             id="textext-0f7e76ca-3"
             overflow="visible"
             style="overflow:visible">
            <path
               id="path4313"
               d="m 2.9375,-2.65625 c -0.140625,-0.234375 -0.375,-0.421875 -0.71875,-0.421875 -0.890625,0 -1.796875,0.984375 -1.796875,1.984375 0,0.6875 0.453125,1.15625 1.0625,1.15625 0.375,0 0.703125,-0.203125 0.984375,-0.484375 C 2.59375,0 3,0.0625 3.1875,0.0625 c 0.25,0 0.421875,-0.140625 0.546875,-0.359375 0.15625,-0.28125 0.25,-0.671875 0.25,-0.703125 0,-0.09375 -0.09375,-0.09375 -0.109375,-0.09375 -0.109375,0 -0.109375,0.03125 -0.15625,0.21875 C 3.625,-0.53125 3.5,-0.125 3.203125,-0.125 3.03125,-0.125 2.96875,-0.28125 2.96875,-0.46875 c 0,-0.109375 0.0625,-0.375 0.109375,-0.546875 0.046875,-0.1875 0.125,-0.46875 0.15625,-0.625 L 3.375,-2.171875 C 3.421875,-2.359375 3.5,-2.6875 3.5,-2.71875 3.5,-2.875 3.375,-2.9375 3.265625,-2.9375 c -0.125,0 -0.28125,0.078125 -0.328125,0.28125 z M 2.5,-0.875 C 2.453125,-0.671875 2.296875,-0.53125 2.140625,-0.40625 2.078125,-0.34375 1.796875,-0.125 1.5,-0.125 c -0.265625,0 -0.515625,-0.1875 -0.515625,-0.671875 0,-0.375 0.203125,-1.140625 0.375,-1.421875 0.3125,-0.5625 0.671875,-0.65625 0.859375,-0.65625 0.484375,0 0.625,0.53125 0.625,0.609375 0,0.015625 -0.015625,0.078125 -0.015625,0.09375 z m 0,0"
               style="stroke:none"
               inkscape:connector-curvature="0" />
          </symbol>
        </g>
      </defs>
      <g
         id="textext-0f7e76ca-4">
        <g
           id="g4316"
           style="fill:#000000;fill-opacity:1">
          <use
             id="use4318"
             y="134.765"
             x="223.43201"
             xlink:href="#textext-0f7e76ca-1"
             width="100%"
             height="100%" />
        </g>
        <g
           id="g4320"
           style="fill:#000000;fill-opacity:1">
          <use
             id="use4322"
             y="136.259"
             x="229.13499"
             xlink:href="#textext-0f7e76ca-3"
             width="100%"
             height="100%" />
        </g>
      </g>
    </g>
  </g>
</svg>
