<?xml version="1.0" encoding="utf-8"?>
<!-- Generator: Adobe Illustrator 21.1.0, SVG Export Plug-In . SVG Version: 6.00 Build 0)  -->
<svg version="1.1" id="Ebene_1" xmlns="http://www.w3.org/2000/svg" xmlns:xlink="http://www.w3.org/1999/xlink" x="0px" y="0px"
	 viewBox="0 0 504.8 285.6" style="enable-background:new 0 0 504.8 285.6;" xml:space="preserve">
<style type="text/css">
	.st0{clip-path:url(#SVGID_2_);}
	.st1{fill:#FFFFFF;}
	.st2{fill:none;stroke:#000000;stroke-miterlimit:10;}
	.st3{clip-path:url(#SVGID_2_);fill:none;stroke:#000000;stroke-miterlimit:10;}
	.st4{clip-path:url(#SVGID_4_);}
	.st5{clip-path:url(#SVGID_6_);}
	.st6{clip-path:url(#SVGID_8_);}
	.st7{clip-path:url(#SVGID_8_);fill:none;stroke:#000000;stroke-width:1.1144;stroke-miterlimit:10;}
	.st8{clip-path:url(#SVGID_10_);}
	.st9{clip-path:url(#SVGID_12_);}
	.st10{fill:none;stroke:#000000;stroke-miterlimit:10;stroke-dasharray:1.9588,1.9588;}
	.st11{fill:none;stroke:#000000;stroke-miterlimit:10;stroke-dasharray:2.0031,2.0031;}
</style>
<g>
	<defs>
		<rect id="SVGID_1_" width="504.8" height="285.6"/>
	</defs>
	<clipPath id="SVGID_2_">
		<use xlink:href="#SVGID_1_"  style="overflow:visible;"/>
	</clipPath>
	<g class="st0">
		<line class="st1" x1="21.7" y1="23" x2="21.7" y2="282.3"/>
		<g>
			<line class="st2" x1="21.7" y1="29" x2="21.7" y2="282.3"/>
			<g>
				<polygon points="18,31.8 21.7,30.2 25.4,31.8 21.7,23 				"/>
			</g>
		</g>
	</g>
	<g class="st0">
		<line class="st1" x1="3.7" y1="258.3" x2="418.4" y2="258.3"/>
		<g>
			<line class="st2" x1="3.7" y1="258.3" x2="412.4" y2="258.3"/>
			<g>
				<polygon points="409.6,262 411.2,258.3 409.6,254.6 418.4,258.3 				"/>
			</g>
		</g>
	</g>
	<circle class="st0" cx="92.7" cy="79.2" r="3.7"/>
	<circle class="st0" cx="137" cy="102.6" r="3.7"/>
	<circle class="st0" cx="108.8" cy="118.1" r="3.7"/>
	<circle class="st0" cx="121.5" cy="141.1" r="3.7"/>
	<circle class="st0" cx="112.4" cy="95.2" r="3.7"/>
	<circle class="st0" cx="91" cy="127.3" r="3.7"/>
	<circle class="st0" cx="271.5" cy="82.8" r="3.7"/>
	<circle class="st0" cx="289.5" cy="102.6" r="3.7"/>
	<circle class="st0" cx="239.4" cy="75.5" r="3.7"/>
	<circle class="st0" cx="137" cy="121.8" r="3.7"/>
	<circle class="st0" cx="89" cy="104.3" r="3.7"/>
	<circle class="st0" cx="116.1" cy="70.1" r="3.7"/>
	<circle class="st0" cx="293.1" cy="188.3" r="3.7"/>
	<circle class="st0" cx="314.9" cy="211.6" r="3.7"/>
	<circle class="st0" cx="225.1" cy="234.5" r="3.7"/>
	<circle class="st0" cx="253.1" cy="204.3" r="3.7"/>
	<circle class="st0" cx="300.7" cy="227.1" r="3.7"/>
	<rect x="246.7" y="171.2" class="st3" width="75.5" height="75.5"/>
	<g class="st0">
		<line class="st2" x1="279.1" y1="203.6" x2="289.8" y2="214.3"/>
		<line class="st2" x1="279.1" y1="214.3" x2="289.8" y2="203.6"/>
	</g>
	<g class="st0">
		<defs>
			<rect id="SVGID_3_" x="279.8" y="151.7" width="11.9" height="16.6"/>
		</defs>
		<clipPath id="SVGID_4_">
			<use xlink:href="#SVGID_3_"  style="overflow:visible;"/>
		</clipPath>
		<path class="st4" d="M285.6,152.6c0,0,0-0.2-0.3-0.2c-0.5,0-2.1,0.2-2.7,0.2c-0.2,0-0.4,0-0.4,0.4c0,0.3,0.2,0.3,0.5,0.3
			c1.1,0,1.1,0.1,1.1,0.4l-0.1,0.4l-3.2,12.8c-0.1,0.3-0.1,0.4-0.1,0.5c0,0.5,0.4,0.6,0.7,0.6c0.4,0,0.7-0.3,0.8-0.6l0.4-1.7l0.5-2
			c0.1-0.5,0.3-1,0.4-1.5c0-0.1,0.2-0.9,0.2-1c0.1-0.2,0.8-1.4,1.5-2c0.5-0.3,1.2-0.8,2.1-0.8c0.9,0,1.2,0.7,1.2,1.5
			c0,1.2-0.8,3.6-1.4,5c-0.2,0.5-0.3,0.8-0.3,1.2c0,1,0.8,1.8,1.8,1.8c2.1,0,2.9-3.2,2.9-3.4c0-0.2-0.2-0.2-0.3-0.2
			c-0.2,0-0.2,0.1-0.3,0.4c-0.3,1.2-1.1,2.7-2.3,2.7c-0.4,0-0.5-0.2-0.5-0.7c0-0.5,0.2-1.1,0.4-1.6c0.4-0.9,1.4-3.6,1.4-4.9
			c0-1.4-0.9-2.4-2.5-2.4c-1.4,0-2.5,0.7-3.3,1.7L285.6,152.6"/>
	</g>
	<g class="st0">
		<defs>
			<rect id="SVGID_5_" x="297.1" y="54.7" width="87.5" height="11.7"/>
		</defs>
		<clipPath id="SVGID_6_">
			<use xlink:href="#SVGID_5_"  style="overflow:visible;"/>
		</clipPath>
		<path class="st5" d="M301.1,65.9c-0.7,0-1.4-0.3-1.9-1.1c-0.4-0.7-0.4-1.7-0.4-2.3c0-0.6,0-1.5,0.4-2.3c0.4-0.8,1.2-1.1,1.9-1.1
			c0.7,0,1.4,0.4,1.8,1.1c0.4,0.7,0.4,1.7,0.4,2.3c0,0.6,0,1.5-0.4,2.2C302.7,65.4,301.9,65.9,301.1,65.9 M304.7,62.6
			c0-2.1-1.6-3.8-3.6-3.8c-2,0-3.6,1.8-3.6,3.8c0,2.1,1.7,3.7,3.6,3.7C303.1,66.3,304.7,64.7,304.7,62.6z"/>
		<path class="st5" d="M308.1,64.2v-3.4c0-0.3,0-0.3,0.2-0.6c0.6-0.9,1.5-1,1.9-1c0.8,0,1.3,0.4,1.7,1c0.4,0.7,0.5,1.6,0.5,2.3
			c0,0.6,0,1.6-0.5,2.3c-0.4,0.5-1,1.1-1.9,1.1c-0.7,0-1.3-0.4-1.7-1C308.1,64.6,308.1,64.5,308.1,64.2 M308.1,59.9v-5.2l-2.4,0.2
			v0.5c1.2,0,1.3,0.1,1.3,0.9v9.8h0.4c0,0,0.1-0.3,0.6-1c0.3,0.4,0.9,1.2,2.2,1.2c2,0,3.7-1.6,3.7-3.7c0-2.1-1.6-3.7-3.5-3.7
			C309,58.9,308.3,59.6,308.1,59.9z"/>
		<path class="st5" d="M317.7,62.9c0.4,0.1,1.7,0.3,1.7,1.5c0,0.8-0.6,1.5-1.9,1.5c-1.4,0-2-0.9-2.3-2.3c0-0.2-0.1-0.3-0.2-0.3
			c-0.2,0-0.2,0.1-0.2,0.4v2.2c0,0.3,0,0.4,0.2,0.4c0.1,0,0.1,0,0.4-0.3c0,0,0-0.1,0.3-0.4c0.7,0.7,1.5,0.7,1.8,0.7
			c1.9,0,2.6-1.1,2.6-2.3c0-0.9-0.5-1.4-0.7-1.6c-0.5-0.5-1.2-0.7-1.9-0.8c-0.9-0.2-2-0.4-2-1.4c0-0.6,0.4-1.2,1.8-1.2
			c1.8,0,1.9,1.5,1.9,2c0,0.1,0.2,0.1,0.2,0.1c0.2,0,0.2-0.1,0.2-0.4v-1.7c0-0.3,0-0.4-0.2-0.4c-0.1,0-0.1,0-0.3,0.2
			c0,0.1-0.2,0.2-0.3,0.3c-0.6-0.5-1.3-0.5-1.5-0.5c-2,0-2.6,1.1-2.6,2c0,0.6,0.3,1,0.7,1.4C316.1,62.6,316.6,62.7,317.7,62.9"/>
		<path class="st5" d="M322.6,62.3h4.6c0.4,0,0.4,0,0.4-0.3c0-1.6-0.9-3.2-2.9-3.2c-1.9,0-3.4,1.7-3.4,3.7c0,2.2,1.7,3.8,3.6,3.8
			c2,0,2.7-1.8,2.7-2.1c0-0.2-0.1-0.2-0.2-0.2c-0.1,0-0.2,0.1-0.2,0.2c-0.6,1.7-2.1,1.7-2.2,1.7c-0.8,0-1.5-0.5-1.9-1.1
			C322.6,64,322.6,62.9,322.6,62.3 M322.6,62c0.1-2.5,1.5-2.9,2-2.9c1.7,0,1.9,2.2,1.9,2.9H322.6z"/>
		<path class="st5" d="M330.8,60.7v-1.8l-2.3,0.2v0.5c1.2,0,1.3,0.1,1.3,0.9v4.4c0,0.8-0.2,0.8-1.3,0.8v0.5c0.6,0,1.4,0,1.9,0
			c0.7,0,1.4,0,2.1,0v-0.5h-0.3c-1.2,0-1.2-0.2-1.2-0.8v-2.5c0-1.6,0.7-3.1,1.9-3.1c0.1,0,0.1,0,0.2,0c0,0-0.4,0.2-0.4,0.6
			c0,0.5,0.3,0.7,0.7,0.7c0.3,0,0.7-0.2,0.7-0.7s-0.5-1-1.2-1C331.6,58.9,331,59.9,330.8,60.7"/>
		<path class="st5" d="M341.3,60.6c0.2-0.4,0.4-1.1,1.5-1.1V59c-0.4,0-0.9,0-1.2,0c-0.4,0-1.1,0-1.4,0v0.5c0.6,0,0.8,0.4,0.8,0.7
			c0,0.2,0,0.2-0.1,0.4l-1.7,4.2l-1.8-4.6c-0.1-0.2-0.1-0.2-0.1-0.3c0-0.4,0.6-0.4,0.9-0.4V59c-0.5,0-1.4,0-1.8,0
			c-0.4,0-1.1,0-1.6,0v0.5c1,0,1.1,0.1,1.3,0.6l2.4,5.8c0.1,0.2,0.1,0.3,0.4,0.3c0.2,0,0.3-0.2,0.3-0.3L341.3,60.6"/>
		<path class="st5" d="M347.5,62.2v1.6c0,1.6-1.2,2.1-1.9,2.1c-0.8,0-1.5-0.6-1.5-1.4C344.2,63.6,344.8,62.3,347.5,62.2 M347.7,64.9
			c0.1,0.7,0.5,1.4,1.3,1.4c0.3,0,1.3-0.2,1.3-1.6v-0.9h-0.4v0.9c0,1-0.4,1-0.6,1c-0.5,0-0.6-0.7-0.6-0.8v-3.3c0-0.7,0-1.3-0.6-1.9
			c-0.6-0.6-1.5-0.9-2.3-0.9c-1.3,0-2.5,0.8-2.5,1.8c0,0.5,0.3,0.8,0.8,0.8c0.5,0,0.8-0.3,0.8-0.8c0-0.2-0.1-0.7-0.8-0.8
			c0.4-0.6,1.2-0.8,1.8-0.8c0.8,0,1.7,0.6,1.7,2.1v0.6c-0.8,0-2,0.1-3,0.6c-1.2,0.6-1.6,1.4-1.6,2.1c0,1.3,1.6,1.8,2.6,1.8
			C346.6,66.3,347.4,65.6,347.7,64.9z"/>
		<path class="st5" d="M353.2,59.5h2.3V59h-2.3v-3h-0.4c0,1.3-0.5,3.1-2.1,3.2v0.4h1.4v4.5c0,2,1.5,2.2,2.1,2.2
			c1.2,0,1.6-1.2,1.6-2.2v-0.9h-0.4V64c0,1.2-0.5,1.8-1.1,1.8c-1.1,0-1.1-1.5-1.1-1.8V59.5"/>
		<path class="st5" d="M359.7,56c0-0.5-0.4-0.9-0.9-0.9c-0.5,0-0.9,0.4-0.9,0.9c0,0.5,0.4,0.9,0.9,0.9
			C359.3,56.9,359.7,56.5,359.7,56 M359.7,58.9l-2.3,0.2v0.5c1.1,0,1.2,0.1,1.2,0.9v4.4c0,0.8-0.2,0.8-1.3,0.8v0.5
			c0.5,0,1.4,0,1.8,0c0.6,0,1.1,0,1.7,0v-0.5c-1.1,0-1.2-0.1-1.2-0.7V58.9z"/>
		<path class="st5" d="M365.4,65.9c-0.7,0-1.4-0.3-1.9-1.1c-0.4-0.7-0.4-1.7-0.4-2.3c0-0.6,0-1.5,0.4-2.3c0.5-0.8,1.2-1.1,1.9-1.1
			c0.7,0,1.4,0.4,1.9,1.1c0.4,0.7,0.4,1.7,0.4,2.3c0,0.6,0,1.5-0.4,2.2C366.9,65.4,366.2,65.9,365.4,65.9 M369,62.6
			c0-2.1-1.6-3.8-3.6-3.8c-2,0-3.6,1.8-3.6,3.8c0,2.1,1.7,3.7,3.6,3.7C367.4,66.3,369,64.7,369,62.6z"/>
		<path class="st5" d="M371.3,60.5v4.4c0,0.8-0.2,0.8-1.3,0.8v0.5c0.6,0,1.4,0,1.9,0c0.4,0,1.3,0,1.8,0v-0.5c-1.1,0-1.3,0-1.3-0.8
			v-3c0-1.7,1.2-2.6,2.2-2.6c1,0,1.2,0.9,1.2,1.8v3.8c0,0.8-0.2,0.8-1.3,0.8v0.5c0.6,0,1.4,0,1.9,0c0.4,0,1.3,0,1.8,0v-0.5
			c-0.8,0-1.3,0-1.3-0.5V62c0-1.4,0-1.9-0.5-2.5c-0.2-0.3-0.8-0.6-1.7-0.6c-1.2,0-2,0.7-2.4,1.7v-1.7L370,59v0.5
			C371.2,59.5,371.3,59.7,371.3,60.5"/>
		<path class="st5" d="M382,62.9c0.4,0.1,1.7,0.3,1.7,1.5c0,0.8-0.6,1.5-1.9,1.5c-1.4,0-2-0.9-2.3-2.3c0-0.2-0.1-0.3-0.2-0.3
			c-0.2,0-0.2,0.1-0.2,0.4v2.2c0,0.3,0,0.4,0.2,0.4c0.1,0,0.1,0,0.4-0.3c0,0,0-0.1,0.3-0.4c0.7,0.7,1.5,0.7,1.8,0.7
			c1.9,0,2.7-1.1,2.7-2.3c0-0.9-0.5-1.4-0.7-1.6c-0.5-0.5-1.2-0.7-1.9-0.8c-0.9-0.2-2-0.4-2-1.4c0-0.6,0.4-1.2,1.8-1.2
			c1.8,0,1.9,1.5,1.9,2c0,0.1,0.2,0.1,0.2,0.1c0.2,0,0.2-0.1,0.2-0.4v-1.7c0-0.3,0-0.4-0.2-0.4c-0.1,0-0.1,0-0.3,0.2
			c0,0.1-0.2,0.2-0.3,0.3c-0.6-0.5-1.3-0.5-1.5-0.5c-2,0-2.6,1.1-2.6,2c0,0.6,0.3,1,0.7,1.4C380.4,62.6,380.8,62.7,382,62.9"/>
	</g>
	<g class="st0">
		<defs>
			<rect id="SVGID_7_" x="337.8" y="147.3" width="163.2" height="35.2"/>
		</defs>
		<clipPath id="SVGID_8_">
			<use xlink:href="#SVGID_7_"  style="overflow:visible;"/>
		</clipPath>
		<path class="st6" d="M339.4,155.5h4.6c0.4,0,0.4,0,0.4-0.3c0-1.6-0.9-3.2-2.9-3.2c-1.9,0-3.4,1.7-3.4,3.7c0,2.2,1.7,3.8,3.6,3.8
			c2,0,2.8-1.8,2.8-2.1c0-0.2-0.1-0.2-0.2-0.2c-0.2,0-0.2,0.1-0.2,0.2c-0.6,1.7-2,1.7-2.2,1.7c-0.8,0-1.5-0.5-1.8-1.1
			C339.4,157.2,339.4,156.1,339.4,155.5 M339.4,155.2c0.1-2.5,1.5-2.9,2-2.9c1.7,0,1.8,2.2,1.8,2.9H339.4z"/>
		<path class="st6" d="M348.2,156.1c0.4,0.1,1.7,0.3,1.7,1.5c0,0.8-0.6,1.5-1.8,1.5c-1.4,0-2-0.9-2.3-2.3c0-0.2-0.1-0.3-0.2-0.3
			c-0.2,0-0.2,0.1-0.2,0.4v2.2c0,0.3,0,0.4,0.2,0.4c0.1,0,0.1,0,0.4-0.3c0,0,0-0.1,0.3-0.4c0.7,0.7,1.5,0.7,1.8,0.7
			c1.9,0,2.6-1.1,2.6-2.3c0-0.9-0.5-1.4-0.7-1.6c-0.5-0.5-1.2-0.7-1.9-0.8c-0.9-0.2-2-0.4-2-1.3c0-0.6,0.4-1.3,1.8-1.3
			c1.8,0,1.9,1.5,1.9,2c0,0.2,0.2,0.2,0.2,0.2c0.2,0,0.2-0.1,0.2-0.4v-1.7c0-0.3,0-0.4-0.2-0.4c-0.1,0-0.1,0-0.3,0.2
			c0,0.1-0.2,0.2-0.3,0.3c-0.6-0.5-1.3-0.5-1.5-0.5c-2,0-2.6,1.1-2.6,2c0,0.6,0.3,1,0.7,1.4C346.6,155.8,347.1,155.9,348.2,156.1"/>
		<path class="st6" d="M354.1,152.7h2.3v-0.5h-2.3v-3h-0.4c0,1.3-0.5,3.1-2.1,3.2v0.4h1.4v4.5c0,2,1.5,2.2,2.1,2.2
			c1.2,0,1.6-1.2,1.6-2.2v-0.9h-0.4v0.9c0,1.2-0.5,1.8-1.1,1.8c-1.1,0-1.1-1.5-1.1-1.8V152.7"/>
		<path class="st6" d="M360.6,149.2c0-0.5-0.4-0.9-0.9-0.9c-0.5,0-0.9,0.4-0.9,0.9c0,0.4,0.4,0.9,0.9,0.9
			C360.2,150.1,360.6,149.7,360.6,149.2 M360.6,152l-2.3,0.2v0.5c1.1,0,1.2,0.1,1.2,0.9v4.4c0,0.7-0.2,0.7-1.3,0.7v0.5
			c0.5,0,1.4-0.1,1.8-0.1c0.6,0,1.2,0,1.7,0.1v-0.5c-1.1,0-1.2-0.1-1.2-0.7V152z"/>
		<path class="st6" d="M364,153.7v4.4c0,0.7-0.2,0.7-1.3,0.7v0.5c0.6,0,1.4-0.1,1.9-0.1c0.4,0,1.3,0,1.8,0.1v-0.5
			c-1.1,0-1.3,0-1.3-0.7v-3c0-1.7,1.2-2.6,2.2-2.6c1,0,1.2,0.9,1.2,1.8v3.8c0,0.7-0.2,0.7-1.3,0.7v0.5c0.6,0,1.4-0.1,1.9-0.1
			c0.4,0,1.3,0,1.8,0.1v-0.5c-1.1,0-1.3,0-1.3-0.7v-3c0-1.7,1.2-2.6,2.2-2.6c1,0,1.2,0.9,1.2,1.8v3.8c0,0.7-0.2,0.7-1.3,0.7v0.5
			c0.6,0,1.4-0.1,1.9-0.1c0.4,0,1.3,0,1.8,0.1v-0.5c-0.8,0-1.3,0-1.3-0.5v-3.1c0-1.4,0-1.9-0.5-2.5c-0.2-0.3-0.8-0.6-1.7-0.6
			c-1.4,0-2.1,1-2.4,1.6c-0.2-1.4-1.4-1.6-2.2-1.6c-1.2,0-2,0.7-2.4,1.7V152l-2.3,0.2v0.5C363.9,152.7,364,152.9,364,153.7"/>
		<path class="st6" d="M381.2,155.4v1.7c0,1.5-1.2,2.1-1.9,2.1c-0.8,0-1.5-0.6-1.5-1.4C377.8,156.8,378.5,155.5,381.2,155.4
			 M381.3,158.1c0.1,0.7,0.5,1.3,1.3,1.3c0.3,0,1.3-0.2,1.3-1.6v-0.9h-0.4v0.9c0,1-0.4,1-0.6,1c-0.5,0-0.6-0.7-0.6-0.8v-3.3
			c0-0.7,0-1.3-0.6-1.9c-0.6-0.6-1.5-0.9-2.2-0.9c-1.4,0-2.5,0.8-2.5,1.9c0,0.5,0.3,0.8,0.8,0.8c0.5,0,0.8-0.3,0.8-0.8
			c0-0.2-0.1-0.8-0.8-0.8c0.4-0.6,1.3-0.8,1.8-0.8c0.8,0,1.8,0.6,1.8,2.1v0.6c-0.8,0.1-2,0.1-3,0.6c-1.2,0.6-1.6,1.4-1.6,2.1
			c0,1.3,1.6,1.7,2.6,1.7C380.3,159.5,381,158.8,381.3,158.1z"/>
		<path class="st6" d="M386.9,152.7h2.3v-0.5h-2.3v-3h-0.4c0,1.3-0.5,3.1-2.1,3.2v0.4h1.4v4.5c0,2,1.5,2.2,2.1,2.2
			c1.2,0,1.6-1.2,1.6-2.2v-0.9h-0.4v0.9c0,1.2-0.5,1.8-1.1,1.8c-1.1,0-1.1-1.5-1.1-1.8V152.7"/>
		<path class="st6" d="M392.2,155.5h4.6c0.4,0,0.4,0,0.4-0.3c0-1.6-0.9-3.2-2.9-3.2c-1.9,0-3.4,1.7-3.4,3.7c0,2.2,1.7,3.8,3.6,3.8
			c2,0,2.8-1.8,2.8-2.1c0-0.2-0.1-0.2-0.2-0.2c-0.2,0-0.2,0.1-0.2,0.2c-0.6,1.7-2,1.7-2.2,1.7c-0.8,0-1.5-0.5-1.8-1.1
			C392.2,157.2,392.2,156.1,392.2,155.5 M392.3,155.2c0.1-2.5,1.5-2.9,2-2.9c1.7,0,1.8,2.2,1.8,2.9H392.3z"/>
		<path class="st6" d="M407.3,159.1c-0.7,0-1.4-0.3-1.9-1.1c-0.4-0.7-0.4-1.7-0.4-2.3c0-0.6,0-1.5,0.4-2.3c0.5-0.8,1.2-1.1,1.9-1.1
			c0.7,0,1.4,0.4,1.9,1.1c0.4,0.7,0.4,1.7,0.4,2.3c0,0.6,0,1.5-0.4,2.2C408.8,158.6,408.1,159.1,407.3,159.1 M410.9,155.8
			c0-2.1-1.6-3.8-3.6-3.8c-2,0-3.6,1.8-3.6,3.8c0,2.1,1.7,3.7,3.6,3.7C409.2,159.5,410.9,157.9,410.9,155.8z"/>
		<path class="st6" d="M414.2,152.2v-1.9c0-1.4,0.8-2.2,1.5-2.2c0,0,0.3,0,0.5,0.1c-0.2,0.1-0.5,0.3-0.5,0.7c0,0.4,0.3,0.7,0.7,0.7
			c0.5,0,0.7-0.3,0.7-0.7c0-0.6-0.6-1.2-1.5-1.2c-1.1,0-2.5,0.9-2.5,2.6v1.9h-1.3v0.5h1.3v5.3c0,0.7-0.2,0.7-1.3,0.7v0.5
			c0.6,0,1.4-0.1,1.9-0.1c0.7,0,1.4,0,2.1,0.1v-0.5h-0.4c-1.2,0-1.2-0.2-1.2-0.8v-5.3h1.9v-0.5H414.2"/>
		<path class="st6" d="M424.7,152.7h2.3v-0.5h-2.3v-3h-0.4c0,1.3-0.5,3.1-2.1,3.2v0.4h1.4v4.5c0,2,1.5,2.2,2.1,2.2
			c1.2,0,1.6-1.2,1.6-2.2v-0.9h-0.4v0.9c0,1.2-0.5,1.8-1.1,1.8c-1.1,0-1.1-1.5-1.1-1.8V152.7"/>
		<path class="st6" d="M430,158.1c0,0.7-0.2,0.7-1.3,0.7v0.5c0.6,0,1.4-0.1,1.9-0.1c0.4,0,1.3,0,1.8,0.1v-0.5c-1.1,0-1.3,0-1.3-0.7
			v-3c0-1.7,1.2-2.6,2.2-2.6c1,0,1.2,0.9,1.2,1.8v3.8c0,0.7-0.2,0.7-1.3,0.7v0.5c0.6,0,1.4-0.1,1.9-0.1c0.4,0,1.3,0,1.8,0.1v-0.5
			c-0.8,0-1.3,0-1.3-0.5v-3.1c0-1.4,0-1.9-0.5-2.5c-0.2-0.3-0.8-0.6-1.7-0.6c-1.4,0-2.1,1-2.4,1.6v-5.7l-2.4,0.2v0.5
			c1.2,0,1.3,0.1,1.3,0.9V158.1"/>
		<path class="st6" d="M439.1,155.5h4.6c0.4,0,0.4,0,0.4-0.3c0-1.6-0.9-3.2-2.9-3.2c-1.9,0-3.4,1.7-3.4,3.7c0,2.2,1.7,3.8,3.6,3.8
			c2,0,2.7-1.8,2.7-2.1c0-0.2-0.1-0.2-0.2-0.2c-0.2,0-0.2,0.1-0.2,0.2c-0.6,1.7-2,1.7-2.2,1.7c-0.8,0-1.5-0.5-1.8-1.1
			C439.1,157.2,439.1,156.1,439.1,155.5 M439.1,155.2c0.1-2.5,1.5-2.9,2-2.9c1.7,0,1.9,2.2,1.9,2.9H439.1z"/>
		<path class="st6" d="M456.2,154v3.4c0,0.3,0,0.3-0.2,0.6c-0.5,0.8-1.2,1.2-1.9,1.2c-0.7,0-1.3-0.4-1.7-1c-0.4-0.7-0.5-1.6-0.5-2.3
			c0-0.6,0-1.6,0.5-2.3c0.3-0.5,1-1.1,1.9-1.1c0.6,0,1.3,0.3,1.8,1C456.2,153.7,456.2,153.7,456.2,154 M456.2,158.4v1.1l2.4-0.2
			v-0.5c-1.1,0-1.3-0.1-1.3-0.9v-10l-2.4,0.2v0.5c1.1,0,1.3,0.1,1.3,0.9v3.5c-0.5-0.6-1.2-1-2.1-1c-1.9,0-3.7,1.6-3.7,3.7
			c0,2.1,1.6,3.7,3.5,3.7C455.1,159.5,455.8,158.9,456.2,158.4z"/>
		<path class="st6" d="M460.9,155.5h4.6c0.4,0,0.4,0,0.4-0.3c0-1.6-0.9-3.2-2.9-3.2c-1.9,0-3.4,1.7-3.4,3.7c0,2.2,1.7,3.8,3.6,3.8
			c2,0,2.8-1.8,2.8-2.1c0-0.2-0.1-0.2-0.2-0.2c-0.2,0-0.2,0.1-0.2,0.2c-0.6,1.7-2,1.7-2.2,1.7c-0.8,0-1.5-0.5-1.8-1.1
			C460.9,157.2,460.9,156.1,460.9,155.5 M460.9,155.2c0.1-2.5,1.5-2.9,2-2.9c1.7,0,1.8,2.2,1.8,2.9H460.9z"/>
		<path class="st6" d="M468.2,153.7v4.4c0,0.7-0.2,0.7-1.3,0.7v0.5c0.6,0,1.4-0.1,1.9-0.1c0.4,0,1.3,0,1.8,0.1v-0.5
			c-1.1,0-1.3,0-1.3-0.7v-3c0-1.7,1.2-2.6,2.2-2.6c1,0,1.2,0.9,1.2,1.8v3.8c0,0.7-0.2,0.7-1.3,0.7v0.5c0.6,0,1.4-0.1,1.9-0.1
			c0.4,0,1.3,0,1.8,0.1v-0.5c-0.8,0-1.3,0-1.3-0.5v-3.1c0-1.4,0-1.9-0.5-2.5c-0.2-0.3-0.8-0.6-1.7-0.6c-1.2,0-2,0.7-2.4,1.7V152
			l-2.3,0.2v0.5C468,152.7,468.2,152.9,468.2,153.7"/>
		<path class="st6" d="M478.9,156.1c0.4,0.1,1.7,0.3,1.7,1.5c0,0.8-0.6,1.5-1.9,1.5c-1.4,0-2-0.9-2.3-2.3c0-0.2-0.1-0.3-0.2-0.3
			c-0.2,0-0.2,0.1-0.2,0.4v2.2c0,0.3,0,0.4,0.2,0.4c0.1,0,0.1,0,0.4-0.3c0,0,0-0.1,0.3-0.4c0.7,0.7,1.5,0.7,1.8,0.7
			c1.9,0,2.7-1.1,2.7-2.3c0-0.9-0.5-1.4-0.7-1.6c-0.5-0.5-1.2-0.7-1.9-0.8c-0.9-0.2-2-0.4-2-1.3c0-0.6,0.4-1.3,1.8-1.3
			c1.8,0,1.9,1.5,1.9,2c0,0.2,0.2,0.2,0.2,0.2c0.2,0,0.2-0.1,0.2-0.4v-1.7c0-0.3,0-0.4-0.2-0.4c-0.1,0-0.1,0-0.3,0.2
			c0,0.1-0.2,0.2-0.3,0.3c-0.6-0.5-1.3-0.5-1.5-0.5c-2,0-2.6,1.1-2.6,2c0,0.6,0.3,1,0.7,1.4C477.3,155.8,477.7,155.9,478.9,156.1"/>
		<path class="st6" d="M484.9,149.2c0-0.5-0.4-0.9-0.9-0.9c-0.5,0-0.9,0.4-0.9,0.9c0,0.4,0.4,0.9,0.9,0.9
			C484.5,150.1,484.9,149.7,484.9,149.2 M484.8,152l-2.3,0.2v0.5c1.1,0,1.2,0.1,1.2,0.9v4.4c0,0.7-0.2,0.7-1.3,0.7v0.5
			c0.5,0,1.4-0.1,1.8-0.1c0.6,0,1.1,0,1.7,0.1v-0.5c-1.1,0-1.2-0.1-1.2-0.7V152z"/>
		<path class="st6" d="M489.3,152.7h2.4v-0.5h-2.4v-3h-0.4c0,1.3-0.5,3.1-2.1,3.2v0.4h1.4v4.5c0,2,1.5,2.2,2.1,2.2
			c1.2,0,1.6-1.2,1.6-2.2v-0.9h-0.4v0.9c0,1.2-0.5,1.8-1.1,1.8c-1.1,0-1.1-1.5-1.1-1.8V152.7"/>
		<path class="st6" d="M499.2,153.8c0.4-1,1.3-1.1,1.5-1.1v-0.5c-0.4,0-0.9,0-1.2,0c-0.3,0-1.1,0-1.4,0v0.5c0.5,0,0.8,0.3,0.8,0.7
			c0,0.2,0,0.2-0.1,0.4l-1.7,4l-1.8-4.4c-0.1-0.2-0.1-0.2-0.1-0.3c0-0.4,0.6-0.4,0.9-0.4v-0.5c-0.4,0-1.5,0-1.8,0
			c-0.4,0-1.1,0-1.6,0v0.5c0.8,0,1.1,0,1.3,0.6l2.5,6c-0.1,0.2-0.3,0.8-0.4,1c-0.4,0.9-0.8,2-1.9,2c-0.1,0-0.5,0-0.8-0.3
			c0.5-0.1,0.6-0.4,0.6-0.7c0-0.4-0.3-0.7-0.7-0.7c-0.3,0-0.7,0.2-0.7,0.7c0,0.7,0.7,1.3,1.5,1.3c1,0,1.7-0.9,2.1-1.9L499.2,153.8"
			/>
		<path class="st6" d="M360.1,175v1.6c0,1.5-1.2,2.1-1.9,2.1c-0.8,0-1.5-0.6-1.5-1.4C356.7,176.5,357.4,175.1,360.1,175
			 M360.2,177.7c0.1,0.7,0.5,1.3,1.3,1.3c0.3,0,1.3-0.2,1.3-1.6v-0.9h-0.4v0.9c0,1-0.4,1-0.6,1c-0.5,0-0.6-0.7-0.6-0.8v-3.3
			c0-0.7,0-1.3-0.6-1.9c-0.6-0.6-1.5-0.9-2.2-0.9c-1.4,0-2.5,0.8-2.5,1.9c0,0.5,0.3,0.8,0.8,0.8c0.5,0,0.8-0.3,0.8-0.8
			c0-0.2-0.1-0.7-0.8-0.8c0.4-0.6,1.3-0.8,1.8-0.8c0.8,0,1.8,0.6,1.8,2.1v0.6c-0.8,0-2,0.1-3,0.6c-1.2,0.6-1.7,1.4-1.7,2.1
			c0,1.3,1.6,1.7,2.6,1.7C359.1,179.1,359.9,178.5,360.2,177.7z"/>
		<path class="st6" d="M365.8,172.4h2.3v-0.5h-2.3v-3h-0.4c0,1.3-0.5,3.1-2.1,3.2v0.4h1.4v4.5c0,2,1.5,2.2,2.1,2.2
			c1.2,0,1.6-1.2,1.6-2.2V176H368v0.9c0,1.2-0.5,1.8-1.1,1.8c-1.1,0-1.1-1.5-1.1-1.8V172.4"/>
		<path class="st6" d="M380.1,175v1.6c0,1.5-1.2,2.1-1.9,2.1c-0.8,0-1.5-0.6-1.5-1.4C376.7,176.5,377.4,175.1,380.1,175
			 M380.2,177.7c0.1,0.7,0.5,1.3,1.3,1.3c0.3,0,1.3-0.2,1.3-1.6v-0.9h-0.4v0.9c0,1-0.4,1-0.6,1c-0.5,0-0.6-0.7-0.6-0.8v-3.3
			c0-0.7,0-1.3-0.6-1.9c-0.6-0.6-1.5-0.9-2.3-0.9c-1.3,0-2.5,0.8-2.5,1.9c0,0.5,0.3,0.8,0.8,0.8c0.5,0,0.8-0.3,0.8-0.8
			c0-0.2-0.1-0.7-0.8-0.8c0.4-0.6,1.2-0.8,1.8-0.8c0.8,0,1.7,0.6,1.7,2.1v0.6c-0.8,0-2,0.1-3,0.6c-1.2,0.6-1.6,1.4-1.6,2.1
			c0,1.3,1.6,1.7,2.6,1.7C379.2,179.1,379.9,178.5,380.2,177.7z"/>
		<path class="st6" d="M392.5,182c-1.7,0-2.8-0.8-2.8-1.7c0-0.8,0.6-1.4,1.3-1.4h1c1.4,0,3.3,0,3.3,1.4
			C395.3,181.1,394.2,182,392.5,182 M390.2,176.8c0-0.1,0-0.4,0.3-0.8c0.6,0.5,1.3,0.5,1.6,0.5c1.5,0,2.7-1.1,2.7-2.4
			c0-0.6-0.3-1.2-0.7-1.6c0.6-0.6,1.2-0.6,1.5-0.6c0,0,0.1,0,0.2,0c-0.2,0.1-0.3,0.3-0.3,0.4c0,0.3,0.2,0.5,0.5,0.5
			c0.2,0,0.5-0.1,0.5-0.5c0-0.3-0.2-0.8-0.8-0.8c-0.3,0-1,0.1-1.7,0.8c-0.7-0.5-1.4-0.6-1.8-0.6c-1.5,0-2.7,1.1-2.7,2.4
			c0,0.7,0.4,1.3,0.8,1.7c-0.2,0.3-0.5,0.8-0.5,1.4c0,0.5,0.2,1.1,0.7,1.5c-1,0.3-1.5,1-1.5,1.6c0,1.2,1.6,2.1,3.6,2.1
			c1.9,0,3.6-0.8,3.6-2.1c0-0.6-0.2-1.4-1.1-1.9c-0.9-0.5-1.8-0.5-2.8-0.5c-0.4,0-1.1,0-1.2,0C390.5,177.8,390.2,177.3,390.2,176.8z
			 M392.1,176.1c-1.4,0-1.4-1.6-1.4-2c0-0.5,0-1,0.3-1.4c0.1-0.2,0.5-0.7,1.2-0.7c1.4,0,1.4,1.6,1.4,2c0,0.4,0,1-0.3,1.4
			C393.1,175.7,392.7,176.1,392.1,176.1z"/>
		<path class="st6" d="M399.6,168.9c0-0.5-0.4-0.9-0.9-0.9c-0.5,0-0.9,0.4-0.9,0.9c0,0.4,0.4,0.9,0.9,0.9
			C399.2,169.7,399.6,169.4,399.6,168.9 M399.5,171.7l-2.3,0.2v0.5c1.1,0,1.2,0.1,1.2,0.9v4.4c0,0.7-0.2,0.7-1.3,0.7v0.5
			c0.5,0,1.4-0.1,1.8-0.1c0.6,0,1.2,0,1.7,0.1v-0.5c-1.1,0-1.1-0.1-1.1-0.7V171.7z"/>
		<path class="st6" d="M408,173.5c0.1-0.4,0.4-1.1,1.5-1.1v-0.5c-0.4,0-0.9,0-1.2,0c-0.4,0-1.2,0-1.4,0v0.5c0.6,0,0.8,0.4,0.8,0.7
			c0,0.1,0,0.2-0.1,0.4l-1.7,4.2l-1.8-4.6c-0.1-0.2-0.1-0.3-0.1-0.3c0-0.4,0.6-0.4,0.9-0.4v-0.5c-0.5,0-1.4,0-1.8,0
			c-0.5,0-1.1,0-1.6,0v0.5c1,0,1.1,0.1,1.3,0.6l2.4,5.8c0.1,0.2,0.1,0.3,0.3,0.3c0.2,0,0.3-0.1,0.3-0.3L408,173.5"/>
		<path class="st6" d="M411.2,175.2h4.6c0.4,0,0.4,0,0.4-0.3c0-1.6-0.9-3.2-2.9-3.2c-1.9,0-3.4,1.7-3.4,3.8c0,2.2,1.7,3.8,3.6,3.8
			c2,0,2.8-1.8,2.8-2.1c0-0.2-0.1-0.2-0.2-0.2c-0.1,0-0.2,0.1-0.2,0.2c-0.6,1.7-2.1,1.7-2.2,1.7c-0.8,0-1.5-0.5-1.9-1.1
			C411.2,176.8,411.2,175.8,411.2,175.2 M411.2,174.8c0.1-2.5,1.5-2.9,2-2.9c1.7,0,1.9,2.2,1.9,2.9H411.2z"/>
		<path class="st6" d="M418.4,173.3v4.4c0,0.7-0.2,0.7-1.3,0.7v0.5c0.6,0,1.4-0.1,1.9-0.1c0.4,0,1.3,0,1.8,0.1v-0.5
			c-1.1,0-1.3,0-1.3-0.7v-3c0-1.7,1.2-2.6,2.2-2.6s1.2,0.9,1.2,1.8v3.8c0,0.7-0.2,0.7-1.3,0.7v0.5c0.6,0,1.4-0.1,1.9-0.1
			c0.4,0,1.3,0,1.8,0.1v-0.5c-0.9,0-1.3,0-1.3-0.5v-3.1c0-1.4,0-1.9-0.5-2.5c-0.2-0.3-0.8-0.6-1.7-0.6c-1.2,0-2,0.7-2.4,1.7v-1.7
			l-2.3,0.2v0.5C418.3,172.4,418.4,172.5,418.4,173.3"/>
		<path class="st6" d="M434,177.1v-3.7c0.5-0.8,1.3-1.3,2.1-1.3c1.2,0,2.2,1.4,2.2,3.3c0,2-1.1,3.4-2.4,3.4c-0.7,0-1.3-0.3-1.7-1
			C434,177.4,434,177.4,434,177.1 M434,172.8v-1.1l-2.4,0.2v0.5c1.2,0,1.3,0.1,1.3,0.8v7.7c0,0.7-0.2,0.7-1.3,0.7v0.5
			c0.6,0,1.4,0,1.8,0c0.4,0,1.3,0,1.9,0v-0.5c-1.1,0-1.3,0-1.3-0.7V178c0.1,0.3,0.8,1.1,2,1.1c2,0,3.7-1.6,3.7-3.7
			c0-2.1-1.6-3.7-3.4-3.7C435,171.7,434.3,172.4,434,172.8z"/>
		<path class="st6" d="M444.8,178.7c-0.7,0-1.4-0.3-1.9-1.1c-0.4-0.7-0.4-1.7-0.4-2.3c0-0.6,0-1.5,0.4-2.2c0.4-0.8,1.2-1.1,1.9-1.1
			c0.7,0,1.4,0.4,1.8,1.1c0.4,0.7,0.4,1.7,0.4,2.3c0,0.6,0,1.5-0.4,2.2C446.4,178.3,445.7,178.7,444.8,178.7 M448.5,175.5
			c0-2.1-1.6-3.8-3.6-3.8c-2.1,0-3.6,1.8-3.6,3.8c0,2.1,1.7,3.7,3.6,3.7C446.8,179.1,448.5,177.5,448.5,175.5z"/>
		<path class="st6" d="M451.9,168.9c0-0.5-0.4-0.9-0.9-0.9c-0.5,0-0.9,0.4-0.9,0.9c0,0.4,0.4,0.9,0.9,0.9
			C451.5,169.7,451.9,169.4,451.9,168.9 M451.8,171.7l-2.3,0.2v0.5c1.1,0,1.2,0.1,1.2,0.9v4.4c0,0.7-0.2,0.7-1.3,0.7v0.5
			c0.5,0,1.4-0.1,1.8-0.1c0.6,0,1.2,0,1.7,0.1v-0.5c-1.1,0-1.2-0.1-1.2-0.7V171.7z"/>
		<path class="st6" d="M455.3,173.3v4.4c0,0.7-0.2,0.7-1.3,0.7v0.5c0.6,0,1.4-0.1,1.8-0.1c0.4,0,1.3,0,1.8,0.1v-0.5
			c-1.1,0-1.3,0-1.3-0.7v-3c0-1.7,1.2-2.6,2.2-2.6c1,0,1.2,0.9,1.2,1.8v3.8c0,0.7-0.2,0.7-1.3,0.7v0.5c0.6,0,1.4-0.1,1.8-0.1
			c0.4,0,1.3,0,1.8,0.1v-0.5c-0.9,0-1.3,0-1.3-0.5v-3.1c0-1.4,0-1.9-0.5-2.5c-0.2-0.3-0.8-0.6-1.7-0.6c-1.2,0-2,0.7-2.4,1.7v-1.7
			l-2.3,0.2v0.5C455.1,172.4,455.3,172.5,455.3,173.3"/>
		<path class="st6" d="M464.9,172.4h2.3v-0.5h-2.3v-3h-0.4c0,1.3-0.5,3.1-2.1,3.2v0.4h1.4v4.5c0,2,1.5,2.2,2.1,2.2
			c1.2,0,1.6-1.2,1.6-2.2V176h-0.4v0.9c0,1.2-0.5,1.8-1.1,1.8c-1.1,0-1.1-1.5-1.1-1.8V172.4"/>
		<path class="st6" d="M479.6,174.9l1.9-2.1c0.2-0.2,0.3-0.3,1.7-0.3v-0.8c-0.6,0-1.4,0.1-1.5,0.1c-0.4,0-1.2,0-1.7-0.1v0.8
			c0.2,0,0.4,0,0.6,0.1c-0.1,0.1-0.1,0.1-0.1,0.2l-1.4,1.5l-1.6-1.9h0.7v-0.8c-0.4,0-1.5,0.1-2,0.1c-0.5,0-1.3,0-1.8-0.1v0.8h1.2
			l2.6,3l-2.2,2.4c-0.3,0.3-0.9,0.3-1.7,0.3v0.8c0.6,0,1.4-0.1,1.5-0.1c0.4,0,1.4,0,1.7,0.1v-0.8c-0.3,0-0.6-0.1-0.6-0.2
			c0,0,0,0,0.1-0.2l1.6-1.8l1.8,2.1h-0.6v0.8c0.4,0,1.4-0.1,2-0.1c0.5,0,1.3,0,1.8,0.1v-0.8h-1.2L479.6,174.9"/>
		<line class="st7" x1="473.9" y1="181.3" x2="483.8" y2="181.3"/>
	</g>
	<g class="st0">
		<defs>
			<rect id="SVGID_9_" x="9.7" y="4.6" width="19.8" height="13.5"/>
		</defs>
		<clipPath id="SVGID_10_">
			<use xlink:href="#SVGID_9_"  style="overflow:visible;"/>
		</clipPath>
		<path class="st8" d="M16.2,9c0.7-0.8,1.5-1.9,2-2.5c0.7-0.8,1.6-1.1,2.6-1.1V4.6c-0.6,0-1.2,0.1-1.8,0.1c-0.7,0-1.9,0-2.1-0.1v0.7
			c0.5,0,0.6,0.3,0.6,0.7c0,0.4-0.2,0.7-0.3,0.8l-1.4,1.7l-1.7-2.2C13.9,6,13.9,6,13.9,5.9c0-0.3,0.3-0.5,0.8-0.5V4.6
			c-0.6,0-2,0.1-2.4,0.1c-0.5,0-1.5,0-2.1-0.1v0.7c1.5,0,1.6,0,2.6,1.3L15,9.5l-2.1,2.6c-1.1,1.3-2.4,1.3-2.8,1.3v0.7
			c0.6,0,1.3-0.1,1.9-0.1c0.6,0,1.6,0,2.1,0.1v-0.7c-0.5-0.1-0.6-0.3-0.6-0.7c0-0.5,0.6-1.2,2-2.8l1.7,2.2c0.2,0.2,0.5,0.6,0.5,0.7
			c0,0.2-0.2,0.5-0.8,0.5v0.7c0.7,0,1.9-0.1,2.4-0.1c0.6,0,1.5,0,2.1,0.1v-0.7c-1.2,0-1.6,0-2.1-0.7L16.2,9"/>
		<path class="st8" d="M29.3,14.7h-0.5c0,0.3-0.2,1.3-0.4,1.4c-0.1,0.1-1.3,0.1-1.5,0.1H24c1.6-1.4,2.2-1.9,3.1-2.6
			c1.1-0.9,2.2-1.9,2.2-3.4c0-1.9-1.6-3-3.6-3c-1.9,0-3.2,1.3-3.2,2.8c0,0.8,0.7,0.9,0.8,0.9c0.4,0,0.8-0.3,0.8-0.8
			c0-0.3-0.1-0.8-0.9-0.8c0.5-1.1,1.5-1.5,2.3-1.5c1.5,0,2.4,1.2,2.4,2.5c0,1.3-1,2.4-1.5,3l-3.7,3.7c-0.1,0.1-0.1,0.2-0.1,0.6h6.4
			L29.3,14.7"/>
	</g>
	<g class="st0">
		<defs>
			<rect id="SVGID_11_" x="424.8" y="251.6" width="19.8" height="13.5"/>
		</defs>
		<clipPath id="SVGID_12_">
			<use xlink:href="#SVGID_11_"  style="overflow:visible;"/>
		</clipPath>
		<path class="st9" d="M431.2,256c0.7-0.8,1.5-1.9,2-2.5c0.7-0.8,1.6-1.1,2.6-1.1v-0.7c-0.6,0-1.2,0.1-1.8,0.1c-0.7,0-1.9,0-2.1-0.1
			v0.7c0.5,0,0.6,0.3,0.6,0.7c0,0.4-0.2,0.7-0.3,0.8l-1.4,1.7l-1.7-2.2c-0.2-0.2-0.2-0.3-0.2-0.4c0-0.3,0.3-0.5,0.8-0.5v-0.7
			c-0.6,0-2,0.1-2.4,0.1c-0.5,0-1.5,0-2.1-0.1v0.7c1.5,0,1.6,0,2.6,1.3l2.2,2.8l-2.1,2.6c-1.1,1.3-2.4,1.3-2.8,1.3v0.7
			c0.6,0,1.3-0.1,1.9-0.1c0.6,0,1.6,0,2.1,0.1v-0.7c-0.5-0.1-0.6-0.3-0.6-0.7c0-0.5,0.6-1.2,2-2.8l1.7,2.2c0.2,0.2,0.5,0.6,0.5,0.7
			c0,0.2-0.2,0.5-0.8,0.5v0.7c0.7,0,1.9-0.1,2.4-0.1c0.6,0,1.5,0,2.1,0.1v-0.7c-1.2,0-1.6,0-2.1-0.7L431.2,256"/>
		<path class="st9" d="M441.7,254.7c0-0.4,0-0.4-0.5-0.4c-1,1-2.4,1-3,1v0.5c0.4,0,1.4,0,2.2-0.4v7.9c0,0.5,0,0.7-1.5,0.7h-0.6v0.6
			c0.3,0,2.2-0.1,2.8-0.1c0.5,0,2.4,0,2.8,0.1V264h-0.6c-1.5,0-1.5-0.2-1.5-0.7V254.7"/>
	</g>
	<g class="st0">
		<g>
			<path class="st2" d="M286.5,201.4c0.1-0.3,0.3-0.6,0.4-0.9"/>
			<path class="st10" d="M287.8,198.7c5.5-10.8,19.1-28.5,50-31.2"/>
			<path class="st2" d="M338.8,167.4c0.3,0,0.7,0,1-0.1"/>
			<g>
				<polygon points="291,200.1 287,200.2 284.1,197.5 284.5,207 				"/>
			</g>
		</g>
	</g>
	<g class="st0">
		<g>
			<path class="st2" d="M280.7,85c0.3,0.1,0.6,0.2,0.9,0.3"/>
			<path class="st11" d="M283.5,86c14.6,4.7,44.2,10.9,56.4-12.4"/>
			<path class="st2" d="M340.4,72.7c0.1-0.3,0.3-0.6,0.4-0.9"/>
			<g>
				<polygon points="282,89.4 281.9,85.4 284.7,82.5 275.2,82.8 				"/>
			</g>
		</g>
	</g>
</g>
</svg>
