<?xml version="1.0" encoding="UTF-8" standalone="no"?>
<!-- Created with Inkscape (http://www.inkscape.org/) -->

<svg
   xmlns:ns0="http://www.iki.fi/pav/software/textext/"
   xmlns:dc="http://purl.org/dc/elements/1.1/"
   xmlns:cc="http://creativecommons.org/ns#"
   xmlns:rdf="http://www.w3.org/1999/02/22-rdf-syntax-ns#"
   xmlns:svg="http://www.w3.org/2000/svg"
   xmlns="http://www.w3.org/2000/svg"
   xmlns:sodipodi="http://sodipodi.sourceforge.net/DTD/sodipodi-0.dtd"
   xmlns:inkscape="http://www.inkscape.org/namespaces/inkscape"
   width="210mm"
   height="297mm"
   viewBox="0 0 210 297"
   version="1.1"
   id="svg8"
   inkscape:version="0.92.1 r"
   sodipodi:docname="linear_regression.svg">
  <sodipodi:namedview
     id="base"
     pagecolor="#ffffff"
     bordercolor="#666666"
     borderopacity="1.0"
     inkscape:pageopacity="0.0"
     inkscape:pageshadow="2"
     inkscape:zoom="2.8"
     inkscape:cx="393.36287"
     inkscape:cy="678.87228"
     inkscape:document-units="mm"
     inkscape:current-layer="svg8"
     showgrid="false"
     inkscape:window-width="1330"
     inkscape:window-height="743"
     inkscape:window-x="36"
     inkscape:window-y="0"
     inkscape:window-maximized="1" />
  <defs
     id="defs2">
    <marker
       inkscape:isstock="true"
       style="overflow:visible"
       id="marker6659"
       refX="0.0"
       refY="0.0"
       orient="auto"
       inkscape:stockid="StopL">
      <path
         transform="scale(0.8)"
         style="fill:none;fill-opacity:0.75;fill-rule:evenodd;stroke:#000000;stroke-width:1pt;stroke-opacity:1"
         d="M 0.0,5.65 L 0.0,-5.65"
         id="path6657" />
    </marker>
    <marker
       inkscape:stockid="StopL"
       orient="auto"
       refY="0.0"
       refX="0.0"
       id="marker6627"
       style="overflow:visible"
       inkscape:isstock="true">
      <path
         id="path6625"
         d="M 0.0,5.65 L 0.0,-5.65"
         style="fill:none;fill-opacity:0.75;fill-rule:evenodd;stroke:#000000;stroke-width:1pt;stroke-opacity:1"
         transform="scale(0.8)" />
    </marker>
    <marker
       inkscape:stockid="StopL"
       orient="auto"
       refY="0.0"
       refX="0.0"
       id="marker6586"
       style="overflow:visible"
       inkscape:isstock="true"
       inkscape:collect="always">
      <path
         id="path6584"
         d="M 0.0,5.65 L 0.0,-5.65"
         style="fill:none;fill-opacity:0.75;fill-rule:evenodd;stroke:#000000;stroke-width:1pt;stroke-opacity:1"
         transform="scale(0.8)" />
    </marker>
    <marker
       inkscape:stockid="StopL"
       orient="auto"
       refY="0.0"
       refX="0.0"
       id="StopL"
       style="overflow:visible"
       inkscape:isstock="true">
      <path
         id="path5239"
         d="M 0.0,5.65 L 0.0,-5.65"
         style="fill:none;fill-opacity:0.75;fill-rule:evenodd;stroke:#000000;stroke-width:1pt;stroke-opacity:1"
         transform="scale(0.8)" />
    </marker>
    <marker
       inkscape:stockid="ArrowAxisStart"
       style="overflow:visible"
       refY="0.0"
       refX="0.0"
       orient="auto"
       id="ArrowAxisStart">
      <path
         id="path4485"
         transform="scale(0.4) rotate(0) translate(8.818,0)"
         style="stroke-width:1.0;stroke:#000000;fill:#000000;fill-rule:evenodd"
         d="M 0.0,0.0 L 5.0,-5.0 L -12.5,0.0 L 5.0,5.0 L 0.0,0.0 z " />
    </marker>
    <marker
       inkscape:stockid="ArrowAxisEnd"
       style="overflow:visible"
       refY="0.0"
       refX="0.0"
       orient="auto"
       id="ArrowAxisEnd">
      <path
         id="path4488"
         transform="scale(0.4) rotate(180) translate(8.818,0)"
         style="stroke-width:1.0;stroke:#000000;fill:#000000;fill-rule:evenodd"
         d="M 0.0,0.0 L 5.0,-5.0 L -12.5,0.0 L 5.0,5.0 L 0.0,0.0 z " />
    </marker>
  </defs>
  <metadata
     id="metadata5">
    <rdf:RDF>
      <cc:Work
         rdf:about="">
        <dc:format>image/svg+xml</dc:format>
        <dc:type
           rdf:resource="http://purl.org/dc/dcmitype/StillImage" />
        <dc:title />
      </cc:Work>
    </rdf:RDF>
  </metadata>
  <g
     id="layer1"
     inkscape:groupmode="layer"
     inkscape:label="Ebene 1" />
  <g
     id="g4503"
     transform="matrix(0.18915244,0,0,0.18915244,87.768294,132.72705)"
     inkscape:label="Plot">
    <g
       id="g4495"
       inkscape:label="Ticks" />
    <g
       id="g4501"
       inkscape:label="Axis">
      <path
         id="path4497"
         inkscape:label="Xaxis"
         style="fill:none;stroke:#4c4c4c;stroke-width:1.42857146;stroke-linecap:round;stroke-linejoin:round;stroke-dasharray:none;marker-end:url(#ArrowAxisEnd)"
         d="M -100,0 H 225"
         inkscape:connector-curvature="0" />
      <path
         id="path4499"
         inkscape:label="Yaxis"
         style="fill:none;stroke:#4c4c4c;stroke-width:1.42857146;stroke-linecap:round;stroke-linejoin:round;stroke-dasharray:none;marker-end:url(#ArrowAxisEnd)"
         d="M 0,100 V -237.5"
         inkscape:connector-curvature="0" />
    </g>
  </g>
  <g
     id="content"
     transform="matrix(0.8,0,0,-0.8,-102.04865,470.67557)"
     xml:space="preserve"
     stroke-miterlimit="10.433"
     font-style="normal"
     font-variant="normal"
     font-weight="normal"
     font-stretch="normal"
     font-size-adjust="none"
     letter-spacing="normal"
     word-spacing="normal"
     ns0:text="$x_2$"
     ns0:preamble="/usr/share/inkscape/extensions/textextLib/basicLatexPackages.tex"
     style="font-style:normal;font-variant:normal;font-weight:normal;font-stretch:normal;letter-spacing:normal;word-spacing:normal;text-anchor:start;fill:none;fill-opacity:1;fill-rule:evenodd;stroke:#000000;stroke-linecap:butt;stroke-linejoin:miter;stroke-miterlimit:10.43299961;stroke-dasharray:none;stroke-dashoffset:0;stroke-opacity:1"><path
       d="m 226.76,480.23 0.01,0.03 0.01,0.03 v 0.03 l 0.01,0.04 0.01,0.04 0.02,0.04 0.01,0.04 0.01,0.05 0.02,0.04 0.02,0.05 0.02,0.05 0.02,0.05 0.02,0.05 0.02,0.05 0.03,0.05 0.03,0.05 0.03,0.05 0.03,0.04 0.03,0.05 0.04,0.04 0.03,0.05 0.04,0.04 0.05,0.04 0.04,0.03 0.05,0.03 0.04,0.03 0.03,0.01 0.03,0.02 0.02,0.01 0.03,0.01 0.03,0.01 h 0.03 l 0.02,0.01 0.03,0.01 h 0.03 0.04 l 0.03,0.01 h 0.03 c 0.05,0 0.29,0 0.5,-0.13 -0.28,-0.05 -0.48,-0.3 -0.48,-0.54 0,-0.16 0.11,-0.35 0.38,-0.35 0.22,0 0.54,0.18 0.54,0.58 0,0.52 -0.59,0.66 -0.93,0.66 -0.58,0 -0.93,-0.53 -1.05,-0.76 -0.25,0.66 -0.78,0.76 -1.07,0.76 -1.04,0 -1.61,-1.29 -1.61,-1.53 0,-0.1 0.1,-0.1 0.12,-0.1 0.08,0 0.11,0.02 0.13,0.11 0.34,1.05 1,1.3 1.34,1.3 0.18,0 0.53,-0.09 0.53,-0.67 0,-0.31 -0.16,-0.97 -0.53,-2.36 -0.16,-0.62 -0.51,-1.04 -0.95,-1.04 -0.06,0 -0.29,0 -0.5,0.13 0.25,0.05 0.47,0.26 0.47,0.54 0,0.27 -0.22,0.35 -0.37,0.35 -0.3,0 -0.55,-0.26 -0.55,-0.58 0,-0.46 0.5,-0.65 0.94,-0.65 0.66,0 1.02,0.69 1.05,0.75 0.11,-0.37 0.47,-0.75 1.07,-0.75 1.03,0 1.6,1.28 1.6,1.53 0,0.1 -0.09,0.1 -0.12,0.1 -0.09,0 -0.11,-0.05 -0.13,-0.11 -0.33,-1.07 -1.01,-1.31 -1.33,-1.31 -0.39,0 -0.55,0.32 -0.55,0.66 0,0.22 0.06,0.44 0.17,0.87 z"
       id="path4599"
       inkscape:connector-curvature="0"
       style="fill:#000000;stroke-width:0" /><path
       d="m 232.66,477.01 h -0.24 c -0.02,-0.16 -0.09,-0.57 -0.18,-0.64 -0.06,-0.04 -0.6,-0.04 -0.7,-0.04 h -1.28 c 0.73,0.65 0.98,0.84 1.4,1.17 0.52,0.41 1,0.84 1,1.5 0,0.84 -0.74,1.36 -1.64,1.36 -0.87,0 -1.45,-0.61 -1.45,-1.25 0,-0.35 0.3,-0.39 0.37,-0.39 0.16,0 0.37,0.12 0.37,0.37 0,0.13 -0.05,0.37 -0.41,0.37 0.21,0.49 0.69,0.65 1.02,0.65 0.7,0 1.06,-0.54 1.06,-1.11 0,-0.6 -0.44,-1.08 -0.66,-1.33 l -1.68,-1.66 c -0.07,-0.06 -0.07,-0.07 -0.07,-0.27 h 2.88 z"
       id="path4601"
       inkscape:connector-curvature="0"
       style="fill:#000000;stroke-width:0" /></g>  <g
     ns0:preamble="/usr/share/inkscape/extensions/textextLib/basicLatexPackages.tex"
     ns0:text="$x_1$"
     word-spacing="normal"
     letter-spacing="normal"
     font-size-adjust="none"
     font-stretch="normal"
     font-weight="normal"
     font-variant="normal"
     font-style="normal"
     stroke-miterlimit="10.433"
     xml:space="preserve"
     transform="matrix(0.8,0,0,-0.8,-49.02619,521.26755)"
     id="g4640"
     style="font-style:normal;font-variant:normal;font-weight:normal;font-stretch:normal;letter-spacing:normal;word-spacing:normal;text-anchor:start;fill:none;fill-opacity:1;fill-rule:evenodd;stroke:#000000;stroke-linecap:butt;stroke-linejoin:miter;stroke-miterlimit:10.43299961;stroke-dasharray:none;stroke-dashoffset:0;stroke-opacity:1"><path
       id="path4636"
       d="m 226.76,480.23 0.01,0.03 0.01,0.03 v 0.03 l 0.01,0.04 0.01,0.04 0.02,0.04 0.01,0.04 0.01,0.05 0.02,0.04 0.02,0.05 0.02,0.05 0.02,0.05 0.02,0.05 0.02,0.05 0.03,0.05 0.03,0.05 0.03,0.05 0.03,0.04 0.03,0.05 0.04,0.04 0.03,0.05 0.04,0.04 0.05,0.04 0.04,0.03 0.05,0.03 0.04,0.03 0.03,0.01 0.03,0.02 0.02,0.01 0.03,0.01 0.03,0.01 h 0.03 l 0.02,0.01 0.03,0.01 h 0.03 0.04 l 0.03,0.01 h 0.03 c 0.05,0 0.29,0 0.5,-0.13 -0.28,-0.05 -0.48,-0.3 -0.48,-0.54 0,-0.16 0.11,-0.35 0.38,-0.35 0.22,0 0.54,0.18 0.54,0.58 0,0.52 -0.59,0.66 -0.93,0.66 -0.58,0 -0.93,-0.53 -1.05,-0.76 -0.25,0.66 -0.78,0.76 -1.07,0.76 -1.04,0 -1.61,-1.29 -1.61,-1.53 0,-0.1 0.1,-0.1 0.12,-0.1 0.08,0 0.11,0.02 0.13,0.11 0.34,1.05 1,1.3 1.34,1.3 0.18,0 0.53,-0.09 0.53,-0.67 0,-0.31 -0.16,-0.97 -0.53,-2.36 -0.16,-0.62 -0.51,-1.04 -0.95,-1.04 -0.06,0 -0.29,0 -0.5,0.13 0.25,0.05 0.47,0.26 0.47,0.54 0,0.27 -0.22,0.35 -0.37,0.35 -0.3,0 -0.55,-0.26 -0.55,-0.58 0,-0.46 0.5,-0.65 0.94,-0.65 0.66,0 1.02,0.69 1.05,0.75 0.11,-0.37 0.47,-0.75 1.07,-0.75 1.03,0 1.6,1.28 1.6,1.53 0,0.1 -0.09,0.1 -0.12,0.1 -0.09,0 -0.11,-0.05 -0.13,-0.11 -0.33,-1.07 -1.01,-1.31 -1.33,-1.31 -0.39,0 -0.55,0.32 -0.55,0.66 0,0.22 0.06,0.44 0.17,0.87 z"
       inkscape:connector-curvature="0"
       style="fill:#000000;stroke-width:0" /><path
       id="path4638"
       d="m 231.47,480.16 v 0.01 0.01 0.01 0.01 0 0.01 0.01 0.01 0 0.01 0.01 0 l -0.01,0.01 v 0 0.01 0 0.01 0 0.01 0.01 l -0.01,0.01 v 0 0.01 l -0.01,0.01 v 0 l -0.01,0.01 h -0.01 v 0 l -0.01,0.01 h -0.01 -0.01 -0.01 v 0 h -0.01 v 0 l -0.01,0.01 v 0 h -0.01 -0.01 v 0 h -0.01 -0.01 v 0 h -0.01 -0.01 -0.01 v 0 h -0.01 -0.01 -0.01 c -0.45,-0.44 -1.08,-0.45 -1.37,-0.45 v -0.25 c 0.17,0 0.63,0 1.01,0.2 v -3.55 c 0,-0.23 0,-0.32 -0.7,-0.32 h -0.26 v -0.25 c 0.12,0.01 0.98,0.03 1.24,0.03 0.22,0 1.1,-0.02 1.25,-0.03 v 0.25 h -0.26 c -0.7,0 -0.7,0.09 -0.7,0.32 z"
       inkscape:connector-curvature="0"
       style="fill:#000000;stroke-width:0" /></g>  <circle
     style="opacity:1;fill:#666666;fill-opacity:1;stroke:none;stroke-width:0.16748035;stroke-linecap:butt;stroke-linejoin:round;stroke-miterlimit:4;stroke-dasharray:0.16748036, 0.50244107999999998;stroke-dashoffset:0;stroke-opacity:1"
     id="path4661"
     cx="78.367821"
     cy="141.82961"
     r="0.59814411" />
  <circle
     style="opacity:1;fill:#666666;fill-opacity:1;stroke:none;stroke-width:0.16748035;stroke-linecap:butt;stroke-linejoin:round;stroke-miterlimit:4;stroke-dasharray:0.16748036, 0.50244109000000003;stroke-dashoffset:0;stroke-opacity:1"
     id="path4661-3"
     cx="86.422295"
     cy="133.81688"
     r="0.59814411" />
  <circle
     style="opacity:1;fill:#666666;fill-opacity:1;stroke:none;stroke-width:0.16748035;stroke-linecap:butt;stroke-linejoin:round;stroke-miterlimit:4;stroke-dasharray:0.16748036, 0.50244109000000003;stroke-dashoffset:0;stroke-opacity:1"
     id="path4661-6"
     cx="87.738213"
     cy="138.96086"
     r="0.59814411" />
  <circle
     style="opacity:1;fill:#666666;fill-opacity:1;stroke:none;stroke-width:0.16748035;stroke-linecap:butt;stroke-linejoin:round;stroke-miterlimit:4;stroke-dasharray:0.16748036, 0.50244109000000003;stroke-dashoffset:0;stroke-opacity:1"
     id="path4661-7"
     cx="92.403732"
     cy="133.2188"
     r="0.59814411" />
  <circle
     style="opacity:1;fill:#666666;fill-opacity:1;stroke:none;stroke-width:0.16748035;stroke-linecap:butt;stroke-linejoin:round;stroke-miterlimit:4;stroke-dasharray:0.16748036, 0.50244109000000003;stroke-dashoffset:0;stroke-opacity:1"
     id="path4661-5"
     cx="96.112221"
     cy="126.28032"
     r="0.59814411" />
  <circle
     style="opacity:1;fill:#666666;fill-opacity:1;stroke:none;stroke-width:0.16748035;stroke-linecap:butt;stroke-linejoin:round;stroke-miterlimit:4;stroke-dasharray:0.16748036, 0.50244109000000003;stroke-dashoffset:0;stroke-opacity:1"
     id="path4661-35"
     cx="83.551201"
     cy="137.40569"
     r="0.59814411" />
  <circle
     style="opacity:1;fill:#666666;fill-opacity:1;stroke:none;stroke-width:0.16748035;stroke-linecap:butt;stroke-linejoin:round;stroke-miterlimit:4;stroke-dasharray:0.16748036, 0.50244109000000003;stroke-dashoffset:0;stroke-opacity:1"
     id="path4661-62"
     cx="84.388603"
     cy="141.47305"
     r="0.59814411" />
  <circle
     style="opacity:1;fill:#666666;fill-opacity:1;stroke:none;stroke-width:0.16748035;stroke-linecap:butt;stroke-linejoin:round;stroke-miterlimit:4;stroke-dasharray:0.16748036, 0.50244109000000003;stroke-dashoffset:0;stroke-opacity:1"
     id="path4661-9"
     cx="76.01458"
     cy="147.33484"
     r="0.59814411" />
  <circle
     style="opacity:1;fill:#666666;fill-opacity:1;stroke:none;stroke-width:0.16748035;stroke-linecap:butt;stroke-linejoin:round;stroke-miterlimit:4;stroke-dasharray:0.16748036, 0.50244109000000003;stroke-dashoffset:0;stroke-opacity:1"
     id="path4661-2"
     cx="79.005302"
     cy="138.60197"
     r="0.59814411" />
  <circle
     style="opacity:1;fill:#666666;fill-opacity:1;stroke:none;stroke-width:0.16748035;stroke-linecap:butt;stroke-linejoin:round;stroke-miterlimit:4;stroke-dasharray:0.16748036, 0.50244109000000003;stroke-dashoffset:0;stroke-opacity:1"
     id="path4661-70"
     cx="85.943779"
     cy="132.50101"
     r="0.59814411" />
  <circle
     style="opacity:1;fill:#666666;fill-opacity:1;stroke:none;stroke-width:0.16748035;stroke-linecap:butt;stroke-linejoin:round;stroke-miterlimit:4;stroke-dasharray:0.16748036, 0.50244109000000003;stroke-dashoffset:0;stroke-opacity:1"
     id="path4661-93"
     cx="87.020432"
     cy="128.07478"
     r="0.59814411" />
  <circle
     style="opacity:1;fill:#666666;fill-opacity:1;stroke:none;stroke-width:0.16748035;stroke-linecap:butt;stroke-linejoin:round;stroke-miterlimit:4;stroke-dasharray:0.16748036, 0.50244109000000003;stroke-dashoffset:0;stroke-opacity:1"
     id="path4661-60"
     cx="89.891525"
     cy="128.91219"
     r="0.59814411" />
  <circle
     style="opacity:1;fill:#666666;fill-opacity:1;stroke:none;stroke-width:0.16748035;stroke-linecap:butt;stroke-linejoin:round;stroke-miterlimit:4;stroke-dasharray:0.16748036, 0.50244109000000003;stroke-dashoffset:0;stroke-opacity:1"
     id="path4661-626"
     cx="98.624428"
     cy="129.74951"
     r="0.59814411" />
  <circle
     style="opacity:1;fill:#666666;fill-opacity:1;stroke:none;stroke-width:0.16748035;stroke-linecap:butt;stroke-linejoin:round;stroke-miterlimit:4;stroke-dasharray:0.16748036, 0.50244109000000003;stroke-dashoffset:0;stroke-opacity:1"
     id="path4661-18"
     cx="92.882248"
     cy="120.77744"
     r="0.59814411" />
  <circle
     style="opacity:1;fill:#666666;fill-opacity:1;stroke:none;stroke-width:0.16748035;stroke-linecap:butt;stroke-linejoin:round;stroke-miterlimit:4;stroke-dasharray:0.16748036, 0.50244109000000003;stroke-dashoffset:0;stroke-opacity:1"
     id="path4661-79"
     cx="97.30851"
     cy="122.09338"
     r="0.59814411" />
  <circle
     style="opacity:1;fill:#666666;fill-opacity:1;stroke:none;stroke-width:0.16748035;stroke-linecap:butt;stroke-linejoin:round;stroke-miterlimit:4;stroke-dasharray:0.16748036, 0.50244109000000003;stroke-dashoffset:0;stroke-opacity:1"
     id="path4661-20"
     cx="103.28996"
     cy="123.05035"
     r="0.59814411" />
  <circle
     style="opacity:1;fill:#666666;fill-opacity:1;stroke:none;stroke-width:0.16748035;stroke-linecap:butt;stroke-linejoin:round;stroke-miterlimit:4;stroke-dasharray:0.16748036, 0.50244109000000003;stroke-dashoffset:0;stroke-opacity:1"
     id="path4661-23"
     cx="99.581459"
     cy="125.44296"
     r="0.59814411" />
  <circle
     style="opacity:1;fill:#666666;fill-opacity:1;stroke:none;stroke-width:0.16748035;stroke-linecap:butt;stroke-linejoin:round;stroke-miterlimit:4;stroke-dasharray:0.16748036, 0.50244109000000003;stroke-dashoffset:0;stroke-opacity:1"
     id="path4661-28"
     cx="85.226006"
     cy="145.18152"
     r="0.59814411" />
  <circle
     style="opacity:1;fill:#666666;fill-opacity:1;stroke:none;stroke-width:0.16748035;stroke-linecap:butt;stroke-linejoin:round;stroke-miterlimit:4;stroke-dasharray:0.16748036, 0.50244109000000003;stroke-dashoffset:0;stroke-opacity:1"
     id="path4661-97"
     cx="79.962334"
     cy="147.81335"
     r="0.59814411" />
  <circle
     style="opacity:1;fill:#666666;fill-opacity:1;stroke:none;stroke-width:0.16748035;stroke-linecap:butt;stroke-linejoin:round;stroke-miterlimit:4;stroke-dasharray:0.16748036, 0.50244109000000003;stroke-dashoffset:0;stroke-opacity:1"
     id="path4661-94"
     cx="105.80212"
     cy="117.90635"
     r="0.59814411" />
  <circle
     style="opacity:1;fill:#666666;fill-opacity:1;stroke:none;stroke-width:0.16748035;stroke-linecap:butt;stroke-linejoin:round;stroke-miterlimit:4;stroke-dasharray:0.16748036, 0.50244109000000003;stroke-dashoffset:0;stroke-opacity:1"
     id="path4661-4"
     cx="81.038994"
     cy="133.09914"
     r="0.59814411" />
  <circle
     style="opacity:1;fill:#666666;fill-opacity:1;stroke:none;stroke-width:0.16748035;stroke-linecap:butt;stroke-linejoin:round;stroke-miterlimit:4;stroke-dasharray:0.16748036, 0.50244109999999997;stroke-dashoffset:0;stroke-opacity:1"
     id="path4661-36-061"
     cx="75.217262"
     cy="141.08482"
     r="0.59814411" />
  <circle
     style="opacity:1;fill:#666666;fill-opacity:1;stroke:none;stroke-width:0.16748035;stroke-linecap:butt;stroke-linejoin:round;stroke-miterlimit:4;stroke-dasharray:0.16748036, 0.50244109999999997;stroke-dashoffset:0;stroke-opacity:1"
     id="path4661-36-55"
     cx="98.462799"
     cy="132.58035"
     r="0.59814411" />
  <circle
     style="opacity:1;fill:#666666;fill-opacity:1;stroke:none;stroke-width:0.16748035;stroke-linecap:butt;stroke-linejoin:round;stroke-miterlimit:4;stroke-dasharray:0.16748036, 0.50244109999999997;stroke-dashoffset:0;stroke-opacity:1"
     id="path4661-36-4"
     cx="97.706848"
     cy="129.36755"
     r="0.59814411" />
  <circle
     style="opacity:1;fill:#666666;fill-opacity:1;stroke:none;stroke-width:0.16748035;stroke-linecap:butt;stroke-linejoin:round;stroke-miterlimit:4;stroke-dasharray:0.16748036, 0.50244109999999997;stroke-dashoffset:0;stroke-opacity:1"
     id="path4661-36-7"
     cx="104.51041"
     cy="120.48512"
     r="0.59814411" />
  <circle
     style="opacity:1;fill:#666666;fill-opacity:1;stroke:none;stroke-width:0.16748035;stroke-linecap:butt;stroke-linejoin:round;stroke-miterlimit:4;stroke-dasharray:0.16748036, 0.50244109999999997;stroke-dashoffset:0;stroke-opacity:1"
     id="path4661-36-65"
     cx="106.02232"
     cy="117.83929"
     r="0.59814411" />
  <circle
     style="opacity:1;fill:#666666;fill-opacity:1;stroke:none;stroke-width:0.16748035;stroke-linecap:butt;stroke-linejoin:round;stroke-miterlimit:4;stroke-dasharray:0.16748036, 0.50244109999999997;stroke-dashoffset:0;stroke-opacity:1"
     id="path4661-36-69"
     cx="112.06994"
     cy="118.78423"
     r="0.59814411" />
  <circle
     style="opacity:1;fill:#666666;fill-opacity:1;stroke:none;stroke-width:0.16748035;stroke-linecap:butt;stroke-linejoin:round;stroke-miterlimit:4;stroke-dasharray:0.16748036, 0.5024411;stroke-dashoffset:0;stroke-opacity:1"
     id="path4661-36-37"
     cx="110.42931"
     cy="114.08245"
     r="0.59814411" />
  <circle
     style="opacity:1;fill:#666666;fill-opacity:1;stroke:none;stroke-width:0.16748035;stroke-linecap:butt;stroke-linejoin:round;stroke-miterlimit:4;stroke-dasharray:0.16748036, 0.5024411;stroke-dashoffset:0;stroke-opacity:1"
     id="path4661-36-74"
     cx="111.94777"
     cy="106.48656"
     r="0.59814411" />
  <circle
     style="opacity:1;fill:#666666;fill-opacity:1;stroke:none;stroke-width:0.16748035;stroke-linecap:butt;stroke-linejoin:round;stroke-miterlimit:4;stroke-dasharray:0.16748036, 0.50244109999999997;stroke-dashoffset:0;stroke-opacity:1"
     id="path4661-36-43"
     cx="111.125"
     cy="111.2247"
     r="0.59814411" />
  <circle
     style="opacity:1;fill:#666666;fill-opacity:1;stroke:none;stroke-width:0.16748035;stroke-linecap:butt;stroke-linejoin:round;stroke-miterlimit:4;stroke-dasharray:0.16748036, 0.50244109999999997;stroke-dashoffset:0;stroke-opacity:1"
     id="path4661-36-07"
     cx="108.10119"
     cy="115.00446"
     r="0.59814411" />
  <circle
     style="opacity:1;fill:#666666;fill-opacity:1;stroke:none;stroke-width:0.16748035;stroke-linecap:butt;stroke-linejoin:round;stroke-miterlimit:4;stroke-dasharray:0.16748036, 0.5024411;stroke-dashoffset:0;stroke-opacity:1"
     id="path4661-36-8"
     cx="101.20312"
     cy="117.27232"
     r="0.59814411" />
  <circle
     style="opacity:1;fill:#666666;fill-opacity:1;stroke:none;stroke-width:0.16748035;stroke-linecap:butt;stroke-linejoin:round;stroke-miterlimit:4;stroke-dasharray:0.16748036, 0.50244109999999997;stroke-dashoffset:0;stroke-opacity:1"
     id="path4661-36-84"
     cx="114.90476"
     cy="110.09077"
     r="0.59814411" />
  <circle
     style="opacity:1;fill:#666666;fill-opacity:1;stroke:none;stroke-width:0.16748035;stroke-linecap:butt;stroke-linejoin:round;stroke-miterlimit:4;stroke-dasharray:0.16748036, 0.50244109999999997;stroke-dashoffset:0;stroke-opacity:1"
     id="path4661-36-31"
     cx="120.95238"
     cy="106.87798"
     r="0.59814411" />
  <circle
     style="opacity:1;fill:#666666;fill-opacity:1;stroke:none;stroke-width:0.16748035;stroke-linecap:butt;stroke-linejoin:round;stroke-miterlimit:4;stroke-dasharray:0.16748036, 0.50244109999999997;stroke-dashoffset:0;stroke-opacity:1"
     id="path4661-36-20"
     cx="93.360123"
     cy="122.94196"
     r="0.59814411" />
  <circle
     style="opacity:1;fill:#666666;fill-opacity:1;stroke:none;stroke-width:0.16748035;stroke-linecap:butt;stroke-linejoin:round;stroke-miterlimit:4;stroke-dasharray:0.16748036, 0.50244109999999997;stroke-dashoffset:0;stroke-opacity:1"
     id="path4661-36-689"
     cx="92.415176"
     cy="128.04465"
     r="0.59814411" />
  <circle
     style="opacity:1;fill:#666666;fill-opacity:1;stroke:none;stroke-width:0.16748035;stroke-linecap:butt;stroke-linejoin:round;stroke-miterlimit:4;stroke-dasharray:0.16748036, 0.50244109999999997;stroke-dashoffset:0;stroke-opacity:1"
     id="path4661-36-26"
     cx="96.761902"
     cy="132.39137"
     r="0.59814411" />
  <circle
     style="opacity:1;fill:#666666;fill-opacity:1;stroke:none;stroke-width:0.16748035;stroke-linecap:butt;stroke-linejoin:round;stroke-miterlimit:4;stroke-dasharray:0.16748036, 0.50244109999999997;stroke-dashoffset:0;stroke-opacity:1"
     id="path4661-36-64"
     cx="87.690475"
     cy="140.13988"
     r="0.59814411" />
  <circle
     style="opacity:1;fill:#666666;fill-opacity:1;stroke:none;stroke-width:0.16748035;stroke-linecap:butt;stroke-linejoin:round;stroke-miterlimit:4;stroke-dasharray:0.16748036, 0.50244109999999997;stroke-dashoffset:0;stroke-opacity:1"
     id="path4661-36-9"
     cx="76.918152"
     cy="145.9985"
     r="0.59814411" />
  <path
     style="fill:none;fill-rule:evenodd;stroke:#000000;stroke-width:0.96499997;stroke-linecap:butt;stroke-linejoin:miter;stroke-miterlimit:4;stroke-dasharray:none;stroke-opacity:1"
     d="M 70.492559,149.77826 121.33036,99.885406"
     id="path5068"
     inkscape:connector-curvature="0"
     sodipodi:nodetypes="cc" />
  <circle
     style="opacity:1;fill:#000000;fill-opacity:1;stroke:none;stroke-width:0.37914702;stroke-linecap:butt;stroke-linejoin:round;stroke-miterlimit:4;stroke-dasharray:0.37914704, 1.13744116;stroke-dashoffset:0;stroke-opacity:1"
     id="path4661-36-54-0"
     cx="98.422501"
     cy="101.44482"
     r="1.3540965" />
  <g
     ns0:preamble="/usr/share/inkscape/extensions/textextLib/basicLatexPackages.tex"
     ns0:text="$\\mathbf{\\underline{x}}^{(\\alpha)}$"
     word-spacing="normal"
     letter-spacing="normal"
     font-size-adjust="none"
     font-stretch="normal"
     font-weight="normal"
     font-variant="normal"
     font-style="normal"
     stroke-miterlimit="10.433"
     xml:space="preserve"
     transform="matrix(0.6,0,0,-0.6,-40.770798,385.48616)"
     id="g5687"
     style="font-style:normal;font-variant:normal;font-weight:normal;font-stretch:normal;letter-spacing:normal;word-spacing:normal;text-anchor:start;fill:none;fill-opacity:1;fill-rule:evenodd;stroke:#000000;stroke-linecap:butt;stroke-linejoin:miter;stroke-miterlimit:10.43299961;stroke-dasharray:none;stroke-dashoffset:0;stroke-opacity:1"><path
       id="path5677"
       d="m 226.88,479.68 1.17,1.29 c 0.13,0.14 0.19,0.21 1.02,0.21 v 0.47 c -0.35,-0.02 -0.87,-0.03 -0.92,-0.03 -0.25,0 -0.75,0.02 -1.03,0.03 v -0.47 c 0.14,0 0.26,-0.02 0.38,-0.09 -0.04,-0.06 -0.04,-0.08 -0.08,-0.12 l -0.84,-0.93 -0.97,1.14 h 0.4 v 0.47 c -0.26,-0.01 -0.89,-0.03 -1.21,-0.03 -0.32,0 -0.77,0.02 -1.1,0.03 v -0.47 h 0.71 l 1.55,-1.83 -1.3,-1.46 c -0.17,-0.19 -0.53,-0.19 -1.01,-0.19 v -0.47 c 0.35,0.03 0.87,0.04 0.92,0.04 0.25,0 0.83,-0.03 1.03,-0.04 v 0.47 c -0.18,0 -0.37,0.05 -0.37,0.11 0,0.01 0,0.02 0.07,0.1 l 0.96,1.08 1.1,-1.29 h -0.39 v -0.47 c 0.26,0.01 0.87,0.04 1.2,0.04 0.32,0 0.77,-0.03 1.1,-0.04 v 0.47 h -0.71 z"
       inkscape:connector-curvature="0"
       style="fill:#000000;stroke-width:0" /><line
       id="line5679"
       y2="475.84"
       x2="229.48"
       y1="475.84"
       x1="223.42999"
       style="stroke-width:0.398" /><path
       id="path5681"
       d="m 231.96,486.07 -0.12,-0.09 -0.12,-0.09 -0.11,-0.1 -0.1,-0.1 -0.1,-0.1 -0.1,-0.1 -0.09,-0.1 -0.08,-0.11 -0.08,-0.11 -0.08,-0.11 -0.07,-0.11 -0.06,-0.11 -0.07,-0.11 -0.05,-0.12 -0.06,-0.11 -0.05,-0.12 -0.04,-0.12 -0.04,-0.11 -0.04,-0.12 -0.04,-0.11 -0.03,-0.12 -0.03,-0.12 -0.02,-0.11 -0.02,-0.11 -0.02,-0.12 -0.02,-0.11 -0.01,-0.11 -0.01,-0.11 -0.01,-0.1 v -0.11 l -0.01,-0.1 v -0.1 c 0,-0.98 0.3,-2.51 1.68,-3.48 0.06,0 0.14,0 0.14,0.08 0,0.04 -0.02,0.06 -0.07,0.11 -0.93,0.83 -1.27,2.01 -1.27,3.28 0,1.88 0.72,2.8 1.29,3.31 0.03,0.03 0.05,0.05 0.05,0.08 0,0.09 -0.08,0.09 -0.14,0.09 z"
       inkscape:connector-curvature="0"
       style="fill:#000000;stroke-width:0" /><path
       id="path5683"
       d="m 236.42,481.83 0.06,0.06 0.05,0.07 0.06,0.06 0.05,0.07 0.05,0.07 0.05,0.06 0.05,0.07 0.04,0.07 0.04,0.07 0.04,0.06 0.04,0.07 0.03,0.07 0.04,0.06 0.03,0.07 0.03,0.06 0.03,0.06 0.03,0.06 0.02,0.06 0.02,0.05 0.02,0.06 0.02,0.05 0.02,0.05 0.01,0.04 0.02,0.04 0.01,0.04 0.01,0.04 0.01,0.03 0.01,0.03 v 0.02 l 0.01,0.02 v 0.01 0.01 c 0,0.09 -0.08,0.09 -0.12,0.09 -0.1,0 -0.1,-0.02 -0.15,-0.17 -0.12,-0.46 -0.35,-0.88 -0.65,-1.26 0,0.11 -0.02,0.57 -0.03,0.63 -0.11,0.69 -0.63,1.14 -1.33,1.14 l -0.01,-0.2 c 0.56,0 0.72,-0.53 0.78,-0.96 0.04,-0.3 0.03,-0.8 0.06,-1.16 v 0 c -0.68,-0.56 -1.28,-0.62 -1.54,-0.62 -0.46,0 -0.72,0.3 -0.72,0.77 0,0.2 0.09,0.96 0.46,1.44 0.32,0.42 0.72,0.53 0.96,0.53 l 0.01,0.2 c -1.03,0 -2.01,-0.96 -2.01,-1.93 0,-0.64 0.46,-1.21 1.27,-1.21 0.65,0 1.23,0.29 1.62,0.59 0.16,-0.51 0.52,-0.59 0.73,-0.59 0.4,0 0.65,0.34 0.65,0.49 0,0.08 -0.08,0.08 -0.11,0.08 -0.09,0 -0.11,-0.03 -0.12,-0.07 -0.1,-0.26 -0.32,-0.3 -0.4,-0.3 -0.1,0 -0.22,0 -0.25,0.85 z"
       inkscape:connector-curvature="0"
       style="fill:#000000;stroke-width:0" /><path
       id="path5685"
       d="m 238.4,486.07 v 0 h -0.01 v 0 h -0.01 v 0 h -0.01 v 0 l -0.01,-0.01 h -0.01 v 0 h -0.01 v 0 h -0.01 v 0 h -0.01 v 0 l -0.01,-0.01 v 0 h -0.01 v 0 l -0.01,-0.01 v 0 0 l -0.01,-0.01 v 0 0 0 -0.01 0 h -0.01 v 0 -0.01 0 0 -0.01 0 0 -0.01 0 0 -0.01 c 0,-0.03 0.02,-0.05 0.06,-0.1 0.6,-0.55 1.27,-1.49 1.27,-3.28 0,-1.46 -0.45,-2.56 -1.21,-3.24 -0.12,-0.12 -0.12,-0.12 -0.12,-0.16 0,-0.03 0.02,-0.08 0.09,-0.08 0.08,0 0.75,0.46 1.21,1.33 0.31,0.57 0.51,1.33 0.51,2.14 0,0.98 -0.29,2.5 -1.68,3.48 z"
       inkscape:connector-curvature="0"
       style="fill:#000000;stroke-width:0" /></g>  <circle
     style="opacity:1;fill:#666666;fill-opacity:1;stroke:none;stroke-width:0.16748035;stroke-linecap:butt;stroke-linejoin:round;stroke-miterlimit:4;stroke-dasharray:0.16748036, 0.5024411;stroke-dashoffset:0;stroke-opacity:1"
     id="path4661-36-32-5"
     cx="87.129868"
     cy="113.51947"
     r="0.59814411" />
  <circle
     style="opacity:1;fill:#666666;fill-opacity:1;stroke:none;stroke-width:0.16748035;stroke-linecap:butt;stroke-linejoin:round;stroke-miterlimit:4;stroke-dasharray:0.16748036, 0.5024411;stroke-dashoffset:0;stroke-opacity:1"
     id="path4661-36-32-9"
     cx="83.254456"
     cy="117.39487"
     r="0.59814411" />
  <circle
     style="opacity:1;fill:#666666;fill-opacity:1;stroke:none;stroke-width:0.16748035;stroke-linecap:butt;stroke-linejoin:round;stroke-miterlimit:4;stroke-dasharray:0.16748036, 0.5024411;stroke-dashoffset:0;stroke-opacity:1"
     id="path4661-36-32-4"
     cx="86.461693"
     cy="120.60211"
     r="0.59814411" />
  <circle
     style="opacity:1;fill:#666666;fill-opacity:1;stroke:none;stroke-width:0.16748035;stroke-linecap:butt;stroke-linejoin:round;stroke-miterlimit:4;stroke-dasharray:0.16748036, 0.5024411;stroke-dashoffset:0;stroke-opacity:1"
     id="path4661-36-32-90"
     cx="85.392616"
     cy="122.473"
     r="0.59814411" />
  <circle
     style="opacity:1;fill:#666666;fill-opacity:1;stroke:none;stroke-width:0.16748035;stroke-linecap:butt;stroke-linejoin:round;stroke-miterlimit:4;stroke-dasharray:0.16748036, 0.5024411;stroke-dashoffset:0;stroke-opacity:1"
     id="path4661-36-32-91"
     cx="76.439087"
     cy="124.21025"
     r="0.59814411" />
  <circle
     style="opacity:1;fill:#666666;fill-opacity:1;stroke:none;stroke-width:0.16748035;stroke-linecap:butt;stroke-linejoin:round;stroke-miterlimit:4;stroke-dasharray:0.16748036, 0.5024411;stroke-dashoffset:0;stroke-opacity:1"
     id="path4661-36-32-3"
     cx="88.198944"
     cy="142.38458"
     r="0.59814411" />
  <circle
     style="opacity:1;fill:#666666;fill-opacity:1;stroke:none;stroke-width:0.16748035;stroke-linecap:butt;stroke-linejoin:round;stroke-miterlimit:4;stroke-dasharray:0.16748036, 0.5024411;stroke-dashoffset:0;stroke-opacity:1"
     id="path4661-36-32-856"
     cx="92.608894"
     cy="137.03918"
     r="0.59814411" />
  <circle
     style="opacity:1;fill:#666666;fill-opacity:1;stroke:none;stroke-width:0.16748035;stroke-linecap:butt;stroke-linejoin:round;stroke-miterlimit:4;stroke-dasharray:0.16748036, 0.5024411;stroke-dashoffset:0;stroke-opacity:1"
     id="path4661-36-32-11"
     cx="99.023361"
     cy="135.97011"
     r="0.59814411" />
  <circle
     style="opacity:1;fill:#666666;fill-opacity:1;stroke:none;stroke-width:0.16748035;stroke-linecap:butt;stroke-linejoin:round;stroke-miterlimit:4;stroke-dasharray:0.16748036, 0.5024411;stroke-dashoffset:0;stroke-opacity:1"
     id="path4661-36-32-59"
     cx="103.4333"
     cy="131.96106"
     r="0.59814411" />
  <circle
     style="opacity:1;fill:#666666;fill-opacity:1;stroke:none;stroke-width:0.16748035;stroke-linecap:butt;stroke-linejoin:round;stroke-miterlimit:4;stroke-dasharray:0.16748036, 0.5024411;stroke-dashoffset:0;stroke-opacity:1"
     id="path4661-36-32-84"
     cx="106.77418"
     cy="125.9475"
     r="0.59814411" />
  <circle
     style="opacity:1;fill:#666666;fill-opacity:1;stroke:none;stroke-width:0.16748035;stroke-linecap:butt;stroke-linejoin:round;stroke-miterlimit:4;stroke-dasharray:0.16748036, 0.5024411;stroke-dashoffset:0;stroke-opacity:1"
     id="path4661-36-32-81"
     cx="111.71867"
     cy="121.53755"
     r="0.59814411" />
  <circle
     style="opacity:1;fill:#666666;fill-opacity:1;stroke:none;stroke-width:0.16748035;stroke-linecap:butt;stroke-linejoin:round;stroke-miterlimit:4;stroke-dasharray:0.16748036, 0.5024411;stroke-dashoffset:0;stroke-opacity:1"
     id="path4661-36-32-03"
     cx="116.12861"
     cy="118.59759"
     r="0.59814411" />
  <circle
     style="opacity:1;fill:#666666;fill-opacity:1;stroke:none;stroke-width:0.16748035;stroke-linecap:butt;stroke-linejoin:round;stroke-miterlimit:4;stroke-dasharray:0.16748036, 0.5024411;stroke-dashoffset:0;stroke-opacity:1"
     id="path4661-36-32-04"
     cx="122.81035"
     cy="110.71314"
     r="0.59814411" />
  <circle
     style="opacity:1;fill:#666666;fill-opacity:1;stroke:none;stroke-width:0.16748035;stroke-linecap:butt;stroke-linejoin:round;stroke-miterlimit:4;stroke-dasharray:0.16748036, 0.5024411;stroke-dashoffset:0;stroke-opacity:1"
     id="path4661-36-32-44"
     cx="119.60311"
     cy="113.11857"
     r="0.59814411" />
  <path
     style="fill:none;fill-rule:evenodd;stroke:#000000;stroke-width:0.26458332;stroke-linecap:butt;stroke-linejoin:miter;stroke-opacity:1;stroke-miterlimit:4;stroke-dasharray:0.52916663,0.26458332;stroke-dashoffset:0"
     d="M 98.422004,101.49233 V 122.1389"
     id="path5991"
     inkscape:connector-curvature="0" />
  <path
     style="fill:none;fill-rule:evenodd;stroke:#000000;stroke-width:0.26458332px;stroke-linecap:butt;stroke-linejoin:miter;stroke-opacity:1"
     d="M 98.422004,101.49233 Z"
     id="path5993"
     inkscape:connector-curvature="0" />
  <path
     style="fill:none;fill-rule:evenodd;stroke:#000000;stroke-width:0.26458332;stroke-linecap:butt;stroke-linejoin:miter;stroke-opacity:1;stroke-miterlimit:4;stroke-dasharray:0.52916663,0.26458332;stroke-dashoffset:0"
     d="m 98.422004,101.49233 10.423516,10.42351"
     id="path5995"
     inkscape:connector-curvature="0" />
  <path
     style="fill:none;fill-rule:evenodd;stroke:#000000;stroke-width:0.365;stroke-linecap:butt;stroke-linejoin:miter;stroke-opacity:1;stroke-miterlimit:4;stroke-dasharray:none"
     d="m 104.1683,107.27203 c -3.01726,3.96009 -2.63891,6.98347 -0.50113,9.52148"
     id="path5997"
     inkscape:connector-curvature="0"
     sodipodi:nodetypes="cc" />
  <circle
     style="opacity:1;fill:#000000;fill-opacity:1;stroke:none;stroke-width:0.26458332;stroke-linecap:butt;stroke-linejoin:round;stroke-miterlimit:4;stroke-dasharray:0.52916663, 0.26458331;stroke-dashoffset:0;stroke-opacity:1"
     id="path5999"
     cx="104.73624"
     cy="112.1497"
     r="0.83521724" />
  <g
     style="font-style:normal;font-variant:normal;font-weight:normal;font-stretch:normal;letter-spacing:normal;word-spacing:normal;text-anchor:start;fill:none;fill-opacity:1;fill-rule:evenodd;stroke:#000000;stroke-linecap:butt;stroke-linejoin:miter;stroke-miterlimit:10.43299961;stroke-dasharray:none;stroke-dashoffset:0;stroke-opacity:1"
     id="g6137"
     transform="matrix(0.6,0,0,-0.6,-45.349702,402.2049)"
     xml:space="preserve"
     stroke-miterlimit="10.433"
     font-style="normal"
     font-variant="normal"
     font-weight="normal"
     font-stretch="normal"
     font-size-adjust="none"
     letter-spacing="normal"
     word-spacing="normal"
     ns0:text="$e^{(\\alpha)}$"
     ns0:preamble="/usr/share/inkscape/extensions/textextLib/basicLatexPackages.tex"><path
       style="fill:#000000;stroke-width:0"
       inkscape:connector-curvature="0"
       d="m 225.3,479.53 h 0.03 0.03 0.03 0.04 0.03 0.04 0.04 l 0.05,0.01 h 0.04 0.05 0.05 l 0.05,0.01 h 0.05 l 0.05,0.01 0.1,0.01 0.11,0.01 0.11,0.01 0.11,0.02 0.1,0.02 0.11,0.03 0.05,0.01 0.06,0.02 0.05,0.01 0.05,0.02 0.04,0.02 0.05,0.02 c 0.7,0.3 0.75,0.88 0.75,1.02 0,0.44 -0.38,0.85 -1.07,0.85 v -0.22 c 0.47,0 0.74,-0.29 0.74,-0.63 0,-1.03 -1.59,-1.03 -2,-1.03 h -0.41 c 0.39,1.51 1.41,1.66 1.67,1.66 v 0.22 c -1.1,0 -2.61,-0.97 -2.61,-2.71 0,-1.01 0.59,-1.79 1.57,-1.79 1.42,0 2.26,1.05 2.26,1.17 0,0.06 -0.06,0.13 -0.12,0.13 -0.05,0 -0.07,-0.02 -0.13,-0.1 -0.79,-0.99 -1.87,-0.99 -1.99,-0.99 -0.78,0 -0.87,0.84 -0.87,1.16 0,0.12 0.01,0.42 0.16,1.03 z"
       id="path6129" /><path
       style="fill:#000000;stroke-width:0"
       inkscape:connector-curvature="0"
       d="m 230.55,486.07 -0.12,-0.09 -0.11,-0.09 -0.12,-0.1 -0.1,-0.1 -0.1,-0.1 -0.09,-0.1 -0.09,-0.1 -0.09,-0.11 -0.08,-0.11 -0.07,-0.11 -0.08,-0.11 -0.06,-0.11 -0.06,-0.11 -0.06,-0.12 -0.05,-0.11 -0.05,-0.12 -0.05,-0.12 -0.04,-0.11 -0.04,-0.12 -0.03,-0.11 -0.04,-0.12 -0.02,-0.12 -0.03,-0.11 -0.02,-0.11 -0.02,-0.12 -0.01,-0.11 -0.02,-0.11 -0.01,-0.11 -0.01,-0.1 v -0.11 -0.1 -0.1 c 0,-0.98 0.29,-2.51 1.67,-3.48 0.06,0 0.14,0 0.14,0.08 0,0.04 -0.02,0.06 -0.07,0.11 -0.93,0.83 -1.27,2.01 -1.27,3.28 0,1.88 0.72,2.8 1.29,3.31 0.03,0.03 0.05,0.05 0.05,0.08 0,0.09 -0.08,0.09 -0.14,0.09 z"
       id="path6131" /><path
       style="fill:#000000;stroke-width:0"
       inkscape:connector-curvature="0"
       d="m 235.01,481.83 0.06,0.06 0.06,0.07 0.05,0.06 0.05,0.07 0.05,0.07 0.05,0.06 0.05,0.07 0.04,0.07 0.04,0.07 0.04,0.06 0.04,0.07 0.04,0.07 0.03,0.06 0.03,0.07 0.03,0.06 0.03,0.06 0.03,0.06 0.02,0.06 0.02,0.05 0.03,0.06 0.01,0.05 0.02,0.05 0.02,0.04 0.01,0.04 0.01,0.04 0.01,0.04 0.01,0.03 0.01,0.03 v 0.02 l 0.01,0.02 v 0.01 0.01 c 0,0.09 -0.08,0.09 -0.12,0.09 -0.1,0 -0.1,-0.02 -0.14,-0.17 -0.13,-0.46 -0.36,-0.88 -0.66,-1.26 0,0.11 -0.02,0.57 -0.03,0.63 -0.11,0.69 -0.63,1.14 -1.33,1.14 l -0.01,-0.2 c 0.56,0 0.72,-0.53 0.78,-0.96 0.04,-0.3 0.03,-0.8 0.06,-1.16 v 0 c -0.68,-0.56 -1.28,-0.62 -1.54,-0.62 -0.46,0 -0.72,0.3 -0.72,0.77 0,0.2 0.1,0.96 0.46,1.44 0.32,0.42 0.72,0.53 0.96,0.53 l 0.01,0.2 c -1.03,0 -2.01,-0.96 -2.01,-1.93 0,-0.64 0.47,-1.21 1.28,-1.21 0.64,0 1.22,0.29 1.61,0.59 0.16,-0.51 0.52,-0.59 0.73,-0.59 0.41,0 0.66,0.34 0.66,0.49 0,0.08 -0.09,0.08 -0.12,0.08 -0.09,0 -0.11,-0.03 -0.12,-0.07 -0.1,-0.26 -0.32,-0.3 -0.4,-0.3 -0.1,0 -0.22,0 -0.25,0.85 z"
       id="path6133" /><path
       style="fill:#000000;stroke-width:0"
       inkscape:connector-curvature="0"
       d="m 236.99,486.07 v 0 h -0.01 v 0 h -0.01 v 0 h -0.01 v 0 l -0.01,-0.01 v 0 h -0.01 -0.01 v 0 h -0.01 v 0 h -0.01 v 0 l -0.01,-0.01 v 0 h -0.01 v 0 l -0.01,-0.01 v 0 0 -0.01 h -0.01 v 0 0 -0.01 0 0 0 l -0.01,-0.01 v 0 0 -0.01 0 0 -0.01 0 0 -0.01 c 0,-0.03 0.02,-0.05 0.06,-0.1 0.6,-0.55 1.28,-1.49 1.28,-3.28 0,-1.46 -0.46,-2.56 -1.21,-3.24 -0.12,-0.12 -0.13,-0.12 -0.13,-0.16 0,-0.03 0.02,-0.08 0.09,-0.08 0.09,0 0.75,0.46 1.21,1.33 0.31,0.57 0.51,1.33 0.51,2.14 0,0.98 -0.29,2.5 -1.68,3.48 z"
       id="path6135" /></g>  <g
     ns0:preamble="/usr/share/inkscape/extensions/textextLib/basicLatexPackages.tex"
     ns0:text="$d^{(\\alpha)}$"
     word-spacing="normal"
     letter-spacing="normal"
     font-size-adjust="none"
     font-stretch="normal"
     font-weight="normal"
     font-variant="normal"
     font-style="normal"
     stroke-miterlimit="10.433"
     xml:space="preserve"
     transform="matrix(0.6,0,0,-0.6,-30.192857,392.85001)"
     id="g6413"
     style="font-style:normal;font-variant:normal;font-weight:normal;font-stretch:normal;letter-spacing:normal;word-spacing:normal;text-anchor:start;fill:none;fill-opacity:1;fill-rule:evenodd;stroke:#000000;stroke-linecap:butt;stroke-linejoin:miter;stroke-miterlimit:10.43299961;stroke-dasharray:none;stroke-dashoffset:0;stroke-opacity:1"><path
       id="path6405"
       d="m 228.58,484.02 v 0 0 0 0 0.01 0 0 0.01 0 0.01 h -0.01 v 0 0.01 0 0.01 h -0.01 v 0.01 0 l -0.01,0.01 v 0 0.01 h -0.01 v 0 0 0.01 h -0.01 v 0 0 h -0.01 v 0.01 0 h -0.01 v 0 h -0.01 v 0 0 h -0.01 v 0.01 h -0.01 v 0 h -0.01 v 0 h -0.01 -0.01 v 0 c -0.15,0 -1.1,-0.09 -1.27,-0.11 -0.08,-0.01 -0.14,-0.06 -0.14,-0.19 0,-0.12 0.09,-0.12 0.24,-0.12 0.48,0 0.5,-0.07 0.5,-0.17 l -0.03,-0.2 -0.6,-2.35 c -0.18,0.37 -0.47,0.64 -0.92,0.64 -1.16,0 -2.4,-1.46 -2.4,-2.92 0,-0.93 0.55,-1.58 1.33,-1.58 l 0.02,0.21 c -0.5,0 -0.64,0.55 -0.64,0.94 0,0.49 0.32,1.72 0.55,2.17 0.31,0.59 0.76,0.96 1.15,0.96 0.65,0 0.79,-0.82 0.79,-0.88 0,-0.06 -0.02,-0.12 -0.03,-0.17 l -0.5,-1.94 c -0.05,-0.18 -0.05,-0.2 -0.2,-0.37 -0.43,-0.55 -0.84,-0.71 -1.12,-0.71 l -0.02,-0.21 c 0.2,0 0.69,0.04 1.29,0.74 0.08,-0.42 0.43,-0.74 0.91,-0.74 0.35,0 0.58,0.22 0.74,0.54 0.17,0.36 0.3,0.97 0.3,0.99 0,0.1 -0.09,0.1 -0.12,0.1 -0.1,0 -0.11,-0.05 -0.14,-0.18 -0.17,-0.65 -0.35,-1.24 -0.76,-1.24 -0.27,0 -0.3,0.26 -0.3,0.46 0,0.24 0.02,0.31 0.06,0.48 z"
       inkscape:connector-curvature="0"
       style="fill:#000000;stroke-width:0" /><path
       id="path6407"
       d="m 231.1,486.07 -0.12,-0.09 -0.12,-0.09 -0.11,-0.1 -0.1,-0.1 -0.1,-0.1 -0.1,-0.1 -0.09,-0.1 -0.08,-0.11 -0.08,-0.11 -0.08,-0.11 -0.07,-0.11 -0.06,-0.11 -0.07,-0.11 -0.05,-0.12 -0.06,-0.11 -0.05,-0.12 -0.04,-0.12 -0.04,-0.11 -0.04,-0.12 -0.04,-0.11 -0.03,-0.12 -0.03,-0.12 -0.02,-0.11 -0.02,-0.11 -0.02,-0.12 -0.02,-0.11 -0.01,-0.11 -0.01,-0.11 -0.01,-0.1 v -0.11 l -0.01,-0.1 v -0.1 c 0,-0.98 0.3,-2.51 1.68,-3.48 0.06,0 0.14,0 0.14,0.08 0,0.04 -0.02,0.06 -0.07,0.11 -0.93,0.83 -1.27,2.01 -1.27,3.28 0,1.88 0.72,2.8 1.29,3.31 0.03,0.03 0.05,0.05 0.05,0.08 0,0.09 -0.08,0.09 -0.14,0.09 z"
       inkscape:connector-curvature="0"
       style="fill:#000000;stroke-width:0" /><path
       id="path6409"
       d="m 235.56,481.83 0.06,0.06 0.05,0.07 0.06,0.06 0.05,0.07 0.05,0.07 0.05,0.06 0.04,0.07 0.05,0.07 0.04,0.07 0.04,0.06 0.04,0.07 0.03,0.07 0.04,0.06 0.03,0.07 0.03,0.06 0.03,0.06 0.02,0.06 0.03,0.06 0.02,0.05 0.02,0.06 0.02,0.05 0.02,0.05 0.01,0.04 0.02,0.04 0.01,0.04 0.01,0.04 0.01,0.03 0.01,0.03 v 0.02 0.02 l 0.01,0.01 v 0.01 c 0,0.09 -0.09,0.09 -0.12,0.09 -0.1,0 -0.1,-0.02 -0.15,-0.17 -0.12,-0.46 -0.35,-0.88 -0.65,-1.26 0,0.11 -0.02,0.57 -0.03,0.63 -0.11,0.69 -0.63,1.14 -1.33,1.14 l -0.01,-0.2 c 0.56,0 0.72,-0.53 0.78,-0.96 0.04,-0.3 0.03,-0.8 0.06,-1.16 v 0 c -0.69,-0.56 -1.28,-0.62 -1.55,-0.62 -0.46,0 -0.72,0.3 -0.72,0.77 0,0.2 0.1,0.96 0.47,1.44 0.32,0.42 0.72,0.53 0.96,0.53 l 0.01,0.2 c -1.03,0 -2.02,-0.96 -2.02,-1.93 0,-0.64 0.47,-1.21 1.28,-1.21 0.65,0 1.23,0.29 1.62,0.59 0.16,-0.51 0.52,-0.59 0.73,-0.59 0.4,0 0.65,0.34 0.65,0.49 0,0.08 -0.08,0.08 -0.12,0.08 -0.09,0 -0.1,-0.03 -0.11,-0.07 -0.1,-0.26 -0.32,-0.3 -0.4,-0.3 -0.1,0 -0.22,0 -0.25,0.85 z"
       inkscape:connector-curvature="0"
       style="fill:#000000;stroke-width:0" /><path
       id="path6411"
       d="m 237.54,486.07 h -0.01 v 0 h -0.01 v 0 h -0.01 v 0 h -0.01 v -0.01 h -0.01 v 0 h -0.01 v 0 h -0.01 -0.01 v 0 h -0.01 v -0.01 h -0.01 v 0 0 l -0.01,-0.01 v 0 h -0.01 v -0.01 0 0 0 -0.01 h -0.01 v 0 0 -0.01 0 0 -0.01 0 0 -0.01 0 0 -0.01 c 0,-0.03 0.02,-0.05 0.06,-0.1 0.6,-0.55 1.27,-1.49 1.27,-3.28 0,-1.46 -0.45,-2.56 -1.21,-3.24 -0.12,-0.12 -0.12,-0.12 -0.12,-0.16 0,-0.03 0.02,-0.08 0.09,-0.08 0.08,0 0.75,0.46 1.21,1.33 0.3,0.57 0.51,1.33 0.51,2.14 0,0.98 -0.3,2.5 -1.68,3.48 z"
       inkscape:connector-curvature="0"
       style="fill:#000000;stroke-width:0" /></g>  <path
     style="fill:none;fill-rule:evenodd;stroke:#000000;stroke-width:0.26458332px;stroke-linecap:butt;stroke-linejoin:miter;stroke-opacity:1;marker-start:url(#StopL)"
     d="m 95.911457,103.94865 v 5.29167"
     id="path6553"
     inkscape:connector-curvature="0" />
  <path
     style="fill:none;fill-rule:evenodd;stroke:#000000;stroke-width:0.26458332px;stroke-linecap:butt;stroke-linejoin:miter;stroke-opacity:1;marker-end:url(#marker6586)"
     d="m 95.928585,115.75502 v 5.29167"
     id="path6553-4"
     inkscape:connector-curvature="0" />
  <path
     style="fill:none;fill-rule:evenodd;stroke:#000000;stroke-width:0.26458332px;stroke-linecap:butt;stroke-linejoin:miter;stroke-opacity:1;marker-start:url(#marker6627)"
     d="m 101.72284,102.01152 2.16155,2.16155"
     id="path6608"
     inkscape:connector-curvature="0" />
  <path
     style="fill:none;fill-rule:evenodd;stroke:#000000;stroke-width:0.26458332px;stroke-linecap:butt;stroke-linejoin:miter;stroke-opacity:1;marker-end:url(#marker6659)"
     d="m 107.28503,107.04454 2.16155,2.16155"
     id="path6608-7"
     inkscape:connector-curvature="0" />
</svg>
