<?xml version="1.0" encoding="UTF-8" standalone="no"?>
<!-- Created with Inkscape (http://www.inkscape.org/) -->

<svg
   xmlns:ns0="http://www.iki.fi/pav/software/textext/"
   xmlns:dc="http://purl.org/dc/elements/1.1/"
   xmlns:cc="http://creativecommons.org/ns#"
   xmlns:rdf="http://www.w3.org/1999/02/22-rdf-syntax-ns#"
   xmlns:svg="http://www.w3.org/2000/svg"
   xmlns="http://www.w3.org/2000/svg"
   xmlns:xlink="http://www.w3.org/1999/xlink"
   xmlns:sodipodi="http://sodipodi.sourceforge.net/DTD/sodipodi-0.dtd"
   xmlns:inkscape="http://www.inkscape.org/namespaces/inkscape"
   width="744.09448819"
   height="1052.3622047"
   id="svg16740"
   sodipodi:version="0.32"
   inkscape:version="0.92.1 r"
   sodipodi:docname="section2_fig16.svg"
   version="1.1">
  <sodipodi:namedview
     id="base"
     pagecolor="#ffffff"
     bordercolor="#666666"
     borderopacity="1.0"
     gridtolerance="10000"
     guidetolerance="10"
     objecttolerance="10"
     inkscape:pageopacity="0.0"
     inkscape:pageshadow="2"
     inkscape:zoom="1.65375"
     inkscape:cx="180.43213"
     inkscape:cy="905.52269"
     inkscape:document-units="px"
     inkscape:current-layer="layer1"
     showguides="true"
     inkscape:guide-bbox="true"
     inkscape:window-width="1398"
     inkscape:window-height="975"
     inkscape:window-x="0"
     inkscape:window-y="30"
     showgrid="false"
     inkscape:window-maximized="0" />
  <defs
     id="defs16742">
    <marker
       inkscape:stockid="Arrow1Mend"
       orient="auto"
       refY="0.0"
       refX="0.0"
       id="Arrow1Mend"
       style="overflow:visible;">
      <path
         id="path3514"
         d="M 0.0,0.0 L 5.0,-5.0 L -12.5,0.0 L 5.0,5.0 L 0.0,0.0 z "
         style="fill-rule:evenodd;stroke:#000000;stroke-width:1.0pt;marker-start:none;"
         transform="scale(0.4) rotate(180) translate(10,0)" />
    </marker>
  </defs>
  <metadata
     id="metadata16745">
    <rdf:RDF>
      <cc:Work
         rdf:about="">
        <dc:format>image/svg+xml</dc:format>
        <dc:type
           rdf:resource="http://purl.org/dc/dcmitype/StillImage" />
      </cc:Work>
    </rdf:RDF>
  </metadata>
  <g
     inkscape:label="Layer 1"
     inkscape:groupmode="layer"
     id="layer1">
    <path
       sodipodi:type="arc"
       style="fill:none;fill-opacity:1;stroke:black;stroke-width:1;stroke-miterlimit:4;stroke-dasharray:none;stroke-dashoffset:0;stroke-opacity:1"
       id="path16748"
       sodipodi:cx="209.37263"
       sodipodi:cy="153.64714"
       sodipodi:rx="8.6167803"
       sodipodi:ry="8.6167803"
       d="M 217.98942 153.64714 A 8.6167803 8.6167803 0 1 1  200.75585,153.64714 A 8.6167803 8.6167803 0 1 1  217.98942 153.64714 z"
       transform="translate(14.66364,-93.42404)" />
    <text
       xml:space="preserve"
       style="font-style:normal;font-weight:normal;line-height:0%;font-family:'Bitstream Vera Sans';fill:#000000;fill-opacity:1;stroke:none;stroke-width:1px;stroke-linecap:butt;stroke-linejoin:miter;stroke-opacity:1"
       x="62.691479"
       y="119.74994"
       id="text16762"><tspan
         sodipodi:role="line"
         id="tspan16764"
         x="62.691479"
         y="119.74994"
         style="font-size:20px;line-height:1.25">.</tspan><tspan
         sodipodi:role="line"
         x="62.691479"
         y="144.74994"
         id="tspan16766"
         style="font-size:20px;line-height:1.25">.</tspan><tspan
         sodipodi:role="line"
         x="62.691479"
         y="169.74994"
         id="tspan16768"
         style="font-size:20px;line-height:1.25">.</tspan><tspan
         sodipodi:role="line"
         x="62.691479"
         y="194.74994"
         style="font-size:20px;line-height:1.25"
         id="tspan16770">.</tspan></text>
    <image
       sodipodi:absref="/home/heiner/mirepo/mi2/figures/svg/../png/standards/x_j.png"
       xlink:href="../png/standards/x_j.png"
       y="146.48909"
       x="35.071804"
       id="image16943"
       height="20.814726"
       width="22.415857" />
    <path
       sodipodi:type="arc"
       style="fill:none;fill-opacity:1;stroke:black;stroke-width:1;stroke-miterlimit:4;stroke-dasharray:1, 1;stroke-dashoffset:0;stroke-opacity:1"
       id="path17123"
       sodipodi:cx="105.97128"
       sodipodi:cy="174.20648"
       sodipodi:rx="4.383976"
       sodipodi:ry="4.383976"
       d="M 110.35526 174.20648 A 4.383976 4.383976 0 1 1  101.58731,174.20648 A 4.383976 4.383976 0 1 1  110.35526 174.20648 z"
       transform="translate(55.93349,-16.02419)" />
    <text
       xml:space="preserve"
       style="font-style:normal;font-weight:normal;line-height:0%;font-family:'Bitstream Vera Sans';fill:#000000;fill-opacity:1;stroke:none;stroke-width:1px;stroke-linecap:butt;stroke-linejoin:miter;stroke-opacity:1"
       x="62.33308"
       y="63.504349"
       id="text39129"><tspan
         sodipodi:role="line"
         id="tspan39131"
         x="62.33308"
         y="63.504349"
         style="font-size:12px;line-height:1.25">x</tspan></text>
    <text
       xml:space="preserve"
       style="font-style:normal;font-weight:normal;line-height:0%;font-family:'Bitstream Vera Sans';fill:#000000;fill-opacity:1;stroke:none;stroke-width:1px;stroke-linecap:butt;stroke-linejoin:miter;stroke-opacity:1"
       x="62.33308"
       y="86.935951"
       id="text39133"><tspan
         sodipodi:role="line"
         id="tspan39135"
         x="62.33308"
         y="86.935951"
         style="font-size:12px;line-height:1.25">x</tspan></text>
    <text
       xml:space="preserve"
       style="font-style:normal;font-weight:normal;line-height:0%;font-family:'Bitstream Vera Sans';fill:#000000;fill-opacity:1;stroke:none;stroke-width:1px;stroke-linecap:butt;stroke-linejoin:miter;stroke-opacity:1"
       x="62.33308"
       y="158.59128"
       id="text39137"><tspan
         sodipodi:role="line"
         id="tspan39139"
         x="62.33308"
         y="158.59128"
         style="font-size:12px;line-height:1.25">x</tspan></text>
    <text
       xml:space="preserve"
       style="font-style:normal;font-weight:normal;line-height:0%;font-family:'Bitstream Vera Sans';fill:#000000;fill-opacity:1;stroke:none;stroke-width:1px;stroke-linecap:butt;stroke-linejoin:miter;stroke-opacity:1"
       x="62.33308"
       y="212.54744"
       id="text39141"><tspan
         sodipodi:role="line"
         id="tspan39143"
         x="62.33308"
         y="212.54744"
         style="font-size:12px;line-height:1.25">x</tspan></text>
    <path
       sodipodi:type="arc"
       style="fill:none;fill-opacity:1;stroke:black;stroke-width:1;stroke-miterlimit:4;stroke-dasharray:none;stroke-dashoffset:0;stroke-opacity:1"
       id="path39145"
       sodipodi:cx="209.37263"
       sodipodi:cy="153.64714"
       sodipodi:rx="8.6167803"
       sodipodi:ry="8.6167803"
       d="M 217.98942 153.64714 A 8.6167803 8.6167803 0 1 1  200.75585,153.64714 A 8.6167803 8.6167803 0 1 1  217.98942 153.64714 z"
       transform="translate(14.66364,-43.74302)" />
    <path
       sodipodi:type="arc"
       style="fill:none;fill-opacity:1;stroke:black;stroke-width:1;stroke-miterlimit:4;stroke-dasharray:none;stroke-dashoffset:0;stroke-opacity:1"
       id="path39147"
       sodipodi:cx="209.37263"
       sodipodi:cy="153.64714"
       sodipodi:rx="8.6167803"
       sodipodi:ry="8.6167803"
       d="M 217.98942 153.64714 A 8.6167803 8.6167803 0 1 1  200.75585,153.64714 A 8.6167803 8.6167803 0 1 1  217.98942 153.64714 z"
       transform="translate(14.66364,5.938025)" />
    <path
       sodipodi:type="arc"
       style="fill:none;fill-opacity:1;stroke:black;stroke-width:1;stroke-miterlimit:4;stroke-dasharray:none;stroke-dashoffset:0;stroke-opacity:1"
       id="path39149"
       sodipodi:cx="209.37263"
       sodipodi:cy="153.64714"
       sodipodi:rx="8.6167803"
       sodipodi:ry="8.6167803"
       d="M 217.98942 153.64714 A 8.6167803 8.6167803 0 1 1  200.75585,153.64714 A 8.6167803 8.6167803 0 1 1  217.98942 153.64714 z"
       transform="translate(14.66364,55.61905)" />
    <text
       xml:space="preserve"
       style="font-style:normal;font-weight:normal;line-height:0%;font-family:'Bitstream Vera Sans';fill:#000000;fill-opacity:1;stroke:none;stroke-width:1px;stroke-linecap:butt;stroke-linejoin:miter;stroke-opacity:1"
       x="220.86736"
       y="124.25657"
       id="text39151"><tspan
         sodipodi:role="line"
         id="tspan39153"
         x="220.86736"
         y="124.25657"
         style="font-size:20px;line-height:1.25">.</tspan><tspan
         sodipodi:role="line"
         x="220.86736"
         y="149.25656"
         id="tspan39155"
         style="font-size:20px;line-height:1.25">.</tspan><tspan
         sodipodi:role="line"
         x="220.86736"
         y="174.25656"
         id="tspan39157"
         style="font-size:20px;line-height:1.25">.</tspan><tspan
         sodipodi:role="line"
         x="220.86736"
         y="199.25656"
         style="font-size:20px;line-height:1.25"
         id="tspan39159">.</tspan></text>
    <path
       style="fill:none;fill-rule:evenodd;stroke:black;stroke-width:1px;stroke-linecap:butt;stroke-linejoin:miter;stroke-opacity:1"
       d="M 65.608466,60.374276 C 214.96599,60.374276 214.96599,60.374276 214.96599,60.374276"
       id="path39161" />
    <path
       style="fill:none;fill-rule:evenodd;stroke:black;stroke-width:1px;stroke-linecap:butt;stroke-linejoin:miter;stroke-opacity:1"
       d="M 65.608466,83.6547 C 214.96599,60.67662 214.96599,60.67662 214.96599,60.67662"
       id="path39163" />
    <path
       style="fill:none;fill-rule:evenodd;stroke:black;stroke-width:1px;stroke-linecap:butt;stroke-linejoin:miter;stroke-opacity:1"
       d="M 65.910809,155.00769 C 214.96599,60.67662 214.96599,60.67662 214.96599,60.67662"
       id="path39165" />
    <path
       style="fill:none;fill-rule:evenodd;stroke:black;stroke-width:1px;stroke-linecap:butt;stroke-linejoin:miter;stroke-opacity:1"
       d="M 65.306122,209.42945 C 214.96599,60.978963 214.96599,60.978963 214.96599,60.978963"
       id="path39167" />
    <path
       style="fill:none;fill-rule:evenodd;stroke:black;stroke-width:1px;stroke-linecap:butt;stroke-linejoin:miter;stroke-opacity:1"
       d="M 215.26833,110.2609 C 215.26833,110.2609 215.26833,110.2609 65.910809,155.31003 C 215.26833,160.14752 215.26833,160.14752 215.26833,160.14752"
       id="path39169" />
    <path
       style="fill:none;fill-rule:evenodd;stroke:black;stroke-width:1px;stroke-linecap:butt;stroke-linejoin:miter;stroke-opacity:1"
       d="M 66.213152,155.61237 C 214.96599,209.12711 214.96599,209.12711 214.96599,209.12711"
       id="path39171" />
    <path
       style="fill:none;fill-rule:evenodd;stroke:black;stroke-width:1px;stroke-linecap:butt;stroke-linejoin:miter;stroke-opacity:1"
       d="M 232.80423,60.374276 C 307.18065,60.374276 307.18065,60.374276 307.18065,60.374276"
       id="path39173" />
    <path
       style="fill:none;fill-rule:evenodd;stroke:black;stroke-width:1px;stroke-linecap:butt;stroke-linejoin:miter;stroke-opacity:1"
       d="M 232.80423,109.95855 C 307.18065,109.95855 307.18065,109.95855 307.18065,109.95855"
       id="path39177" />
    <path
       style="fill:none;fill-rule:evenodd;stroke:black;stroke-width:1px;stroke-linecap:butt;stroke-linejoin:miter;stroke-opacity:1"
       d="M 233.10658,159.84518 C 307.18065,159.84518 307.18065,159.84518 307.18065,159.84518"
       id="path39179" />
    <path
       style="fill:none;fill-rule:evenodd;stroke:black;stroke-width:1px;stroke-linecap:butt;stroke-linejoin:miter;stroke-opacity:1"
       d="M 233.10658,209.42945 C 307.18065,209.42945 307.18065,209.42945 307.18065,209.42945"
       id="path39181" />
    <image
       sodipodi:absref="/home/heiner/mirepo/mi2/figures/svg/../png/section2_fig16_00.png"
       xlink:href="../png/section2_fig16_00.png"
       y="233.62781"
       x="202.69269"
       id="image39313"
       height="18.697742"
       width="12.340508" />
    <image
       sodipodi:absref="/home/heiner/mirepo/mi2/figures/svg/../png/section2_fig16_03.png"
       xlink:href="../png/section2_fig16_03.png"
       y="229.5143"
       x="234.98642"
       id="image39517"
       height="22.811245"
       width="12.340508" />
    <image
       sodipodi:absref="/home/heiner/mirepo/mi2/figures/svg/../png/standards/i.png"
       xlink:href="../png/standards/i.png"
       y="140.05455"
       x="232.88623"
       id="image39575"
       height="14.486773"
       width="7.2433863" />
    <image
       sodipodi:absref="/home/heiner/mirepo/mi2/figures/svg/../png/standards/vecBigW.png"
       xlink:href="../png/standards/vecBigW.png"
       y="234.31525"
       x="128.71921"
       id="image39783"
       height="18.010288"
       width="24.133785" />
    <image
       sodipodi:absref="/home/heiner/mirepo/mi2/figures/svg/../png/standards/w_ij.png"
       xlink:href="../png/standards/w_ij.png"
       y="133.04283"
       x="179.1519"
       id="image39886"
       height="16.114134"
       width="20.674738" />
    <image
       sodipodi:absref="/home/heiner/mirepo/mi2/figures/svg/../png/standards/vecX.png"
       xlink:href="../png/standards/vecX.png"
       y="234.44345"
       x="38.116173"
       id="image39989"
       height="17.882086"
       width="16.327122" />
    <path
       style="fill:none;fill-rule:evenodd;stroke:black;stroke-width:1;stroke-linecap:butt;stroke-linejoin:miter;stroke-opacity:1;stroke-miterlimit:4;stroke-dasharray:1,2;stroke-dashoffset:0"
       d="M 180.19652,140.79756 C 165.68405,142.91396 162.96296,153.49597 162.96296,153.49597"
       id="path39992" />
    <path
       style="fill:none;fill-rule:evenodd;stroke:black;stroke-width:1;stroke-linecap:butt;stroke-linejoin:miter;stroke-opacity:1;stroke-miterlimit:4;stroke-dasharray:1,2;stroke-dashoffset:0;marker-end:url(#Arrow1Mend)"
       d="M 209.22147,233.61691 C 209.22147,219.70912 217.38473,214.87163 217.38473,214.87163"
       id="path40879" />
    <path
       style="fill:none;fill-rule:evenodd;stroke:black;stroke-width:1;stroke-linecap:butt;stroke-linejoin:miter;stroke-opacity:1;stroke-miterlimit:4;stroke-dasharray:1,2;stroke-dashoffset:0;marker-end:url(#Arrow1Mend)"
       d="M 241.26984,229.3841 C 241.26984,216.98803 231.8972,214.26694 231.8972,214.26694"
       id="path40883" />
    <g
       ns0:preamble="/usr/share/inkscape/extensions/textextLib/basicLatexPackages.tex"
       ns0:text="$\\widehat{u}_i$"
       word-spacing="normal"
       letter-spacing="normal"
       font-size-adjust="none"
       font-stretch="normal"
       font-weight="normal"
       font-variant="normal"
       font-style="normal"
       stroke-miterlimit="10.433"
       xml:space="preserve"
       transform="matrix(1.6,0,0,-1.6,-45.472411,926.68178)"
       id="g1321"
       style="font-style:normal;font-variant:normal;font-weight:normal;font-stretch:normal;letter-spacing:normal;word-spacing:normal;text-anchor:start;fill:none;fill-opacity:1;fill-rule:evenodd;stroke:#000000;stroke-linecap:butt;stroke-linejoin:miter;stroke-miterlimit:10.43299961;stroke-dasharray:none;stroke-dashoffset:0;stroke-opacity:1"><polygon
         id="polygon1313"
         points="229.27,482.82 229.39,483.04 226.57,484.63 223.74,483.04 223.85,482.82 226.55,484.04 "
         style="fill:#000000;stroke-width:0" /><path
         id="path1315"
         d="m 226.92,477.79 0.01,-0.04 0.02,-0.03 0.01,-0.04 0.01,-0.03 0.02,-0.04 0.02,-0.03 0.02,-0.03 0.02,-0.03 0.02,-0.03 0.02,-0.03 0.02,-0.03 0.03,-0.03 0.02,-0.02 0.03,-0.03 0.03,-0.02 0.03,-0.02 0.03,-0.03 0.03,-0.01 0.03,-0.02 0.03,-0.02 0.03,-0.02 0.04,-0.01 0.03,-0.02 0.04,-0.01 0.03,-0.01 0.04,-0.01 0.04,-0.01 h 0.03 l 0.04,-0.01 h 0.04 0.04 0.04 c 0.35,0 0.58,0.22 0.74,0.54 0.17,0.36 0.3,0.97 0.3,0.99 0,0.1 -0.09,0.1 -0.12,0.1 -0.1,0 -0.11,-0.05 -0.14,-0.18 -0.14,-0.56 -0.33,-1.24 -0.75,-1.24 -0.21,0 -0.31,0.13 -0.31,0.46 0,0.22 0.12,0.69 0.2,1.03 l 0.28,1.08 c 0.03,0.15 0.13,0.52 0.17,0.67 0.05,0.23 0.15,0.61 0.15,0.67 0,0.18 -0.14,0.27 -0.29,0.27 -0.05,0 -0.31,-0.01 -0.39,-0.35 -0.19,-0.73 -0.63,-2.47 -0.75,-2.99 -0.01,-0.04 -0.41,-0.84 -1.14,-0.84 -0.51,0 -0.61,0.45 -0.61,0.82 0,0.55 0.28,1.34 0.54,2.02 0.11,0.3 0.16,0.44 0.16,0.63 0,0.45 -0.31,0.82 -0.81,0.82 -0.95,0 -1.32,-1.45 -1.32,-1.53 0,-0.1 0.1,-0.1 0.12,-0.1 0.1,0 0.11,0.02 0.16,0.17 0.25,0.87 0.63,1.24 1.01,1.24 0.09,0 0.25,-0.01 0.25,-0.33 0,-0.24 -0.11,-0.53 -0.17,-0.68 -0.37,-0.98 -0.58,-1.6 -0.58,-2.08 0,-0.95 0.69,-1.19 1.23,-1.19 0.65,0 1.01,0.44 1.18,0.66 z"
         inkscape:connector-curvature="0"
         style="fill:#000000;stroke-width:0" /><path
         id="path1317"
         d="m 231.4,480.09 v 0.01 0.01 0.01 0.01 l -0.01,0.01 v 0.01 0.01 l -0.01,0.02 v 0.01 l -0.01,0.01 v 0.01 l -0.01,0.01 v 0.01 l -0.01,0.01 -0.01,0.01 -0.01,0.01 -0.01,0.01 v 0.01 l -0.01,0.01 -0.02,0.01 h -0.01 l -0.01,0.01 -0.01,0.01 -0.01,0.01 h -0.02 l -0.01,0.01 h -0.02 -0.01 l -0.02,0.01 h -0.01 -0.02 -0.02 c -0.19,0 -0.39,-0.18 -0.39,-0.38 0,-0.12 0.09,-0.27 0.28,-0.27 0.2,0 0.39,0.2 0.39,0.39 z"
         inkscape:connector-curvature="0"
         style="fill:#000000;stroke-width:0" /><path
         id="path1319"
         d="m 229.97,476.55 v -0.01 l -0.01,-0.02 -0.01,-0.03 v -0.02 l -0.01,-0.02 v -0.01 l -0.01,-0.02 v -0.02 l -0.01,-0.02 v -0.02 -0.01 -0.01 l -0.01,-0.01 v -0.01 -0.01 -0.02 -0.01 -0.01 -0.01 c 0,-0.32 0.28,-0.59 0.66,-0.59 0.7,0 1.01,0.96 1.01,1.06 0,0.1 -0.09,0.1 -0.11,0.1 -0.1,0 -0.1,-0.05 -0.13,-0.12 -0.16,-0.56 -0.47,-0.84 -0.74,-0.84 -0.14,0 -0.18,0.09 -0.18,0.24 0,0.16 0.05,0.29 0.11,0.44 0.07,0.19 0.15,0.38 0.23,0.56 0.06,0.17 0.31,0.8 0.34,0.88 0.02,0.07 0.04,0.16 0.04,0.23 0,0.32 -0.28,0.59 -0.66,0.59 -0.69,0 -1.02,-0.95 -1.02,-1.07 0,-0.09 0.1,-0.09 0.12,-0.09 0.1,0 0.11,0.04 0.13,0.11 0.18,0.6 0.49,0.85 0.75,0.85 0.11,0 0.17,-0.05 0.17,-0.24 0,-0.16 -0.04,-0.26 -0.22,-0.7 z"
         inkscape:connector-curvature="0"
         style="fill:#000000;stroke-width:0" /></g>    <g
       ns0:preamble="/usr/share/inkscape/extensions/textextLib/basicLatexPackages.tex"
       ns0:text="$\\widehat{\\underline{\\mathbf{u}}}$"
       word-spacing="normal"
       letter-spacing="normal"
       font-size-adjust="none"
       font-stretch="normal"
       font-weight="normal"
       font-variant="normal"
       font-style="normal"
       stroke-miterlimit="10.433"
       xml:space="preserve"
       transform="matrix(1.65,0,0,-1.65,-55.472411,1036.277)"
       id="g1822"
       style="font-style:normal;font-variant:normal;font-weight:normal;font-stretch:normal;letter-spacing:normal;word-spacing:normal;text-anchor:start;fill:none;fill-opacity:1;fill-rule:evenodd;stroke:#000000;stroke-linecap:butt;stroke-linejoin:miter;stroke-miterlimit:10.43299961;stroke-dasharray:none;stroke-dashoffset:0;stroke-opacity:1"><polygon
         id="polygon1816"
         points="223.8,483.17 223.91,482.96 226.61,484.18 229.32,482.96 229.44,483.17 226.62,484.77 "
         style="fill:#000000;stroke-width:0" /><path
         id="path1818"
         d="m 227.8,477.95 v -0.78 l 1.77,0.06 v 0.47 c -0.62,0 -0.69,0 -0.69,0.39 v 3.61 l -1.83,-0.07 v -0.47 c 0.62,0 0.69,0 0.69,-0.39 v -1.9 c 0,-0.81 -0.51,-1.34 -1.24,-1.34 -0.76,0 -0.79,0.25 -0.79,0.79 v 3.38 l -1.83,-0.07 v -0.47 c 0.62,0 0.69,0 0.69,-0.39 v -2.31 c 0,-1.07 0.81,-1.29 1.79,-1.29 0.26,0 0.98,0 1.44,0.78 z"
         inkscape:connector-curvature="0"
         style="fill:#000000;stroke-width:0" /><line
         id="line1820"
         y2="475.84"
         x2="229.8"
         y1="475.84"
         x1="223.42999"
         style="stroke-width:0.398" /></g>  </g>
</svg>
