<?xml version="1.0" encoding="UTF-8" standalone="no"?>
<!-- Created with Inkscape (http://www.inkscape.org/) -->

<svg
   xmlns:ns0="http://www.iki.fi/pav/software/textext/"
   xmlns:dc="http://purl.org/dc/elements/1.1/"
   xmlns:cc="http://creativecommons.org/ns#"
   xmlns:rdf="http://www.w3.org/1999/02/22-rdf-syntax-ns#"
   xmlns:svg="http://www.w3.org/2000/svg"
   xmlns="http://www.w3.org/2000/svg"
   xmlns:xlink="http://www.w3.org/1999/xlink"
   xmlns:sodipodi="http://sodipodi.sourceforge.net/DTD/sodipodi-0.dtd"
   xmlns:inkscape="http://www.inkscape.org/namespaces/inkscape"
   width="744.09448819"
   height="1052.3622047"
   id="svg2"
   sodipodi:version="0.32"
   inkscape:version="0.92.1 r"
   sodipodi:docname="section2_fig12.svg"
   version="1.1">
  <sodipodi:namedview
     id="base"
     pagecolor="#ffffff"
     bordercolor="#666666"
     borderopacity="1.0"
     gridtolerance="10000"
     guidetolerance="10"
     objecttolerance="10"
     inkscape:pageopacity="0.0"
     inkscape:pageshadow="2"
     inkscape:zoom="2.3377909"
     inkscape:cx="138.72292"
     inkscape:cy="865.88113"
     inkscape:document-units="px"
     inkscape:current-layer="layer1"
     inkscape:window-width="1366"
     inkscape:window-height="743"
     inkscape:window-x="1280"
     inkscape:window-y="128"
     showguides="true"
     inkscape:guide-bbox="true"
     showgrid="false"
     inkscape:window-maximized="1" />
  <defs
     id="defs4">
    <marker
       inkscape:stockid="Arrow1Mstart"
       orient="auto"
       refY="0.0"
       refX="0.0"
       id="Arrow1Mstart"
       style="overflow:visible">
      <path
         id="path3814"
         d="M 0.0,0.0 L 5.0,-5.0 L -12.5,0.0 L 5.0,5.0 L 0.0,0.0 z "
         style="fill-rule:evenodd;stroke:#000000;stroke-width:1.0pt;marker-start:none"
         transform="scale(0.4) translate(10,0)" />
    </marker>
    <marker
       inkscape:stockid="Arrow1Mend"
       orient="auto"
       refY="0.0"
       refX="0.0"
       id="Arrow1Mend"
       style="overflow:visible;">
      <path
         id="path3811"
         d="M 0.0,0.0 L 5.0,-5.0 L -12.5,0.0 L 5.0,5.0 L 0.0,0.0 z "
         style="fill-rule:evenodd;stroke:#000000;stroke-width:1.0pt;marker-start:none;"
         transform="scale(0.4) rotate(180) translate(10,0)" />
    </marker>
    <marker
       inkscape:stockid="Arrow1Lend"
       orient="auto"
       refY="0.0"
       refX="0.0"
       id="Arrow1Lend"
       style="overflow:visible;">
      <path
         id="path3817"
         d="M 0.0,0.0 L 5.0,-5.0 L -12.5,0.0 L 5.0,5.0 L 0.0,0.0 z "
         style="fill-rule:evenodd;stroke:#000000;stroke-width:1.0pt;marker-start:none;"
         transform="scale(0.8) rotate(180) translate(12.5,0)" />
    </marker>
  </defs>
  <metadata
     id="metadata7">
    <rdf:RDF>
      <cc:Work
         rdf:about="">
        <dc:format>image/svg+xml</dc:format>
        <dc:type
           rdf:resource="http://purl.org/dc/dcmitype/StillImage" />
        <dc:title />
      </cc:Work>
    </rdf:RDF>
  </metadata>
  <g
     inkscape:label="Layer 1"
     inkscape:groupmode="layer"
     id="layer1">
    <path
       inkscape:connector-curvature="0"
       style="fill:none;fill-rule:evenodd;stroke:#000000;stroke-width:1px;stroke-linecap:butt;stroke-linejoin:miter;stroke-opacity:1;marker-start:url(#Arrow1Mstart);marker-mid:none;marker-end:none"
       d="m 169.57945,86.100512 c 0,164.566898 0,164.566898 0,164.566898"
       id="path1872" />
    <path
       inkscape:connector-curvature="0"
       style="fill:none;fill-rule:evenodd;stroke:#000000;stroke-width:1px;stroke-linecap:butt;stroke-linejoin:miter;stroke-opacity:1;marker-start:url(#Arrow1Mstart);marker-mid:none;marker-end:none"
       d="m 251.4879,168.00896 c -164.5669,0 -164.5669,0 -164.5669,0"
       id="path10813" />
    <circle
       style="opacity:1;fill:#000000;fill-opacity:1;stroke:#000000;stroke-width:1;stroke-miterlimit:4;stroke-dasharray:none;stroke-dashoffset:0;stroke-opacity:1"
       id="path4732"
       transform="rotate(11.6869)"
       cx="208.23413"
       cy="119.83732"
       r="1.9135686" />
    <circle
       style="opacity:1;fill:#000000;fill-opacity:1;stroke:#000000;stroke-width:1;stroke-miterlimit:4;stroke-dasharray:none;stroke-dashoffset:0;stroke-opacity:1"
       id="path26177"
       transform="rotate(11.6869)"
       cx="216.20158"
       cy="110.71926"
       r="1.9135686" />
    <circle
       style="opacity:1;fill:#000000;fill-opacity:1;stroke:#000000;stroke-width:1;stroke-miterlimit:4;stroke-dasharray:none;stroke-dashoffset:0;stroke-opacity:1"
       id="path26179"
       transform="rotate(11.6869)"
       cx="226.18303"
       cy="118.88589"
       r="1.9135686" />
    <circle
       style="opacity:1;fill:#000000;fill-opacity:1;stroke:#000000;stroke-width:1;stroke-miterlimit:4;stroke-dasharray:none;stroke-dashoffset:0;stroke-opacity:1"
       id="path26181"
       transform="rotate(11.6869)"
       cx="242.5163"
       cy="107.08964"
       r="1.9135686" />
    <circle
       style="opacity:1;fill:#000000;fill-opacity:1;stroke:#000000;stroke-width:1;stroke-miterlimit:4;stroke-dasharray:none;stroke-dashoffset:0;stroke-opacity:1"
       id="path26183"
       transform="rotate(11.6869)"
       cx="227.99783"
       cy="102.55263"
       r="1.9135686" />
    <circle
       style="opacity:1;fill:#000000;fill-opacity:1;stroke:#000000;stroke-width:1;stroke-miterlimit:4;stroke-dasharray:none;stroke-dashoffset:0;stroke-opacity:1"
       id="path26185"
       transform="rotate(11.6869)"
       cx="246.14592"
       cy="93.478592"
       r="1.9135686" />
    <circle
       style="opacity:1;fill:#000000;fill-opacity:1;stroke:#000000;stroke-width:1;stroke-miterlimit:4;stroke-dasharray:none;stroke-dashoffset:0;stroke-opacity:1"
       id="path26187"
       transform="rotate(11.6869)"
       cx="267.62115"
       cy="94.990929"
       r="1.9135686" />
    <circle
       style="opacity:1;fill:#000000;fill-opacity:1;stroke:#000000;stroke-width:1;stroke-miterlimit:4;stroke-dasharray:none;stroke-dashoffset:0;stroke-opacity:1"
       id="path26189"
       transform="rotate(11.6869)"
       cx="264.59647"
       cy="86.824295"
       r="1.9135686" />
    <circle
       style="opacity:1;fill:#000000;fill-opacity:1;stroke:#000000;stroke-width:1;stroke-miterlimit:4;stroke-dasharray:none;stroke-dashoffset:0;stroke-opacity:1"
       id="path26191"
       transform="rotate(11.6869)"
       cx="261.62381"
       cy="88.34771"
       r="1.9135686" />
    <circle
       style="opacity:1;fill:#000000;fill-opacity:1;stroke:#000000;stroke-width:1;stroke-miterlimit:4;stroke-dasharray:none;stroke-dashoffset:0;stroke-opacity:1"
       id="path26193"
       transform="rotate(11.6869)"
       cx="255.12279"
       cy="98.000603"
       r="1.9135686" />
    <circle
       style="opacity:1;fill:#000000;fill-opacity:1;stroke:#000000;stroke-width:1;stroke-miterlimit:4;stroke-dasharray:none;stroke-dashoffset:0;stroke-opacity:1"
       id="path26195"
       transform="rotate(11.6869)"
       cx="237.97928"
       cy="100.13288"
       r="1.9135686" />
    <circle
       style="opacity:1;fill:#000000;fill-opacity:1;stroke:#000000;stroke-width:1;stroke-miterlimit:4;stroke-dasharray:none;stroke-dashoffset:0;stroke-opacity:1"
       id="path26197"
       transform="rotate(11.6869)"
       cx="239.18915"
       cy="100.13288"
       r="1.9135686" />
    <circle
       style="opacity:1;fill:#000000;fill-opacity:1;stroke:#000000;stroke-width:1;stroke-miterlimit:4;stroke-dasharray:none;stroke-dashoffset:0;stroke-opacity:1"
       id="path26199"
       transform="rotate(11.6869)"
       cx="229.51018"
       cy="109.50939"
       r="1.9135686" />
    <circle
       style="opacity:1;fill:#000000;fill-opacity:1;stroke:#000000;stroke-width:1;stroke-miterlimit:4;stroke-dasharray:none;stroke-dashoffset:0;stroke-opacity:1"
       id="path26201"
       transform="rotate(11.6869)"
       cx="194.42389"
       cy="123.72538"
       r="1.9135686" />
    <circle
       style="opacity:1;fill:#000000;fill-opacity:1;stroke:#000000;stroke-width:1;stroke-miterlimit:4;stroke-dasharray:none;stroke-dashoffset:0;stroke-opacity:1"
       id="path26203"
       transform="rotate(11.6869)"
       cx="191.39922"
       cy="143.68826"
       r="1.9135686" />
    <circle
       style="opacity:1;fill:#000000;fill-opacity:1;stroke:#000000;stroke-width:1;stroke-miterlimit:4;stroke-dasharray:none;stroke-dashoffset:0;stroke-opacity:1"
       id="path26205"
       transform="rotate(11.6869)"
       cx="167.20178"
       cy="157.60179"
       r="1.9135686" />
    <circle
       style="opacity:1;fill:#000000;fill-opacity:1;stroke:#000000;stroke-width:1;stroke-miterlimit:4;stroke-dasharray:none;stroke-dashoffset:0;stroke-opacity:1"
       id="path26207"
       transform="rotate(11.6869)"
       cx="155.10306"
       cy="161.53387"
       r="1.9135686" />
    <circle
       style="opacity:1;fill:#000000;fill-opacity:1;stroke:#000000;stroke-width:1;stroke-miterlimit:4;stroke-dasharray:none;stroke-dashoffset:0;stroke-opacity:1"
       id="path26209"
       transform="rotate(11.6869)"
       cx="137.86238"
       cy="175.74986"
       r="1.9135686" />
    <circle
       style="opacity:1;fill:#000000;fill-opacity:1;stroke:#000000;stroke-width:1;stroke-miterlimit:4;stroke-dasharray:none;stroke-dashoffset:0;stroke-opacity:1"
       id="path26211"
       transform="rotate(11.6869)"
       cx="126.36861"
       cy="165.76843"
       r="1.9135686" />
    <circle
       style="opacity:1;fill:#000000;fill-opacity:1;stroke:#000000;stroke-width:1;stroke-miterlimit:4;stroke-dasharray:none;stroke-dashoffset:0;stroke-opacity:1"
       id="path26213"
       transform="rotate(11.6869)"
       cx="141.492"
       cy="157.60179"
       r="1.9135686" />
    <circle
       style="opacity:1;fill:#000000;fill-opacity:1;stroke:#000000;stroke-width:1;stroke-miterlimit:4;stroke-dasharray:none;stroke-dashoffset:0;stroke-opacity:1"
       id="path26215"
       transform="rotate(11.6869)"
       cx="141.18953"
       cy="169.39804"
       r="1.9135686" />
    <circle
       style="opacity:1;fill:#000000;fill-opacity:1;stroke:#000000;stroke-width:1;stroke-miterlimit:4;stroke-dasharray:none;stroke-dashoffset:0;stroke-opacity:1"
       id="path26217"
       transform="rotate(11.6869)"
       cx="157.22034"
       cy="150.94749"
       r="1.9135686" />
    <circle
       style="opacity:1;fill:#000000;fill-opacity:1;stroke:#000000;stroke-width:1;stroke-miterlimit:4;stroke-dasharray:none;stroke-dashoffset:0;stroke-opacity:1"
       id="path26219"
       transform="rotate(11.6869)"
       cx="170.83139"
       cy="139.15125"
       r="1.9135686" />
    <circle
       style="opacity:1;fill:#000000;fill-opacity:1;stroke:#000000;stroke-width:1;stroke-miterlimit:4;stroke-dasharray:none;stroke-dashoffset:0;stroke-opacity:1"
       id="path26221"
       transform="rotate(11.6869)"
       cx="180.2079"
       cy="138.24384"
       r="1.9135686" />
    <circle
       style="opacity:1;fill:#000000;fill-opacity:1;stroke:#000000;stroke-width:1;stroke-miterlimit:4;stroke-dasharray:none;stroke-dashoffset:0;stroke-opacity:1"
       id="path26223"
       transform="rotate(11.6869)"
       cx="173.5536"
       cy="149.13269"
       r="1.9135686" />
    <path
       sodipodi:type="arc"
       style="opacity:1;fill:black;fill-opacity:1;stroke:black;stroke-width:1;stroke-miterlimit:4;stroke-dasharray:none;stroke-dashoffset:0;stroke-opacity:1"
       id="path26225"
       sodipodi:cx="132.62503"
       sodipodi:cy="120.45428"
       sodipodi:rx="1.9135686"
       sodipodi:ry="1.9135686"
       d="M 134.5386 120.45428 A 1.9135686 1.9135686 0 1 1  130.71146,120.45428 A 1.9135686 1.9135686 0 1 1  134.5386 120.45428 z"
       transform="translate(-1.95888,-1.81063)" />
    <path
       sodipodi:type="arc"
       style="opacity:1;fill:black;fill-opacity:1;stroke:black;stroke-width:1;stroke-miterlimit:4;stroke-dasharray:none;stroke-dashoffset:0;stroke-opacity:1"
       id="path26227"
       sodipodi:cx="132.62503"
       sodipodi:cy="120.45428"
       sodipodi:rx="1.9135686"
       sodipodi:ry="1.9135686"
       d="M 134.5386 120.45428 A 1.9135686 1.9135686 0 1 1  130.71146,120.45428 A 1.9135686 1.9135686 0 1 1  134.5386 120.45428 z"
       transform="translate(14.67686,15.73251)" />
    <path
       sodipodi:type="arc"
       style="opacity:1;fill:black;fill-opacity:1;stroke:black;stroke-width:1;stroke-miterlimit:4;stroke-dasharray:none;stroke-dashoffset:0;stroke-opacity:1"
       id="path26229"
       sodipodi:cx="132.62503"
       sodipodi:cy="120.45428"
       sodipodi:rx="1.9135686"
       sodipodi:ry="1.9135686"
       d="M 134.5386 120.45428 A 1.9135686 1.9135686 0 1 1  130.71146,120.45428 A 1.9135686 1.9135686 0 1 1  134.5386 120.45428 z"
       transform="translate(25.5657,26.92382)" />
    <circle
       style="opacity:1;fill:#000000;fill-opacity:1;stroke:#000000;stroke-width:1;stroke-miterlimit:4;stroke-dasharray:none;stroke-dashoffset:0;stroke-opacity:1"
       id="path26231"
       transform="rotate(11.6869)"
       cx="200.77573"
       cy="123.72538"
       r="1.9135686" />
    <path
       sodipodi:type="arc"
       style="opacity:1;fill:black;fill-opacity:1;stroke:black;stroke-width:1;stroke-miterlimit:4;stroke-dasharray:none;stroke-dashoffset:0;stroke-opacity:1"
       id="path26233"
       sodipodi:cx="132.62503"
       sodipodi:cy="120.45428"
       sodipodi:rx="1.9135686"
       sodipodi:ry="1.9135686"
       d="M 134.5386 120.45428 A 1.9135686 1.9135686 0 1 1  130.71146,120.45428 A 1.9135686 1.9135686 0 1 1  134.5386 120.45428 z"
       transform="translate(50.97301,53.541)" />
    <path
       sodipodi:type="arc"
       style="opacity:1;fill:black;fill-opacity:1;stroke:black;stroke-width:1;stroke-miterlimit:4;stroke-dasharray:none;stroke-dashoffset:0;stroke-opacity:1"
       id="path26235"
       sodipodi:cx="132.62503"
       sodipodi:cy="120.45428"
       sodipodi:rx="1.9135686"
       sodipodi:ry="1.9135686"
       d="M 134.5386 120.45428 A 1.9135686 1.9135686 0 1 1  130.71146,120.45428 A 1.9135686 1.9135686 0 1 1  134.5386 120.45428 z"
       transform="translate(68.81862,69.26934)" />
    <path
       sodipodi:type="arc"
       style="opacity:1;fill:black;fill-opacity:1;stroke:black;stroke-width:1;stroke-miterlimit:4;stroke-dasharray:none;stroke-dashoffset:0;stroke-opacity:1"
       id="path26237"
       sodipodi:cx="132.62503"
       sodipodi:cy="120.45428"
       sodipodi:rx="1.9135686"
       sodipodi:ry="1.9135686"
       d="M 134.5386 120.45428 A 1.9135686 1.9135686 0 1 1  130.71146,120.45428 A 1.9135686 1.9135686 0 1 1  134.5386 120.45428 z"
       transform="translate(85.45436,89.53469)" />
    <path
       sodipodi:type="arc"
       style="opacity:1;fill:black;fill-opacity:1;stroke:black;stroke-width:1;stroke-miterlimit:4;stroke-dasharray:none;stroke-dashoffset:0;stroke-opacity:1"
       id="path26239"
       sodipodi:cx="132.62503"
       sodipodi:cy="120.45428"
       sodipodi:rx="1.9135686"
       sodipodi:ry="1.9135686"
       d="M 134.5386 120.45428 A 1.9135686 1.9135686 0 1 1  130.71146,120.45428 A 1.9135686 1.9135686 0 1 1  134.5386 120.45428 z"
       transform="translate(91.20125,97.09639)" />
    <path
       sodipodi:type="arc"
       style="opacity:1;fill:black;fill-opacity:1;stroke:black;stroke-width:1;stroke-miterlimit:4;stroke-dasharray:none;stroke-dashoffset:0;stroke-opacity:1"
       id="path26241"
       sodipodi:cx="132.62503"
       sodipodi:cy="120.45428"
       sodipodi:rx="1.9135686"
       sodipodi:ry="1.9135686"
       d="M 134.5386 120.45428 A 1.9135686 1.9135686 0 1 1  130.71146,120.45428 A 1.9135686 1.9135686 0 1 1  134.5386 120.45428 z"
       transform="translate(84.54695,98.00379)" />
    <path
       sodipodi:type="arc"
       style="opacity:1;fill:black;fill-opacity:1;stroke:black;stroke-width:1;stroke-miterlimit:4;stroke-dasharray:none;stroke-dashoffset:0;stroke-opacity:1"
       id="path26243"
       sodipodi:cx="132.62503"
       sodipodi:cy="120.45428"
       sodipodi:rx="1.9135686"
       sodipodi:ry="1.9135686"
       d="M 134.5386 120.45428 A 1.9135686 1.9135686 0 1 1  130.71146,120.45428 A 1.9135686 1.9135686 0 1 1  134.5386 120.45428 z"
       transform="translate(77.59019,92.2569)" />
    <path
       sodipodi:type="arc"
       style="opacity:1;fill:black;fill-opacity:1;stroke:black;stroke-width:1;stroke-miterlimit:4;stroke-dasharray:none;stroke-dashoffset:0;stroke-opacity:1"
       id="path26245"
       sodipodi:cx="132.62503"
       sodipodi:cy="120.45428"
       sodipodi:rx="1.9135686"
       sodipodi:ry="1.9135686"
       d="M 134.5386 120.45428 A 1.9135686 1.9135686 0 1 1  130.71146,120.45428 A 1.9135686 1.9135686 0 1 1  134.5386 120.45428 z"
       transform="translate(70.02849,84.6952)" />
    <path
       sodipodi:type="arc"
       style="opacity:1;fill:black;fill-opacity:1;stroke:black;stroke-width:1;stroke-miterlimit:4;stroke-dasharray:none;stroke-dashoffset:0;stroke-opacity:1"
       id="path26247"
       sodipodi:cx="132.62503"
       sodipodi:cy="120.45428"
       sodipodi:rx="1.9135686"
       sodipodi:ry="1.9135686"
       d="M 134.5386 120.45428 A 1.9135686 1.9135686 0 1 1  130.71146,120.45428 A 1.9135686 1.9135686 0 1 1  134.5386 120.45428 z"
       transform="translate(57.92977,73.50389)" />
    <path
       sodipodi:type="arc"
       style="opacity:1;fill:black;fill-opacity:1;stroke:black;stroke-width:1;stroke-miterlimit:4;stroke-dasharray:none;stroke-dashoffset:0;stroke-opacity:1"
       id="path26249"
       sodipodi:cx="132.62503"
       sodipodi:cy="120.45428"
       sodipodi:rx="1.9135686"
       sodipodi:ry="1.9135686"
       d="M 134.5386 120.45428 A 1.9135686 1.9135686 0 1 1  130.71146,120.45428 A 1.9135686 1.9135686 0 1 1  134.5386 120.45428 z"
       transform="translate(52.18288,65.94219)" />
    <path
       sodipodi:type="arc"
       style="opacity:1;fill:black;fill-opacity:1;stroke:black;stroke-width:1;stroke-miterlimit:4;stroke-dasharray:none;stroke-dashoffset:0;stroke-opacity:1"
       id="path26251"
       sodipodi:cx="132.62503"
       sodipodi:cy="120.45428"
       sodipodi:rx="1.9135686"
       sodipodi:ry="1.9135686"
       d="M 134.5386 120.45428 A 1.9135686 1.9135686 0 1 1  130.71146,120.45428 A 1.9135686 1.9135686 0 1 1  134.5386 120.45428 z"
       transform="translate(39.17676,53.23854)" />
    <circle
       style="opacity:1;fill:#000000;fill-opacity:1;stroke:#000000;stroke-width:1;stroke-miterlimit:4;stroke-dasharray:none;stroke-dashoffset:0;stroke-opacity:1"
       id="path26253"
       transform="rotate(11.6869)"
       cx="191.09674"
       cy="129.77473"
       r="1.9135686" />
    <path
       sodipodi:type="arc"
       style="opacity:1;fill:black;fill-opacity:1;stroke:black;stroke-width:1;stroke-miterlimit:4;stroke-dasharray:none;stroke-dashoffset:0;stroke-opacity:1"
       id="path26255"
       sodipodi:cx="132.62503"
       sodipodi:cy="120.45428"
       sodipodi:rx="1.9135686"
       sodipodi:ry="1.9135686"
       d="M 134.5386 120.45428 A 1.9135686 1.9135686 0 1 1  130.71146,120.45428 A 1.9135686 1.9135686 0 1 1  134.5386 120.45428 z"
       transform="translate(10.13984,32.67072)" />
    <path
       sodipodi:type="arc"
       style="opacity:1;fill:black;fill-opacity:1;stroke:black;stroke-width:1;stroke-miterlimit:4;stroke-dasharray:none;stroke-dashoffset:0;stroke-opacity:1"
       id="path26257"
       sodipodi:cx="132.62503"
       sodipodi:cy="120.45428"
       sodipodi:rx="1.9135686"
       sodipodi:ry="1.9135686"
       d="M 134.5386 120.45428 A 1.9135686 1.9135686 0 1 1  130.71146,120.45428 A 1.9135686 1.9135686 0 1 1  134.5386 120.45428 z"
       transform="translate(4.695415,22.68927)" />
    <path
       sodipodi:type="arc"
       style="opacity:1;fill:black;fill-opacity:1;stroke:black;stroke-width:1;stroke-miterlimit:4;stroke-dasharray:none;stroke-dashoffset:0;stroke-opacity:1"
       id="path26259"
       sodipodi:cx="132.62503"
       sodipodi:cy="120.45428"
       sodipodi:rx="1.9135686"
       sodipodi:ry="1.9135686"
       d="M 134.5386 120.45428 A 1.9135686 1.9135686 0 1 1  130.71146,120.45428 A 1.9135686 1.9135686 0 1 1  134.5386 120.45428 z"
       transform="translate(-10.12551,3.028857)" />
    <path
       sodipodi:type="arc"
       style="opacity:1;fill:black;fill-opacity:1;stroke:black;stroke-width:1;stroke-miterlimit:4;stroke-dasharray:none;stroke-dashoffset:0;stroke-opacity:1"
       id="path26261"
       sodipodi:cx="132.62503"
       sodipodi:cy="120.45428"
       sodipodi:rx="1.9135686"
       sodipodi:ry="1.9135686"
       d="M 134.5386 120.45428 A 1.9135686 1.9135686 0 1 1  130.71146,120.45428 A 1.9135686 1.9135686 0 1 1  134.5386 120.45428 z"
       transform="translate(-22.82917,-9.674797)" />
    <path
       sodipodi:type="arc"
       style="opacity:1;fill:black;fill-opacity:1;stroke:black;stroke-width:1;stroke-miterlimit:4;stroke-dasharray:none;stroke-dashoffset:0;stroke-opacity:1"
       id="path26263"
       sodipodi:cx="132.62503"
       sodipodi:cy="120.45428"
       sodipodi:rx="1.9135686"
       sodipodi:ry="1.9135686"
       d="M 134.5386 120.45428 A 1.9135686 1.9135686 0 1 1  130.71146,120.45428 A 1.9135686 1.9135686 0 1 1  134.5386 120.45428 z"
       transform="translate(-8.915642,-7.557521)" />
    <path
       sodipodi:type="arc"
       style="opacity:1;fill:black;fill-opacity:1;stroke:black;stroke-width:1;stroke-miterlimit:4;stroke-dasharray:none;stroke-dashoffset:0;stroke-opacity:1"
       id="path26265"
       sodipodi:cx="132.62503"
       sodipodi:cy="120.45428"
       sodipodi:rx="1.9135686"
       sodipodi:ry="1.9135686"
       d="M 134.5386 120.45428 A 1.9135686 1.9135686 0 1 1  130.71146,120.45428 A 1.9135686 1.9135686 0 1 1  134.5386 120.45428 z"
       transform="translate(25.26323,38.11514)" />
    <path
       sodipodi:type="arc"
       style="opacity:1;fill:black;fill-opacity:1;stroke:black;stroke-width:1;stroke-miterlimit:4;stroke-dasharray:none;stroke-dashoffset:0;stroke-opacity:1"
       id="path26267"
       sodipodi:cx="132.62503"
       sodipodi:cy="120.45428"
       sodipodi:rx="1.9135686"
       sodipodi:ry="1.9135686"
       d="M 134.5386 120.45428 A 1.9135686 1.9135686 0 1 1  130.71146,120.45428 A 1.9135686 1.9135686 0 1 1  134.5386 120.45428 z"
       transform="translate(15.28179,25.10902)" />
    <path
       sodipodi:type="arc"
       style="opacity:1;fill:black;fill-opacity:1;stroke:black;stroke-width:1;stroke-miterlimit:4;stroke-dasharray:none;stroke-dashoffset:0;stroke-opacity:1"
       id="path26269"
       sodipodi:cx="132.62503"
       sodipodi:cy="120.45428"
       sodipodi:rx="1.9135686"
       sodipodi:ry="1.9135686"
       d="M 134.5386 120.45428 A 1.9135686 1.9135686 0 1 1  130.71146,120.45428 A 1.9135686 1.9135686 0 1 1  134.5386 120.45428 z"
       transform="translate(4.090479,13.9177)" />
    <path
       sodipodi:type="arc"
       style="opacity:1;fill:black;fill-opacity:1;stroke:black;stroke-width:1;stroke-miterlimit:4;stroke-dasharray:none;stroke-dashoffset:0;stroke-opacity:1"
       id="path26271"
       sodipodi:cx="132.62503"
       sodipodi:cy="120.45428"
       sodipodi:rx="1.9135686"
       sodipodi:ry="1.9135686"
       d="M 134.5386 120.45428 A 1.9135686 1.9135686 0 1 1  130.71146,120.45428 A 1.9135686 1.9135686 0 1 1  134.5386 120.45428 z"
       transform="translate(78.19512,79.55325)" />
    <path
       style="fill:#ff0000;fill-opacity:1;fill-rule:evenodd;stroke:#ff0000;stroke-width:1;stroke-linecap:butt;stroke-linejoin:miter;stroke-miterlimit:4;stroke-dasharray:none;stroke-opacity:1;marker-end:url(#Arrow1Mend)"
       d="m 169.7275,167.60047 64.02719,-29.24322"
       id="path26273"
       inkscape:connector-curvature="0"
       sodipodi:nodetypes="cc" />
    <path
       style="fill:#ff0000;fill-rule:evenodd;stroke:#ff0000;stroke-width:1;stroke-linecap:butt;stroke-linejoin:miter;marker-end:url(#Arrow1Mend);stroke-opacity:1;stroke-miterlimit:4;stroke-dasharray:none"
       d="M 169.4421,167.7035 C 214.03164,210.17739 214.03164,210.17739 214.03164,210.17739"
       id="path28045" />
    <image
       sodipodi:absref="/home/heiner/mirepo/mi2/figures/svg/../png/standards/vecA_1.png"
       xlink:href="../png/standards/vecA_1.png"
       width="17.149876"
       height="14.123427"
       id="image28117"
       x="227.86049"
       y="94.032585" />
    <image
       sodipodi:absref="/home/heiner/mirepo/mi2/figures/svg/../png/standards/vecA_2.png"
       xlink:href="../png/standards/vecA_2.png"
       width="16.477331"
       height="13.450883"
       id="image28235"
       x="226.19676"
       y="173.46243" />
    <image
       sodipodi:absref="/home/heiner/mirepo/mi2/figures/svg/../png/standards/observations.png"
       xlink:href="../png/standards/observations.png"
       width="68.135834"
       height="11.401216"
       id="image28293"
       x="77.758461"
       y="83.779633" />
    <path
       style="fill:none;fill-rule:evenodd;stroke:black;stroke-width:1;stroke-linecap:butt;stroke-linejoin:miter;stroke-opacity:1;stroke-miterlimit:4;stroke-dasharray:1,2;stroke-dashoffset:0;marker-end:url(#Arrow1Mend)"
       d="M 119.7773,94.446212 C 135.80811,106.54493 144.57968,131.04483 144.57968,131.04483"
       id="path28296" />
    <path
       style="fill:none;fill-rule:evenodd;stroke:#000000;stroke-width:1;stroke-linecap:butt;stroke-linejoin:miter;stroke-miterlimit:4;stroke-dasharray:1, 2;stroke-dashoffset:0;stroke-opacity:1;marker-end:url(#Arrow1Mend)"
       d="m 227.94355,100.51413 c -12.70365,8.16663 -3.32714,36.90109 -3.32714,36.90109"
       id="path29183"
       inkscape:connector-curvature="0" />
    <path
       style="fill:none;fill-rule:evenodd;stroke:black;stroke-width:1;stroke-linecap:butt;stroke-linejoin:miter;stroke-opacity:1;stroke-miterlimit:4;stroke-dasharray:1,2;stroke-dashoffset:0;marker-end:url(#Arrow1Mend)"
       d="M 226.54849,179.74217 C 213.84483,179.4397 202.35105,197.28531 202.35105,197.28531"
       id="path29185" />
    <g
       style="font-style:normal;font-variant:normal;font-weight:normal;font-stretch:normal;letter-spacing:normal;word-spacing:normal;text-anchor:start;fill:none;fill-opacity:1;fill-rule:evenodd;stroke:#000000;stroke-linecap:butt;stroke-linejoin:miter;stroke-miterlimit:10.43299961;stroke-dasharray:none;stroke-dashoffset:0;stroke-opacity:1"
       id="content"
       transform="matrix(1.5,0,0,-1.5,-80.099987,886.4877)"
       xml:space="preserve"
       stroke-miterlimit="10.433"
       font-style="normal"
       font-variant="normal"
       font-weight="normal"
       font-stretch="normal"
       font-size-adjust="none"
       letter-spacing="normal"
       word-spacing="normal"
       ns0:text="$\\mathrm{x}_1$"
       ns0:preamble="/usr/share/inkscape/extensions/textextLib/basicLatexPackages.tex"><path
         style="fill:#000000;stroke-width:0"
         inkscape:connector-curvature="0"
         d="m 226.29,479.57 0.06,0.07 0.06,0.08 0.06,0.07 0.06,0.08 0.12,0.15 0.06,0.08 0.07,0.08 0.06,0.07 0.05,0.07 0.06,0.07 0.06,0.07 0.03,0.03 0.02,0.03 0.03,0.04 0.03,0.03 0.02,0.02 0.02,0.03 0.03,0.03 0.02,0.02 c 0.31,0.36 0.72,0.51 1.19,0.52 v 0.31 c -0.26,-0.02 -0.56,-0.03 -0.82,-0.03 -0.3,0 -0.83,0.02 -0.96,0.03 v -0.31 c 0.21,-0.02 0.29,-0.15 0.29,-0.31 0,-0.16 -0.1,-0.29 -0.15,-0.35 l -0.62,-0.77 -0.77,1 c -0.09,0.1 -0.09,0.12 -0.09,0.18 0,0.15 0.15,0.24 0.35,0.25 v 0.31 c -0.26,-0.01 -0.92,-0.03 -1.08,-0.03 -0.21,0 -0.68,0.01 -0.95,0.03 v -0.31 c 0.7,0 0.71,-0.01 1.18,-0.61 l 0.98,-1.28 -0.93,-1.18 c -0.48,-0.58 -1.07,-0.6 -1.28,-0.6 v -0.31 c 0.26,0.03 0.57,0.04 0.83,0.04 0.29,0 0.71,-0.03 0.95,-0.04 v 0.31 c -0.22,0.03 -0.29,0.16 -0.29,0.31 0,0.22 0.29,0.55 0.89,1.26 l 0.76,-0.99 c 0.08,-0.11 0.21,-0.27 0.21,-0.33 0,-0.09 -0.09,-0.24 -0.36,-0.25 v -0.31 c 0.3,0.01 0.86,0.04 1.08,0.04 0.27,0 0.66,-0.01 0.96,-0.04 v 0.31 c -0.54,0 -0.72,0.02 -0.95,0.31 z"
         id="path4639" /><path
         style="fill:#000000;stroke-width:0"
         inkscape:connector-curvature="0"
         d="m 231.03,480.16 v 0.01 0.01 0.01 0.01 0 0.01 0.01 0.01 0 0.01 0.01 0 0.01 0 0.01 0 0.01 h -0.01 v 0.01 0.01 0.01 h -0.01 v 0.01 0.01 H 231 v 0.01 h -0.01 -0.01 l -0.01,0.01 v 0 h -0.01 -0.01 -0.01 v 0 h -0.01 v 0.01 h -0.01 -0.01 v 0 h -0.01 -0.01 v 0 h -0.01 -0.01 v 0 h -0.01 -0.01 -0.01 -0.01 -0.01 c -0.44,-0.44 -1.08,-0.45 -1.37,-0.45 v -0.25 c 0.17,0 0.63,0 1.02,0.2 v -3.55 c 0,-0.23 0,-0.32 -0.7,-0.32 h -0.27 v -0.25 c 0.13,0.01 0.99,0.03 1.25,0.03 0.21,0 1.09,-0.02 1.25,-0.03 v 0.25 h -0.27 c -0.7,0 -0.7,0.09 -0.7,0.32 z"
         id="path4641" /></g>    <g
       style="font-style:normal;font-variant:normal;font-weight:normal;font-stretch:normal;letter-spacing:normal;word-spacing:normal;text-anchor:start;fill:none;fill-opacity:1;fill-rule:evenodd;stroke:#000000;stroke-linecap:butt;stroke-linejoin:miter;stroke-miterlimit:10.43299961;stroke-dasharray:none;stroke-dashoffset:0;stroke-opacity:1"
       ns0:preamble="/usr/share/inkscape/extensions/textextLib/basicLatexPackages.tex"
       ns0:text="$\\mathrm{x}_2$"
       word-spacing="normal"
       letter-spacing="normal"
       font-size-adjust="none"
       font-stretch="normal"
       font-weight="normal"
       font-variant="normal"
       font-style="normal"
       stroke-miterlimit="10.433"
       xml:space="preserve"
       transform="matrix(1.5,0,0,-1.5,-172.74384,797.38806)"
       id="g4819"><path
         id="path4815"
         d="m 226.29,479.57 0.06,0.07 0.06,0.08 0.06,0.07 0.06,0.08 0.12,0.15 0.06,0.08 0.07,0.08 0.06,0.07 0.05,0.07 0.06,0.07 0.06,0.07 0.03,0.03 0.02,0.03 0.03,0.04 0.03,0.03 0.02,0.02 0.02,0.03 0.03,0.03 0.02,0.02 c 0.31,0.36 0.72,0.51 1.19,0.52 v 0.31 c -0.26,-0.02 -0.56,-0.03 -0.82,-0.03 -0.3,0 -0.83,0.02 -0.96,0.03 v -0.31 c 0.21,-0.02 0.29,-0.15 0.29,-0.31 0,-0.16 -0.1,-0.29 -0.15,-0.35 l -0.62,-0.77 -0.77,1 c -0.09,0.1 -0.09,0.12 -0.09,0.18 0,0.15 0.15,0.24 0.35,0.25 v 0.31 c -0.26,-0.01 -0.92,-0.03 -1.08,-0.03 -0.21,0 -0.68,0.01 -0.95,0.03 v -0.31 c 0.7,0 0.71,-0.01 1.18,-0.61 l 0.98,-1.28 -0.93,-1.18 c -0.48,-0.58 -1.07,-0.6 -1.28,-0.6 v -0.31 c 0.26,0.03 0.57,0.04 0.83,0.04 0.29,0 0.71,-0.03 0.95,-0.04 v 0.31 c -0.22,0.03 -0.29,0.16 -0.29,0.31 0,0.22 0.29,0.55 0.89,1.26 l 0.76,-0.99 c 0.08,-0.11 0.21,-0.27 0.21,-0.33 0,-0.09 -0.09,-0.24 -0.36,-0.25 v -0.31 c 0.3,0.01 0.86,0.04 1.08,0.04 0.27,0 0.66,-0.01 0.96,-0.04 v 0.31 c -0.54,0 -0.72,0.02 -0.95,0.31 z"
         inkscape:connector-curvature="0"
         style="fill:#000000;stroke-width:0" /><path
         id="path4817"
         d="m 232.22,477.01 h -0.24 c -0.02,-0.16 -0.09,-0.57 -0.18,-0.64 -0.06,-0.04 -0.59,-0.04 -0.69,-0.04 h -1.29 c 0.74,0.65 0.98,0.84 1.4,1.17 0.52,0.41 1,0.84 1,1.5 0,0.84 -0.74,1.36 -1.63,1.36 -0.87,0 -1.46,-0.61 -1.46,-1.25 0,-0.35 0.3,-0.39 0.37,-0.39 0.17,0 0.37,0.12 0.37,0.37 0,0.13 -0.05,0.37 -0.41,0.37 0.22,0.49 0.69,0.65 1.02,0.65 0.7,0 1.06,-0.54 1.06,-1.11 0,-0.6 -0.43,-1.08 -0.65,-1.33 l -1.69,-1.66 c -0.07,-0.06 -0.07,-0.07 -0.07,-0.27 h 2.88 z"
         inkscape:connector-curvature="0"
         style="fill:#000000;stroke-width:0" /></g>  </g>
</svg>
