<?xml version="1.0" encoding="UTF-8" standalone="no"?>
<!-- Created with Inkscape (http://www.inkscape.org/) -->

<svg
   xmlns:ns0="http://www.iki.fi/pav/software/textext/"
   xmlns:dc="http://purl.org/dc/elements/1.1/"
   xmlns:cc="http://creativecommons.org/ns#"
   xmlns:rdf="http://www.w3.org/1999/02/22-rdf-syntax-ns#"
   xmlns:svg="http://www.w3.org/2000/svg"
   xmlns="http://www.w3.org/2000/svg"
   xmlns:xlink="http://www.w3.org/1999/xlink"
   xmlns:sodipodi="http://sodipodi.sourceforge.net/DTD/sodipodi-0.dtd"
   xmlns:inkscape="http://www.inkscape.org/namespaces/inkscape"
   width="744.09448819"
   height="1052.3622047"
   id="svg2"
   sodipodi:version="0.32"
   inkscape:version="0.92.1 r"
   sodipodi:docname="section2_fig14.svg"
   version="1.1">
  <sodipodi:namedview
     id="base"
     pagecolor="#ffffff"
     bordercolor="#666666"
     borderopacity="1.0"
     gridtolerance="10000"
     guidetolerance="10"
     objecttolerance="10"
     inkscape:pageopacity="0.0"
     inkscape:pageshadow="2"
     inkscape:zoom="1.2152798"
     inkscape:cx="527.89473"
     inkscape:cy="824.80468"
     inkscape:document-units="px"
     inkscape:current-layer="layer1"
     inkscape:window-width="1366"
     inkscape:window-height="717"
     inkscape:window-x="0"
     inkscape:window-y="26"
     showguides="true"
     inkscape:guide-bbox="true"
     showgrid="false"
     inkscape:window-maximized="1" />
  <defs
     id="defs4">
    <marker
       style="overflow:visible"
       id="Arrow1Mstart"
       refX="0.0"
       refY="0.0"
       orient="auto"
       inkscape:stockid="Arrow1Mstart">
      <path
         transform="scale(0.4) translate(10,0)"
         style="fill-rule:evenodd;stroke:#000000;stroke-width:1.0pt;marker-start:none"
         d="M 0.0,0.0 L 5.0,-5.0 L -12.5,0.0 L 5.0,5.0 L 0.0,0.0 z "
         id="path3814" />
    </marker>
    <marker
       style="overflow:visible;"
       id="Arrow1Mend"
       refX="0.0"
       refY="0.0"
       orient="auto"
       inkscape:stockid="Arrow1Mend">
      <path
         transform="scale(0.4) rotate(180) translate(10,0)"
         style="fill-rule:evenodd;stroke:#000000;stroke-width:1.0pt;marker-start:none;"
         d="M 0.0,0.0 L 5.0,-5.0 L -12.5,0.0 L 5.0,5.0 L 0.0,0.0 z "
         id="path3811" />
    </marker>
    <marker
       style="overflow:visible;"
       id="Arrow1Lend"
       refX="0.0"
       refY="0.0"
       orient="auto"
       inkscape:stockid="Arrow1Lend">
      <path
         transform="scale(0.8) rotate(180) translate(12.5,0)"
         style="fill-rule:evenodd;stroke:#000000;stroke-width:1.0pt;marker-start:none;"
         d="M 0.0,0.0 L 5.0,-5.0 L -12.5,0.0 L 5.0,5.0 L 0.0,0.0 z "
         id="path3817" />
    </marker>
  </defs>
  <metadata
     id="metadata7">
    <rdf:RDF>
      <cc:Work
         rdf:about="">
        <dc:format>image/svg+xml</dc:format>
        <dc:type
           rdf:resource="http://purl.org/dc/dcmitype/StillImage" />
        <dc:title />
      </cc:Work>
    </rdf:RDF>
  </metadata>
  <g
     id="layer1"
     inkscape:groupmode="layer"
     inkscape:label="Layer 1">
    <g
       transform="translate(0,-4.042923)"
       id="g32698">
      <rect
         style="opacity:1;fill:white;fill-opacity:1;stroke:none;stroke-width:1;stroke-miterlimit:4;stroke-dasharray:none;stroke-dashoffset:0;stroke-opacity:1"
         id="rect17001"
         width="68.005287"
         height="30.911493"
         x="53.138325"
         y="236.44598" />
      <path
         style="fill:none;fill-rule:evenodd;stroke:black;stroke-width:1px;stroke-linecap:butt;stroke-linejoin:miter;marker-start:url(#Arrow1Mstart);marker-mid:none;marker-end:none;stroke-opacity:1"
         d="M 73.304397,95.283489 C 73.304397,259.85039 73.304397,259.85039 73.304397,259.85039"
         id="path1872" />
      <path
         style="fill:none;fill-rule:evenodd;stroke:black;stroke-width:1px;stroke-linecap:butt;stroke-linejoin:miter;marker-end:url(#Arrow1Mend);stroke-opacity:1"
         d="M 62.411776,251.90172 C 320.59634,251.90172 320.59634,251.90172 320.59634,251.90172"
         id="path1874" />
    </g>
    <g
       transform="translate(308.0644,-4.042923)"
       id="g32703">
      <rect
         style="opacity:1;fill:white;fill-opacity:1;stroke:none;stroke-width:1;stroke-miterlimit:4;stroke-dasharray:none;stroke-dashoffset:0;stroke-opacity:1"
         id="rect32705"
         width="68.005287"
         height="30.911493"
         x="53.138325"
         y="236.44598" />
      <path
         style="fill:none;fill-rule:evenodd;stroke:black;stroke-width:1px;stroke-linecap:butt;stroke-linejoin:miter;marker-start:url(#Arrow1Mstart);marker-mid:none;marker-end:none;stroke-opacity:1"
         d="M 73.304397,95.283489 C 73.304397,259.85039 73.304397,259.85039 73.304397,259.85039"
         id="path32707" />
      <path
         style="fill:none;fill-rule:evenodd;stroke:black;stroke-width:1px;stroke-linecap:butt;stroke-linejoin:miter;marker-end:url(#Arrow1Mend);stroke-opacity:1"
         d="M 62.411776,251.90172 C 320.59634,251.90172 320.59634,251.90172 320.59634,251.90172"
         id="path32709" />
    </g>
    <g
       transform="translate(0,199.3731)"
       id="g32711">
      <rect
         style="opacity:1;fill:white;fill-opacity:1;stroke:none;stroke-width:1;stroke-miterlimit:4;stroke-dasharray:none;stroke-dashoffset:0;stroke-opacity:1"
         id="rect32713"
         width="68.005287"
         height="30.911493"
         x="53.138325"
         y="236.44598" />
      <path
         style="fill:none;fill-rule:evenodd;stroke:black;stroke-width:1px;stroke-linecap:butt;stroke-linejoin:miter;marker-start:url(#Arrow1Mstart);marker-mid:none;marker-end:none;stroke-opacity:1"
         d="M 73.304397,95.283489 C 73.304397,259.85039 73.304397,259.85039 73.304397,259.85039"
         id="path32715" />
      <path
         style="fill:none;fill-rule:evenodd;stroke:black;stroke-width:1px;stroke-linecap:butt;stroke-linejoin:miter;marker-end:url(#Arrow1Mend);stroke-opacity:1"
         d="M 62.411776,251.90172 C 320.59634,251.90172 320.59634,251.90172 320.59634,251.90172"
         id="path32717" />
    </g>
    <image
       sodipodi:absref="/home/heiner/mirepo/mi2/figures/svg/../png/section2_fig14_00.png"
       xlink:href="../png/section2_fig14_00.png"
       width="19.808558"
       height="22.449697"
       id="image32759"
       x="63.808842"
       y="66.932556" />
    <image
       sodipodi:absref="/home/heiner/mirepo/mi2/figures/svg/../png/section2_fig14_02.png"
       xlink:href="../png/section2_fig14_02.png"
       width="18.047796"
       height="22.449697"
       id="image32845"
       x="322.95981"
       y="439.15033" />
    <image
       sodipodi:absref="/home/heiner/mirepo/mi2/figures/svg/../png/section2_fig14_05.png"
       xlink:href="../png/section2_fig14_05.png"
       width="61.626621"
       height="29.492741"
       id="image33019"
       x="633.68304"
       y="234.53256" />
    <image
       sodipodi:absref="/home/heiner/mirepo/mi2/figures/svg/../png/section2_fig14_06.png"
       xlink:href="../png/section2_fig14_06.png"
       width="56.344337"
       height="28.61236"
       id="image33182"
       x="48.102047"
       y="262.45032" />
    <image
       sodipodi:absref="/home/heiner/mirepo/mi2/figures/svg/../png/section2_fig14_00.png"
       xlink:href="../png/section2_fig14_00.png"
       width="19.808558"
       height="22.449697"
       id="image33436"
       x="370.6236"
       y="65.961929" />
    <image
       sodipodi:absref="/home/heiner/mirepo/mi2/figures/svg/../png/section2_fig14_02.png"
       xlink:href="../png/section2_fig14_02.png"
       width="18.047796"
       height="22.449697"
       id="image33438"
       x="323.79254"
       y="236.44305" />
    <path
       id="path33440"
       d="M 75.652231,200.52619 C 324.65844,125.41036 324.65844,125.41036 324.65844,125.41036"
       style="fill:none;fill-rule:evenodd;stroke:black;stroke-width:1;stroke-linecap:butt;stroke-linejoin:miter;stroke-opacity:1;stroke-miterlimit:4;stroke-dasharray:none" />
    <path
       sodipodi:nodetypes="css"
       id="path33442"
       d="M 76.803791,448.4051 C 160.58974,448.4051 166.40821,398.94811 199.57349,397.20257 C 232.73876,395.45703 225.7566,444.91402 304.30593,446.07771"
       style="fill:none;fill-rule:evenodd;stroke:black;stroke-width:1px;stroke-linecap:butt;stroke-linejoin:miter;stroke-opacity:1" />
    <path
       sodipodi:nodetypes="css"
       id="path33444"
       d="M 385.76449,121.98899 C 398.56512,155.15426 557.99118,147.59025 558.57302,162.71828 C 559.17845,178.45954 400.89252,166.7912 385.18265,197.62908"
       style="fill:none;fill-rule:evenodd;stroke:black;stroke-width:1px;stroke-linecap:butt;stroke-linejoin:miter;stroke-opacity:1" />
    <path
       id="path33452"
       d="M 202.48272,450.61883 C 202.48272,162.83193 202.48272,162.83193 202.48272,162.83193"
       style="fill:none;fill-rule:evenodd;stroke:black;stroke-width:1;stroke-linecap:butt;stroke-linejoin:miter;stroke-opacity:1;stroke-miterlimit:4;stroke-dasharray:4,4;stroke-dashoffset:0" />
    <path
       id="path34339"
       d="M 442.78549,144.68102 C 262.9948,144.68102 262.9948,144.68102 262.9948,144.68102"
       style="fill:none;fill-rule:evenodd;stroke:black;stroke-width:1;stroke-linecap:butt;stroke-linejoin:miter;stroke-opacity:1;stroke-miterlimit:4;stroke-dasharray:4,4;stroke-dashoffset:0" />
    <path
       id="path34341"
       d="M 202.48272,162.71827 C 557.99118,162.71827 557.99118,162.71827 557.99118,162.71827"
       style="fill:none;fill-rule:evenodd;stroke:black;stroke-width:1;stroke-linecap:butt;stroke-linejoin:miter;stroke-opacity:1;stroke-miterlimit:4;stroke-dasharray:4,4;stroke-dashoffset:0" />
    <path
       id="path34343"
       d="M 263.57665,144.09917 C 263.57665,450.73249 263.57665,450.73249 263.57665,450.73249"
       style="fill:none;fill-rule:evenodd;stroke:black;stroke-width:1;stroke-linecap:butt;stroke-linejoin:miter;stroke-opacity:1;stroke-miterlimit:4;stroke-dasharray:4,4;stroke-dashoffset:0" />
    <path
       id="path34345"
       d="M 382.27341,160.97273 C 409.77053,145.09727 409.77053,145.09727 409.77053,145.09727"
       style="fill:none;fill-rule:evenodd;stroke:black;stroke-width:1px;stroke-linecap:butt;stroke-linejoin:miter;stroke-opacity:1" />
    <path
       id="path34347"
       d="M 382.27341,153.40872 C 396.52586,145.18007 396.52586,145.18007 396.52586,145.18007"
       style="fill:none;fill-rule:evenodd;stroke:black;stroke-width:1px;stroke-linecap:butt;stroke-linejoin:miter;stroke-opacity:1" />
    <path
       id="path34349"
       d="M 395.07404,162.13643 C 423.327,145.82458 423.327,145.82458 423.327,145.82458"
       style="fill:none;fill-rule:evenodd;stroke:black;stroke-width:1px;stroke-linecap:butt;stroke-linejoin:miter;stroke-opacity:1" />
    <path
       id="path34351"
       d="M 407.87468,162.71827 C 437.25235,145.75707 437.25235,145.75707 437.25235,145.75707"
       style="fill:none;fill-rule:evenodd;stroke:black;stroke-width:1px;stroke-linecap:butt;stroke-linejoin:miter;stroke-opacity:1" />
    <path
       id="path34353"
       d="M 423.0027,162.13643 C 449.4426,146.87134 449.69455,146.72588 449.69455,146.72588"
       style="fill:none;fill-rule:evenodd;stroke:black;stroke-width:1px;stroke-linecap:butt;stroke-linejoin:miter;stroke-opacity:1" />
    <path
       id="path34355"
       d="M 435.22148,162.71827 C 459.6639,148.60644 459.6639,148.60644 459.6639,148.60644"
       style="fill:none;fill-rule:evenodd;stroke:black;stroke-width:1px;stroke-linecap:butt;stroke-linejoin:miter;stroke-opacity:1" />
    <path
       id="path34357"
       d="M 446.85842,162.71827 C 470.10861,149.29477 470.10861,149.29477 470.10861,149.29477"
       style="fill:none;fill-rule:evenodd;stroke:black;stroke-width:1px;stroke-linecap:butt;stroke-linejoin:miter;stroke-opacity:1" />
    <path
       id="path34359"
       d="M 459.0772,162.13643 C 480.51434,149.75969 480.51434,149.75969 480.51434,149.75969"
       style="fill:none;fill-rule:evenodd;stroke:black;stroke-width:1px;stroke-linecap:butt;stroke-linejoin:miter;stroke-opacity:1" />
    <path
       id="path34361"
       d="M 471.29599,162.13643 C 490.73564,150.91294 490.73564,150.91294 490.73564,150.91294"
       style="fill:none;fill-rule:evenodd;stroke:black;stroke-width:1px;stroke-linecap:butt;stroke-linejoin:miter;stroke-opacity:1" />
    <path
       id="path34363"
       d="M 482.35108,162.71827 C 501.53879,151.64025 501.53879,151.64025 501.53879,151.64025"
       style="fill:none;fill-rule:evenodd;stroke:black;stroke-width:1px;stroke-linecap:butt;stroke-linejoin:miter;stroke-opacity:1" />
    <path
       id="path34365"
       d="M 496.31541,162.71827 C 513.69006,152.68701 513.69006,152.68701 513.69006,152.68701"
       style="fill:none;fill-rule:evenodd;stroke:black;stroke-width:1px;stroke-linecap:butt;stroke-linejoin:miter;stroke-opacity:1" />
    <path
       id="path34367"
       d="M 509.69788,162.71827 C 524.63867,154.09221 524.63867,154.09221 524.63867,154.09221"
       style="fill:none;fill-rule:evenodd;stroke:black;stroke-width:1px;stroke-linecap:butt;stroke-linejoin:miter;stroke-opacity:1" />
    <path
       id="path34369"
       d="M 521.91667,162.13643 C 535.41328,154.34415 535.41328,154.34415 535.41328,154.34415"
       style="fill:none;fill-rule:evenodd;stroke:black;stroke-width:1px;stroke-linecap:butt;stroke-linejoin:miter;stroke-opacity:1" />
    <path
       id="path34371"
       d="M 533.55361,163.30012 C 544.80078,156.80656 544.80078,156.80656 544.80078,156.80656"
       style="fill:none;fill-rule:evenodd;stroke:black;stroke-width:1px;stroke-linecap:butt;stroke-linejoin:miter;stroke-opacity:1" />
    <path
       id="path34373"
       d="M 544.02685,162.13643 C 551.64793,157.7364 551.64793,157.7364 551.64793,157.7364"
       style="fill:none;fill-rule:evenodd;stroke:black;stroke-width:1px;stroke-linecap:butt;stroke-linejoin:miter;stroke-opacity:1" />
    <path
       id="path34375"
       d="M 201.90087,450.73249 C 241.76988,427.71411 241.76988,427.71411 241.76988,427.71411"
       style="fill:none;fill-rule:evenodd;stroke:black;stroke-width:1px;stroke-linecap:butt;stroke-linejoin:miter;stroke-opacity:1" />
    <path
       id="path34377"
       d="M 202.48272,437.93186 C 233.4215,420.06935 233.4215,420.06935 233.4215,420.06935"
       style="fill:none;fill-rule:evenodd;stroke:black;stroke-width:1px;stroke-linecap:butt;stroke-linejoin:miter;stroke-opacity:1" />
    <path
       id="path34379"
       d="M 220.51998,450.73249 C 250.95486,433.1609 250.95486,433.1609 250.95486,433.1609"
       style="fill:none;fill-rule:evenodd;stroke:black;stroke-width:1px;stroke-linecap:butt;stroke-linejoin:miter;stroke-opacity:1" />
    <path
       id="path34381"
       d="M 238.55723,451.31434 C 260.17881,438.83111 260.17881,438.83111 260.17881,438.83111"
       style="fill:none;fill-rule:evenodd;stroke:black;stroke-width:1px;stroke-linecap:butt;stroke-linejoin:miter;stroke-opacity:1" />
    <path
       id="path34383"
       d="M 256.01264,450.15064 C 263.95317,445.56617 263.95317,445.56617 263.95317,445.56617"
       style="fill:none;fill-rule:evenodd;stroke:black;stroke-width:1px;stroke-linecap:butt;stroke-linejoin:miter;stroke-opacity:1" />
    <path
       id="path34385"
       d="M 202.48272,423.96753 C 225.04458,410.94144 225.04458,410.94144 225.04458,410.94144"
       style="fill:none;fill-rule:evenodd;stroke:black;stroke-width:1px;stroke-linecap:butt;stroke-linejoin:miter;stroke-opacity:1" />
    <path
       id="path34387"
       d="M 203.06457,410.58505 C 216.30923,402.93824 216.30923,402.93824 216.30923,402.93824"
       style="fill:none;fill-rule:evenodd;stroke:black;stroke-width:1px;stroke-linecap:butt;stroke-linejoin:miter;stroke-opacity:1" />
    <path
       id="path34389"
       d="M 203.64641,402.4392 C 208.64918,399.55085 208.64918,399.55085 208.64918,399.55085"
       style="fill:none;fill-rule:evenodd;stroke:black;stroke-width:1px;stroke-linecap:butt;stroke-linejoin:miter;stroke-opacity:1" />
    <path
       id="path34391"
       d="M 207.1375,141.77178 C 209.46488,152.82688 226.92029,154.57242 226.92029,154.57242"
       style="fill:none;fill-rule:evenodd;stroke:black;stroke-width:1;stroke-linecap:butt;stroke-linejoin:miter;stroke-opacity:1;stroke-miterlimit:4;stroke-dasharray:1,2;stroke-dashoffset:0;marker-end:url(#Arrow1Mend)" />
    <path
       id="path35278"
       d="M 314.19733,401.85735 C 308.37886,418.14906 233.90245,432.11339 233.90245,432.11339"
       style="fill:none;fill-rule:evenodd;stroke:black;stroke-width:1;stroke-linecap:butt;stroke-linejoin:miter;stroke-opacity:1;stroke-miterlimit:4;stroke-dasharray:1,2;stroke-dashoffset:0;marker-end:url(#Arrow1Mend)" />
    <path
       id="path35280"
       d="M 468.9686,108.60651 C 455.00428,128.97115 381.69157,149.33579 381.69157,149.33579"
       style="fill:none;fill-rule:evenodd;stroke:black;stroke-width:1;stroke-linecap:butt;stroke-linejoin:miter;stroke-opacity:1;stroke-miterlimit:4;stroke-dasharray:1,2;stroke-dashoffset:0;marker-end:url(#Arrow1Mend)" />
    <path
       id="path35282"
       d="M 569.04627,133.62593 C 533.55361,135.95332 498.64279,157.48165 498.64279,157.48165"
       style="fill:none;fill-rule:evenodd;stroke:black;stroke-width:1;stroke-linecap:butt;stroke-linejoin:miter;stroke-opacity:1;stroke-miterlimit:4;stroke-dasharray:1,2;stroke-dashoffset:0;marker-end:url(#Arrow1Mend)" />
    <g
       ns0:preamble="/usr/share/inkscape/extensions/textextLib/basicLatexPackages.tex"
       ns0:text="slope $a = \\frac{\\Delta \\widehat{u}_i}{\\Delta \\widehat{s}_i}$"
       word-spacing="normal"
       letter-spacing="normal"
       font-size-adjust="none"
       font-stretch="normal"
       font-weight="normal"
       font-variant="normal"
       font-style="normal"
       stroke-miterlimit="10.433"
       xml:space="preserve"
       transform="matrix(2,0,0,-2,-317.14303,1088.8121)"
       id="content"
       style="font-style:normal;font-variant:normal;font-weight:normal;font-stretch:normal;letter-spacing:normal;word-spacing:normal;text-anchor:start;fill:none;fill-opacity:1;fill-rule:evenodd;stroke:#000000;stroke-linecap:butt;stroke-linejoin:miter;stroke-miterlimit:10.43299961;stroke-dasharray:none;stroke-dashoffset:0;stroke-opacity:1"><path
         id="path1274"
         d="m 225.51,479.16 h 0.02 l 0.02,-0.01 h 0.03 l 0.03,-0.01 0.04,-0.01 0.03,-0.01 0.04,-0.01 0.04,-0.01 0.04,-0.01 0.04,-0.01 0.05,-0.02 0.04,-0.02 0.04,-0.01 0.05,-0.03 0.04,-0.02 0.05,-0.02 0.04,-0.03 0.04,-0.03 0.04,-0.03 0.04,-0.03 0.04,-0.03 0.04,-0.04 0.03,-0.04 0.03,-0.04 0.03,-0.05 0.01,-0.02 0.02,-0.03 0.01,-0.02 0.01,-0.03 0.01,-0.02 0.01,-0.03 0.01,-0.03 v -0.02 l 0.01,-0.03 v -0.03 l 0.01,-0.03 v -0.04 -0.03 -0.03 c 0,-0.51 -0.35,-0.91 -1.12,-0.91 -0.84,0 -1.2,0.57 -1.39,1.42 -0.03,0.12 -0.04,0.16 -0.14,0.16 -0.13,0 -0.13,-0.07 -0.13,-0.25 v -1.31 c 0,-0.16 0,-0.23 0.11,-0.23 0.05,0 0.06,0.01 0.25,0.19 0.02,0.02 0.02,0.04 0.2,0.23 0.44,-0.41 0.89,-0.42 1.1,-0.42 1.14,0 1.6,0.66 1.6,1.38 0,0.52 -0.3,0.82 -0.42,0.94 -0.33,0.32 -0.72,0.4 -1.13,0.48 -0.56,0.11 -1.23,0.24 -1.23,0.81 0,0.35 0.26,0.76 1.12,0.76 1.09,0 1.14,-0.9 1.16,-1.2 0.01,-0.1 0.1,-0.1 0.12,-0.1 0.13,0 0.13,0.06 0.13,0.24 v 1.01 c 0,0.17 0,0.23 -0.11,0.23 -0.05,0 -0.07,0 -0.2,-0.11 -0.03,-0.04 -0.13,-0.13 -0.17,-0.16 -0.38,0.27 -0.78,0.27 -0.93,0.27 -1.22,0 -1.6,-0.66 -1.6,-1.22 0,-0.34 0.16,-0.62 0.43,-0.84 0.32,-0.26 0.6,-0.32 1.32,-0.46 z"
         inkscape:connector-curvature="0"
         style="fill:#000000;stroke-width:0" /><path
         id="path1276"
         d="m 229.13,484.13 -1.44,-0.11 v -0.31 c 0.7,0 0.78,-0.07 0.78,-0.55 v -5.17 c 0,-0.45 -0.11,-0.45 -0.78,-0.45 v -0.31 c 0.33,0.01 0.86,0.04 1.11,0.04 0.25,0 0.74,-0.03 1.1,-0.04 v 0.31 c -0.66,0 -0.77,0 -0.77,0.45 z"
         inkscape:connector-curvature="0"
         style="fill:#000000;stroke-width:0" /><path
         id="path1278"
         d="m 234.83,479.36 -0.01,0.12 -0.01,0.12 -0.01,0.11 -0.02,0.12 -0.02,0.11 -0.03,0.11 -0.04,0.11 -0.04,0.1 -0.04,0.1 -0.05,0.1 -0.06,0.1 -0.05,0.09 -0.07,0.1 -0.06,0.08 -0.07,0.09 -0.07,0.08 -0.08,0.08 -0.08,0.07 -0.08,0.07 -0.09,0.06 -0.09,0.07 -0.09,0.05 -0.1,0.05 -0.09,0.05 -0.1,0.04 -0.11,0.04 -0.1,0.03 -0.11,0.03 -0.1,0.02 -0.11,0.01 -0.12,0.01 h -0.11 l -0.01,-0.21 c 0.44,0 0.87,-0.22 1.13,-0.65 0.26,-0.43 0.26,-1 0.26,-1.38 0,-0.36 0,-0.89 -0.22,-1.33 -0.22,-0.45 -0.66,-0.74 -1.16,-0.74 v 0 c -0.43,0 -0.87,0.21 -1.13,0.67 -0.25,0.44 -0.25,1.04 -0.25,1.4 0,0.39 0,0.92 0.24,1.36 0.26,0.46 0.73,0.67 1.13,0.67 l 0.01,0.21 c -1.24,0 -2.21,-1.08 -2.21,-2.32 0,-1.28 1.04,-2.23 2.2,-2.23 1.21,0 2.22,0.97 2.22,2.23 z"
         inkscape:connector-curvature="0"
         style="fill:#000000;stroke-width:0" /><path
         id="path1280"
         d="m 236.82,480.97 v 0.66 l -1.43,-0.11 v -0.31 c 0.71,0 0.78,-0.06 0.78,-0.5 v -4.65 c 0,-0.44 -0.11,-0.44 -0.78,-0.44 v -0.31 c 0.34,0.01 0.86,0.03 1.12,0.03 0.26,0 0.77,-0.02 1.12,-0.03 v 0.31 c -0.67,0 -0.78,0 -0.78,0.44 v 1.67 0.09 l 0.14,0.13 c -0.14,0.21 -0.14,0.22 -0.14,0.42 v 0 2.21 c 0.29,0.51 0.78,0.8 1.29,0.8 0.73,0 1.34,-0.88 1.34,-2 0,-1.2 -0.7,-2.04 -1.44,-2.04 -0.4,0 -0.78,0.2 -1.05,0.61 l -0.14,-0.13 c 0.05,-0.16 0.47,-0.69 1.23,-0.69 1.19,0 2.23,0.97 2.23,2.25 0,1.26 -0.97,2.25 -2.09,2.25 -0.78,0 -1.2,-0.44 -1.4,-0.66 z"
         inkscape:connector-curvature="0"
         style="fill:#000000;stroke-width:0" /><path
         id="path1282"
         d="m 242.03,479.53 0.01,0.21 c 0.06,1.48 0.9,1.73 1.24,1.73 1.02,0 1.12,-1.34 1.12,-1.73 h -2.36 l -0.01,-0.21 h 2.78 c 0.22,0 0.25,0 0.25,0.21 0,0.98 -0.54,1.94 -1.78,1.94 -1.16,0 -2.08,-1.02 -2.08,-2.26 0,-1.33 1.05,-2.29 2.2,-2.29 1.21,0 1.66,1.1 1.66,1.29 0,0.1 -0.08,0.12 -0.13,0.12 -0.09,0 -0.11,-0.06 -0.13,-0.14 -0.35,-1.03 -1.24,-1.03 -1.34,-1.03 -0.5,0 -0.9,0.3 -1.13,0.67 -0.3,0.48 -0.3,1.13 -0.3,1.49 z"
         inkscape:connector-curvature="0"
         style="fill:#000000;stroke-width:0" /><path
         id="path1284"
         d="m 252.39,480.99 -0.02,0.03 -0.01,0.04 -0.02,0.03 -0.02,0.03 -0.02,0.03 -0.02,0.04 -0.02,0.03 -0.03,0.02 -0.02,0.03 -0.02,0.03 -0.03,0.03 -0.02,0.02 -0.03,0.03 -0.02,0.02 -0.03,0.02 -0.03,0.03 -0.03,0.02 -0.03,0.02 -0.03,0.01 -0.03,0.02 -0.03,0.02 -0.03,0.01 -0.03,0.02 -0.04,0.01 -0.03,0.01 -0.04,0.01 -0.04,0.01 h -0.04 l -0.03,0.01 h -0.04 l -0.05,0.01 h -0.04 c -1.16,0 -2.4,-1.46 -2.4,-2.92 0,-0.93 0.55,-1.58 1.33,-1.58 l 0.02,0.21 c -0.5,0 -0.64,0.55 -0.64,0.94 0,0.49 0.32,1.72 0.55,2.17 0.31,0.59 0.75,0.96 1.15,0.96 0.65,0 0.79,-0.82 0.79,-0.88 0,-0.06 -0.02,-0.12 -0.03,-0.17 l -0.5,-1.94 c -0.05,-0.18 -0.05,-0.2 -0.2,-0.37 -0.44,-0.55 -0.84,-0.71 -1.12,-0.71 l -0.02,-0.21 c 0.2,0 0.69,0.04 1.29,0.74 0.08,-0.42 0.43,-0.74 0.91,-0.74 0.35,0 0.58,0.22 0.74,0.54 0.17,0.36 0.3,0.97 0.3,0.99 0,0.1 -0.09,0.1 -0.12,0.1 -0.1,0 -0.11,-0.05 -0.14,-0.18 -0.17,-0.65 -0.35,-1.24 -0.76,-1.24 -0.27,0 -0.3,0.26 -0.3,0.46 0,0.22 0.02,0.3 0.13,0.74 0.11,0.41 0.13,0.51 0.22,0.89 l 0.36,1.39 c 0.07,0.28 0.07,0.3 0.07,0.34 0,0.17 -0.12,0.27 -0.29,0.27 -0.24,0 -0.39,-0.22 -0.42,-0.44 z"
         inkscape:connector-curvature="0"
         style="fill:#000000;stroke-width:0" /><path
         id="path1286"
         d="m 263.55,480.48 h 0.03 0.03 0.03 l 0.02,0.01 h 0.01 0.02 0.01 0.01 0.02 l 0.01,0.01 h 0.01 0.02 l 0.01,0.01 h 0.01 l 0.01,0.01 h 0.02 l 0.01,0.01 0.01,0.01 0.01,0.01 v 0.01 l 0.01,0.01 h 0.01 v 0.01 0 l 0.01,0.01 v 0.01 0 0.01 l 0.01,0.01 v 0 0.01 0.01 0.01 0.01 0 0.01 0.01 c 0,0.2 -0.19,0.2 -0.32,0.2 h -5.98 c -0.14,0 -0.33,0 -0.33,-0.2 0,-0.2 0.19,-0.2 0.34,-0.2 z"
         inkscape:connector-curvature="0"
         style="fill:#000000;stroke-width:0" /><path
         id="path1288"
         d="m 263.57,478.56 h 0.01 0.01 0.03 0.03 0.01 0.02 0.01 0.01 0.02 l 0.01,0.01 h 0.01 0.02 l 0.01,0.01 h 0.01 l 0.01,0.01 h 0.02 l 0.01,0.01 h 0.01 l 0.01,0.01 0.01,0.01 v 0.01 h 0.01 v 0.01 l 0.01,0.01 v 0 0.01 h 0.01 v 0.01 0.01 0 l 0.01,0.01 v 0.01 0 0.01 0.01 0.01 0.01 0.01 0.01 c 0,0.19 -0.19,0.19 -0.34,0.19 h -5.95 c -0.15,0 -0.34,0 -0.34,-0.19 0,-0.2 0.19,-0.2 0.33,-0.2 z"
         inkscape:connector-curvature="0"
         style="fill:#000000;stroke-width:0" /><path
         id="path1290"
         d="m 271.92,486.12 -0.01,0.01 v 0.01 l -0.01,0.01 -0.01,0.01 v 0.01 l -0.01,0.01 v 0.01 l -0.01,0.01 v 0 l -0.01,0.01 v 0.01 h -0.01 v 0.01 l -0.01,0.01 v 0 h -0.01 l -0.01,0.01 v 0 l -0.01,0.01 h -0.01 v 0 l -0.01,0.01 h -0.01 -0.01 -0.01 v 0 l -0.01,0.01 h -0.01 -0.02 -0.01 -0.01 -0.01 c -0.09,0 -0.16,-0.02 -0.22,-0.13 l -0.01,-0.55 2.05,-3.71 h -4.11 l 2.06,3.71 0.01,0.55 -2.58,-4.66 c -0.05,-0.08 -0.05,-0.09 -0.05,-0.1 0,-0.07 0.06,-0.07 0.17,-0.07 h 5.36 c 0.11,0 0.17,0 0.17,0.07 0,0.01 0,0.02 -0.05,0.1 z"
         inkscape:connector-curvature="0"
         style="fill:#000000;stroke-width:0" /><polygon
         id="polygon1292"
         points="277.53,486.02 279.63,485.18 279.73,485.39 277.53,486.48 275.34,485.39 275.44,485.18 "
         style="fill:#000000;stroke-width:0" /><path
         id="path1294"
         d="m 277.92,482.45 v -0.02 l -0.01,-0.01 v -0.02 l -0.01,-0.01 v -0.02 -0.01 l -0.01,-0.02 v -0.02 l -0.01,-0.03 -0.01,-0.03 -0.01,-0.04 v -0.01 -0.02 l -0.01,-0.01 v -0.02 l -0.01,-0.01 v -0.02 -0.01 l -0.01,-0.01 v -0.02 -0.01 l -0.01,-0.01 v -0.01 0 l -0.01,-0.01 v 0 -0.01 0 0 0 0 0 0 c -0.14,-0.22 -0.42,-0.59 -0.85,-0.59 -0.48,0 -0.48,0.45 -0.48,0.57 0,0.41 0.19,0.91 0.39,1.41 0.06,0.14 0.1,0.25 0.1,0.36 0,0.36 -0.31,0.6 -0.67,0.6 -0.7,0 -1.01,-0.96 -1.01,-1.07 0,-0.09 0.1,-0.09 0.12,-0.09 0.1,0 0.1,0.04 0.12,0.11 0.17,0.57 0.48,0.85 0.75,0.85 0.12,0 0.18,-0.08 0.18,-0.24 0,-0.16 -0.06,-0.31 -0.13,-0.47 -0.38,-0.96 -0.38,-1.16 -0.38,-1.35 0,-0.11 0,-0.43 0.26,-0.66 0.21,-0.16 0.48,-0.22 0.72,-0.22 0.44,0 0.68,0.24 0.91,0.46 0.15,-0.45 0.62,-0.46 0.71,-0.46 0.24,0 0.42,0.14 0.55,0.37 0.15,0.27 0.25,0.67 0.25,0.69 0,0.09 -0.1,0.09 -0.12,0.09 -0.09,0 -0.1,-0.02 -0.15,-0.21 -0.09,-0.33 -0.22,-0.74 -0.51,-0.74 -0.18,0 -0.23,0.16 -0.23,0.34 0,0.11 0.05,0.36 0.1,0.54 0.05,0.19 0.12,0.48 0.16,0.63 l 0.16,0.62 c 0.04,0.17 0.12,0.48 0.12,0.51 0,0.14 -0.11,0.23 -0.23,0.23 -0.26,0 -0.31,-0.21 -0.37,-0.43 z"
         inkscape:connector-curvature="0"
         style="fill:#000000;stroke-width:0" /><path
         id="path1296"
         d="m 281.64,483.42 v 0.01 0.02 0.01 l -0.01,0.01 v 0.01 0.01 0.01 l -0.01,0.01 v 0.01 l -0.01,0.01 v 0 l -0.01,0.01 v 0.01 l -0.01,0.01 -0.01,0.01 v 0 l -0.01,0.01 -0.01,0.01 -0.01,0.01 h -0.01 v 0.01 h -0.01 l -0.01,0.01 h -0.01 -0.01 l -0.01,0.01 h -0.01 -0.01 -0.02 l -0.01,0.01 h -0.01 -0.01 c -0.14,0 -0.3,-0.14 -0.3,-0.3 0,-0.14 0.11,-0.22 0.21,-0.22 0.16,0 0.31,0.15 0.31,0.3 z"
         inkscape:connector-curvature="0"
         style="fill:#000000;stroke-width:0" /><path
         id="path1298"
         d="m 281.87,481.04 v 0 0.01 0 0 0 0.01 0 0 0 0.01 h -0.01 v 0 0 0.01 0 0 0 h -0.01 v 0 0.01 0 h -0.01 v 0 0.01 h -0.01 v 0 h -0.01 v 0 h -0.01 v 0.01 h -0.01 v 0 0 h -0.01 v 0 h -0.01 v 0 0 h -0.01 v 0 0 0 c -0.09,0 -0.09,-0.02 -0.12,-0.12 -0.09,-0.27 -0.31,-0.55 -0.56,-0.55 -0.11,0 -0.15,0.08 -0.15,0.19 0,0.1 0.03,0.16 0.07,0.25 0.04,0.1 0.08,0.2 0.1,0.27 0.02,0.04 0.22,0.5 0.28,0.68 0.04,0.1 0.07,0.17 0.07,0.25 0,0.24 -0.22,0.44 -0.54,0.44 -0.52,0 -0.8,-0.64 -0.8,-0.77 0,-0.07 0.08,-0.07 0.11,-0.07 0.08,0 0.09,0.02 0.11,0.1 0.11,0.35 0.35,0.57 0.56,0.57 0.1,0 0.15,-0.05 0.15,-0.19 0,-0.02 0,-0.08 -0.03,-0.18 -0.03,-0.09 -0.26,-0.62 -0.33,-0.79 -0.03,-0.08 -0.03,-0.09 -0.11,-0.26 -0.02,-0.07 -0.05,-0.14 -0.05,-0.22 0,-0.26 0.24,-0.44 0.54,-0.44 0.52,0 0.8,0.65 0.8,0.77 z"
         inkscape:connector-curvature="0"
         style="fill:#000000;stroke-width:0" /><line
         id="line1300"
         y2="479.73001"
         x2="282.82999"
         y1="479.73001"
         x1="268.42001"
         style="stroke-width:0.398" /><path
         id="path1302"
         d="m 272.39,478.6 v 0.01 l -0.01,0.01 v 0.01 l -0.01,0.01 -0.01,0.01 v 0.01 l -0.01,0.01 v 0.01 h -0.01 v 0.01 l -0.01,0.01 v 0 l -0.01,0.01 v 0 l -0.01,0.01 h -0.01 v 0.01 h -0.01 v 0.01 h -0.01 -0.01 l -0.01,0.01 v 0 h -0.01 -0.01 -0.01 l -0.01,0.01 h -0.01 -0.01 -0.01 -0.01 -0.02 c -0.08,0 -0.15,-0.02 -0.21,-0.13 l -0.02,-0.55 2.06,-3.71 h -4.11 l 2.05,3.71 0.02,0.55 -2.58,-4.66 c -0.05,-0.08 -0.05,-0.09 -0.05,-0.1 0,-0.07 0.05,-0.07 0.16,-0.07 h 5.37 c 0.11,0 0.17,0 0.17,0.07 0,0.01 0,0.02 -0.05,0.1 z"
         inkscape:connector-curvature="0"
         style="fill:#000000;stroke-width:0" /><polygon
         id="polygon1304"
         points="277.75,478.5 279.85,477.66 279.94,477.87 277.75,478.96 275.55,477.88 275.65,477.66 "
         style="fill:#000000;stroke-width:0" /><path
         id="path1306"
         d="m 278.45,476.42 -0.02,-0.01 h -0.01 l -0.02,-0.01 -0.02,-0.01 h -0.01 l -0.02,-0.01 -0.01,-0.01 h -0.01 l -0.02,-0.01 -0.01,-0.01 -0.01,-0.01 -0.01,-0.01 -0.01,-0.01 -0.02,-0.01 -0.01,-0.01 -0.01,-0.01 v -0.01 l -0.01,-0.01 -0.01,-0.02 -0.01,-0.01 -0.01,-0.01 v -0.01 l -0.01,-0.02 v -0.01 l -0.01,-0.01 v -0.01 l -0.01,-0.02 v -0.01 -0.01 -0.02 -0.01 -0.01 c 0,-0.16 0.14,-0.23 0.23,-0.23 0.07,0 0.33,0.05 0.33,0.4 0,0.45 -0.5,0.61 -0.93,0.61 -1.09,0 -1.28,-0.8 -1.28,-1.02 0,-0.26 0.14,-0.42 0.24,-0.51 0.18,-0.14 0.31,-0.16 0.79,-0.25 0.15,-0.02 0.6,-0.11 0.6,-0.46 0,-0.11 -0.08,-0.38 -0.38,-0.55 -0.27,-0.16 -0.61,-0.16 -0.69,-0.16 -0.28,0 -0.68,0.07 -0.84,0.3 0.23,0.02 0.38,0.2 0.38,0.39 0,0.18 -0.13,0.26 -0.27,0.26 -0.2,0 -0.41,-0.16 -0.41,-0.47 0,-0.41 0.45,-0.67 1.13,-0.67 1.29,0 1.52,0.88 1.52,1.15 0,0.64 -0.7,0.76 -0.96,0.81 -0.07,0.01 -0.24,0.04 -0.28,0.06 -0.26,0.05 -0.39,0.19 -0.39,0.35 0,0.16 0.13,0.34 0.28,0.44 0.19,0.12 0.44,0.13 0.56,0.13 0.14,0 0.51,-0.02 0.66,-0.25 z"
         inkscape:connector-curvature="0"
         style="fill:#000000;stroke-width:0" /><path
         id="path1308"
         d="m 281.16,475.9 v 0.01 0.02 0.01 0.01 0.01 l -0.01,0.01 v 0.01 0.01 l -0.01,0.01 v 0.01 h -0.01 v 0.01 l -0.01,0.01 v 0.01 l -0.01,0.01 -0.01,0.01 h -0.01 v 0.01 l -0.01,0.01 h -0.01 l -0.01,0.01 h -0.01 l -0.01,0.01 h -0.01 -0.01 l -0.01,0.01 h -0.01 -0.01 -0.01 l -0.01,0.01 h -0.01 -0.02 c -0.14,0 -0.3,-0.14 -0.3,-0.3 0,-0.14 0.11,-0.21 0.22,-0.21 0.16,0 0.3,0.14 0.3,0.29 z"
         inkscape:connector-curvature="0"
         style="fill:#000000;stroke-width:0" /><path
         id="path1310"
         d="m 281.4,473.52 v 0 0.01 0 0 h -0.01 v 0.01 0 0 0 0.01 0 0 0 0.01 h -0.01 v 0 0 0 0 0.01 h -0.01 v 0 h -0.01 v 0.01 0 h -0.01 v 0 h -0.01 v 0 l -0.01,0.01 v 0 h -0.01 v 0 0 h -0.01 v 0 0 h -0.01 v 0 0 h -0.01 v 0 c -0.08,0 -0.09,-0.02 -0.12,-0.11 -0.08,-0.28 -0.31,-0.56 -0.55,-0.56 -0.12,0 -0.15,0.08 -0.15,0.19 0,0.1 0.02,0.16 0.06,0.25 0.04,0.1 0.08,0.2 0.11,0.27 0.02,0.04 0.21,0.51 0.28,0.68 0.04,0.1 0.07,0.17 0.07,0.25 0,0.24 -0.23,0.44 -0.54,0.44 -0.52,0 -0.8,-0.64 -0.8,-0.77 0,-0.07 0.08,-0.07 0.1,-0.07 0.09,0 0.09,0.02 0.12,0.1 0.11,0.35 0.34,0.57 0.56,0.57 0.09,0 0.15,-0.05 0.15,-0.19 0,-0.02 0,-0.08 -0.03,-0.18 -0.04,-0.09 -0.26,-0.62 -0.33,-0.79 -0.04,-0.08 -0.04,-0.09 -0.11,-0.26 -0.03,-0.07 -0.06,-0.14 -0.06,-0.22 0,-0.26 0.25,-0.44 0.55,-0.44 0.52,0 0.8,0.64 0.8,0.77 z"
         inkscape:connector-curvature="0"
         style="fill:#000000;stroke-width:0" /></g>    <g
       style="font-style:normal;font-variant:normal;font-weight:normal;font-stretch:normal;letter-spacing:normal;word-spacing:normal;text-anchor:start;fill:none;fill-opacity:1;fill-rule:evenodd;stroke:#000000;stroke-linecap:butt;stroke-linejoin:miter;stroke-miterlimit:10.43299961;stroke-dasharray:none;stroke-dashoffset:0;stroke-opacity:1"
       id="g1516"
       transform="matrix(2,0,0,-2,-27.24634,1056.4807)"
       xml:space="preserve"
       stroke-miterlimit="10.433"
       font-style="normal"
       font-variant="normal"
       font-weight="normal"
       font-stretch="normal"
       font-size-adjust="none"
       letter-spacing="normal"
       word-spacing="normal"
       ns0:text="$\\Delta \\widehat{u}_i = |a| \\Delta \\widehat{s}_i$"
       ns0:preamble="/usr/share/inkscape/extensions/textextLib/basicLatexPackages.tex"><path
         style="fill:#000000;stroke-width:0"
         inkscape:connector-curvature="0"
         d="m 227.84,484.17 -0.01,0.01 v 0.01 l -0.01,0.01 v 0.01 l -0.01,0.01 -0.01,0.01 v 0.01 l -0.01,0.01 v 0.01 l -0.01,0.01 v 0.01 h -0.01 v 0.01 l -0.01,0.01 h -0.01 v 0.01 h -0.01 l -0.01,0.01 v 0 l -0.01,0.01 h -0.01 -0.01 l -0.01,0.01 h -0.01 -0.01 -0.01 -0.01 l -0.01,0.01 h -0.02 -0.01 -0.01 -0.02 c -0.17,0 -0.19,-0.05 -0.26,-0.18 l -0.06,-0.82 2.68,-5.36 h -5.37 l 2.69,5.36 0.06,0.82 -3.37,-6.74 c -0.05,-0.09 -0.05,-0.11 -0.05,-0.12 0,-0.08 0.06,-0.08 0.22,-0.08 h 6.92 c 0.16,0 0.22,0 0.22,0.08 0,0.01 0,0.03 -0.05,0.12 z"
         id="path1486" /><polygon
         style="fill:#000000;stroke-width:0"
         points="237.69,483.04 234.87,484.63 232.04,483.04 232.15,482.82 234.86,484.04 237.57,482.82 "
         id="polygon1488" /><path
         style="fill:#000000;stroke-width:0"
         inkscape:connector-curvature="0"
         d="m 235.22,477.79 0.02,-0.04 0.01,-0.03 0.01,-0.04 0.02,-0.03 0.01,-0.04 0.02,-0.03 0.02,-0.03 0.02,-0.03 0.02,-0.03 0.02,-0.03 0.03,-0.03 0.02,-0.03 0.03,-0.02 0.02,-0.03 0.03,-0.02 0.03,-0.02 0.03,-0.03 0.03,-0.01 0.03,-0.02 0.03,-0.02 0.03,-0.02 0.04,-0.01 0.03,-0.02 0.04,-0.01 0.03,-0.01 0.04,-0.01 0.04,-0.01 h 0.04 l 0.03,-0.01 h 0.04 0.04 0.04 c 0.35,0 0.58,0.22 0.74,0.54 0.17,0.36 0.3,0.97 0.3,0.99 0,0.1 -0.09,0.1 -0.12,0.1 -0.1,0 -0.11,-0.05 -0.14,-0.18 -0.14,-0.56 -0.33,-1.24 -0.75,-1.24 -0.21,0 -0.31,0.13 -0.31,0.46 0,0.22 0.12,0.69 0.2,1.03 l 0.28,1.08 c 0.03,0.15 0.13,0.52 0.17,0.67 0.05,0.23 0.15,0.61 0.15,0.67 0,0.18 -0.14,0.27 -0.29,0.27 -0.05,0 -0.31,-0.01 -0.39,-0.35 -0.19,-0.73 -0.63,-2.47 -0.75,-2.99 -0.01,-0.04 -0.41,-0.84 -1.13,-0.84 -0.52,0 -0.62,0.45 -0.62,0.82 0,0.55 0.28,1.34 0.54,2.02 0.12,0.3 0.17,0.44 0.17,0.63 0,0.45 -0.32,0.82 -0.82,0.82 -0.95,0 -1.32,-1.45 -1.32,-1.53 0,-0.1 0.1,-0.1 0.12,-0.1 0.1,0 0.11,0.02 0.16,0.17 0.25,0.87 0.63,1.24 1.01,1.24 0.09,0 0.25,-0.01 0.25,-0.33 0,-0.24 -0.11,-0.53 -0.17,-0.68 -0.37,-0.98 -0.58,-1.6 -0.58,-2.08 0,-0.95 0.69,-1.19 1.23,-1.19 0.66,0 1.01,0.44 1.18,0.66 z"
         id="path1490" /><path
         style="fill:#000000;stroke-width:0"
         inkscape:connector-curvature="0"
         d="m 239.7,480.09 v 0.01 0.01 0.01 0.01 0.01 l -0.01,0.01 v 0.01 0.02 l -0.01,0.01 v 0.01 l -0.01,0.01 v 0.01 l -0.01,0.01 -0.01,0.01 -0.01,0.01 v 0.01 l -0.01,0.01 -0.01,0.01 -0.01,0.01 -0.01,0.01 h -0.01 l -0.01,0.01 -0.02,0.01 -0.01,0.01 h -0.01 l -0.02,0.01 h -0.01 -0.02 l -0.01,0.01 h -0.02 -0.02 -0.02 c -0.18,0 -0.39,-0.18 -0.39,-0.38 0,-0.12 0.09,-0.27 0.28,-0.27 0.2,0 0.39,0.2 0.39,0.39 z"
         id="path1492" /><path
         style="fill:#000000;stroke-width:0"
         inkscape:connector-curvature="0"
         d="m 238.28,476.55 -0.01,-0.01 v -0.02 l -0.01,-0.03 -0.01,-0.02 -0.01,-0.02 v -0.01 l -0.01,-0.02 v -0.02 -0.02 l -0.01,-0.02 v -0.01 -0.01 -0.01 -0.01 -0.01 l -0.01,-0.02 v -0.01 -0.01 -0.01 c 0,-0.32 0.28,-0.59 0.67,-0.59 0.7,0 1,0.96 1,1.06 0,0.1 -0.09,0.1 -0.11,0.1 -0.09,0 -0.1,-0.05 -0.13,-0.12 -0.16,-0.56 -0.47,-0.84 -0.74,-0.84 -0.14,0 -0.18,0.09 -0.18,0.24 0,0.16 0.05,0.29 0.12,0.44 0.07,0.19 0.14,0.38 0.22,0.56 0.06,0.17 0.32,0.8 0.34,0.88 0.02,0.07 0.05,0.16 0.05,0.23 0,0.32 -0.29,0.59 -0.67,0.59 -0.69,0 -1.01,-0.95 -1.01,-1.07 0,-0.09 0.1,-0.09 0.12,-0.09 0.09,0 0.1,0.04 0.12,0.11 0.18,0.6 0.49,0.85 0.75,0.85 0.11,0 0.17,-0.05 0.17,-0.24 0,-0.16 -0.04,-0.26 -0.21,-0.7 z"
         id="path1494" /><path
         style="fill:#000000;stroke-width:0"
         inkscape:connector-curvature="0"
         d="m 250.37,480.48 h 0.03 0.03 0.03 l 0.01,0.01 h 0.02 0.01 0.02 0.01 0.02 l 0.01,0.01 h 0.01 0.02 l 0.01,0.01 h 0.01 l 0.01,0.01 h 0.01 l 0.01,0.01 0.01,0.01 0.01,0.01 0.01,0.01 0.01,0.01 v 0 l 0.01,0.01 v 0 0.01 l 0.01,0.01 v 0 0.01 0.01 h 0.01 v 0.01 0.01 0.01 0.01 0 0.01 0.01 c 0,0.2 -0.19,0.2 -0.33,0.2 h -5.97 c -0.14,0 -0.33,0 -0.33,-0.2 0,-0.2 0.19,-0.2 0.34,-0.2 z"
         id="path1496" /><path
         style="fill:#000000;stroke-width:0"
         inkscape:connector-curvature="0"
         d="m 250.38,478.56 h 0.02 0.01 0.03 0.02 0.02 0.01 0.02 0.01 0.01 l 0.02,0.01 h 0.01 0.01 l 0.02,0.01 h 0.01 l 0.01,0.01 h 0.01 l 0.01,0.01 h 0.01 l 0.01,0.01 0.01,0.01 0.01,0.01 h 0.01 v 0.01 0.01 h 0.01 v 0.01 0 l 0.01,0.01 v 0.01 0 0.01 l 0.01,0.01 v 0 0.01 0.01 0.01 0.01 0.01 0.01 c 0,0.19 -0.19,0.19 -0.34,0.19 h -5.95 c -0.15,0 -0.34,0 -0.34,-0.19 0,-0.2 0.19,-0.2 0.33,-0.2 z"
         id="path1498" /><path
         style="fill:#000000;stroke-width:0"
         inkscape:connector-curvature="0"
         d="m 255.62,484.33 v 0.03 0.03 0.04 0.01 0.02 0.01 0.02 0.02 l -0.01,0.01 v 0.01 0.02 l -0.01,0.01 v 0.01 l -0.01,0.02 v 0.01 l -0.01,0.01 v 0.01 l -0.01,0.01 -0.01,0.01 -0.01,0.01 h -0.01 l -0.01,0.01 h -0.01 v 0.01 h -0.01 -0.01 v 0 l -0.01,0.01 h -0.01 v 0 h -0.01 -0.01 -0.01 -0.01 -0.01 -0.01 c -0.19,0 -0.19,-0.17 -0.19,-0.35 v -9.22 c 0,-0.18 0,-0.36 0.19,-0.36 0.2,0 0.2,0.18 0.2,0.36 z"
         id="path1500" /><path
         style="fill:#000000;stroke-width:0"
         inkscape:connector-curvature="0"
         d="m 260.52,480.99 -0.01,0.03 -0.02,0.04 -0.02,0.03 -0.02,0.03 -0.02,0.03 -0.02,0.04 -0.02,0.03 -0.02,0.02 -0.02,0.03 -0.03,0.03 -0.02,0.03 -0.03,0.02 -0.02,0.03 -0.03,0.02 -0.03,0.02 -0.02,0.03 -0.03,0.02 -0.03,0.02 -0.03,0.01 -0.03,0.02 -0.03,0.02 -0.04,0.01 -0.03,0.02 -0.04,0.01 -0.03,0.01 -0.04,0.01 -0.03,0.01 h -0.04 l -0.04,0.01 h -0.04 l -0.04,0.01 h -0.04 c -1.17,0 -2.41,-1.46 -2.41,-2.92 0,-0.93 0.55,-1.58 1.33,-1.58 l 0.02,0.21 c -0.5,0 -0.64,0.55 -0.64,0.94 0,0.49 0.32,1.72 0.55,2.17 0.31,0.59 0.76,0.96 1.16,0.96 0.65,0 0.78,-0.82 0.78,-0.88 0,-0.06 -0.01,-0.12 -0.02,-0.17 l -0.5,-1.94 c -0.05,-0.18 -0.05,-0.2 -0.2,-0.37 -0.44,-0.55 -0.85,-0.71 -1.13,-0.71 l -0.02,-0.21 c 0.2,0 0.7,0.04 1.3,0.74 0.08,-0.42 0.43,-0.74 0.9,-0.74 0.35,0 0.58,0.22 0.74,0.54 0.17,0.36 0.3,0.97 0.3,0.99 0,0.1 -0.09,0.1 -0.12,0.1 -0.1,0 -0.11,-0.05 -0.14,-0.18 -0.17,-0.65 -0.35,-1.24 -0.76,-1.24 -0.27,0 -0.3,0.26 -0.3,0.46 0,0.22 0.03,0.3 0.13,0.74 0.11,0.41 0.13,0.51 0.22,0.89 l 0.36,1.39 c 0.07,0.28 0.07,0.3 0.07,0.34 0,0.17 -0.12,0.27 -0.29,0.27 -0.24,0 -0.39,-0.22 -0.42,-0.44 z"
         id="path1502" /><path
         style="fill:#000000;stroke-width:0"
         inkscape:connector-curvature="0"
         d="m 263.66,484.33 v 0.03 0.03 0.04 l -0.01,0.01 v 0.02 0.01 0.02 0.02 0.01 l -0.01,0.01 v 0.02 0.01 l -0.01,0.01 v 0.02 l -0.01,0.01 v 0.01 l -0.01,0.01 -0.01,0.01 -0.01,0.01 -0.01,0.01 h -0.01 l -0.01,0.01 v 0 l -0.01,0.01 h -0.01 v 0 h -0.01 l -0.01,0.01 v 0 h -0.01 -0.01 -0.01 -0.01 v 0 h -0.01 -0.01 c -0.2,0 -0.2,-0.17 -0.2,-0.35 v -9.22 c 0,-0.18 0,-0.36 0.2,-0.36 0.2,0 0.2,0.18 0.2,0.36 z"
         id="path1504" /><path
         style="fill:#000000;stroke-width:0"
         inkscape:connector-curvature="0"
         d="m 269.25,484.17 -0.01,0.01 -0.01,0.01 v 0.01 l -0.01,0.01 v 0.01 l -0.01,0.01 v 0.01 l -0.01,0.01 v 0.01 l -0.01,0.01 -0.01,0.01 v 0 l -0.01,0.01 v 0.01 h -0.01 l -0.01,0.01 v 0 l -0.01,0.01 h -0.01 v 0.01 h -0.01 -0.01 l -0.01,0.01 h -0.01 -0.01 -0.01 -0.01 l -0.02,0.01 h -0.01 -0.01 -0.02 -0.01 c -0.17,0 -0.19,-0.05 -0.26,-0.18 l -0.06,-0.82 2.68,-5.36 h -5.37 l 2.69,5.36 0.06,0.82 -3.37,-6.74 c -0.05,-0.09 -0.05,-0.11 -0.05,-0.12 0,-0.08 0.06,-0.08 0.22,-0.08 h 6.92 c 0.16,0 0.22,0 0.22,0.08 0,0.01 0,0.03 -0.05,0.12 z"
         id="path1506" /><polygon
         style="fill:#000000;stroke-width:0"
         points="278.86,483.04 276.03,484.63 273.21,483.04 273.32,482.82 276.02,484.04 278.74,482.82 "
         id="polygon1508" /><path
         style="fill:#000000;stroke-width:0"
         inkscape:connector-curvature="0"
         d="m 277.04,480.95 h -0.03 -0.02 l -0.03,-0.01 h -0.02 l -0.02,-0.01 -0.03,-0.01 h -0.02 l -0.02,-0.01 -0.02,-0.01 -0.02,-0.01 -0.02,-0.02 -0.02,-0.01 -0.02,-0.01 -0.02,-0.02 -0.02,-0.01 -0.01,-0.02 -0.02,-0.01 -0.01,-0.02 -0.02,-0.01 -0.01,-0.02 -0.01,-0.02 -0.01,-0.02 -0.01,-0.02 -0.01,-0.02 -0.01,-0.02 -0.01,-0.02 v -0.02 l -0.01,-0.02 v -0.02 l -0.01,-0.02 v -0.02 -0.02 c 0,-0.14 0.09,-0.29 0.31,-0.29 0.22,0 0.46,0.17 0.46,0.56 0,0.45 -0.43,0.86 -1.19,0.86 -1.31,0 -1.68,-1.02 -1.68,-1.46 0,-0.77 0.74,-0.92 1.02,-0.98 0.52,-0.1 1.04,-0.21 1.04,-0.75 0,-0.26 -0.23,-1.1 -1.42,-1.1 -0.14,0 -0.91,0 -1.14,0.53 0.38,-0.05 0.63,0.25 0.63,0.53 0,0.23 -0.16,0.34 -0.37,0.34 -0.26,0 -0.56,-0.2 -0.56,-0.65 0,-0.57 0.57,-0.96 1.43,-0.96 1.61,0 2,1.2 2,1.64 0,0.36 -0.19,0.61 -0.31,0.73 -0.27,0.28 -0.56,0.33 -1,0.42 -0.36,0.08 -0.75,0.15 -0.75,0.59 0,0.29 0.24,0.9 1.11,0.9 0.25,0 0.75,-0.07 0.9,-0.46 z"
         id="path1510" /><path
         style="fill:#000000;stroke-width:0"
         inkscape:connector-curvature="0"
         d="m 280.08,480.09 v 0.01 l -0.01,0.01 v 0.01 0.01 0.01 0.01 l -0.01,0.01 v 0.02 0.01 l -0.01,0.01 v 0.01 l -0.01,0.01 -0.01,0.01 v 0.01 l -0.01,0.01 -0.01,0.01 -0.01,0.01 -0.01,0.01 -0.01,0.01 -0.01,0.01 h -0.01 l -0.01,0.01 -0.01,0.01 -0.02,0.01 h -0.01 l -0.01,0.01 h -0.02 -0.02 l -0.01,0.01 h -0.02 -0.02 -0.01 c -0.19,0 -0.4,-0.18 -0.4,-0.38 0,-0.12 0.1,-0.27 0.28,-0.27 0.21,0 0.4,0.2 0.4,0.39 z"
         id="path1512" /><path
         style="fill:#000000;stroke-width:0"
         inkscape:connector-curvature="0"
         d="m 278.65,476.55 -0.01,-0.01 v -0.02 l -0.01,-0.03 -0.01,-0.02 v -0.02 l -0.01,-0.01 v -0.02 l -0.01,-0.02 v -0.02 -0.02 l -0.01,-0.01 v -0.01 -0.01 -0.01 -0.01 -0.02 -0.01 -0.01 -0.01 c 0,-0.32 0.28,-0.59 0.66,-0.59 0.7,0 1.01,0.96 1.01,1.06 0,0.1 -0.09,0.1 -0.11,0.1 -0.1,0 -0.11,-0.05 -0.14,-0.12 -0.16,-0.56 -0.46,-0.84 -0.74,-0.84 -0.14,0 -0.17,0.09 -0.17,0.24 0,0.16 0.05,0.29 0.11,0.44 0.07,0.19 0.15,0.38 0.22,0.56 0.07,0.17 0.32,0.8 0.35,0.88 0.02,0.07 0.04,0.16 0.04,0.23 0,0.32 -0.28,0.59 -0.67,0.59 -0.69,0 -1.01,-0.95 -1.01,-1.07 0,-0.09 0.1,-0.09 0.12,-0.09 0.1,0 0.1,0.04 0.12,0.11 0.19,0.6 0.49,0.85 0.75,0.85 0.11,0 0.18,-0.05 0.18,-0.24 0,-0.16 -0.04,-0.26 -0.22,-0.7 z"
         id="path1514" /></g>    <g
       ns0:preamble="/usr/share/inkscape/extensions/textextLib/basicLatexPackages.tex"
       ns0:text="$\\widehat{P}_{s_i}(\\widehat{s}_i)\\Delta \\widehat{s}_i$"
       word-spacing="normal"
       letter-spacing="normal"
       font-size-adjust="none"
       font-stretch="normal"
       font-weight="normal"
       font-variant="normal"
       font-style="normal"
       stroke-miterlimit="10.433"
       xml:space="preserve"
       transform="matrix(2,0,0,-2,-173.71467,1346.1259)"
       id="g1753"
       style="font-style:normal;font-variant:normal;font-weight:normal;font-stretch:normal;letter-spacing:normal;word-spacing:normal;text-anchor:start;fill:none;fill-opacity:1;fill-rule:evenodd;stroke:#000000;stroke-linecap:butt;stroke-linejoin:miter;stroke-miterlimit:10.43299961;stroke-dasharray:none;stroke-dashoffset:0;stroke-opacity:1"><polygon
         id="polygon1721"
         points="230.98,485.55 228.16,487.14 225.34,485.55 225.45,485.34 228.15,486.56 230.86,485.34 "
         style="fill:#000000;stroke-width:0" /><path
         id="path1723"
         d="m 226.45,480.37 0.04,0.26 0.68,2.7 c 0.09,0.35 0.11,0.38 0.54,0.38 h 0.96 c 0.82,0 1.35,-0.27 1.35,-0.95 0,-0.39 -0.2,-1.24 -0.59,-1.6 -0.49,-0.45 -1.09,-0.53 -1.53,-0.53 h -1.41 l -0.04,-0.26 h 1.7 c 1.42,0 2.8,1.04 2.8,2.15 0,0.77 -0.66,1.5 -1.96,1.5 h -3.23 c -0.19,0 -0.3,0 -0.3,-0.19 0,-0.12 0.09,-0.12 0.29,-0.12 0.13,0 0.3,-0.01 0.42,-0.02 0.16,-0.02 0.22,-0.05 0.22,-0.16 0,-0.04 -0.01,-0.07 -0.04,-0.19 l -1.33,-5.33 c -0.1,-0.39 -0.12,-0.47 -0.91,-0.47 -0.17,0 -0.28,0 -0.28,-0.19 0,-0.12 0.12,-0.12 0.15,-0.12 0.28,0 0.99,0.04 1.27,0.04 0.21,0 0.43,-0.01 0.63,-0.01 0.22,0 0.44,-0.03 0.65,-0.03 0.07,0 0.2,0 0.2,0.2 0,0.11 -0.09,0.11 -0.28,0.11 -0.36,0 -0.65,0 -0.65,0.18 0,0.06 0.02,0.11 0.04,0.17 z"
         inkscape:connector-curvature="0"
         style="fill:#000000;stroke-width:0" /><path
         id="path1725"
         d="m 232.84,478.36 -0.02,-0.01 h -0.01 l -0.02,-0.01 h -0.01 l -0.02,-0.01 -0.01,-0.01 -0.02,-0.01 h -0.01 l -0.01,-0.01 -0.02,-0.01 -0.01,-0.01 -0.01,-0.01 -0.01,-0.01 -0.01,-0.01 -0.01,-0.01 -0.01,-0.01 -0.01,-0.01 -0.01,-0.01 -0.01,-0.02 -0.01,-0.01 v -0.01 l -0.01,-0.01 -0.01,-0.01 v -0.02 l -0.01,-0.01 v -0.01 -0.02 l -0.01,-0.01 v -0.01 -0.01 -0.02 -0.01 c 0,-0.16 0.14,-0.22 0.23,-0.22 0.07,0 0.33,0.04 0.33,0.39 0,0.45 -0.5,0.61 -0.93,0.61 -1.09,0 -1.28,-0.8 -1.28,-1.02 0,-0.25 0.14,-0.42 0.24,-0.5 0.18,-0.14 0.31,-0.17 0.79,-0.26 0.15,-0.02 0.6,-0.11 0.6,-0.45 0,-0.12 -0.08,-0.39 -0.37,-0.56 -0.28,-0.15 -0.62,-0.15 -0.7,-0.15 -0.28,0 -0.68,0.06 -0.84,0.29 0.23,0.03 0.38,0.2 0.38,0.39 0,0.18 -0.12,0.26 -0.27,0.26 -0.2,0 -0.41,-0.16 -0.41,-0.46 0,-0.42 0.45,-0.68 1.13,-0.68 1.29,0 1.52,0.88 1.52,1.15 0,0.64 -0.7,0.76 -0.96,0.81 -0.06,0.02 -0.24,0.04 -0.28,0.06 -0.26,0.05 -0.38,0.19 -0.38,0.35 0,0.16 0.12,0.34 0.27,0.44 0.19,0.12 0.44,0.13 0.56,0.13 0.14,0 0.51,-0.02 0.66,-0.25 z"
         inkscape:connector-curvature="0"
         style="fill:#000000;stroke-width:0" /><path
         id="path1727"
         d="m 235.55,477.84 v 0.02 0.01 0.01 0.01 0.01 0.01 l -0.01,0.01 v 0.01 l -0.01,0.01 v 0.01 0.01 h -0.01 l -0.01,0.01 v 0.01 l -0.01,0.01 -0.01,0.01 v 0 l -0.01,0.01 -0.01,0.01 h -0.01 l -0.01,0.01 h -0.01 l -0.01,0.01 h -0.01 l -0.01,0.01 h -0.01 -0.01 -0.01 l -0.01,0.01 h -0.01 -0.01 -0.01 c -0.14,0 -0.31,-0.14 -0.31,-0.3 0,-0.14 0.11,-0.21 0.22,-0.21 0.16,0 0.3,0.15 0.3,0.29 z"
         inkscape:connector-curvature="0"
         style="fill:#000000;stroke-width:0" /><path
         id="path1729"
         d="m 235.79,475.46 v 0 0.01 0 0 0.01 0 0 h -0.01 v 0.01 0 0 0 0 0.01 0 h -0.01 v 0 0 0.01 0 h -0.01 v 0 0.01 h -0.01 v 0 h -0.01 v 0 h -0.01 v 0.01 0 h -0.01 v 0 h -0.01 v 0 h -0.01 v 0 0 h -0.01 v 0 0 0 h -0.01 c -0.08,0 -0.08,-0.02 -0.11,-0.11 -0.09,-0.28 -0.31,-0.56 -0.56,-0.56 -0.12,0 -0.15,0.08 -0.15,0.19 0,0.1 0.02,0.16 0.06,0.25 0.04,0.1 0.08,0.2 0.11,0.27 0.02,0.04 0.21,0.51 0.28,0.69 0.04,0.09 0.07,0.16 0.07,0.24 0,0.24 -0.23,0.44 -0.54,0.44 -0.52,0 -0.8,-0.64 -0.8,-0.77 0,-0.07 0.08,-0.07 0.1,-0.07 0.09,0 0.09,0.03 0.12,0.1 0.11,0.35 0.35,0.57 0.56,0.57 0.09,0 0.15,-0.05 0.15,-0.19 0,-0.02 0,-0.08 -0.03,-0.18 -0.04,-0.09 -0.26,-0.62 -0.33,-0.79 -0.03,-0.08 -0.03,-0.09 -0.11,-0.26 -0.02,-0.07 -0.05,-0.14 -0.05,-0.22 0,-0.26 0.24,-0.44 0.54,-0.44 0.52,0 0.8,0.65 0.8,0.77 z"
         inkscape:connector-curvature="0"
         style="fill:#000000;stroke-width:0" /><path
         id="path1731"
         d="m 240.54,474.85 v 0.01 0 0 0.01 0 0 0.01 0 0 0.01 h -0.01 v 0.01 0 l -0.01,0.01 v 0 l -0.01,0.01 v 0.01 h -0.01 v 0.01 0 l -0.01,0.01 v 0 h -0.01 v 0.01 0 l -0.01,0.01 v 0 l -0.01,0.01 v 0 l -0.01,0.01 v 0 l -0.01,0.01 v 0.01 h -0.01 l -0.01,0.01 v 0.01 h -0.01 l -0.01,0.01 v 0.01 h -0.01 l -0.01,0.01 -0.01,0.01 c -1.24,1.25 -1.56,3.13 -1.56,4.65 0,1.73 0.38,3.45 1.6,4.7 0.13,0.12 0.13,0.14 0.13,0.17 0,0.07 -0.04,0.09 -0.1,0.09 -0.1,0 -0.99,-0.67 -1.58,-1.93 -0.51,-1.09 -0.63,-2.2 -0.63,-3.03 0,-0.78 0.11,-1.98 0.66,-3.1 0.6,-1.22 1.45,-1.87 1.55,-1.87 0.06,0 0.1,0.03 0.1,0.1 z"
         inkscape:connector-curvature="0"
         style="fill:#000000;stroke-width:0" /><polygon
         id="polygon1733"
         points="246.83,483.04 244.01,484.63 241.19,483.04 241.3,482.82 244,484.04 246.71,482.82 "
         style="fill:#000000;stroke-width:0" /><path
         id="path1735"
         d="m 245.02,480.95 h -0.03 -0.03 l -0.02,-0.01 h -0.02 l -0.03,-0.01 -0.02,-0.01 h -0.02 l -0.03,-0.01 -0.02,-0.01 -0.02,-0.01 -0.02,-0.02 -0.02,-0.01 -0.02,-0.01 -0.01,-0.02 -0.02,-0.01 -0.02,-0.02 -0.01,-0.01 -0.02,-0.02 -0.01,-0.01 -0.02,-0.02 -0.01,-0.02 -0.01,-0.02 -0.01,-0.02 -0.01,-0.02 -0.01,-0.02 v -0.02 l -0.01,-0.02 v -0.02 l -0.01,-0.02 v -0.02 -0.02 -0.02 c 0,-0.14 0.09,-0.29 0.31,-0.29 0.22,0 0.45,0.17 0.45,0.56 0,0.45 -0.42,0.86 -1.18,0.86 -1.32,0 -1.69,-1.02 -1.69,-1.46 0,-0.77 0.74,-0.92 1.03,-0.98 0.52,-0.1 1.04,-0.21 1.04,-0.75 0,-0.26 -0.23,-1.1 -1.43,-1.1 -0.14,0 -0.91,0 -1.14,0.53 0.38,-0.05 0.63,0.25 0.63,0.53 0,0.23 -0.16,0.34 -0.37,0.34 -0.26,0 -0.55,-0.2 -0.55,-0.65 0,-0.57 0.56,-0.96 1.42,-0.96 1.62,0 2.01,1.2 2.01,1.64 0,0.36 -0.19,0.61 -0.31,0.73 -0.27,0.28 -0.56,0.33 -1,0.42 -0.36,0.08 -0.76,0.15 -0.76,0.59 0,0.29 0.24,0.9 1.12,0.9 0.25,0 0.75,-0.07 0.9,-0.46 z"
         inkscape:connector-curvature="0"
         style="fill:#000000;stroke-width:0" /><path
         id="path1737"
         d="m 248.05,480.09 v 0.01 0.01 0.01 0.01 0.01 l -0.01,0.01 v 0.01 0.02 l -0.01,0.01 v 0.01 l -0.01,0.01 v 0.01 l -0.01,0.01 -0.01,0.01 -0.01,0.01 v 0.01 l -0.01,0.01 -0.01,0.01 -0.01,0.01 -0.01,0.01 h -0.01 l -0.02,0.01 -0.01,0.01 -0.01,0.01 h -0.01 l -0.02,0.01 h -0.01 -0.02 l -0.02,0.01 h -0.01 -0.02 -0.02 c -0.19,0 -0.39,-0.18 -0.39,-0.38 0,-0.12 0.09,-0.27 0.28,-0.27 0.2,0 0.39,0.2 0.39,0.39 z"
         inkscape:connector-curvature="0"
         style="fill:#000000;stroke-width:0" /><path
         id="path1739"
         d="m 246.63,476.55 -0.01,-0.01 v -0.02 l -0.02,-0.03 v -0.02 l -0.01,-0.02 v -0.01 l -0.01,-0.02 v -0.02 -0.02 l -0.01,-0.02 v -0.01 -0.01 -0.01 -0.01 l -0.01,-0.01 v -0.02 -0.01 -0.01 -0.01 c 0,-0.32 0.28,-0.59 0.67,-0.59 0.7,0 1,0.96 1,1.06 0,0.1 -0.09,0.1 -0.11,0.1 -0.1,0 -0.1,-0.05 -0.13,-0.12 -0.16,-0.56 -0.47,-0.84 -0.74,-0.84 -0.14,0 -0.18,0.09 -0.18,0.24 0,0.16 0.05,0.29 0.11,0.44 0.08,0.19 0.15,0.38 0.23,0.56 0.06,0.17 0.31,0.8 0.34,0.88 0.02,0.07 0.04,0.16 0.04,0.23 0,0.32 -0.28,0.59 -0.66,0.59 -0.69,0 -1.01,-0.95 -1.01,-1.07 0,-0.09 0.09,-0.09 0.11,-0.09 0.1,0 0.11,0.04 0.13,0.11 0.18,0.6 0.49,0.85 0.75,0.85 0.11,0 0.17,-0.05 0.17,-0.24 0,-0.16 -0.04,-0.26 -0.21,-0.7 z"
         inkscape:connector-curvature="0"
         style="fill:#000000;stroke-width:0" /><path
         id="path1741"
         d="m 251.99,479.72 v 0.07 l -0.01,0.08 v 0.08 0.08 l -0.01,0.17 -0.01,0.17 -0.02,0.18 -0.02,0.19 -0.02,0.2 -0.04,0.2 -0.04,0.2 -0.04,0.21 -0.06,0.21 -0.06,0.21 -0.07,0.21 -0.08,0.21 -0.04,0.11 -0.04,0.11 -0.05,0.1 -0.05,0.11 c -0.6,1.22 -1.46,1.86 -1.56,1.86 -0.06,0 -0.1,-0.03 -0.1,-0.09 0,-0.03 0,-0.05 0.19,-0.23 0.98,-0.99 1.55,-2.56 1.55,-4.64 0,-1.7 -0.37,-3.45 -1.61,-4.7 -0.13,-0.12 -0.13,-0.14 -0.13,-0.17 0,-0.06 0.04,-0.1 0.1,-0.1 0.1,0 1,0.68 1.59,1.94 0.51,1.09 0.63,2.19 0.63,3.03 z"
         inkscape:connector-curvature="0"
         style="fill:#000000;stroke-width:0" /><path
         id="path1743"
         d="m 257.39,484.17 -0.01,0.01 -0.01,0.01 v 0.01 l -0.01,0.01 v 0.01 l -0.01,0.01 v 0.01 l -0.01,0.01 -0.01,0.01 v 0.01 l -0.01,0.01 v 0 l -0.01,0.01 v 0.01 h -0.01 l -0.01,0.01 v 0 l -0.01,0.01 h -0.01 l -0.01,0.01 v 0 h -0.01 l -0.01,0.01 h -0.01 -0.01 -0.01 -0.01 l -0.02,0.01 h -0.01 -0.01 -0.02 -0.01 c -0.17,0 -0.19,-0.05 -0.26,-0.18 l -0.06,-0.82 2.68,-5.36 h -5.37 l 2.69,5.36 0.06,0.82 -3.37,-6.74 c -0.05,-0.09 -0.05,-0.11 -0.05,-0.12 0,-0.08 0.06,-0.08 0.22,-0.08 h 6.92 c 0.16,0 0.22,0 0.22,0.08 0,0.01 0,0.03 -0.05,0.12 z"
         inkscape:connector-curvature="0"
         style="fill:#000000;stroke-width:0" /><polygon
         id="polygon1745"
         points="267,483.04 264.17,484.63 261.35,483.04 261.46,482.82 264.16,484.04 266.88,482.82 "
         style="fill:#000000;stroke-width:0" /><path
         id="path1747"
         d="m 265.18,480.95 h -0.03 -0.02 l -0.03,-0.01 h -0.02 l -0.03,-0.01 -0.02,-0.01 h -0.02 l -0.02,-0.01 -0.02,-0.01 -0.03,-0.01 -0.02,-0.02 -0.02,-0.01 -0.01,-0.01 -0.02,-0.02 -0.02,-0.01 -0.02,-0.02 -0.01,-0.01 -0.02,-0.02 -0.01,-0.01 -0.01,-0.02 -0.01,-0.02 -0.02,-0.02 -0.01,-0.02 v -0.02 l -0.01,-0.02 -0.01,-0.02 -0.01,-0.02 v -0.02 -0.02 l -0.01,-0.02 v -0.02 -0.02 c 0,-0.14 0.09,-0.29 0.31,-0.29 0.22,0 0.46,0.17 0.46,0.56 0,0.45 -0.43,0.86 -1.19,0.86 -1.32,0 -1.68,-1.02 -1.68,-1.46 0,-0.77 0.73,-0.92 1.02,-0.98 0.52,-0.1 1.04,-0.21 1.04,-0.75 0,-0.26 -0.23,-1.1 -1.43,-1.1 -0.13,0 -0.9,0 -1.13,0.53 0.38,-0.05 0.63,0.25 0.63,0.53 0,0.23 -0.16,0.34 -0.37,0.34 -0.26,0 -0.56,-0.2 -0.56,-0.65 0,-0.57 0.57,-0.96 1.43,-0.96 1.61,0 2,1.2 2,1.64 0,0.36 -0.19,0.61 -0.31,0.73 -0.27,0.28 -0.56,0.33 -1,0.42 -0.36,0.08 -0.75,0.15 -0.75,0.59 0,0.29 0.23,0.9 1.11,0.9 0.25,0 0.75,-0.07 0.9,-0.46 z"
         inkscape:connector-curvature="0"
         style="fill:#000000;stroke-width:0" /><path
         id="path1749"
         d="m 268.21,480.09 v 0.01 0.01 0.01 0.01 0.01 0.01 l -0.01,0.01 v 0.02 l -0.01,0.01 v 0.01 l -0.01,0.01 v 0.01 l -0.01,0.01 -0.01,0.01 v 0.01 l -0.01,0.01 -0.01,0.01 -0.01,0.01 -0.01,0.01 -0.01,0.01 h -0.01 l -0.01,0.01 -0.02,0.01 -0.01,0.01 h -0.01 l -0.02,0.01 H 268.02 268 l -0.01,0.01 h -0.02 -0.02 -0.01 c -0.19,0 -0.4,-0.18 -0.4,-0.38 0,-0.12 0.1,-0.27 0.28,-0.27 0.21,0 0.39,0.2 0.39,0.39 z"
         inkscape:connector-curvature="0"
         style="fill:#000000;stroke-width:0" /><path
         id="path1751"
         d="m 266.79,476.55 -0.01,-0.01 v -0.02 l -0.01,-0.03 -0.01,-0.02 v -0.02 l -0.01,-0.01 v -0.02 l -0.01,-0.02 v -0.02 l -0.01,-0.02 v -0.01 -0.01 -0.01 -0.01 -0.01 -0.02 -0.01 -0.01 -0.01 c 0,-0.32 0.28,-0.59 0.66,-0.59 0.7,0 1.01,0.96 1.01,1.06 0,0.1 -0.09,0.1 -0.11,0.1 -0.1,0 -0.11,-0.05 -0.14,-0.12 -0.16,-0.56 -0.47,-0.84 -0.74,-0.84 -0.14,0 -0.17,0.09 -0.17,0.24 0,0.16 0.05,0.29 0.11,0.44 0.07,0.19 0.14,0.38 0.22,0.56 0.07,0.17 0.32,0.8 0.35,0.88 0.02,0.07 0.04,0.16 0.04,0.23 0,0.32 -0.28,0.59 -0.67,0.59 -0.69,0 -1.01,-0.95 -1.01,-1.07 0,-0.09 0.1,-0.09 0.12,-0.09 0.09,0 0.1,0.04 0.12,0.11 0.18,0.6 0.49,0.85 0.75,0.85 0.11,0 0.18,-0.05 0.18,-0.24 0,-0.16 -0.05,-0.26 -0.22,-0.7 z"
         inkscape:connector-curvature="0"
         style="fill:#000000;stroke-width:0" /></g>    <g
       style="font-style:normal;font-variant:normal;font-weight:normal;font-stretch:normal;letter-spacing:normal;word-spacing:normal;text-anchor:start;fill:none;fill-opacity:1;fill-rule:evenodd;stroke:#000000;stroke-linecap:butt;stroke-linejoin:miter;stroke-miterlimit:10.43299961;stroke-dasharray:none;stroke-dashoffset:0;stroke-opacity:1"
       id="g2000"
       transform="matrix(2,0,0,-2,-230.70277,1424.5743)"
       xml:space="preserve"
       stroke-miterlimit="10.433"
       font-style="normal"
       font-variant="normal"
       font-weight="normal"
       font-stretch="normal"
       font-size-adjust="none"
       letter-spacing="normal"
       word-spacing="normal"
       ns0:text="$\\Delta \\widehat{s}_i$"
       ns0:preamble="/usr/share/inkscape/extensions/textextLib/basicLatexPackages.tex"><path
         style="fill:#000000;stroke-width:0"
         inkscape:connector-curvature="0"
         d="m 227.84,484.17 -0.01,0.01 v 0.01 l -0.01,0.01 v 0.01 l -0.01,0.01 -0.01,0.01 v 0.01 l -0.01,0.01 v 0.01 l -0.01,0.01 v 0.01 h -0.01 v 0.01 l -0.01,0.01 h -0.01 v 0.01 h -0.01 l -0.01,0.01 v 0 l -0.01,0.01 h -0.01 -0.01 l -0.01,0.01 h -0.01 -0.01 -0.01 -0.01 l -0.01,0.01 h -0.02 -0.01 -0.01 -0.02 c -0.17,0 -0.19,-0.05 -0.26,-0.18 l -0.06,-0.82 2.68,-5.36 h -5.37 l 2.69,5.36 0.06,0.82 -3.37,-6.74 c -0.05,-0.09 -0.05,-0.11 -0.05,-0.12 0,-0.08 0.06,-0.08 0.22,-0.08 h 6.92 c 0.16,0 0.22,0 0.22,0.08 0,0.01 0,0.03 -0.05,0.12 z"
         id="path1990" /><polygon
         style="fill:#000000;stroke-width:0"
         points="234.63,484.63 231.8,483.04 231.91,482.82 234.62,484.04 237.33,482.82 237.45,483.04 "
         id="polygon1992" /><path
         style="fill:#000000;stroke-width:0"
         inkscape:connector-curvature="0"
         d="m 235.63,480.95 h -0.02 -0.03 l -0.02,-0.01 h -0.03 l -0.02,-0.01 -0.02,-0.01 h -0.03 l -0.02,-0.01 -0.02,-0.01 -0.02,-0.01 -0.02,-0.02 -0.02,-0.01 -0.02,-0.01 -0.02,-0.02 -0.01,-0.01 -0.02,-0.02 -0.02,-0.01 -0.01,-0.02 -0.02,-0.01 -0.01,-0.02 -0.01,-0.02 -0.01,-0.02 -0.01,-0.02 -0.01,-0.02 -0.01,-0.02 -0.01,-0.02 v -0.02 l -0.01,-0.02 v -0.02 -0.02 l -0.01,-0.02 v -0.02 c 0,-0.14 0.09,-0.29 0.31,-0.29 0.22,0 0.46,0.17 0.46,0.56 0,0.45 -0.43,0.86 -1.18,0.86 -1.32,0 -1.69,-1.02 -1.69,-1.46 0,-0.77 0.74,-0.92 1.03,-0.98 0.52,-0.1 1.04,-0.21 1.04,-0.75 0,-0.26 -0.24,-1.1 -1.43,-1.1 -0.14,0 -0.91,0 -1.14,0.53 0.38,-0.05 0.63,0.25 0.63,0.53 0,0.23 -0.16,0.34 -0.37,0.34 -0.26,0 -0.56,-0.2 -0.56,-0.65 0,-0.57 0.57,-0.96 1.43,-0.96 1.61,0 2,1.2 2,1.64 0,0.36 -0.19,0.61 -0.31,0.73 -0.27,0.28 -0.55,0.33 -0.99,0.42 -0.36,0.08 -0.76,0.15 -0.76,0.59 0,0.29 0.24,0.9 1.12,0.9 0.25,0 0.74,-0.07 0.89,-0.46 z"
         id="path1994" /><path
         style="fill:#000000;stroke-width:0"
         inkscape:connector-curvature="0"
         d="m 238.67,480.09 v 0.01 0.01 0.01 0.01 l -0.01,0.01 v 0.01 0.01 l -0.01,0.02 v 0.01 l -0.01,0.01 v 0.01 l -0.01,0.01 v 0.01 l -0.01,0.01 -0.01,0.01 -0.01,0.01 -0.01,0.01 -0.01,0.01 -0.01,0.01 -0.01,0.01 h -0.01 l -0.01,0.01 -0.01,0.01 -0.01,0.01 h -0.02 l -0.01,0.01 h -0.02 -0.01 l -0.02,0.01 h -0.01 -0.02 -0.02 c -0.19,0 -0.39,-0.18 -0.39,-0.38 0,-0.12 0.09,-0.27 0.28,-0.27 0.2,0 0.39,0.2 0.39,0.39 z"
         id="path1996" /><path
         style="fill:#000000;stroke-width:0"
         inkscape:connector-curvature="0"
         d="m 237.24,476.55 v -0.01 l -0.01,-0.02 -0.01,-0.03 v -0.02 l -0.01,-0.02 v -0.01 l -0.01,-0.02 v -0.02 l -0.01,-0.02 v -0.02 -0.01 l -0.01,-0.01 v -0.01 -0.01 -0.01 -0.02 -0.01 -0.01 -0.01 c 0,-0.32 0.28,-0.59 0.66,-0.59 0.7,0 1.01,0.96 1.01,1.06 0,0.1 -0.09,0.1 -0.11,0.1 -0.1,0 -0.11,-0.05 -0.13,-0.12 -0.16,-0.56 -0.47,-0.84 -0.74,-0.84 -0.14,0 -0.18,0.09 -0.18,0.24 0,0.16 0.05,0.29 0.11,0.44 0.07,0.19 0.15,0.38 0.23,0.56 0.06,0.17 0.31,0.8 0.34,0.88 0.02,0.07 0.04,0.16 0.04,0.23 0,0.32 -0.28,0.59 -0.66,0.59 -0.7,0 -1.02,-0.95 -1.02,-1.07 0,-0.09 0.1,-0.09 0.12,-0.09 0.1,0 0.11,0.04 0.13,0.11 0.18,0.6 0.49,0.85 0.75,0.85 0.11,0 0.17,-0.05 0.17,-0.24 0,-0.16 -0.04,-0.26 -0.22,-0.7 z"
         id="path1998" /></g>    <g
       style="font-style:normal;font-variant:normal;font-weight:normal;font-stretch:normal;letter-spacing:normal;word-spacing:normal;text-anchor:start;fill:none;fill-opacity:1;fill-rule:evenodd;stroke:#000000;stroke-linecap:butt;stroke-linejoin:miter;stroke-miterlimit:10.43299961;stroke-dasharray:none;stroke-dashoffset:0;stroke-opacity:1"
       ns0:preamble="/usr/share/inkscape/extensions/textextLib/basicLatexPackages.tex"
       ns0:text="$\\widehat{P}_{u_i}(\\widehat{u}_i)\\Delta \\widehat{u}_i$"
       word-spacing="normal"
       letter-spacing="normal"
       font-size-adjust="none"
       font-stretch="normal"
       font-weight="normal"
       font-variant="normal"
       font-style="normal"
       stroke-miterlimit="10.433"
       xml:space="preserve"
       transform="matrix(2,0,0,-2,125.73469,1095.0623)"
       id="g4873"><polygon
         id="polygon4841"
         points="230.86,485.34 230.98,485.55 228.16,487.14 225.34,485.55 225.45,485.34 228.15,486.56 "
         style="fill:#000000;stroke-width:0" /><path
         id="path4843"
         d="m 226.45,480.37 0.04,0.26 0.68,2.7 c 0.09,0.35 0.11,0.38 0.54,0.38 h 0.96 c 0.82,0 1.35,-0.27 1.35,-0.95 0,-0.39 -0.2,-1.24 -0.59,-1.6 -0.49,-0.45 -1.09,-0.53 -1.53,-0.53 h -1.41 l -0.04,-0.26 h 1.7 c 1.42,0 2.8,1.04 2.8,2.15 0,0.77 -0.66,1.5 -1.96,1.5 h -3.23 c -0.19,0 -0.3,0 -0.3,-0.19 0,-0.12 0.09,-0.12 0.29,-0.12 0.13,0 0.3,-0.01 0.42,-0.02 0.16,-0.02 0.22,-0.05 0.22,-0.16 0,-0.04 -0.01,-0.07 -0.04,-0.19 l -1.33,-5.33 c -0.1,-0.39 -0.12,-0.47 -0.91,-0.47 -0.17,0 -0.28,0 -0.28,-0.19 0,-0.12 0.12,-0.12 0.15,-0.12 0.28,0 0.99,0.04 1.27,0.04 0.21,0 0.43,-0.01 0.63,-0.01 0.22,0 0.44,-0.03 0.65,-0.03 0.07,0 0.2,0 0.2,0.2 0,0.11 -0.09,0.11 -0.28,0.11 -0.36,0 -0.65,0 -0.65,0.18 0,0.06 0.02,0.11 0.04,0.17 z"
         inkscape:connector-curvature="0"
         style="fill:#000000;stroke-width:0" /><path
         id="path4845"
         d="m 232.79,476.87 -0.01,-0.02 v -0.01 -0.01 l -0.01,-0.02 v -0.02 l -0.01,-0.01 v -0.03 l -0.01,-0.04 -0.01,-0.03 -0.01,-0.04 v -0.01 l -0.01,-0.02 v -0.01 l -0.01,-0.02 v -0.01 -0.02 l -0.01,-0.01 v -0.01 -0.01 l -0.01,-0.02 v -0.01 0 l -0.01,-0.01 v -0.01 0 0 -0.01 0 0 0 h -0.01 v 0 c -0.13,-0.22 -0.41,-0.59 -0.84,-0.59 -0.48,0 -0.48,0.45 -0.48,0.57 0,0.41 0.19,0.91 0.39,1.42 0.05,0.13 0.1,0.24 0.1,0.35 0,0.36 -0.31,0.6 -0.67,0.6 -0.7,0 -1.01,-0.95 -1.01,-1.07 0,-0.09 0.1,-0.09 0.12,-0.09 0.09,0 0.1,0.04 0.12,0.11 0.17,0.57 0.48,0.85 0.75,0.85 0.12,0 0.17,-0.07 0.17,-0.24 0,-0.16 -0.05,-0.31 -0.12,-0.47 -0.38,-0.96 -0.38,-1.16 -0.38,-1.35 0,-0.11 0,-0.43 0.26,-0.66 0.2,-0.16 0.47,-0.22 0.72,-0.22 0.44,0 0.68,0.24 0.91,0.46 0.15,-0.45 0.62,-0.46 0.7,-0.46 0.24,0 0.42,0.14 0.56,0.37 0.15,0.27 0.25,0.67 0.25,0.69 0,0.1 -0.1,0.1 -0.12,0.1 -0.1,0 -0.11,-0.03 -0.15,-0.22 -0.09,-0.33 -0.22,-0.74 -0.51,-0.74 -0.19,0 -0.23,0.16 -0.23,0.34 0,0.12 0.05,0.37 0.1,0.55 0.05,0.18 0.12,0.47 0.15,0.62 l 0.16,0.62 c 0.05,0.17 0.12,0.48 0.12,0.52 0,0.13 -0.11,0.22 -0.23,0.22 -0.26,0 -0.3,-0.2 -0.36,-0.43 z"
         inkscape:connector-curvature="0"
         style="fill:#000000;stroke-width:0" /><path
         id="path4847"
         d="m 236.51,477.84 v 0.02 l -0.01,0.01 v 0.01 0.01 0.01 0.01 l -0.01,0.01 v 0.01 0.01 l -0.01,0.01 v 0.01 h -0.01 l -0.01,0.01 v 0.01 l -0.01,0.01 -0.01,0.01 v 0 l -0.01,0.01 -0.01,0.01 h -0.01 l -0.01,0.01 h -0.01 v 0.01 h -0.01 l -0.01,0.01 h -0.01 -0.02 -0.01 l -0.01,0.01 h -0.01 -0.01 -0.01 c -0.14,0 -0.31,-0.14 -0.31,-0.3 0,-0.14 0.11,-0.21 0.22,-0.21 0.16,0 0.31,0.15 0.31,0.29 z"
         inkscape:connector-curvature="0"
         style="fill:#000000;stroke-width:0" /><path
         id="path4849"
         d="m 236.74,475.46 v 0 0.01 0 0 0.01 0 0 0 l -0.01,0.01 v 0 0 0 0 0.01 0 0 h -0.01 v 0 0.01 0 0 h -0.01 v 0.01 h -0.01 v 0 h -0.01 v 0 0 l -0.01,0.01 v 0 h -0.01 v 0 h -0.01 v 0 0 h -0.01 v 0 0 h -0.01 v 0 0 h -0.01 c -0.08,0 -0.08,-0.02 -0.11,-0.11 -0.09,-0.28 -0.31,-0.56 -0.56,-0.56 -0.11,0 -0.15,0.08 -0.15,0.19 0,0.1 0.03,0.16 0.07,0.25 0.03,0.1 0.08,0.2 0.1,0.27 0.02,0.04 0.21,0.51 0.28,0.69 0.04,0.09 0.07,0.16 0.07,0.24 0,0.24 -0.23,0.44 -0.54,0.44 -0.52,0 -0.8,-0.64 -0.8,-0.77 0,-0.07 0.08,-0.07 0.11,-0.07 0.08,0 0.08,0.03 0.11,0.1 0.11,0.35 0.35,0.57 0.56,0.57 0.1,0 0.15,-0.05 0.15,-0.19 0,-0.02 0,-0.08 -0.03,-0.18 -0.04,-0.09 -0.26,-0.62 -0.33,-0.79 -0.03,-0.08 -0.03,-0.09 -0.11,-0.26 -0.02,-0.07 -0.05,-0.14 -0.05,-0.22 0,-0.26 0.24,-0.44 0.54,-0.44 0.52,0 0.8,0.65 0.8,0.77 z"
         inkscape:connector-curvature="0"
         style="fill:#000000;stroke-width:0" /><path
         id="path4851"
         d="m 241.49,474.85 v 0.01 0 0 0.01 0 0 0.01 0 0 0.01 h -0.01 v 0.01 0 l -0.01,0.01 v 0 l -0.01,0.01 v 0.01 h -0.01 v 0.01 0 l -0.01,0.01 v 0 h -0.01 v 0.01 0 l -0.01,0.01 v 0 l -0.01,0.01 v 0 l -0.01,0.01 v 0 l -0.01,0.01 v 0.01 h -0.01 l -0.01,0.01 v 0.01 h -0.01 l -0.01,0.01 v 0.01 h -0.01 l -0.01,0.01 -0.01,0.01 c -1.24,1.25 -1.56,3.13 -1.56,4.65 0,1.73 0.38,3.45 1.6,4.7 0.13,0.12 0.13,0.14 0.13,0.17 0,0.07 -0.04,0.09 -0.1,0.09 -0.1,0 -0.99,-0.67 -1.58,-1.93 -0.51,-1.09 -0.63,-2.2 -0.63,-3.03 0,-0.78 0.11,-1.98 0.66,-3.1 0.6,-1.22 1.45,-1.87 1.55,-1.87 0.06,0 0.1,0.03 0.1,0.1 z"
         inkscape:connector-curvature="0"
         style="fill:#000000;stroke-width:0" /><polygon
         id="polygon4853"
         points="247.9,482.82 248.02,483.04 245.2,484.63 242.38,483.04 242.49,482.82 245.19,484.04 "
         style="fill:#000000;stroke-width:0" /><path
         id="path4855"
         d="m 245.56,477.79 0.01,-0.04 0.01,-0.03 0.01,-0.04 0.02,-0.03 0.02,-0.04 0.01,-0.03 0.02,-0.03 0.02,-0.03 0.02,-0.03 0.03,-0.03 0.02,-0.03 0.02,-0.03 0.03,-0.02 0.03,-0.03 0.02,-0.02 0.03,-0.02 0.03,-0.03 0.03,-0.01 0.03,-0.02 0.03,-0.02 0.04,-0.02 0.03,-0.01 0.04,-0.02 0.03,-0.01 0.04,-0.01 0.03,-0.01 0.04,-0.01 h 0.04 l 0.04,-0.01 h 0.04 0.04 0.04 c 0.34,0 0.57,0.22 0.73,0.54 0.17,0.36 0.3,0.97 0.3,0.99 0,0.1 -0.09,0.1 -0.12,0.1 -0.1,0 -0.11,-0.05 -0.14,-0.18 -0.14,-0.56 -0.33,-1.24 -0.74,-1.24 -0.22,0 -0.31,0.13 -0.31,0.46 0,0.22 0.12,0.69 0.2,1.03 l 0.27,1.08 c 0.03,0.15 0.13,0.52 0.17,0.67 0.05,0.23 0.15,0.61 0.15,0.67 0,0.18 -0.14,0.27 -0.29,0.27 -0.05,0 -0.3,-0.01 -0.38,-0.35 -0.19,-0.73 -0.63,-2.47 -0.75,-2.99 -0.01,-0.04 -0.41,-0.84 -1.14,-0.84 -0.52,0 -0.62,0.45 -0.62,0.82 0,0.55 0.28,1.34 0.54,2.02 0.12,0.3 0.17,0.44 0.17,0.63 0,0.45 -0.32,0.82 -0.82,0.82 -0.94,0 -1.31,-1.45 -1.31,-1.53 0,-0.1 0.1,-0.1 0.12,-0.1 0.1,0 0.11,0.02 0.15,0.17 0.25,0.87 0.63,1.24 1.01,1.24 0.09,0 0.25,-0.01 0.25,-0.33 0,-0.24 -0.11,-0.53 -0.17,-0.68 -0.37,-0.98 -0.58,-1.6 -0.58,-2.08 0,-0.95 0.69,-1.19 1.23,-1.19 0.66,0 1.02,0.44 1.19,0.66 z"
         inkscape:connector-curvature="0"
         style="fill:#000000;stroke-width:0" /><path
         id="path4857"
         d="m 250.04,480.09 -0.01,0.01 v 0.01 0.01 0.01 0.01 0.01 l -0.01,0.01 v 0.02 l -0.01,0.01 v 0.01 l -0.01,0.01 v 0.01 l -0.01,0.01 -0.01,0.01 v 0.01 l -0.01,0.01 -0.01,0.01 -0.01,0.01 -0.01,0.01 -0.01,0.01 h -0.01 l -0.01,0.01 -0.02,0.01 -0.01,0.01 h -0.01 l -0.02,0.01 h -0.01 -0.02 l -0.01,0.01 h -0.02 -0.02 -0.01 c -0.19,0 -0.4,-0.18 -0.4,-0.38 0,-0.12 0.1,-0.27 0.28,-0.27 0.21,0 0.4,0.2 0.4,0.39 z"
         inkscape:connector-curvature="0"
         style="fill:#000000;stroke-width:0" /><path
         id="path4859"
         d="m 248.61,476.55 -0.01,-0.01 v -0.02 l -0.01,-0.03 -0.01,-0.02 v -0.02 l -0.01,-0.01 v -0.02 l -0.01,-0.02 v -0.02 l -0.01,-0.02 v -0.01 -0.01 -0.01 -0.01 -0.01 -0.02 -0.01 -0.01 -0.01 c 0,-0.32 0.28,-0.59 0.66,-0.59 0.7,0 1.01,0.96 1.01,1.06 0,0.1 -0.09,0.1 -0.12,0.1 -0.09,0 -0.1,-0.05 -0.13,-0.12 -0.16,-0.56 -0.47,-0.84 -0.74,-0.84 -0.14,0 -0.17,0.09 -0.17,0.24 0,0.16 0.04,0.29 0.11,0.44 0.07,0.19 0.15,0.38 0.22,0.56 0.07,0.17 0.32,0.8 0.35,0.88 0.02,0.07 0.04,0.16 0.04,0.23 0,0.32 -0.28,0.59 -0.67,0.59 -0.69,0 -1.01,-0.95 -1.01,-1.07 0,-0.09 0.1,-0.09 0.12,-0.09 0.1,0 0.1,0.04 0.12,0.11 0.18,0.6 0.49,0.85 0.75,0.85 0.11,0 0.18,-0.05 0.18,-0.24 0,-0.16 -0.05,-0.26 -0.22,-0.7 z"
         inkscape:connector-curvature="0"
         style="fill:#000000;stroke-width:0" /><path
         id="path4861"
         d="m 253.97,479.72 v 0.07 0.08 0.08 l -0.01,0.08 v 0.17 l -0.02,0.17 -0.01,0.18 -0.02,0.19 -0.03,0.2 -0.03,0.2 -0.04,0.2 -0.05,0.21 -0.05,0.21 -0.07,0.21 -0.06,0.21 -0.08,0.21 -0.05,0.11 -0.04,0.11 -0.05,0.1 -0.05,0.11 c -0.6,1.22 -1.46,1.86 -1.55,1.86 -0.06,0 -0.11,-0.03 -0.11,-0.09 0,-0.03 0,-0.05 0.2,-0.23 0.97,-0.99 1.54,-2.56 1.54,-4.64 0,-1.7 -0.37,-3.45 -1.6,-4.7 -0.14,-0.12 -0.14,-0.14 -0.14,-0.17 0,-0.06 0.05,-0.1 0.11,-0.1 0.09,0 0.99,0.68 1.58,1.94 0.51,1.09 0.63,2.19 0.63,3.03 z"
         inkscape:connector-curvature="0"
         style="fill:#000000;stroke-width:0" /><path
         id="path4863"
         d="m 259.37,484.17 -0.01,0.01 v 0.01 l -0.01,0.01 -0.01,0.01 v 0.01 l -0.01,0.01 v 0.01 l -0.01,0.01 v 0.01 l -0.01,0.01 v 0.01 h -0.01 v 0.01 l -0.01,0.01 h -0.01 v 0.01 h -0.01 l -0.01,0.01 v 0 l -0.01,0.01 h -0.01 -0.01 l -0.01,0.01 h -0.01 -0.01 -0.01 -0.01 l -0.01,0.01 h -0.02 -0.01 -0.01 -0.02 c -0.17,0 -0.19,-0.05 -0.26,-0.18 l -0.06,-0.82 2.68,-5.36 h -5.37 l 2.69,5.36 0.06,0.82 -3.37,-6.74 c -0.05,-0.09 -0.05,-0.11 -0.05,-0.12 0,-0.08 0.06,-0.08 0.22,-0.08 h 6.92 c 0.16,0 0.22,0 0.22,0.08 0,0.01 0,0.03 -0.05,0.12 z"
         inkscape:connector-curvature="0"
         style="fill:#000000;stroke-width:0" /><polygon
         id="polygon4865"
         points="269.1,482.82 269.22,483.04 266.4,484.63 263.58,483.04 263.68,482.82 266.39,484.04 "
         style="fill:#000000;stroke-width:0" /><path
         id="path4867"
         d="m 266.75,477.79 0.02,-0.04 0.01,-0.03 0.01,-0.04 0.02,-0.03 0.01,-0.04 0.02,-0.03 0.02,-0.03 0.02,-0.03 0.02,-0.03 0.02,-0.03 0.03,-0.03 0.02,-0.03 0.03,-0.02 0.02,-0.03 0.03,-0.02 0.03,-0.02 0.03,-0.03 0.03,-0.01 0.03,-0.02 0.03,-0.02 0.03,-0.02 0.04,-0.01 0.03,-0.02 0.04,-0.01 0.03,-0.01 0.04,-0.01 0.04,-0.01 h 0.04 l 0.03,-0.01 h 0.04 0.04 0.04 c 0.35,0 0.58,0.22 0.74,0.54 0.17,0.36 0.3,0.97 0.3,0.99 0,0.1 -0.09,0.1 -0.12,0.1 -0.1,0 -0.11,-0.05 -0.14,-0.18 -0.14,-0.56 -0.33,-1.24 -0.75,-1.24 -0.21,0 -0.31,0.13 -0.31,0.46 0,0.22 0.12,0.69 0.2,1.03 l 0.28,1.08 c 0.03,0.15 0.13,0.52 0.17,0.67 0.05,0.23 0.15,0.61 0.15,0.67 0,0.18 -0.14,0.27 -0.29,0.27 -0.05,0 -0.31,-0.01 -0.39,-0.35 -0.19,-0.73 -0.63,-2.47 -0.75,-2.99 -0.01,-0.04 -0.4,-0.84 -1.13,-0.84 -0.52,0 -0.62,0.45 -0.62,0.82 0,0.55 0.28,1.34 0.54,2.02 0.12,0.3 0.17,0.44 0.17,0.63 0,0.45 -0.32,0.82 -0.82,0.82 -0.95,0 -1.32,-1.45 -1.32,-1.53 0,-0.1 0.1,-0.1 0.12,-0.1 0.1,0 0.11,0.02 0.16,0.17 0.25,0.87 0.63,1.24 1.01,1.24 0.09,0 0.25,-0.01 0.25,-0.33 0,-0.24 -0.11,-0.53 -0.17,-0.68 -0.37,-0.98 -0.58,-1.6 -0.58,-2.08 0,-0.95 0.69,-1.19 1.23,-1.19 0.66,0 1.01,0.44 1.18,0.66 z"
         inkscape:connector-curvature="0"
         style="fill:#000000;stroke-width:0" /><path
         id="path4869"
         d="m 271.23,480.09 v 0.01 0.01 0.01 0.01 0.01 l -0.01,0.01 v 0.01 0.02 l -0.01,0.01 v 0.01 l -0.01,0.01 v 0.01 l -0.01,0.01 -0.01,0.01 -0.01,0.01 v 0.01 l -0.01,0.01 -0.01,0.01 -0.01,0.01 -0.01,0.01 h -0.01 l -0.02,0.01 -0.01,0.01 -0.01,0.01 h -0.01 l -0.02,0.01 h -0.01 -0.02 l -0.02,0.01 h -0.01 -0.02 -0.02 c -0.19,0 -0.39,-0.18 -0.39,-0.38 0,-0.12 0.09,-0.27 0.28,-0.27 0.2,0 0.39,0.2 0.39,0.39 z"
         inkscape:connector-curvature="0"
         style="fill:#000000;stroke-width:0" /><path
         id="path4871"
         d="m 269.81,476.55 -0.01,-0.01 v -0.02 l -0.02,-0.03 v -0.02 l -0.01,-0.02 v -0.01 l -0.01,-0.02 v -0.02 -0.02 l -0.01,-0.02 v -0.01 -0.01 -0.01 -0.01 l -0.01,-0.01 v -0.02 -0.01 -0.01 -0.01 c 0,-0.32 0.28,-0.59 0.67,-0.59 0.7,0 1,0.96 1,1.06 0,0.1 -0.09,0.1 -0.11,0.1 -0.1,0 -0.1,-0.05 -0.13,-0.12 -0.16,-0.56 -0.47,-0.84 -0.74,-0.84 -0.14,0 -0.18,0.09 -0.18,0.24 0,0.16 0.05,0.29 0.11,0.44 0.07,0.19 0.15,0.38 0.23,0.56 0.06,0.17 0.31,0.8 0.34,0.88 0.02,0.07 0.04,0.16 0.04,0.23 0,0.32 -0.28,0.59 -0.66,0.59 -0.69,0 -1.01,-0.95 -1.01,-1.07 0,-0.09 0.09,-0.09 0.12,-0.09 0.09,0 0.1,0.04 0.12,0.11 0.18,0.6 0.49,0.85 0.75,0.85 0.11,0 0.17,-0.05 0.17,-0.24 0,-0.16 -0.04,-0.26 -0.21,-0.7 z"
         inkscape:connector-curvature="0"
         style="fill:#000000;stroke-width:0" /></g>  </g>
</svg>
