<?xml version="1.0" encoding="utf-8"?>
<!-- Generator: Adobe Illustrator 21.1.0, SVG Export Plug-In . SVG Version: 6.00 Build 0)  -->
<svg version="1.1"
	 id="svg8" inkscape:version="0.92.1 r" sodipodi:docname="fig1.svg" xmlns:cc="http://creativecommons.org/ns#" xmlns:dc="http://purl.org/dc/elements/1.1/" xmlns:inkscape="http://www.inkscape.org/namespaces/inkscape" xmlns:ns0="http://www.iki.fi/pav/software/textext/" xmlns:rdf="http://www.w3.org/1999/02/22-rdf-syntax-ns#" xmlns:sodipodi="http://sodipodi.sourceforge.net/DTD/sodipodi-0.dtd" xmlns:svg="http://www.w3.org/2000/svg"
	 xmlns="http://www.w3.org/2000/svg" xmlns:xlink="http://www.w3.org/1999/xlink" x="0px" y="0px" viewBox="0 0 470.9 246.6"
	 style="enable-background:new 0 0 470.9 246.6;" xml:space="preserve">
<style type="text/css">
	.st0{fill:none;stroke:#000000;stroke-width:0.725;stroke-dasharray:0.725,0.725;}
	.st1{fill:none;}
	.st2{stroke:#000000;}
	.st3{fill:none;stroke:#000000;stroke-width:0.9025;stroke-dasharray:0.9025,0.9025;}
	.st4{fill:none;stroke:#000000;stroke-width:0.9025;}
	.st5{clip-path:url(#SVGID_2_);}
	.st6{clip-path:url(#SVGID_4_);}
	.st7{clip-path:url(#SVGID_6_);}
	.st8{clip-path:url(#SVGID_8_);}
	.st9{clip-path:url(#SVGID_10_);}
	.st10{clip-path:url(#SVGID_12_);}
	.st11{clip-path:url(#SVGID_14_);}
	.st12{fill:none;stroke:#000000;stroke-width:0.75;stroke-dasharray:0.902,0.9025;}
</style>
<sodipodi:namedview  bordercolor="#666666" borderopacity="1.0" id="base" inkscape:current-layer="svg8" inkscape:cx="526.92145" inkscape:cy="771.80735" inkscape:document-units="mm" inkscape:pageopacity="0.0" inkscape:pageshadow="2" inkscape:window-height="743" inkscape:window-maximized="1" inkscape:window-width="1366" inkscape:window-x="1280" inkscape:window-y="128" inkscape:zoom="0.7" pagecolor="#ffffff" showgrid="false">
	</sodipodi:namedview>
<g id="layer1" inkscape:groupmode="layer" inkscape:label="Layer 1">
</g>
<ellipse id="path5765" class="st0" cx="81" cy="112.8" rx="48.7" ry="41.9"/>
<path class="st1" d=""/>
<path id="path5767" inkscape:connector-curvature="0" sodipodi:nodetypes="cc" class="st2" d="M705.9,1134.1"/>
<path class="st1" d=""/>
<path id="path5767-3" inkscape:connector-curvature="0" sodipodi:nodetypes="cc" class="st2" d="M1073.6,939"/>
<path class="st1" d=""/>
<path id="path5767-5" inkscape:connector-curvature="0" sodipodi:nodetypes="cc" class="st2" d="M1167.8,690"/>
<ellipse id="path5274-59_1_" cx="100.7" cy="89.9" rx="4.2" ry="4.2"/>
<ellipse id="path5274-59_2_" cx="86.8" cy="93.5" rx="4.2" ry="4.2"/>
<ellipse id="path5274-59_4_" cx="109.1" cy="102.7" rx="4.2" ry="4.2"/>
<ellipse id="path5274-59_3_" cx="92.2" cy="137.2" rx="4.2" ry="4.2"/>
<ellipse id="path5274-59_6_" cx="57.9" cy="95.9" rx="4.2" ry="4.2"/>
<ellipse id="path5274-59_5_" cx="63.9" cy="129.3" rx="4.2" ry="4.2"/>
<ellipse id="path5274-59_8_" cx="96.4" cy="106" rx="4.2" ry="4.2"/>
<ellipse id="path5274-59_7_" cx="86.8" cy="83.5" rx="4.2" ry="4.2"/>
<ellipse id="path5274-59_10_" cx="72.4" cy="88.7" rx="4.2" ry="4.2"/>
<ellipse id="path5274-59_9_" cx="63.9" cy="106.9" rx="4.2" ry="4.2"/>
<ellipse id="path5274-59_12_" cx="111.4" cy="116.9" rx="4.2" ry="4.2"/>
<ellipse id="path5274-59_11_" cx="107.2" cy="127" rx="4.2" ry="4.2"/>
<ellipse id="path5274-59_14_" cx="96.4" cy="114.5" rx="4.2" ry="4.2"/>
<ellipse id="path5274-59_13_" cx="91" cy="125.2" rx="4.2" ry="4.2"/>
<ellipse id="path5274-59_16_" cx="59.7" cy="141.4" rx="4.2" ry="4.2"/>
<ellipse id="path5274-59_15_" cx="49.5" cy="127" rx="4.2" ry="4.2"/>
<ellipse id="path5274-59_48_" cx="285.4" cy="131" rx="4.2" ry="4.2"/>
<ellipse id="path5274-59_47_" cx="236.6" cy="133.1" rx="4.2" ry="4.2"/>
<ellipse id="path5274-59_46_" cx="268.2" cy="138.5" rx="4.2" ry="4.2"/>
<ellipse id="path5274-59_45_" cx="278.8" cy="138.5" rx="4.2" ry="4.2"/>
<ellipse id="path5274-59_44_" cx="227" cy="184.5" rx="4.2" ry="4.2"/>
<ellipse id="path5274-59_43_" cx="222.8" cy="174.5" rx="4.2" ry="4.2"/>
<ellipse id="path5274-59_42_" cx="276.6" cy="126.9" rx="4.2" ry="4.2"/>
<ellipse id="path5274-59_41_" cx="220" cy="104.4" rx="4.2" ry="4.2"/>
<ellipse id="path5274-59_40_" cx="201.2" cy="116.9" rx="4.2" ry="4.2"/>
<ellipse id="path5274-59_39_" cx="209.6" cy="108.5" rx="4.2" ry="4.2"/>
<ellipse id="path5274-59_38_" cx="289.6" cy="140.9" rx="4.2" ry="4.2"/>
<ellipse id="path5274-59_37_" cx="289.6" cy="124.5" rx="4.2" ry="4.2"/>
<ellipse id="path5274-59_36_" cx="214.4" cy="184.5" rx="4.2" ry="4.2"/>
<ellipse id="path5274-59_35_" cx="212.2" cy="118.7" rx="4.2" ry="4.2"/>
<ellipse id="path5274-59_34_" cx="220.6" cy="188.7" rx="4.2" ry="4.2"/>
<ellipse id="path5274-59_33_" cx="214.4" cy="176.2" rx="4.2" ry="4.2"/>
<ellipse id="path5274-59_54_" cx="79" cy="121" rx="4.2" ry="4.2"/>
<ellipse id="path5274-59_53_" cx="85.6" cy="107.9" rx="4.2" ry="4.2"/>
<ellipse id="path5274-59_52_" cx="74.8" cy="101.9" rx="4.2" ry="4.2"/>
<ellipse id="path5274-59_51_" cx="63.9" cy="116.9" rx="4.2" ry="4.2"/>
<ellipse id="path5274-59_50_" cx="49.5" cy="110.2" rx="4.2" ry="4.2"/>
<ellipse id="path5274-59_49_" cx="76.6" cy="137.2" rx="4.2" ry="4.2"/>
<ellipse id="path5765_2_" class="st0" cx="242.6" cy="144.5" rx="73.4" ry="63.1"/>
<circle id="path5763_1_" class="st3" cx="220.7" cy="125.9" r="29.9"/>
<circle id="path5763_2_" class="st3" cx="220.8" cy="180.8" r="13"/>
<ellipse id="path5763_3_" class="st3" cx="281.5" cy="143.5" rx="21.7" ry="28.4"/>
<g>
	<g>
		<line class="st4" x1="16" y1="24" x2="16" y2="239.7"/>
		<g>
			<polygon points="12.7,26.6 16,25.1 19.4,26.6 16,18.6 			"/>
		</g>
	</g>
</g>
<g>
	<g>
		<line class="st4" x1="4.8" y1="228.6" x2="445.2" y2="228.6"/>
		<g>
			<polygon points="442.6,232 444.1,228.6 442.6,225.3 450.6,228.6 			"/>
		</g>
	</g>
</g>
<g>
	<defs>
		<rect id="SVGID_1_" x="76.6" y="41.9" width="119.5" height="14.5"/>
	</defs>
	<clipPath id="SVGID_2_">
		<use xlink:href="#SVGID_1_"  style="overflow:visible;"/>
	</clipPath>
	<path class="st5" d="M78,49.7c0-2.7,1.3-3.3,2.2-3.3c0.1,0,1.2,0,1.7,0.6c-0.7,0-0.8,0.5-0.8,0.7c0,0.4,0.3,0.7,0.8,0.7
		c0.4,0,0.7-0.3,0.7-0.8c0-1.1-1.2-1.7-2.5-1.7c-2,0-3.5,1.8-3.5,3.8c0,2.1,1.6,3.7,3.5,3.7c2.2,0,2.7-2,2.7-2.1
		c0-0.2-0.2-0.2-0.2-0.2c-0.1,0-0.2,0.1-0.2,0.2C82,52.8,80.9,53,80.3,53C79.4,53,78,52.3,78,49.7"/>
	<path class="st5" d="M87.4,53c-0.7,0-1.4-0.3-1.9-1.1c-0.4-0.7-0.4-1.7-0.4-2.3c0-0.6,0-1.5,0.4-2.2c0.4-0.7,1.2-1.1,1.9-1.1
		c0.7,0,1.4,0.4,1.8,1.1c0.4,0.7,0.4,1.7,0.4,2.3c0,0.6,0,1.5-0.4,2.2C88.9,52.5,88.2,53,87.4,53 M91,49.7c0-2.1-1.6-3.8-3.6-3.8
		c-2,0-3.6,1.8-3.6,3.8c0,2.1,1.7,3.7,3.6,3.7C89.3,53.4,91,51.8,91,49.7z"/>
	<path class="st5" d="M93.3,47.6V52c0,0.7-0.2,0.7-1.3,0.7v0.5c0.6,0,1.4,0,1.8,0c0.4,0,1.3,0,1.8,0v-0.5c-1.1,0-1.3,0-1.3-0.7v-3
		c0-1.7,1.2-2.6,2.2-2.6c1,0,1.2,0.9,1.2,1.8V52c0,0.7-0.2,0.7-1.3,0.7v0.5c0.6,0,1.4,0,1.8,0c0.4,0,1.3,0,1.8,0v-0.5
		c-1.1,0-1.3,0-1.3-0.7v-3c0-1.7,1.2-2.6,2.2-2.6c1,0,1.2,0.9,1.2,1.8V52c0,0.7-0.2,0.7-1.3,0.7v0.5c0.6,0,1.4,0,1.8,0
		c0.4,0,1.3,0,1.8,0v-0.5c-0.8,0-1.3,0-1.3-0.5v-3.1c0-1.4,0-1.9-0.5-2.5c-0.2-0.3-0.8-0.6-1.7-0.6c-1.4,0-2.1,1-2.4,1.6
		c-0.2-1.4-1.4-1.6-2.2-1.6c-1.2,0-2,0.7-2.4,1.7V46L92,46.2v0.5C93.1,46.7,93.3,46.8,93.3,47.6"/>
	<path class="st5" d="M107.9,51.4v-3.6c0.5-0.8,1.3-1.3,2.1-1.3c1.2,0,2.2,1.4,2.2,3.3c0,2-1.1,3.4-2.3,3.4c-0.7,0-1.3-0.3-1.7-1
		C107.9,51.7,107.9,51.7,107.9,51.4 M107.9,47.1V46l-2.3,0.2v0.5c1.1,0,1.3,0.1,1.3,0.8v7.6c0,0.7-0.2,0.7-1.3,0.7v0.5
		c0.5,0,1.4,0,1.8,0c0.4,0,1.3,0,1.8,0v-0.5c-1.1,0-1.3,0-1.3-0.7v-2.9c0.1,0.3,0.8,1.1,2,1.1c1.9,0,3.6-1.6,3.6-3.7
		c0-2.1-1.6-3.7-3.4-3.7C108.9,46,108.2,46.7,107.9,47.1z"/>
	<path class="st5" d="M118.6,53c-0.7,0-1.4-0.3-1.9-1.1c-0.4-0.7-0.4-1.7-0.4-2.3c0-0.6,0-1.5,0.4-2.2c0.4-0.7,1.2-1.1,1.9-1.1
		c0.7,0,1.4,0.4,1.9,1.1c0.4,0.7,0.4,1.7,0.4,2.3c0,0.6,0,1.5-0.4,2.2C120.2,52.5,119.5,53,118.6,53 M122.2,49.7
		c0-2.1-1.6-3.8-3.6-3.8c-2,0-3.6,1.8-3.6,3.8c0,2.1,1.7,3.7,3.6,3.7C120.6,53.4,122.2,51.8,122.2,49.7z"/>
	<path class="st5" d="M124.5,47.6V52c0,0.7-0.2,0.7-1.3,0.7v0.5c0.6,0,1.4,0,1.8,0c0.4,0,1.3,0,1.8,0v-0.5c-1.1,0-1.3,0-1.3-0.7v-3
		c0-1.7,1.2-2.6,2.2-2.6c1,0,1.2,0.9,1.2,1.8V52c0,0.7-0.2,0.7-1.3,0.7v0.5c0.6,0,1.4,0,1.8,0c0.4,0,1.3,0,1.8,0v-0.5
		c-0.8,0-1.2,0-1.3-0.5v-3.1c0-1.4,0-1.9-0.5-2.5c-0.2-0.3-0.8-0.6-1.7-0.6c-1.2,0-2,0.7-2.4,1.7V46l-2.3,0.2v0.5
		C124.4,46.7,124.5,46.8,124.5,47.6"/>
	<path class="st5" d="M133.6,49.4h4.5c0.4,0,0.4,0,0.4-0.4c0-1.6-0.9-3.2-2.9-3.2c-1.9,0-3.4,1.7-3.4,3.7c0,2.2,1.7,3.8,3.6,3.8
		c2,0,2.7-1.8,2.7-2.1c0-0.2-0.1-0.2-0.2-0.2c-0.1,0-0.2,0.1-0.2,0.2c-0.6,1.7-2,1.7-2.2,1.7c-0.8,0-1.5-0.5-1.9-1.1
		C133.6,51.1,133.6,50,133.6,49.4 M133.6,49.1c0.1-2.4,1.5-2.8,2-2.8c1.7,0,1.9,2.2,1.9,2.8H133.6z"/>
	<path class="st5" d="M140.8,47.6V52c0,0.7-0.2,0.7-1.3,0.7v0.5c0.6,0,1.4,0,1.9,0c0.4,0,1.3,0,1.8,0v-0.5c-1.1,0-1.3,0-1.3-0.7v-3
		c0-1.7,1.2-2.6,2.2-2.6c1,0,1.2,0.9,1.2,1.8V52c0,0.7-0.2,0.7-1.3,0.7v0.5c0.6,0,1.4,0,1.9,0c0.4,0,1.3,0,1.8,0v-0.5
		c-0.8,0-1.3,0-1.3-0.5v-3.1c0-1.4,0-1.9-0.5-2.5c-0.2-0.3-0.8-0.6-1.7-0.6c-1.2,0-2,0.7-2.4,1.7V46l-2.3,0.2v0.5
		C140.7,46.7,140.8,46.8,140.8,47.6"/>
	<path class="st5" d="M150.4,46.7h2.3v-0.5h-2.3v-3H150c0,1.3-0.5,3.1-2.1,3.1v0.4h1.4v4.5c0,2,1.5,2.2,2.1,2.2
		c1.2,0,1.6-1.2,1.6-2.2v-0.9h-0.4v0.9c0,1.2-0.5,1.8-1.1,1.8c-1.1,0-1.1-1.5-1.1-1.8V46.7"/>
	<path class="st5" d="M162.2,53c-1,0-1.1-1.3-1.1-1.5c0-0.8,0.5-2.6,0.8-3.3c0.5-1.2,1.4-1.9,2-1.9c1.1,0,1.3,1.3,1.3,1.4
		c0,0.1-0.9,3.7-0.9,3.7C164,52,163.1,53,162.2,53 M166.7,46.2c0-0.1,0-0.2-0.2-0.2c-0.2,0-0.8,0.7-1.1,1.1c-0.4-0.9-1-1.1-1.5-1.1
		c-1.9,0-3.9,2.4-3.9,4.8c0,1.6,1,2.6,2.2,2.6c0.7,0,1.3-0.4,1.9-1c-0.1,0.6-0.7,2.8-0.7,2.9c-0.1,0.4-0.3,0.5-1.2,0.5
		c-0.2,0-0.4,0-0.4,0.3c0,0,0,0.2,0.2,0.2c0.5,0,1.1,0,1.6,0c0.6,0,1.1,0,1.7,0c0.1,0,0.3,0,0.3-0.3c0-0.2-0.2-0.2-0.4-0.2
		c-0.8,0-0.8-0.1-0.8-0.3c0-0.1,0-0.2,0.1-0.4L166.7,46.2z"/>
	<path class="st5" d="M183,51c0.2,0,0.5,0,0.5-0.3s-0.3-0.3-0.6-0.3h-9.7c-0.2,0-0.6,0-0.6,0.3s0.3,0.3,0.5,0.3H183 M183,47.9
		c0.3,0,0.6,0,0.6-0.3c0-0.3-0.3-0.3-0.5-0.3h-9.8c-0.2,0-0.5,0-0.5,0.3c0,0.3,0.3,0.3,0.6,0.3H183z"/>
	<path class="st5" d="M193.7,42.8c0-0.4,0-0.4-0.4-0.4c-1,1-2.4,1-3,1v0.5c0.3,0,1.3,0,2.1-0.4v8.5c0,0.6,0,0.8-1.5,0.8h-0.5v0.5
		c0.6,0,2,0,2.6,0c0.7,0,2.1,0,2.6,0v-0.5h-0.5c-1.5,0-1.5-0.2-1.5-0.8V42.8"/>
</g>
<g>
	<defs>
		<rect id="SVGID_3_" x="264" y="56.4" width="119.9" height="14.5"/>
	</defs>
	<clipPath id="SVGID_4_">
		<use xlink:href="#SVGID_3_"  style="overflow:visible;"/>
	</clipPath>
	<path class="st6" d="M265.4,64.2c0-2.7,1.3-3.3,2.2-3.3c0.1,0,1.2,0,1.7,0.6c-0.7,0-0.8,0.5-0.8,0.7c0,0.4,0.3,0.7,0.8,0.7
		c0.4,0,0.7-0.3,0.7-0.8c0-1.1-1.2-1.7-2.5-1.7c-2,0-3.5,1.8-3.5,3.8c0,2.1,1.6,3.7,3.5,3.7c2.2,0,2.7-2,2.7-2.1
		c0-0.2-0.2-0.2-0.2-0.2c-0.1,0-0.2,0.1-0.2,0.2c-0.5,1.5-1.5,1.7-2.1,1.7C266.8,67.5,265.4,66.8,265.4,64.2"/>
	<path class="st6" d="M274.8,67.5c-0.7,0-1.4-0.3-1.9-1.1c-0.4-0.7-0.4-1.7-0.4-2.3c0-0.6,0-1.5,0.4-2.2c0.4-0.7,1.2-1.1,1.9-1.1
		c0.7,0,1.4,0.4,1.8,1.1c0.4,0.7,0.4,1.7,0.4,2.3c0,0.6,0,1.5-0.4,2.2C276.3,67,275.6,67.5,274.8,67.5 M278.4,64.3
		c0-2.1-1.6-3.8-3.6-3.8c-2,0-3.6,1.8-3.6,3.8c0,2.1,1.7,3.7,3.6,3.7C276.7,67.9,278.4,66.3,278.4,64.3z"/>
	<path class="st6" d="M280.7,62.1v4.4c0,0.7-0.2,0.7-1.3,0.7v0.5c0.6,0,1.4,0,1.8,0c0.4,0,1.3,0,1.8,0v-0.5c-1.1,0-1.3,0-1.3-0.7v-3
		c0-1.7,1.2-2.6,2.2-2.6c1,0,1.2,0.9,1.2,1.8v3.8c0,0.7-0.2,0.7-1.3,0.7v0.5c0.6,0,1.4,0,1.8,0c0.4,0,1.3,0,1.8,0v-0.5
		c-1.1,0-1.3,0-1.3-0.7v-3c0-1.7,1.2-2.6,2.2-2.6c1,0,1.2,0.9,1.2,1.8v3.8c0,0.7-0.2,0.7-1.3,0.7v0.5c0.6,0,1.4,0,1.8,0
		c0.4,0,1.3,0,1.8,0v-0.5c-0.8,0-1.3,0-1.3-0.5v-3.1c0-1.4,0-1.9-0.5-2.5c-0.2-0.3-0.8-0.6-1.7-0.6c-1.4,0-2.1,1-2.4,1.6
		c-0.2-1.4-1.4-1.6-2.2-1.6c-1.2,0-2,0.7-2.4,1.7v-1.7l-2.3,0.2v0.5C280.5,61.2,280.7,61.3,280.7,62.1"/>
	<path class="st6" d="M295.3,65.9v-3.6c0.5-0.8,1.3-1.3,2.1-1.3c1.2,0,2.2,1.4,2.2,3.3c0,2-1.1,3.4-2.3,3.4c-0.7,0-1.3-0.3-1.7-1
		C295.3,66.2,295.3,66.2,295.3,65.9 M295.3,61.6v-1.1l-2.3,0.2v0.5c1.1,0,1.3,0.1,1.3,0.8v7.6c0,0.7-0.2,0.7-1.3,0.7v0.5
		c0.5,0,1.4,0,1.8,0c0.4,0,1.3,0,1.8,0v-0.5c-1.1,0-1.3,0-1.3-0.7v-2.9c0.1,0.3,0.8,1.1,2,1.1c1.9,0,3.6-1.6,3.6-3.7
		c0-2.1-1.6-3.7-3.4-3.7C296.3,60.5,295.6,61.3,295.3,61.6z"/>
	<path class="st6" d="M306,67.5c-0.7,0-1.4-0.3-1.9-1.1c-0.4-0.7-0.4-1.7-0.4-2.3c0-0.6,0-1.5,0.4-2.2c0.4-0.7,1.2-1.1,1.9-1.1
		c0.7,0,1.4,0.4,1.9,1.1c0.4,0.7,0.4,1.7,0.4,2.3c0,0.6,0,1.5-0.4,2.2C307.6,67,306.8,67.5,306,67.5 M309.6,64.3
		c0-2.1-1.6-3.8-3.6-3.8c-2,0-3.6,1.8-3.6,3.8c0,2.1,1.7,3.7,3.6,3.7C308,67.9,309.6,66.3,309.6,64.3z"/>
	<path class="st6" d="M311.9,62.1v4.4c0,0.7-0.2,0.7-1.3,0.7v0.5c0.6,0,1.4,0,1.8,0c0.4,0,1.3,0,1.8,0v-0.5c-1.1,0-1.3,0-1.3-0.7v-3
		c0-1.7,1.2-2.6,2.2-2.6c1,0,1.2,0.9,1.2,1.8v3.8c0,0.7-0.2,0.7-1.3,0.7v0.5c0.6,0,1.4,0,1.8,0c0.4,0,1.3,0,1.8,0v-0.5
		c-0.8,0-1.2,0-1.3-0.5v-3.1c0-1.4,0-1.9-0.5-2.5c-0.2-0.3-0.8-0.6-1.7-0.6c-1.2,0-2,0.7-2.4,1.7v-1.7l-2.3,0.2v0.5
		C311.7,61.2,311.9,61.3,311.9,62.1"/>
	<path class="st6" d="M321,64h4.5c0.4,0,0.4,0,0.4-0.4c0-1.6-0.9-3.2-2.9-3.2c-1.9,0-3.4,1.7-3.4,3.7c0,2.2,1.7,3.8,3.6,3.8
		c2,0,2.7-1.8,2.7-2.1c0-0.2-0.1-0.2-0.2-0.2c-0.1,0-0.2,0.1-0.2,0.2c-0.6,1.7-2,1.7-2.2,1.7c-0.8,0-1.5-0.5-1.9-1.1
		C321,65.6,321,64.6,321,64 M321,63.6c0.1-2.4,1.5-2.8,2-2.8c1.7,0,1.9,2.2,1.9,2.8H321z"/>
	<path class="st6" d="M328.2,62.1v4.4c0,0.7-0.2,0.7-1.3,0.7v0.5c0.6,0,1.4,0,1.9,0c0.4,0,1.3,0,1.8,0v-0.5c-1.1,0-1.3,0-1.3-0.7v-3
		c0-1.7,1.2-2.6,2.2-2.6c1,0,1.2,0.9,1.2,1.8v3.8c0,0.7-0.2,0.7-1.3,0.7v0.5c0.6,0,1.4,0,1.9,0c0.4,0,1.3,0,1.8,0v-0.5
		c-0.8,0-1.3,0-1.3-0.5v-3.1c0-1.4,0-1.9-0.5-2.5c-0.2-0.3-0.8-0.6-1.7-0.6c-1.2,0-2,0.7-2.4,1.7v-1.7l-2.3,0.2v0.5
		C328.1,61.2,328.2,61.3,328.2,62.1"/>
	<path class="st6" d="M337.8,61.2h2.3v-0.5h-2.3v-3h-0.4c0,1.3-0.5,3.1-2.1,3.1v0.4h1.4v4.5c0,2,1.5,2.2,2.1,2.2
		c1.2,0,1.6-1.2,1.6-2.2v-0.9H340v0.9c0,1.2-0.5,1.8-1.1,1.8c-1.1,0-1.1-1.5-1.1-1.8V61.2"/>
	<path class="st6" d="M349.6,67.6c-1,0-1.1-1.3-1.1-1.5c0-0.8,0.5-2.6,0.8-3.3c0.5-1.2,1.4-1.9,2-1.9c1.1,0,1.3,1.3,1.3,1.4
		c0,0.1-0.9,3.7-0.9,3.7C351.4,66.5,350.5,67.6,349.6,67.6 M354.1,60.7c0-0.1,0-0.2-0.2-0.2c-0.2,0-0.8,0.7-1.1,1.1
		c-0.4-0.9-1-1.1-1.5-1.1c-1.9,0-3.9,2.4-3.9,4.8c0,1.6,1,2.6,2.2,2.6c0.7,0,1.3-0.4,1.9-1c-0.1,0.6-0.7,2.8-0.7,2.9
		c-0.1,0.4-0.3,0.5-1.2,0.5c-0.2,0-0.4,0-0.4,0.3c0,0,0,0.2,0.2,0.2c0.5,0,1.1,0,1.6,0c0.6,0,1.1,0,1.7,0c0.1,0,0.3,0,0.3-0.3
		c0-0.2-0.2-0.2-0.4-0.2c-0.8,0-0.8-0.1-0.8-0.3c0-0.1,0-0.2,0.1-0.4L354.1,60.7z"/>
	<path class="st6" d="M370.4,65.6c0.2,0,0.5,0,0.5-0.3s-0.3-0.3-0.6-0.3h-9.7c-0.2,0-0.6,0-0.6,0.3s0.3,0.3,0.5,0.3H370.4
		 M370.3,62.4c0.3,0,0.6,0,0.6-0.3c0-0.3-0.3-0.3-0.5-0.3h-9.8c-0.2,0-0.5,0-0.5,0.3c0,0.3,0.3,0.3,0.6,0.3H370.3z"/>
	<path class="st6" d="M378.4,66.5l1.7-1.7c2.5-2.3,3.5-3.1,3.5-4.8c0-1.9-1.5-3.2-3.5-3.2c-1.8,0-3,1.5-3,3c0,0.9,0.8,0.9,0.9,0.9
		c0.3,0,0.8-0.2,0.8-0.9c0-0.4-0.3-0.8-0.9-0.8c-0.1,0-0.2,0-0.2,0c0.4-1.1,1.3-1.7,2.2-1.7c1.5,0,2.2,1.3,2.2,2.7
		c0,1.3-0.8,2.6-1.7,3.6l-3.1,3.5c-0.2,0.2-0.2,0.2-0.2,0.6h6l0.5-2.8h-0.4c-0.1,0.5-0.2,1.2-0.4,1.5c-0.1,0.1-1.2,0.1-1.6,0.1
		H378.4"/>
</g>
<g>
	<defs>
		<rect id="SVGID_5_" x="43.3" y="165" width="124" height="15.9"/>
	</defs>
	<clipPath id="SVGID_6_">
		<use xlink:href="#SVGID_5_"  style="overflow:visible;"/>
	</clipPath>
	<path class="st7" d="M44.7,174c0-2.7,1.3-3.3,2.2-3.3c0.1,0,1.2,0,1.7,0.6c-0.7,0-0.8,0.5-0.8,0.7c0,0.4,0.3,0.7,0.8,0.7
		c0.4,0,0.7-0.3,0.7-0.8c0-1.1-1.2-1.7-2.5-1.7c-2,0-3.5,1.8-3.5,3.8c0,2.1,1.6,3.7,3.5,3.7c2.2,0,2.7-2,2.7-2.1
		c0-0.2-0.2-0.2-0.2-0.2c-0.1,0-0.2,0.1-0.2,0.2c-0.5,1.5-1.5,1.7-2.1,1.7C46.1,177.3,44.7,176.6,44.7,174"/>
	<path class="st7" d="M54.1,177.3c-0.7,0-1.4-0.3-1.9-1.1c-0.4-0.7-0.4-1.7-0.4-2.3c0-0.6,0-1.5,0.4-2.2c0.4-0.7,1.2-1.1,1.9-1.1
		c0.7,0,1.4,0.4,1.8,1.1c0.4,0.7,0.4,1.7,0.4,2.3c0,0.6,0,1.5-0.4,2.2C55.6,176.8,54.9,177.3,54.1,177.3 M57.7,174
		c0-2.1-1.6-3.8-3.6-3.8c-2,0-3.6,1.8-3.6,3.8c0,2.1,1.7,3.7,3.6,3.7C56.1,177.7,57.7,176.1,57.7,174z"/>
	<path class="st7" d="M60,171.9v4.4c0,0.7-0.2,0.7-1.3,0.7v0.5c0.6,0,1.4,0,1.8,0c0.4,0,1.3,0,1.8,0V177c-1.1,0-1.3,0-1.3-0.7v-3
		c0-1.7,1.2-2.6,2.2-2.6c1,0,1.2,0.9,1.2,1.8v3.8c0,0.7-0.2,0.7-1.3,0.7v0.5c0.6,0,1.4,0,1.8,0c0.4,0,1.3,0,1.8,0V177
		c-1.1,0-1.3,0-1.3-0.7v-3c0-1.7,1.2-2.6,2.2-2.6c1,0,1.2,0.9,1.2,1.8v3.8c0,0.7-0.2,0.7-1.3,0.7v0.5c0.6,0,1.4,0,1.8,0
		c0.4,0,1.3,0,1.8,0V177c-0.8,0-1.3,0-1.3-0.5v-3.1c0-1.4,0-1.9-0.5-2.5c-0.2-0.3-0.8-0.6-1.7-0.6c-1.4,0-2.1,1-2.4,1.6
		c-0.2-1.4-1.4-1.6-2.2-1.6c-1.2,0-2,0.7-2.4,1.7v-1.7l-2.3,0.2v0.5C59.9,171,60,171.1,60,171.9"/>
	<path class="st7" d="M74.6,175.7V172c0.5-0.8,1.3-1.3,2.1-1.3c1.2,0,2.2,1.4,2.2,3.3c0,2-1.1,3.3-2.3,3.3c-0.7,0-1.3-0.3-1.7-1
		C74.6,176,74.6,176,74.6,175.7 M74.6,171.4v-1.1l-2.3,0.2v0.5c1.1,0,1.3,0.1,1.3,0.8v7.6c0,0.7-0.2,0.7-1.3,0.7v0.5
		c0.5,0,1.4,0,1.8,0c0.4,0,1.3,0,1.8,0v-0.5c-1.1,0-1.3,0-1.3-0.7v-2.9c0.1,0.3,0.8,1.1,2,1.1c1.9,0,3.6-1.6,3.6-3.7
		c0-2.1-1.6-3.7-3.4-3.7C75.6,170.3,74.9,171,74.6,171.4z"/>
	<path class="st7" d="M85.4,177.3c-0.7,0-1.4-0.3-1.9-1.1c-0.4-0.7-0.4-1.7-0.4-2.3c0-0.6,0-1.5,0.4-2.2c0.4-0.7,1.2-1.1,1.9-1.1
		c0.7,0,1.4,0.4,1.9,1.1c0.4,0.7,0.4,1.7,0.4,2.3c0,0.6,0,1.5-0.4,2.2C86.9,176.8,86.2,177.3,85.4,177.3 M89,174
		c0-2.1-1.6-3.8-3.6-3.8c-2,0-3.6,1.8-3.6,3.8c0,2.1,1.7,3.7,3.6,3.7C87.3,177.7,89,176.1,89,174z"/>
	<path class="st7" d="M91.2,171.9v4.4c0,0.7-0.2,0.7-1.3,0.7v0.5c0.6,0,1.4,0,1.8,0c0.4,0,1.3,0,1.8,0V177c-1.1,0-1.3,0-1.3-0.7v-3
		c0-1.7,1.2-2.6,2.2-2.6c1,0,1.2,0.9,1.2,1.8v3.8c0,0.7-0.2,0.7-1.3,0.7v0.5c0.6,0,1.4,0,1.8,0c0.4,0,1.3,0,1.8,0V177
		c-0.8,0-1.2,0-1.3-0.5v-3.1c0-1.4,0-1.9-0.5-2.5c-0.2-0.3-0.8-0.6-1.7-0.6c-1.2,0-2,0.7-2.4,1.7v-1.7l-2.3,0.2v0.5
		C91.1,171,91.2,171.1,91.2,171.9"/>
	<path class="st7" d="M100.3,173.8h4.5c0.4,0,0.4,0,0.4-0.4c0-1.6-0.9-3.2-2.9-3.2c-1.9,0-3.4,1.7-3.4,3.7c0,2.2,1.7,3.8,3.6,3.8
		c2,0,2.7-1.8,2.7-2.1c0-0.2-0.1-0.2-0.2-0.2c-0.1,0-0.2,0.1-0.2,0.2c-0.6,1.7-2,1.7-2.2,1.7c-0.8,0-1.5-0.5-1.9-1.1
		C100.3,175.4,100.3,174.3,100.3,173.8 M100.3,173.4c0.1-2.4,1.5-2.8,2-2.8c1.7,0,1.9,2.2,1.9,2.8H100.3z"/>
	<path class="st7" d="M107.5,171.9v4.4c0,0.7-0.2,0.7-1.3,0.7v0.5c0.6,0,1.4,0,1.9,0c0.4,0,1.3,0,1.8,0V177c-1.1,0-1.3,0-1.3-0.7v-3
		c0-1.7,1.2-2.6,2.2-2.6c1,0,1.2,0.9,1.2,1.8v3.8c0,0.7-0.2,0.7-1.3,0.7v0.5c0.6,0,1.4,0,1.9,0c0.4,0,1.3,0,1.8,0V177
		c-0.8,0-1.3,0-1.3-0.5v-3.1c0-1.4,0-1.9-0.5-2.5c-0.2-0.3-0.8-0.6-1.7-0.6c-1.2,0-2,0.7-2.4,1.7v-1.7l-2.3,0.2v0.5
		C107.4,171,107.5,171.1,107.5,171.9"/>
	<path class="st7" d="M117.1,171h2.3v-0.5h-2.3v-3h-0.4c0,1.3-0.5,3.1-2.1,3.1v0.4h1.4v4.5c0,2,1.5,2.2,2.1,2.2
		c1.2,0,1.6-1.2,1.6-2.2v-0.9h-0.4v0.9c0,1.2-0.5,1.8-1.1,1.8c-1.1,0-1.1-1.5-1.1-1.8V171"/>
	<path class="st7" d="M128.9,177.3c-1,0-1.1-1.2-1.1-1.5c0-0.8,0.5-2.6,0.8-3.3c0.5-1.2,1.4-1.9,2-1.9c1.1,0,1.3,1.3,1.3,1.4
		c0,0.1-0.9,3.7-0.9,3.7C130.8,176.3,129.8,177.3,128.9,177.3 M133.4,170.5c0-0.1,0-0.2-0.2-0.2c-0.2,0-0.8,0.6-1.1,1.1
		c-0.4-0.9-1-1.1-1.5-1.1c-1.9,0-3.9,2.4-3.9,4.8c0,1.6,1,2.6,2.2,2.6c0.7,0,1.3-0.4,1.9-1c-0.1,0.6-0.7,2.8-0.7,2.9
		c-0.1,0.4-0.3,0.5-1.2,0.5c-0.2,0-0.4,0-0.4,0.3c0,0,0,0.2,0.2,0.2c0.5,0,1.1,0,1.6,0c0.6,0,1.1,0,1.7,0c0.1,0,0.3,0,0.3-0.3
		c0-0.2-0.2-0.2-0.4-0.2c-0.8,0-0.8-0.1-0.8-0.3c0-0.1,0-0.2,0.1-0.4L133.4,170.5z"/>
	<path class="st7" d="M137.2,166.3c0.1-0.2,0.1-0.3,0.1-0.4c0-0.4-0.3-0.6-0.7-0.6c-0.4,0-0.6,0.4-0.6,0.5l-1.5,4.9
		c0,0-0.1,0.2-0.1,0.2c0,0.1,0.4,0.3,0.4,0.3c0.1,0,0.1,0,0.2-0.2L137.2,166.3"/>
	<path class="st7" d="M154.2,175.4c0.2,0,0.5,0,0.5-0.3c0-0.3-0.3-0.3-0.6-0.3h-9.7c-0.2,0-0.6,0-0.6,0.3c0,0.3,0.3,0.3,0.5,0.3
		H154.2 M154.2,172.2c0.2,0,0.6,0,0.6-0.3c0-0.3-0.3-0.3-0.5-0.3h-9.8c-0.2,0-0.5,0-0.5,0.3c0,0.3,0.3,0.3,0.6,0.3H154.2z"/>
	<path class="st7" d="M165,167.1c0-0.4,0-0.4-0.4-0.4c-1,1-2.4,1-3,1v0.5c0.3,0,1.3,0,2.1-0.4v8.5c0,0.6,0,0.8-1.5,0.8h-0.5v0.5
		c0.6,0,2,0,2.6,0c0.7,0,2.1,0,2.6,0V177h-0.5c-1.5,0-1.5-0.2-1.5-0.8V167.1"/>
</g>
<g>
	<defs>
		<rect id="SVGID_7_" x="79" y="202.9" width="124.5" height="15.9"/>
	</defs>
	<clipPath id="SVGID_8_">
		<use xlink:href="#SVGID_7_"  style="overflow:visible;"/>
	</clipPath>
	<path class="st8" d="M80.4,211.8c0-2.7,1.3-3.3,2.2-3.3c0.1,0,1.2,0,1.7,0.6c-0.7,0-0.8,0.5-0.8,0.7c0,0.4,0.3,0.8,0.8,0.8
		c0.4,0,0.7-0.3,0.7-0.8c0-1.1-1.2-1.7-2.5-1.7c-2,0-3.5,1.8-3.5,3.8c0,2.1,1.6,3.7,3.5,3.7c2.2,0,2.7-2,2.7-2.1
		c0-0.2-0.2-0.2-0.2-0.2c-0.1,0-0.2,0.1-0.2,0.2c-0.5,1.5-1.5,1.7-2.1,1.7C81.8,215.1,80.4,214.4,80.4,211.8"/>
	<path class="st8" d="M89.8,215.1c-0.7,0-1.4-0.3-1.9-1.1c-0.4-0.7-0.4-1.7-0.4-2.3c0-0.6,0-1.5,0.4-2.2c0.4-0.8,1.2-1.1,1.9-1.1
		c0.7,0,1.4,0.4,1.8,1.1c0.4,0.7,0.4,1.7,0.4,2.3c0,0.6,0,1.5-0.4,2.2C91.3,214.6,90.6,215.1,89.8,215.1 M93.4,211.9
		c0-2.1-1.6-3.8-3.6-3.8c-2,0-3.6,1.8-3.6,3.8c0,2.1,1.7,3.7,3.6,3.7C91.8,215.5,93.4,213.9,93.4,211.9z"/>
	<path class="st8" d="M95.7,209.7v4.4c0,0.7-0.2,0.7-1.3,0.7v0.5c0.6,0,1.4,0,1.8,0c0.4,0,1.3,0,1.8,0v-0.5c-1.1,0-1.3,0-1.3-0.7v-3
		c0-1.7,1.2-2.6,2.2-2.6c1,0,1.2,0.9,1.2,1.8v3.8c0,0.7-0.2,0.7-1.3,0.7v0.5c0.6,0,1.4,0,1.8,0c0.4,0,1.3,0,1.8,0v-0.5
		c-1.1,0-1.3,0-1.3-0.7v-3c0-1.7,1.2-2.6,2.2-2.6c1,0,1.2,0.9,1.2,1.8v3.8c0,0.7-0.2,0.7-1.3,0.7v0.5c0.6,0,1.4,0,1.8,0
		c0.4,0,1.3,0,1.8,0v-0.5c-0.8,0-1.3,0-1.3-0.5v-3.1c0-1.4,0-1.9-0.5-2.5c-0.2-0.3-0.8-0.6-1.7-0.6c-1.4,0-2.1,1-2.4,1.6
		c-0.2-1.4-1.4-1.6-2.2-1.6c-1.2,0-2,0.7-2.4,1.7v-1.7l-2.3,0.2v0.5C95.6,208.8,95.7,208.9,95.7,209.7"/>
	<path class="st8" d="M110.3,213.5v-3.6c0.5-0.8,1.3-1.3,2.1-1.3c1.2,0,2.2,1.4,2.2,3.3c0,2-1.1,3.3-2.3,3.3c-0.7,0-1.3-0.3-1.7-1
		C110.3,213.8,110.3,213.8,110.3,213.5 M110.3,209.2v-1.1l-2.3,0.2v0.5c1.1,0,1.3,0.1,1.3,0.8v7.6c0,0.7-0.2,0.7-1.3,0.7v0.5
		c0.5,0,1.4,0,1.8,0c0.4,0,1.3,0,1.8,0V218c-1.1,0-1.3,0-1.3-0.7v-2.9c0.1,0.3,0.8,1.1,2,1.1c1.9,0,3.6-1.6,3.6-3.7
		c0-2.1-1.6-3.7-3.4-3.7C111.3,208.1,110.6,208.9,110.3,209.2z"/>
	<path class="st8" d="M121.1,215.1c-0.7,0-1.4-0.3-1.9-1.1c-0.4-0.7-0.4-1.7-0.4-2.3c0-0.6,0-1.5,0.4-2.2c0.4-0.8,1.2-1.1,1.9-1.1
		c0.7,0,1.4,0.4,1.9,1.1c0.4,0.7,0.4,1.7,0.4,2.3c0,0.6,0,1.5-0.4,2.2C122.6,214.6,121.9,215.1,121.1,215.1 M124.7,211.9
		c0-2.1-1.6-3.8-3.6-3.8c-2,0-3.6,1.8-3.6,3.8c0,2.1,1.7,3.7,3.6,3.7C123,215.5,124.7,213.9,124.7,211.9z"/>
	<path class="st8" d="M126.9,209.7v4.4c0,0.7-0.2,0.7-1.3,0.7v0.5c0.6,0,1.4,0,1.8,0c0.4,0,1.3,0,1.8,0v-0.5c-1.1,0-1.3,0-1.3-0.7
		v-3c0-1.7,1.2-2.6,2.2-2.6c1,0,1.2,0.9,1.2,1.8v3.8c0,0.7-0.2,0.7-1.3,0.7v0.5c0.6,0,1.4,0,1.8,0c0.4,0,1.3,0,1.8,0v-0.5
		c-0.8,0-1.2,0-1.3-0.5v-3.1c0-1.4,0-1.9-0.5-2.5c-0.2-0.3-0.8-0.6-1.7-0.6c-1.2,0-2,0.7-2.4,1.7v-1.7l-2.3,0.2v0.5
		C126.8,208.8,126.9,208.9,126.9,209.7"/>
	<path class="st8" d="M136,211.6h4.5c0.4,0,0.4,0,0.4-0.4c0-1.6-0.9-3.2-2.9-3.2c-1.9,0-3.4,1.7-3.4,3.7c0,2.2,1.7,3.8,3.6,3.8
		c2,0,2.7-1.8,2.7-2.1c0-0.2-0.1-0.2-0.2-0.2c-0.1,0-0.2,0.1-0.2,0.2c-0.6,1.7-2,1.7-2.2,1.7c-0.8,0-1.5-0.5-1.9-1.1
		C136,213.2,136,212.2,136,211.6 M136,211.2c0.1-2.4,1.5-2.8,2-2.8c1.7,0,1.9,2.2,1.9,2.8H136z"/>
	<path class="st8" d="M143.2,209.7v4.4c0,0.7-0.2,0.7-1.3,0.7v0.5c0.6,0,1.4,0,1.9,0c0.4,0,1.3,0,1.8,0v-0.5c-1.1,0-1.3,0-1.3-0.7
		v-3c0-1.7,1.2-2.6,2.2-2.6c1,0,1.2,0.9,1.2,1.8v3.8c0,0.7-0.2,0.7-1.3,0.7v0.5c0.6,0,1.4,0,1.9,0c0.4,0,1.3,0,1.8,0v-0.5
		c-0.8,0-1.3,0-1.3-0.5v-3.1c0-1.4,0-1.9-0.5-2.5c-0.2-0.3-0.8-0.6-1.7-0.6c-1.2,0-2,0.7-2.4,1.7v-1.7l-2.3,0.2v0.5
		C143.1,208.8,143.2,208.9,143.2,209.7"/>
	<path class="st8" d="M152.8,208.8h2.3v-0.5h-2.3v-3h-0.4c0,1.3-0.5,3.1-2.1,3.1v0.4h1.4v4.5c0,2,1.5,2.2,2.1,2.2
		c1.2,0,1.6-1.2,1.6-2.2v-0.9H155v0.9c0,1.2-0.5,1.8-1.1,1.8c-1.1,0-1.1-1.5-1.1-1.8V208.8"/>
	<path class="st8" d="M164.6,215.2c-1,0-1.1-1.2-1.1-1.5c0-0.8,0.5-2.6,0.8-3.3c0.5-1.2,1.4-1.9,2-1.9c1.1,0,1.3,1.3,1.3,1.4
		c0,0.1-0.9,3.7-0.9,3.7C166.4,214.1,165.5,215.2,164.6,215.2 M169.1,208.3c0-0.1,0-0.2-0.2-0.2c-0.2,0-0.8,0.6-1.1,1.1
		c-0.4-0.9-1-1.1-1.5-1.1c-1.9,0-3.9,2.4-3.9,4.8c0,1.6,1,2.6,2.2,2.6c0.7,0,1.3-0.4,1.9-1c-0.1,0.6-0.7,2.8-0.7,2.9
		c-0.1,0.4-0.3,0.5-1.2,0.5c-0.2,0-0.4,0-0.4,0.3c0,0,0,0.2,0.2,0.2c0.5,0,1.1,0,1.6,0c0.6,0,1.1,0,1.7,0c0.1,0,0.3,0,0.3-0.3
		c0-0.2-0.2-0.2-0.4-0.2c-0.8,0-0.8-0.1-0.8-0.3c0-0.1,0-0.2,0.1-0.4L169.1,208.3z"/>
	<path class="st8" d="M172.9,204.1c0.1-0.2,0.1-0.3,0.1-0.4c0-0.4-0.3-0.6-0.7-0.6c-0.4,0-0.6,0.4-0.6,0.5l-1.5,4.9
		c0,0-0.1,0.2-0.1,0.2c0,0.1,0.4,0.3,0.4,0.3c0.1,0,0.1,0,0.2-0.2L172.9,204.1"/>
	<path class="st8" d="M189.9,213.2c0.2,0,0.5,0,0.5-0.3s-0.3-0.3-0.6-0.3h-9.7c-0.2,0-0.6,0-0.6,0.3s0.3,0.3,0.5,0.3H189.9
		 M189.9,210c0.2,0,0.6,0,0.6-0.3s-0.3-0.3-0.5-0.3h-9.8c-0.2,0-0.5,0-0.5,0.3s0.3,0.3,0.6,0.3H189.9z"/>
	<path class="st8" d="M198,214.1l1.7-1.7c2.5-2.3,3.5-3.1,3.5-4.8c0-1.9-1.5-3.2-3.5-3.2c-1.8,0-3,1.5-3,3c0,0.9,0.8,0.9,0.9,0.9
		c0.3,0,0.8-0.2,0.8-0.9c0-0.4-0.3-0.8-0.9-0.8c-0.1,0-0.2,0-0.2,0c0.4-1.1,1.3-1.7,2.2-1.7c1.5,0,2.2,1.3,2.2,2.7
		c0,1.3-0.8,2.6-1.7,3.6l-3.1,3.5c-0.2,0.2-0.2,0.2-0.2,0.6h6.1l0.4-2.8h-0.4c-0.1,0.5-0.2,1.2-0.4,1.5c-0.1,0.1-1.2,0.1-1.5,0.1
		H198"/>
</g>
<g>
	<defs>
		<rect id="SVGID_9_" x="303.3" y="188.7" width="124.5" height="15.9"/>
	</defs>
	<clipPath id="SVGID_10_">
		<use xlink:href="#SVGID_9_"  style="overflow:visible;"/>
	</clipPath>
	<path class="st9" d="M304.7,197.6c0-2.7,1.3-3.3,2.2-3.3c0.1,0,1.2,0,1.7,0.6c-0.7,0-0.8,0.5-0.8,0.7c0,0.4,0.3,0.8,0.8,0.8
		c0.4,0,0.8-0.3,0.8-0.8c0-1.1-1.2-1.7-2.5-1.7c-2,0-3.5,1.8-3.5,3.8c0,2.1,1.6,3.7,3.5,3.7c2.2,0,2.7-2,2.7-2.1
		c0-0.2-0.2-0.2-0.2-0.2c-0.1,0-0.2,0.1-0.2,0.2c-0.5,1.5-1.5,1.7-2.1,1.7C306.1,201,304.7,200.3,304.7,197.6"/>
	<path class="st9" d="M314.1,201c-0.7,0-1.4-0.3-1.9-1.1c-0.4-0.7-0.4-1.7-0.4-2.3c0-0.6,0-1.5,0.4-2.2c0.4-0.7,1.2-1.1,1.9-1.1
		c0.7,0,1.4,0.4,1.8,1.1c0.4,0.7,0.4,1.7,0.4,2.3c0,0.6,0,1.5-0.4,2.2C315.6,200.5,314.9,201,314.1,201 M317.7,197.7
		c0-2.1-1.6-3.8-3.6-3.8c-2,0-3.6,1.8-3.6,3.8c0,2.1,1.7,3.7,3.6,3.7C316,201.4,317.7,199.8,317.7,197.7z"/>
	<path class="st9" d="M320,195.6v4.4c0,0.7-0.2,0.7-1.3,0.7v0.5c0.6,0,1.4,0,1.8,0c0.4,0,1.3,0,1.8,0v-0.5c-1.1,0-1.3,0-1.3-0.7v-3
		c0-1.7,1.2-2.6,2.2-2.6c1,0,1.2,0.9,1.2,1.8v3.8c0,0.7-0.2,0.7-1.3,0.7v0.5c0.6,0,1.4,0,1.8,0c0.4,0,1.3,0,1.8,0v-0.5
		c-1.1,0-1.3,0-1.3-0.7v-3c0-1.7,1.2-2.6,2.2-2.6c1,0,1.2,0.9,1.2,1.8v3.8c0,0.7-0.2,0.7-1.3,0.7v0.5c0.6,0,1.4,0,1.8,0
		c0.4,0,1.3,0,1.8,0v-0.5c-0.8,0-1.3,0-1.3-0.5v-3.1c0-1.4,0-1.9-0.5-2.5c-0.2-0.3-0.8-0.6-1.7-0.6c-1.4,0-2.1,1-2.4,1.6
		c-0.2-1.4-1.4-1.6-2.2-1.6c-1.2,0-2,0.7-2.4,1.7V194l-2.3,0.2v0.5C319.8,194.7,320,194.8,320,195.6"/>
	<path class="st9" d="M334.6,199.3v-3.6c0.5-0.8,1.3-1.3,2.1-1.3c1.2,0,2.2,1.4,2.2,3.3c0,2-1.1,3.3-2.3,3.3c-0.7,0-1.3-0.3-1.7-1
		C334.6,199.7,334.6,199.7,334.6,199.3 M334.6,195.1V194l-2.3,0.2v0.5c1.1,0,1.3,0.1,1.3,0.8v7.6c0,0.7-0.2,0.7-1.3,0.7v0.5
		c0.5,0,1.4,0,1.8,0c0.4,0,1.3,0,1.8,0v-0.5c-1.1,0-1.3,0-1.3-0.7v-2.9c0.1,0.3,0.8,1.1,2,1.1c1.9,0,3.6-1.6,3.6-3.7
		c0-2.1-1.6-3.7-3.4-3.7C335.6,194,334.9,194.7,334.6,195.1z"/>
	<path class="st9" d="M345.3,201c-0.7,0-1.4-0.3-1.9-1.1c-0.4-0.7-0.4-1.7-0.4-2.3c0-0.6,0-1.5,0.4-2.2c0.4-0.7,1.2-1.1,1.9-1.1
		c0.7,0,1.4,0.4,1.9,1.1c0.4,0.7,0.4,1.7,0.4,2.3c0,0.6,0,1.5-0.4,2.2C346.9,200.5,346.1,201,345.3,201 M348.9,197.7
		c0-2.1-1.6-3.8-3.6-3.8c-2,0-3.6,1.8-3.6,3.8c0,2.1,1.7,3.7,3.6,3.7C347.3,201.4,348.9,199.8,348.9,197.7z"/>
	<path class="st9" d="M351.2,195.6v4.4c0,0.7-0.2,0.7-1.3,0.7v0.5c0.6,0,1.4,0,1.8,0c0.4,0,1.3,0,1.8,0v-0.5c-1.1,0-1.3,0-1.3-0.7
		v-3c0-1.7,1.2-2.6,2.2-2.6c1,0,1.2,0.9,1.2,1.8v3.8c0,0.7-0.2,0.7-1.3,0.7v0.5c0.6,0,1.4,0,1.8,0c0.4,0,1.3,0,1.8,0v-0.5
		c-0.8,0-1.2,0-1.3-0.5v-3.1c0-1.4,0-1.9-0.5-2.5c-0.2-0.3-0.8-0.6-1.7-0.6c-1.2,0-2,0.7-2.4,1.7V194l-2.3,0.2v0.5
		C351,194.7,351.2,194.8,351.2,195.6"/>
	<path class="st9" d="M360.3,197.4h4.5c0.4,0,0.4,0,0.4-0.4c0-1.6-0.9-3.2-2.9-3.2c-1.9,0-3.4,1.7-3.4,3.7c0,2.2,1.7,3.8,3.6,3.8
		c2,0,2.7-1.8,2.7-2.1c0-0.2-0.1-0.2-0.2-0.2c-0.1,0-0.2,0.1-0.2,0.2c-0.6,1.7-2,1.7-2.2,1.7c-0.8,0-1.5-0.5-1.9-1.1
		C360.3,199.1,360.3,198,360.3,197.4 M360.3,197.1c0.1-2.4,1.5-2.8,2-2.8c1.7,0,1.9,2.2,1.9,2.8H360.3z"/>
	<path class="st9" d="M367.5,195.6v4.4c0,0.7-0.2,0.7-1.3,0.7v0.5c0.6,0,1.4,0,1.9,0c0.4,0,1.3,0,1.8,0v-0.5c-1.1,0-1.3,0-1.3-0.7
		v-3c0-1.7,1.2-2.6,2.2-2.6c1,0,1.2,0.9,1.2,1.8v3.8c0,0.7-0.2,0.7-1.3,0.7v0.5c0.6,0,1.4,0,1.9,0c0.4,0,1.3,0,1.8,0v-0.5
		c-0.8,0-1.3,0-1.3-0.5v-3.1c0-1.4,0-1.9-0.5-2.5c-0.2-0.3-0.8-0.6-1.7-0.6c-1.2,0-2,0.7-2.4,1.7V194l-2.3,0.2v0.5
		C367.4,194.7,367.5,194.8,367.5,195.6"/>
	<path class="st9" d="M377.1,194.7h2.3v-0.5h-2.3v-3h-0.4c0,1.3-0.5,3.1-2.1,3.1v0.4h1.4v4.5c0,2,1.5,2.2,2.1,2.2
		c1.2,0,1.6-1.2,1.6-2.2v-0.9h-0.4v0.9c0,1.2-0.5,1.8-1.1,1.8c-1.1,0-1.1-1.5-1.1-1.8V194.7"/>
	<path class="st9" d="M388.9,201c-1,0-1.1-1.2-1.1-1.5c0-0.8,0.5-2.6,0.8-3.3c0.5-1.2,1.4-1.9,2-1.9c1.1,0,1.3,1.3,1.3,1.4
		c0,0.1-0.9,3.7-0.9,3.7C390.7,200,389.8,201,388.9,201 M393.4,194.2c0-0.1,0-0.2-0.2-0.2c-0.2,0-0.8,0.6-1.1,1.1
		c-0.4-0.9-1-1.1-1.5-1.1c-1.9,0-3.9,2.4-3.9,4.8c0,1.6,1,2.6,2.2,2.6c0.7,0,1.3-0.4,1.9-1c-0.1,0.6-0.7,2.8-0.7,2.9
		c-0.1,0.4-0.3,0.5-1.2,0.5c-0.2,0-0.4,0-0.4,0.3c0,0,0,0.2,0.2,0.2c0.5,0,1.1,0,1.6,0c0.6,0,1.1,0,1.7,0c0.1,0,0.3,0,0.3-0.3
		c0-0.2-0.2-0.2-0.4-0.2c-0.8,0-0.8-0.1-0.8-0.3c0-0.1,0-0.2,0.1-0.4L393.4,194.2z"/>
	<path class="st9" d="M397.2,189.9c0.1-0.2,0.1-0.3,0.1-0.4c0-0.4-0.3-0.6-0.7-0.6c-0.4,0-0.6,0.4-0.6,0.5l-1.5,4.9
		c0,0-0.1,0.2-0.1,0.2c0,0.1,0.4,0.3,0.4,0.3c0.1,0,0.1,0,0.2-0.2L397.2,189.9"/>
	<path class="st9" d="M414.2,199c0.2,0,0.5,0,0.5-0.3s-0.3-0.3-0.6-0.3h-9.7c-0.2,0-0.6,0-0.6,0.3s0.3,0.3,0.5,0.3H414.2
		 M414.2,195.9c0.2,0,0.6,0,0.6-0.3s-0.3-0.3-0.5-0.3h-9.8c-0.2,0-0.5,0-0.5,0.3s0.3,0.3,0.6,0.3H414.2z"/>
	<path class="st9" d="M424.9,195.5c1.3-0.4,2.3-1.6,2.3-2.9c0-1.3-1.4-2.2-3-2.2c-1.6,0-2.9,1-2.9,2.2c0,0.5,0.4,0.9,0.8,0.9
		c0.5,0,0.8-0.4,0.8-0.8c0-0.8-0.8-0.8-1-0.8c0.5-0.8,1.6-1,2.2-1c0.7,0,1.6,0.4,1.6,1.8c0,0.2,0,1.1-0.5,1.9
		c-0.5,0.8-1.1,0.8-1.5,0.8c-0.1,0-0.5,0-0.6,0c-0.1,0-0.2,0-0.2,0.2c0,0.2,0.1,0.2,0.4,0.2h0.7c1.3,0,1.9,1.1,1.9,2.7
		c0,2.2-1.1,2.7-1.8,2.7c-0.7,0-1.9-0.3-2.5-1.2c0.6,0.1,1.1-0.3,1.1-0.9c0-0.6-0.4-0.9-0.9-0.9c-0.4,0-0.9,0.2-0.9,0.9
		c0,1.5,1.5,2.6,3.3,2.6c2,0,3.5-1.5,3.5-3.1C427.7,197.1,426.6,195.8,424.9,195.5"/>
</g>
<g>
	<defs>
		<rect id="SVGID_11_" x="451.6" y="223.4" width="15" height="10.4"/>
	</defs>
	<clipPath id="SVGID_12_">
		<use xlink:href="#SVGID_11_"  style="overflow:visible;"/>
	</clipPath>
	<path class="st10" d="M457,226.1c0.1-0.4,0.5-1.9,1.6-1.9c0.1,0,0.5,0,0.8,0.2c-0.5,0.1-0.8,0.5-0.8,0.9c0,0.3,0.2,0.6,0.6,0.6
		c0.4,0,0.9-0.3,0.9-0.9c0-0.8-1-1.1-1.5-1.1c-1,0-1.5,0.9-1.7,1.2c-0.4-1.1-1.3-1.2-1.8-1.2c-1.7,0-2.6,2.1-2.6,2.5
		c0,0.2,0.2,0.2,0.2,0.2c0.1,0,0.2,0,0.2-0.2c0.6-1.7,1.6-2.1,2.2-2.1c0.3,0,0.9,0.1,0.9,1.1c0,0.5-0.3,1.6-0.9,3.9
		c-0.3,1-0.8,1.7-1.6,1.7c-0.1,0-0.5,0-0.8-0.2c0.4-0.1,0.8-0.4,0.8-0.9c0-0.4-0.4-0.6-0.6-0.6c-0.5,0-0.9,0.4-0.9,0.9
		c0,0.7,0.8,1.1,1.5,1.1c1.1,0,1.7-1.1,1.7-1.2c0.2,0.6,0.8,1.2,1.8,1.2c1.7,0,2.6-2.1,2.6-2.5c0-0.2-0.1-0.2-0.2-0.2
		c-0.1,0-0.2,0.1-0.2,0.2c-0.5,1.7-1.7,2.1-2.2,2.1c-0.6,0-0.9-0.5-0.9-1.1c0-0.4,0.1-0.7,0.3-1.4L457,226.1"/>
	<path class="st10" d="M464.6,226.2c0-0.3,0-0.3-0.3-0.3c-0.7,0.7-1.8,0.7-2.2,0.7v0.4c0.3,0,1,0,1.6-0.3v5.8c0,0.4,0,0.5-1.1,0.5
		h-0.4v0.4c0.2,0,1.6,0,2,0c0.4,0,1.8,0,2,0v-0.4h-0.4c-1.1,0-1.1-0.1-1.1-0.5V226.2"/>
</g>
<g>
	<defs>
		<rect id="SVGID_13_" x="8.3" y="8.2" width="15.4" height="10.4"/>
	</defs>
	<clipPath id="SVGID_14_">
		<use xlink:href="#SVGID_13_"  style="overflow:visible;"/>
	</clipPath>
	<path class="st11" d="M13.7,10.9c0.1-0.4,0.5-1.9,1.6-1.9c0.1,0,0.5,0,0.8,0.2c-0.5,0.1-0.8,0.5-0.8,0.9c0,0.3,0.2,0.6,0.6,0.6
		c0.4,0,0.9-0.3,0.9-0.9c0-0.8-1-1.1-1.5-1.1c-1,0-1.5,0.9-1.7,1.2c-0.4-1.1-1.3-1.2-1.8-1.2c-1.7,0-2.6,2.1-2.6,2.5
		c0,0.2,0.2,0.2,0.2,0.2c0.1,0,0.2,0,0.2-0.2C10.2,9.4,11.3,9,11.8,9c0.3,0,0.9,0.1,0.9,1.1c0,0.5-0.3,1.6-0.9,3.9
		c-0.3,1-0.8,1.7-1.6,1.7c-0.1,0-0.5,0-0.8-0.2c0.4-0.1,0.8-0.4,0.8-0.9c0-0.4-0.4-0.6-0.6-0.6c-0.5,0-0.9,0.4-0.9,0.9
		c0,0.7,0.8,1.1,1.5,1.1c1.1,0,1.7-1.1,1.7-1.2c0.2,0.6,0.8,1.2,1.8,1.2c1.7,0,2.6-2.1,2.6-2.5c0-0.2-0.1-0.2-0.2-0.2
		c-0.1,0-0.2,0.1-0.2,0.2c-0.5,1.7-1.7,2.1-2.2,2.1c-0.6,0-0.9-0.5-0.9-1.1c0-0.4,0.1-0.7,0.3-1.4L13.7,10.9"/>
	<path class="st11" d="M23.3,16.2h-0.4c0,0.2-0.1,0.9-0.3,1c-0.1,0.1-1,0.1-1.1,0.1h-2.1c1.2-1.1,1.6-1.4,2.3-1.9
		c0.8-0.7,1.6-1.4,1.6-2.5c0-1.4-1.2-2.2-2.7-2.2c-1.4,0-2.4,1-2.4,2c0,0.6,0.5,0.6,0.6,0.6c0.3,0,0.6-0.2,0.6-0.6
		c0-0.2-0.1-0.6-0.7-0.6c0.4-0.8,1.1-1.1,1.7-1.1c1.1,0,1.7,0.9,1.7,1.8c0,1-0.7,1.8-1.1,2.2l-2.7,2.7c-0.1,0.1-0.1,0.1-0.1,0.4H23
		L23.3,16.2"/>
</g>
<ellipse id="path5274-59_21_" cx="217.4" cy="140.9" rx="4.2" ry="4.2"/>
<ellipse id="path5274-59_20_" cx="224.2" cy="118.7" rx="4.2" ry="4.2"/>
<ellipse id="path5274-59_19_" cx="213.2" cy="130.9" rx="4.2" ry="4.2"/>
<ellipse id="path5274-59_18_" cx="230" cy="111" rx="4.2" ry="4.2"/>
<ellipse id="path5274-59_17_" cx="238.6" cy="122.9" rx="4.2" ry="4.2"/>
<ellipse id="path5274-59_26_" cx="209" cy="146.6" rx="4.2" ry="4.2"/>
<ellipse id="path5274-59_25_" cx="228.4" cy="141.4" rx="4.2" ry="4.2"/>
<ellipse id="path5274-59_24_" cx="197.6" cy="126.5" rx="4.2" ry="4.2"/>
<ellipse id="path5274-59_23_" cx="222.2" cy="129.2" rx="4.2" ry="4.2"/>
<ellipse id="path5274-59_22_" cx="205.8" cy="135.5" rx="4.2" ry="4.2"/>
<ellipse id="path5274-59_29_" cx="271.2" cy="150.5" rx="4.2" ry="4.2"/>
<ellipse id="path5274-59_28_" cx="281.8" cy="150.5" rx="4.2" ry="4.2"/>
<ellipse id="path5274-59_27_" cx="292.6" cy="152.9" rx="4.2" ry="4.2"/>
<ellipse id="path5274-59_30_" cx="275.4" cy="162.5" rx="4.2" ry="4.2"/>
<ellipse id="path5274-59_31_" cx="286" cy="162.5" rx="4.2" ry="4.2"/>
<g>
	<g>
		<path class="st12" d="M103.1,73.9c4.7-1,14.2-4.6,33.2-15.5"/>
		<g>
			<polygon points="105.2,76.5 104,73.8 105.2,71 98.6,73.8 			"/>
		</g>
	</g>
</g>
<g>
	<g>
		<line class="st12" x1="290.6" y1="91.9" x2="328.6" y2="71"/>
		<g>
			<polygon points="293.7,93.3 291.4,91.4 291.1,88.4 286.6,94 			"/>
		</g>
	</g>
</g>
<g>
	<g>
		<path class="st12" d="M186.3,126.2c-14.2,1.2-58.3,7.3-77.2,38.8"/>
		<g>
			<polygon points="184,123.6 185.4,126.3 184.4,129.2 190.8,125.9 			"/>
		</g>
	</g>
</g>
<g>
	<g>
		<path class="st12" d="M203.3,180.7c-11.9,0-44.6,1.6-62.1,20.5"/>
		<g>
			<polygon points="201.2,177.9 202.4,180.7 201.1,183.5 207.8,180.8 			"/>
		</g>
	</g>
</g>
<g>
	<g>
		<path class="st12" d="M307.7,143.6c12.4,0.6,47.1,5.9,57.8,45.1"/>
		<g>
			<polygon points="309.8,146.5 308.7,143.7 309.9,140.9 303.3,143.5 			"/>
		</g>
	</g>
</g>
</svg>
