<?xml version="1.0" encoding="UTF-8" standalone="no"?>
<!-- Created with Inkscape (http://www.inkscape.org/) -->
<svg
   xmlns:dc="http://purl.org/dc/elements/1.1/"
   xmlns:cc="http://web.resource.org/cc/"
   xmlns:rdf="http://www.w3.org/1999/02/22-rdf-syntax-ns#"
   xmlns:svg="http://www.w3.org/2000/svg"
   xmlns="http://www.w3.org/2000/svg"
   xmlns:xlink="http://www.w3.org/1999/xlink"
   xmlns:sodipodi="http://sodipodi.sourceforge.net/DTD/sodipodi-0.dtd"
   xmlns:inkscape="http://www.inkscape.org/namespaces/inkscape"
   width="744.09448819"
   height="1052.3622047"
   id="svg2"
   sodipodi:version="0.32"
   inkscape:version="0.44"
   sodipodi:docbase="/home/schmu20mol/TU-Berlin/job/script/MI2/figures/svg"
   sodipodi:docname="section4_fig3.svg">
  <defs
     id="defs4">
    <marker
       inkscape:stockid="Arrow1Mstart"
       orient="auto"
       refY="0.0"
       refX="0.0"
       id="Arrow1Mstart"
       style="overflow:visible">
      <path
         id="path3814"
         d="M 0.0,0.0 L 5.0,-5.0 L -12.5,0.0 L 5.0,5.0 L 0.0,0.0 z "
         style="fill-rule:evenodd;stroke:#000000;stroke-width:1.0pt;marker-start:none"
         transform="scale(0.4) translate(10,0)" />
    </marker>
    <marker
       inkscape:stockid="Arrow1Mend"
       orient="auto"
       refY="0.0"
       refX="0.0"
       id="Arrow1Mend"
       style="overflow:visible;">
      <path
         id="path3811"
         d="M 0.0,0.0 L 5.0,-5.0 L -12.5,0.0 L 5.0,5.0 L 0.0,0.0 z "
         style="fill-rule:evenodd;stroke:#000000;stroke-width:1.0pt;marker-start:none;"
         transform="scale(0.4) rotate(180) translate(10,0)" />
    </marker>
    <marker
       inkscape:stockid="Arrow1Lend"
       orient="auto"
       refY="0.0"
       refX="0.0"
       id="Arrow1Lend"
       style="overflow:visible;">
      <path
         id="path3817"
         d="M 0.0,0.0 L 5.0,-5.0 L -12.5,0.0 L 5.0,5.0 L 0.0,0.0 z "
         style="fill-rule:evenodd;stroke:#000000;stroke-width:1.0pt;marker-start:none;"
         transform="scale(0.8) rotate(180) translate(12.5,0)" />
    </marker>
  </defs>
  <sodipodi:namedview
     id="base"
     pagecolor="#ffffff"
     bordercolor="#666666"
     borderopacity="1.0"
     gridtolerance="10000"
     guidetolerance="10"
     objecttolerance="10"
     inkscape:pageopacity="0.0"
     inkscape:pageshadow="2"
     inkscape:zoom="3.3967949"
     inkscape:cx="227.14286"
     inkscape:cy="874.13851"
     inkscape:document-units="px"
     inkscape:current-layer="layer1"
     inkscape:window-width="1398"
     inkscape:window-height="975"
     inkscape:window-x="0"
     inkscape:window-y="25" />
  <metadata
     id="metadata7">
    <rdf:RDF>
      <cc:Work
         rdf:about="">
        <dc:format>image/svg+xml</dc:format>
        <dc:type
           rdf:resource="http://purl.org/dc/dcmitype/StillImage" />
      </cc:Work>
    </rdf:RDF>
  </metadata>
  <g
     inkscape:label="Layer 1"
     inkscape:groupmode="layer"
     id="layer1">
    <path
       style="fill:none;fill-rule:evenodd;stroke:black;stroke-width:1px;stroke-linecap:butt;stroke-linejoin:miter;stroke-opacity:1;marker-mid:none;marker-end:none;marker-start:url(#Arrow1Mstart)"
       d="M 73.304397,95.283489 C 73.304397,259.85039 73.304397,259.85039 73.304397,259.85039"
       id="path1872" />
    <path
       style="fill:none;fill-rule:evenodd;stroke:black;stroke-width:1px;stroke-linecap:butt;stroke-linejoin:miter;stroke-opacity:1;marker-end:url(#Arrow1Mend)"
       d="M 62.411776,251.90172 C 320.59634,251.90172 320.59634,251.90172 320.59634,251.90172"
       id="path1874" />
    <image
       y="246.38908"
       x="323.79883"
       id="image5777"
       height="11.419024"
       width="12.560926"
       sodipodi:absref="/home/schmu20mol/TU-Berlin/job/script/MI2/figures/png/standards/x_1.png"
       xlink:href="/home/schmu20mol/TU-Berlin/job/script/MI2/figures/png/standards/x_1.png" />
    <image
       y="80.862381"
       x="66.161858"
       id="image5850"
       height="11.989975"
       width="14.84473"
       sodipodi:absref="/home/schmu20mol/TU-Berlin/job/script/MI2/figures/png/standards/x_2.png"
       xlink:href="/home/schmu20mol/TU-Berlin/job/script/MI2/figures/png/standards/x_2.png" />
    <path
       sodipodi:type="arc"
       style="opacity:1;fill:black;fill-opacity:1;stroke:black;stroke-width:1;stroke-miterlimit:4;stroke-dasharray:none;stroke-dashoffset:0;stroke-opacity:1"
       id="path4293"
       sodipodi:cx="132.62503"
       sodipodi:cy="120.45428"
       sodipodi:rx="1.9135686"
       sodipodi:ry="1.9135686"
       d="M 134.5386 120.45428 A 1.9135686 1.9135686 0 1 1  130.71146,120.45428 A 1.9135686 1.9135686 0 1 1  134.5386 120.45428 z"
       transform="matrix(2.036788,0,0,2.036788,-151.7822,-33.18144)" />
    <path
       style="fill:none;fill-rule:evenodd;stroke:black;stroke-width:1px;stroke-linecap:butt;stroke-linejoin:miter;stroke-opacity:1"
       d="M 91.851292,168.88229 L 137.48254,168.88229 L 168.39403,137.9708 L 200.04151,169.61828 L 233.60256,136.05723 L 266.72202,169.17669 L 318.53557,169.17669"
       id="path8468" />
    <path
       style="fill:none;fill-rule:evenodd;stroke:black;stroke-width:1px;stroke-linecap:butt;stroke-linejoin:miter;stroke-opacity:1"
       d="M 168.39404,137.38201 L 168.39404,95.283497"
       id="path8470" />
    <path
       style="fill:none;fill-rule:evenodd;stroke:black;stroke-width:1px;stroke-linecap:butt;stroke-linejoin:miter;stroke-opacity:1"
       d="M 233.45537,136.79321 L 233.45537,95.872291"
       id="path8472" />
    <path
       style="fill:none;fill-rule:evenodd;stroke:black;stroke-width:1.05665898px;stroke-linecap:butt;stroke-linejoin:miter;stroke-opacity:1"
       d="M 137.51087,168.61622 L 169.39609,200.50144"
       id="path8474" />
    <path
       style="fill:none;fill-rule:evenodd;stroke:black;stroke-width:1px;stroke-linecap:butt;stroke-linejoin:miter;stroke-opacity:1"
       d="M 200.18871,169.76547 L 169.71881,200.23537"
       id="path8476" />
    <path
       style="fill:none;fill-rule:evenodd;stroke:black;stroke-width:1.04405451px;stroke-linecap:butt;stroke-linejoin:miter;stroke-opacity:1"
       d="M 199.32756,168.31553 L 232.84455,202.42131"
       id="path8478" />
    <path
       style="fill:none;fill-rule:evenodd;stroke:black;stroke-width:1px;stroke-linecap:butt;stroke-linejoin:miter;stroke-opacity:1"
       d="M 266.13323,169.17668 L 233.45537,201.85455"
       id="path8480" />
    <path
       style="fill:none;fill-rule:evenodd;stroke:black;stroke-width:1px;stroke-linecap:butt;stroke-linejoin:miter;stroke-opacity:1"
       d="M 169.27722,199.79378 L 169.27722,242.77547"
       id="path8482" />
    <path
       style="fill:none;fill-rule:evenodd;stroke:black;stroke-width:1px;stroke-linecap:butt;stroke-linejoin:miter;stroke-opacity:1"
       d="M 233.16097,202.14894 L 233.16097,240.42031"
       id="path8484" />
    <path
       sodipodi:type="arc"
       style="opacity:1;fill:black;fill-opacity:1;stroke:black;stroke-width:1;stroke-miterlimit:4;stroke-dasharray:none;stroke-dashoffset:0;stroke-opacity:1"
       id="path8486"
       sodipodi:cx="132.62503"
       sodipodi:cy="120.45428"
       sodipodi:rx="1.9135686"
       sodipodi:ry="1.9135686"
       d="M 134.5386 120.45428 A 1.9135686 1.9135686 0 1 1  130.71146,120.45428 A 1.9135686 1.9135686 0 1 1  134.5386 120.45428 z"
       transform="matrix(2.036788,0,0,2.036788,-100.3238,-76.89913)" />
    <path
       sodipodi:type="arc"
       style="opacity:1;fill:black;fill-opacity:1;stroke:black;stroke-width:1;stroke-miterlimit:4;stroke-dasharray:none;stroke-dashoffset:0;stroke-opacity:1"
       id="path8488"
       sodipodi:cx="132.62503"
       sodipodi:cy="120.45428"
       sodipodi:rx="1.9135686"
       sodipodi:ry="1.9135686"
       d="M 134.5386 120.45428 A 1.9135686 1.9135686 0 1 1  130.71146,120.45428 A 1.9135686 1.9135686 0 1 1  134.5386 120.45428 z"
       transform="matrix(2.036788,0,0,2.036788,-46.97754,-75.42715)" />
    <path
       sodipodi:type="arc"
       style="opacity:1;fill:black;fill-opacity:1;stroke:black;stroke-width:1;stroke-miterlimit:4;stroke-dasharray:none;stroke-dashoffset:0;stroke-opacity:1"
       id="path8490"
       sodipodi:cx="132.62503"
       sodipodi:cy="120.45428"
       sodipodi:rx="1.9135686"
       sodipodi:ry="1.9135686"
       d="M 134.5386 120.45428 A 1.9135686 1.9135686 0 1 1  130.71146,120.45428 A 1.9135686 1.9135686 0 1 1  134.5386 120.45428 z"
       transform="matrix(2.036788,0,0,2.036788,-71.55953,-33.18144)" />
    <path
       sodipodi:type="arc"
       style="opacity:1;fill:black;fill-opacity:1;stroke:black;stroke-width:1;stroke-miterlimit:4;stroke-dasharray:none;stroke-dashoffset:0;stroke-opacity:1"
       id="path8492"
       sodipodi:cx="132.62503"
       sodipodi:cy="120.45428"
       sodipodi:rx="1.9135686"
       sodipodi:ry="1.9135686"
       d="M 134.5386 120.45428 A 1.9135686 1.9135686 0 1 1  130.71146,120.45428 A 1.9135686 1.9135686 0 1 1  134.5386 120.45428 z"
       transform="matrix(2.036788,0,0,2.036788,-71.55953,-129.0071)" />
    <path
       sodipodi:type="arc"
       style="opacity:1;fill:black;fill-opacity:1;stroke:black;stroke-width:1;stroke-miterlimit:4;stroke-dasharray:none;stroke-dashoffset:0;stroke-opacity:1"
       id="path8494"
       sodipodi:cx="132.62503"
       sodipodi:cy="120.45428"
       sodipodi:rx="1.9135686"
       sodipodi:ry="1.9135686"
       d="M 134.5386 120.45428 A 1.9135686 1.9135686 0 1 1  130.71146,120.45428 A 1.9135686 1.9135686 0 1 1  134.5386 120.45428 z"
       transform="matrix(2.036788,0,0,2.036788,-151.7822,-129.0071)" />
    <path
       sodipodi:type="arc"
       style="opacity:1;fill:black;fill-opacity:1;stroke:black;stroke-width:1;stroke-miterlimit:4;stroke-dasharray:none;stroke-dashoffset:0;stroke-opacity:1"
       id="path8496"
       sodipodi:cx="132.62503"
       sodipodi:cy="120.45428"
       sodipodi:rx="1.9135686"
       sodipodi:ry="1.9135686"
       d="M 134.5386 120.45428 A 1.9135686 1.9135686 0 1 1  130.71146,120.45428 A 1.9135686 1.9135686 0 1 1  134.5386 120.45428 z"
       transform="matrix(2.036788,0,0,2.036788,5.277608,-129.0071)" />
    <path
       sodipodi:type="arc"
       style="opacity:1;fill:black;fill-opacity:1;stroke:black;stroke-width:1;stroke-miterlimit:4;stroke-dasharray:none;stroke-dashoffset:0;stroke-opacity:1"
       id="path8498"
       sodipodi:cx="132.62503"
       sodipodi:cy="120.45428"
       sodipodi:rx="1.9135686"
       sodipodi:ry="1.9135686"
       d="M 134.5386 120.45428 A 1.9135686 1.9135686 0 1 1  130.71146,120.45428 A 1.9135686 1.9135686 0 1 1  134.5386 120.45428 z"
       transform="matrix(2.036788,0,0,2.036788,5.277608,-33.18144)" />
    <path
       sodipodi:type="arc"
       style="opacity:1;fill:black;fill-opacity:1;stroke:black;stroke-width:1;stroke-miterlimit:4;stroke-dasharray:none;stroke-dashoffset:0;stroke-opacity:1"
       id="path4744"
       sodipodi:cx="132.62503"
       sodipodi:cy="120.45428"
       sodipodi:rx="1.9135686"
       sodipodi:ry="1.9135686"
       d="M 134.5386 120.45428 A 1.9135686 1.9135686 0 1 1  130.71146,120.45428 A 1.9135686 1.9135686 0 1 1  134.5386 120.45428 z"
       transform="translate(93.76485,59.32063)" />
    <path
       sodipodi:type="arc"
       style="opacity:1;fill:black;fill-opacity:1;stroke:black;stroke-width:1;stroke-miterlimit:4;stroke-dasharray:none;stroke-dashoffset:0;stroke-opacity:1"
       id="path8831"
       sodipodi:cx="132.62503"
       sodipodi:cy="120.45428"
       sodipodi:rx="1.9135686"
       sodipodi:ry="1.9135686"
       d="M 134.5386 120.45428 A 1.9135686 1.9135686 0 1 1  130.71146,120.45428 A 1.9135686 1.9135686 0 1 1  134.5386 120.45428 z"
       transform="translate(111.4286,43.1289)" />
    <path
       sodipodi:type="arc"
       style="opacity:1;fill:black;fill-opacity:1;stroke:black;stroke-width:1;stroke-miterlimit:4;stroke-dasharray:none;stroke-dashoffset:0;stroke-opacity:1"
       id="path8833"
       sodipodi:cx="132.62503"
       sodipodi:cy="120.45428"
       sodipodi:rx="1.9135686"
       sodipodi:ry="1.9135686"
       d="M 134.5386 120.45428 A 1.9135686 1.9135686 0 1 1  130.71146,120.45428 A 1.9135686 1.9135686 0 1 1  134.5386 120.45428 z"
       transform="translate(81.40026,53.43273)" />
    <path
       sodipodi:type="arc"
       style="opacity:1;fill:black;fill-opacity:1;stroke:black;stroke-width:1;stroke-miterlimit:4;stroke-dasharray:none;stroke-dashoffset:0;stroke-opacity:1"
       id="path8835"
       sodipodi:cx="132.62503"
       sodipodi:cy="120.45428"
       sodipodi:rx="1.9135686"
       sodipodi:ry="1.9135686"
       d="M 134.5386 120.45428 A 1.9135686 1.9135686 0 1 1  130.71146,120.45428 A 1.9135686 1.9135686 0 1 1  134.5386 120.45428 z"
       transform="translate(107.307,64.03095)" />
    <path
       sodipodi:type="arc"
       style="opacity:1;fill:black;fill-opacity:1;stroke:black;stroke-width:1;stroke-miterlimit:4;stroke-dasharray:none;stroke-dashoffset:0;stroke-opacity:1"
       id="path8837"
       sodipodi:cx="132.62503"
       sodipodi:cy="120.45428"
       sodipodi:rx="1.9135686"
       sodipodi:ry="1.9135686"
       d="M 134.5386 120.45428 A 1.9135686 1.9135686 0 1 1  130.71146,120.45428 A 1.9135686 1.9135686 0 1 1  134.5386 120.45428 z"
       transform="translate(97.0032,68.15249)" />
    <path
       sodipodi:type="arc"
       style="opacity:1;fill:black;fill-opacity:1;stroke:black;stroke-width:1;stroke-miterlimit:4;stroke-dasharray:none;stroke-dashoffset:0;stroke-opacity:1"
       id="path8839"
       sodipodi:cx="132.62503"
       sodipodi:cy="120.45428"
       sodipodi:rx="1.9135686"
       sodipodi:ry="1.9135686"
       d="M 134.5386 120.45428 A 1.9135686 1.9135686 0 1 1  130.71146,120.45428 A 1.9135686 1.9135686 0 1 1  134.5386 120.45428 z"
       transform="translate(114.3725,53.13833)" />
    <path
       sodipodi:type="arc"
       style="opacity:1;fill:black;fill-opacity:1;stroke:black;stroke-width:1;stroke-miterlimit:4;stroke-dasharray:none;stroke-dashoffset:0;stroke-opacity:1"
       id="path8841"
       sodipodi:cx="132.62503"
       sodipodi:cy="120.45428"
       sodipodi:rx="1.9135686"
       sodipodi:ry="1.9135686"
       d="M 134.5386 120.45428 A 1.9135686 1.9135686 0 1 1  130.71146,120.45428 A 1.9135686 1.9135686 0 1 1  134.5386 120.45428 z"
       transform="translate(104.3631,35.18023)" />
    <path
       sodipodi:type="arc"
       style="opacity:1;fill:black;fill-opacity:1;stroke:black;stroke-width:1;stroke-miterlimit:4;stroke-dasharray:none;stroke-dashoffset:0;stroke-opacity:1"
       id="path8843"
       sodipodi:cx="132.62503"
       sodipodi:cy="120.45428"
       sodipodi:rx="1.9135686"
       sodipodi:ry="1.9135686"
       d="M 134.5386 120.45428 A 1.9135686 1.9135686 0 1 1  130.71146,120.45428 A 1.9135686 1.9135686 0 1 1  134.5386 120.45428 z"
       transform="translate(92.29288,37.82979)" />
    <path
       sodipodi:type="arc"
       style="opacity:1;fill:black;fill-opacity:1;stroke:black;stroke-width:1;stroke-miterlimit:4;stroke-dasharray:none;stroke-dashoffset:0;stroke-opacity:1"
       id="path8845"
       sodipodi:cx="132.62503"
       sodipodi:cy="120.45428"
       sodipodi:rx="1.9135686"
       sodipodi:ry="1.9135686"
       d="M 134.5386 120.45428 A 1.9135686 1.9135686 0 1 1  130.71146,120.45428 A 1.9135686 1.9135686 0 1 1  134.5386 120.45428 z"
       transform="translate(103.4799,50.48877)" />
    <path
       sodipodi:type="arc"
       style="opacity:1;fill:black;fill-opacity:1;stroke:black;stroke-width:1;stroke-miterlimit:4;stroke-dasharray:none;stroke-dashoffset:0;stroke-opacity:1"
       id="path8847"
       sodipodi:cx="132.62503"
       sodipodi:cy="120.45428"
       sodipodi:rx="1.9135686"
       sodipodi:ry="1.9135686"
       d="M 134.5386 120.45428 A 1.9135686 1.9135686 0 1 1  130.71146,120.45428 A 1.9135686 1.9135686 0 1 1  134.5386 120.45428 z"
       transform="translate(104.3631,57.55426)" />
    <path
       sodipodi:type="arc"
       style="opacity:1;fill:black;fill-opacity:1;stroke:black;stroke-width:1;stroke-miterlimit:4;stroke-dasharray:none;stroke-dashoffset:0;stroke-opacity:1"
       id="path8849"
       sodipodi:cx="132.62503"
       sodipodi:cy="120.45428"
       sodipodi:rx="1.9135686"
       sodipodi:ry="1.9135686"
       d="M 134.5386 120.45428 A 1.9135686 1.9135686 0 1 1  130.71146,120.45428 A 1.9135686 1.9135686 0 1 1  134.5386 120.45428 z"
       transform="translate(81.98905,44.60087)" />
    <path
       sodipodi:type="arc"
       style="opacity:1;fill:black;fill-opacity:1;stroke:black;stroke-width:1;stroke-miterlimit:4;stroke-dasharray:none;stroke-dashoffset:0;stroke-opacity:1"
       id="path8851"
       sodipodi:cx="132.62503"
       sodipodi:cy="120.45428"
       sodipodi:rx="1.9135686"
       sodipodi:ry="1.9135686"
       d="M 134.5386 120.45428 A 1.9135686 1.9135686 0 1 1  130.71146,120.45428 A 1.9135686 1.9135686 0 1 1  134.5386 120.45428 z"
       transform="translate(86.69937,58.73184)" />
    <image
       y="225.89702"
       x="295.00031"
       id="image8923"
       height="11.423162"
       width="68.266991"
       sodipodi:absref="/home/schmu20mol/TU-Berlin/job/script/MI2/figures/png/standards/observations.png"
       xlink:href="/home/schmu20mol/TU-Berlin/job/script/MI2/figures/png/standards/observations.png" />
    <image
       y="90.7174"
       x="299.48798"
       id="image9011"
       height="12.783062"
       width="59.291649"
       sodipodi:absref="/home/schmu20mol/TU-Berlin/job/script/MI2/figures/png/section4_fig3_00.png"
       xlink:href="/home/schmu20mol/TU-Berlin/job/script/MI2/figures/png/section4_fig3_00.png" />
    <image
       y="185.80449"
       x="281.40131"
       id="image9054"
       height="15.230883"
       width="95.464996"
       sodipodi:absref="/home/schmu20mol/TU-Berlin/job/script/MI2/figures/png/section4_fig3_01.png"
       xlink:href="/home/schmu20mol/TU-Berlin/job/script/MI2/figures/png/section4_fig3_01.png" />
    <path
       style="fill:none;fill-rule:evenodd;stroke:black;stroke-width:1;stroke-linecap:butt;stroke-linejoin:miter;stroke-opacity:1;stroke-miterlimit:4;stroke-dasharray:1,2;stroke-dashoffset:0;marker-end:url(#Arrow1Mend)"
       d="M 323.54029,102.05459 C 317.94678,117.36313 280.85299,115.59676 280.85299,115.59676"
       id="path9057" />
    <path
       style="fill:none;fill-rule:evenodd;stroke:black;stroke-width:1;stroke-linecap:butt;stroke-linejoin:miter;stroke-opacity:1;stroke-miterlimit:4;stroke-dasharray:1,2;stroke-dashoffset:0;marker-end:url(#Arrow1Mend)"
       d="M 315.00283,188.31237 C 274.0819,187.42918 246.99754,164.76076 246.99754,164.76076"
       id="path9944" />
    <path
       style="fill:none;fill-rule:evenodd;stroke:black;stroke-width:1px;stroke-linecap:butt;stroke-linejoin:miter;stroke-opacity:1;marker-end:url(#Arrow1Mend)"
       d="M 242.58162,163.28878 C 232.86658,159.16725 226.38988,166.52713 226.38988,166.52713"
       id="path9946" />
    <path
       style="fill:none;fill-rule:evenodd;stroke:black;stroke-width:1;stroke-linecap:butt;stroke-linejoin:miter;stroke-opacity:1;stroke-miterlimit:4;stroke-dasharray:1,2;stroke-dashoffset:0;marker-end:url(#Arrow1Mend)"
       d="M 325.30666,228.35011 C 269.07718,188.01797 242.87601,185.07402 242.87601,185.07402"
       id="path10833" />
  </g>
</svg>
